<?xml version="1.0" encoding="utf-8"?>
<!-- Generator: Adobe Illustrator 25.4.1, SVG Export Plug-In . SVG Version: 6.00 Build 0)  -->
<svg version="1.1" id="レイヤー_1" xmlns="http://www.w3.org/2000/svg" xmlns:xlink="http://www.w3.org/1999/xlink" x="0px"
	 y="0px" viewBox="0 0 27 4055" style="enable-background:new 0 0 27 4055;" xml:space="preserve">
<g>
	<path d="M9,25.7c-1.8,0-5,0.1-5.4,0.1c-0.6,0-0.8-0.2-0.8-0.9V23c0-0.7,0.1-0.9,0.8-0.9c0.4,0,3.6,0.1,5.4,0.1h10.7
		c0.5,0,0.7-0.1,0.7-0.4c0-0.1,0-0.3-0.1-0.5c-0.3-0.9-0.8-2-1.1-2.8C19,18.3,19,18.1,19,18c0-0.3,0.2-0.4,0.7-0.6l1.5-0.6
		c0.2-0.1,0.4-0.1,0.6-0.1c0.3,0,0.4,0.2,0.6,0.7c0.5,1.5,1.2,3.3,1.8,4.8c0.3,0.6,0.4,1.1,0.4,1.8v0.8c0,0.7-0.1,0.9-0.8,0.9
		c-0.5,0-3.6-0.1-5.4-0.1H9V25.7z"/>
	<path d="M14,59.8c-7.2,0-11.3-5.1-11.3-11c0-6.6,5.1-10.4,10.9-10.4c6.8,0,11.2,4.6,11.2,10.9C24.7,56,19.7,59.8,14,59.8z
		 M13.5,42.1C9.4,42.1,6,44.6,6,49c0,4,2.9,7.2,7.7,7.2c4.1,0,7.4-2.5,7.4-6.9S17.9,42.1,13.5,42.1z"/>
	<path d="M9,67.3c-1.8,0-5.1,0.1-5.4,0.1c-0.6,0-0.8-0.2-0.8-0.9v-1.8c0-0.7,0.1-0.9,0.8-0.9c0.2,0,3.6,0.1,5.4,0.1h9.7
		c1.7,0,4.8-0.1,5-0.1c0.6,0,0.8,0.2,0.8,0.9v1c0,0.8-0.1,1-0.7,1.5c-1.3,0.9-2.4,1.9-3.6,2.9l-9.5,7.6c-0.2,0.2-0.3,0.3-0.3,0.4
		c0,0.2,0.2,0.2,0.5,0.2h7.6c1.8,0,5.1-0.1,5.4-0.1c0.6,0,0.8,0.2,0.8,0.9v1.8c0,0.7-0.1,0.9-0.8,0.9c-0.2,0-3.6-0.1-5.4-0.1H8.7
		c-1.7,0-4.8,0.1-5,0.1c-0.6,0-0.8-0.2-0.8-0.9v-0.6c0-0.8,0.1-1,0.7-1.5C4.8,77.9,5.9,77,7.1,76l10-8.1c0.2-0.2,0.3-0.3,0.3-0.4
		c0-0.2-0.2-0.2-0.5-0.2H9z"/>
	<path d="M9,101.3c-1.8,0-5,0.1-5.4,0.1c-0.6,0-0.8-0.2-0.8-0.9v-1.9c0-0.7,0.1-0.9,0.8-0.9c0.4,0,3.6,0.1,5.4,0.1h10.7
		c0.5,0,0.7-0.1,0.7-0.4c0-0.1,0-0.3-0.1-0.5c-0.3-0.9-0.8-2-1.1-2.8C19,93.9,19,93.7,19,93.6c0-0.3,0.2-0.4,0.7-0.6l1.5-0.6
		c0.2-0.1,0.4-0.1,0.6-0.1c0.3,0,0.4,0.2,0.6,0.7c0.5,1.5,1.2,3.3,1.8,4.8c0.3,0.6,0.4,1.1,0.4,1.8v0.8c0,0.7-0.1,0.9-0.8,0.9
		c-0.5,0-3.6-0.1-5.4-0.1L9,101.3L9,101.3z"/>
	<path d="M2.9,119.8c0-1.4-0.1-3.9-0.1-4.1c0-0.6,0.2-0.9,0.9-0.9c0.2,0,3.5,0.1,5.2,0.1h9.5c1.8,0,5.1-0.1,5.4-0.1
		c0.6,0,0.8,0.2,0.8,0.9v2c0,0.7-0.1,0.9-0.8,0.9c-0.2,0-3.6-0.1-5.4-0.1H7c-0.8,0-0.9,0.2-0.9,0.9v2.8c0,1.5,0.1,4.2,0.1,4.4
		c0,0.6-0.2,0.8-0.9,0.8H3.7c-0.7,0-0.9-0.1-0.9-0.8c0-0.2,0.1-3,0.1-4.4V119.8z"/>
	<path d="M2.9,132.5c0-0.7,0.1-0.9,0.8-0.9c0.2,0,3.6,0.1,5.4,0.1h9.4c1.8,0,5.1-0.1,5.4-0.1c0.6,0,0.8,0.2,0.8,0.9v2
		c0,0.7-0.1,0.9-0.8,0.9c-0.2,0-3.6-0.1-5.4-0.1H9c-1.8,0-5.1,0.1-5.4,0.1c-0.6,0-0.8-0.2-0.8-0.9v-2H2.9z"/>
	<path d="M8.2,152.9c-1.3-0.6-2.8-1.2-4.5-1.8c-0.7-0.3-0.9-0.4-0.9-1.2v-1.3c0-0.8,0.1-0.9,0.9-1.3c1.7-0.6,3.2-1.3,4.5-1.8
		l10.2-4.3c1.6-0.7,3.2-1.4,5.3-2.4c0.2-0.1,0.4-0.2,0.5-0.2c0.2,0,0.3,0.2,0.3,0.7v2.4c0,0.8-0.1,0.9-0.9,1.2
		c-2,0.7-3.5,1.3-4.9,1.9l-9.9,4.1c-0.2,0.1-0.4,0.2-0.4,0.3s0.1,0.2,0.4,0.3l9.9,4.1c1.5,0.6,2.9,1.2,4.9,1.9
		c0.7,0.3,0.9,0.4,0.9,1.2v2.3c0,0.5-0.1,0.7-0.3,0.7c-0.1,0-0.3-0.1-0.5-0.2c-2.1-1-3.7-1.7-5.3-2.3L8.2,152.9z"/>
	<path d="M6.1,170.3c0,1.5,0.1,4.2,0.1,4.4c0,0.6-0.2,0.8-0.9,0.8H3.7c-0.7,0-0.9-0.1-0.9-0.8c0-0.2,0.1-3,0.1-4.4v-2.4
		c0-1.4-0.1-3.9-0.1-4.1c0-0.7,0.2-0.9,1-0.9c1.7,0,3.6,0.1,5.1,0.1h9.6c1.5,0,3.5,0,5.1-0.1c0.7,0,1,0.2,1,0.9
		c0,0.2-0.1,2.6-0.1,4.1v1.7c0,1.5,0.1,4.2,0.1,4.4c0,0.6-0.2,0.8-0.9,0.8H22c-0.7,0-0.9-0.1-0.9-0.8c0-0.2,0.1-3,0.1-4.4v-2.2
		c0-0.8-0.2-0.9-0.9-0.9h-3.5c-0.8,0-0.9,0.2-0.9,0.9v1.5c0,1.4,0.1,4.2,0.1,4.4c0,0.6-0.2,0.8-0.9,0.8h-1.5c-0.7,0-0.9-0.1-0.9-0.8
		c0-0.2,0.1-3,0.1-4.4v-1.5c0-0.8-0.2-0.9-0.9-0.9H7c-0.8,0-0.9,0.2-0.9,0.9V170.3z"/>
	<path d="M9,195.7c-1.8,0-5.1,0.1-5.4,0.1c-0.6,0-0.8-0.2-0.8-0.9V193c0-0.7,0.1-0.9,0.8-0.9c0.2,0,3.6,0.1,5.4,0.1h11.3
		c0.8,0,0.9-0.2,0.9-0.9v-0.9c0-1.3-0.1-3.9-0.1-4.1c0-0.6,0.2-0.8,0.9-0.8h1.7c0.7,0,0.9,0.1,0.9,0.8c0,0.2-0.1,3-0.1,4.4v6.7
		c0,1.4,0.1,4.2,0.1,4.4c0,0.6-0.2,0.8-0.9,0.8H22c-0.7,0-0.9-0.1-0.9-0.8c0-0.2,0.1-2.8,0.1-4.1v-1c0-0.8-0.2-0.9-0.9-0.9H9V195.7z
		"/>
	<path d="M8,211.2c0-0.8-0.1-1-0.7-1.3c-1-0.4-2-0.8-3.5-1.3c-0.7-0.3-0.9-0.4-0.9-1.2v-2.1c0-0.5,0.1-0.7,0.3-0.7
		c0.1,0,0.3,0.1,0.5,0.2c2.1,0.9,3.7,1.6,5.2,2.3l10.4,4.4c1.3,0.6,2.8,1.2,4.4,1.8c0.7,0.3,0.9,0.4,0.9,1.2v1.3
		c0,0.8-0.1,0.9-0.9,1.2c-1.7,0.6-3.1,1.3-4.4,1.8L9,223.2c-1.6,0.7-3.1,1.3-5.2,2.3c-0.2,0.1-0.4,0.2-0.5,0.2
		c-0.2,0-0.3-0.2-0.3-0.7v-2.4c0-0.8,0.1-0.9,0.9-1.2c1.5-0.5,2.5-0.9,3.5-1.3c0.7-0.3,0.7-0.5,0.7-1.3L8,211.2L8,211.2z
		 M11.8,211.8c-0.2-0.1-0.4-0.1-0.5-0.1c-0.3,0-0.3,0.2-0.3,0.7v5.2c0,0.5,0.1,0.7,0.3,0.7c0.1,0,0.3,0,0.5-0.1l7-2.8
		c0.3-0.1,0.5-0.2,0.5-0.3s-0.2-0.2-0.5-0.3L11.8,211.8z"/>
	<path d="M2.9,233.8c0-1.4-0.1-3.9-0.1-4.1c0-0.6,0.2-0.9,0.9-0.9c0.2,0,3.5,0.1,5.2,0.1h9.5c1.8,0,5.1-0.1,5.4-0.1
		c0.6,0,0.8,0.2,0.8,0.9v2c0,0.7-0.1,0.9-0.8,0.9c-0.2,0-3.6-0.1-5.4-0.1H7c-0.8,0-0.9,0.2-0.9,0.9v2.8c0,1.5,0.1,4.2,0.1,4.4
		c0,0.6-0.2,0.8-0.9,0.8H3.7c-0.7,0-0.9-0.1-0.9-0.8c0-0.2,0.1-3,0.1-4.4V233.8z"/>
	<path d="M9,249c-1.8,0-5.1,0.1-5.4,0.1c-0.6,0-0.8-0.2-0.8-0.9v-1.9c0-0.7,0.1-0.9,0.8-0.9c0.2,0,3.6,0.1,5.4,0.1h9.4
		c1.8,0,5.1-0.1,5.4-0.1c0.6,0,0.8,0.2,0.8,0.9v1.9c0,0.7-0.1,0.9-0.8,0.9c-0.2,0-3.6-0.1-5.4-0.1h-2.6c-0.3,0-0.5,0.1-0.5,0.2
		c0,0.1,0.1,0.2,0.2,0.4l3.6,3.3c1.4,1.3,2.7,2.4,4.6,4.1c0.6,0.5,0.7,0.8,0.7,1.5v2.8c0,0.4-0.1,0.6-0.3,0.6
		c-0.1,0-0.2-0.1-0.4-0.2c-2.5-2.4-3.9-3.7-5.5-5.3l-1.5-1.4c-0.3-0.3-0.5-0.4-0.7-0.4c-0.2,0-0.4,0.1-0.7,0.3l-5.4,3.3
		c-1.7,1.2-3.5,2.3-6.4,4.1c-0.2,0.2-0.4,0.2-0.5,0.2c-0.2,0-0.2-0.2-0.2-0.7v-2.5c0-0.8,0.1-1,0.8-1.4c2.3-1.3,3.8-2.3,5.4-3.3
		l3.6-2.3c0.3-0.2,0.5-0.4,0.5-0.5c0-0.2-0.1-0.3-0.4-0.6l-2.1-1.9c-0.4-0.3-0.6-0.4-1.1-0.4L9,249L9,249z"/>
	<path d="M8.9,286.1c-3.9,0-6.3-3-6.3-7.7c0-2.4,0.6-4.7,1.6-6.4c0.2-0.4,0.4-0.6,0.7-0.6c0.2,0,0.3,0.1,0.6,0.2l1.6,0.8
		c0.4,0.2,0.6,0.3,0.6,0.5s-0.1,0.3-0.3,0.6c-1,1.5-1.6,3.4-1.6,5.2c0,2.3,1.1,3.8,2.8,3.8c1.8,0,2.7-2,3.8-4.5
		c1.2-3,2.7-6.1,6.4-6.1c3.8,0,6,3,6,7.7c0,2-0.5,3.9-1.1,5.3c-0.2,0.4-0.4,0.6-0.6,0.6s-0.3-0.1-0.6-0.2l-1.8-0.7
		c-0.4-0.2-0.6-0.3-0.6-0.5s0.1-0.3,0.3-0.6c0.7-1.1,1.2-2.8,1.2-4.3c0-2.4-1.1-3.6-2.5-3.6c-1.6,0-2.4,1.6-3.5,4.1
		C14.1,282.9,12.6,286.1,8.9,286.1z"/>
	<path d="M6.1,297.3c0,1.5,0.1,4.2,0.1,4.4c0,0.6-0.2,0.8-0.9,0.8H3.7c-0.7,0-0.9-0.1-0.9-0.8c0-0.2,0.1-3,0.1-4.4V295
		c0-1.4-0.1-3.9-0.1-4.1c0-0.7,0.2-0.9,1-0.9c1.7,0,3.6,0.1,5.1,0.1h9.6c1.5,0,3.5,0,5.1-0.1c0.7,0,1,0.2,1,0.9
		c0,0.2-0.1,2.6-0.1,4.1v1.7c0,1.5,0.1,4.2,0.1,4.4c0,0.6-0.2,0.8-0.9,0.8H22c-0.7,0-0.9-0.1-0.9-0.8c0-0.2,0.1-3,0.1-4.4v-2.2
		c0-0.8-0.2-0.9-0.9-0.9h-3.5c-0.8,0-0.9,0.2-0.9,0.9v1.5c0,1.4,0.1,4.2,0.1,4.4c0,0.6-0.2,0.8-0.9,0.8h-1.5c-0.7,0-0.9-0.1-0.9-0.8
		c0-0.2,0.1-3,0.1-4.4v-1.5c0-0.8-0.2-0.9-0.9-0.9H7c-0.8,0-0.9,0.2-0.9,0.9V297.3z"/>
	<path d="M9,310.4c-1.8,0-5.1,0.1-5.4,0.1c-0.6,0-0.8-0.2-0.8-0.9v-1.9c0-0.7,0.1-0.9,0.8-0.9c0.2,0,3.6,0.1,5.4,0.1h9.5
		c1.5,0,3.4,0,5.1-0.1c0.7,0,1,0.2,1,0.9c0,0.2-0.1,2.6-0.1,4.1v2.7c0,3.9-1.5,6.9-6,6.9c-2.9,0-5-1.4-6.2-3.7
		c-0.2-0.4-0.4-0.6-0.6-0.6c-0.2,0-0.3,0.1-0.6,0.3l-1.3,1c-2,1.5-3.6,2.7-6.1,4.7c-0.2,0.2-0.4,0.2-0.5,0.2c-0.2,0-0.3-0.3-0.3-0.7
		V320c0-0.8,0.1-1,0.8-1.4c2-1.3,3.5-2.4,5.1-3.6l1.7-1.2c0.6-0.5,0.7-0.7,0.7-1.5v-1c0-0.8-0.2-0.9-0.9-0.9H9z M15.1,310.4
		c-0.8,0-0.9,0.2-0.9,0.9v2c0,2.3,1,4.3,4,4.3c2.7,0,3.2-1.7,3.2-3.5v-2.8c0-0.8-0.2-0.9-0.9-0.9H15.1z"/>
	<path d="M8.2,339.3c-1.3-0.6-2.8-1.2-4.5-1.8c-0.7-0.3-0.9-0.4-0.9-1.2V335c0-0.8,0.1-0.9,0.9-1.3c1.7-0.6,3.2-1.3,4.5-1.8
		l10.2-4.3c1.6-0.7,3.2-1.4,5.3-2.4c0.2-0.1,0.4-0.2,0.5-0.2c0.2,0,0.3,0.2,0.3,0.7v2.4c0,0.8-0.1,0.9-0.9,1.2
		c-2,0.7-3.5,1.3-4.9,1.9l-9.9,4.1c-0.2,0.1-0.4,0.2-0.4,0.3c0,0.1,0.1,0.2,0.4,0.3l9.9,4.1c1.5,0.6,2.9,1.2,4.9,1.9
		c0.7,0.3,0.9,0.4,0.9,1.2v2.3c0,0.5-0.1,0.7-0.3,0.7c-0.1,0-0.3-0.1-0.5-0.2c-2.1-1-3.7-1.7-5.3-2.3L8.2,339.3z"/>
	<path d="M2.9,350.4c0-0.7,0.1-0.9,0.8-0.9c0.2,0,3.6,0.1,5.4,0.1h9.4c1.8,0,5.1-0.1,5.4-0.1c0.6,0,0.8,0.2,0.8,0.9v2
		c0,0.7-0.1,0.9-0.8,0.9c-0.2,0-3.6-0.1-5.4-0.1H9c-1.8,0-5.1,0.1-5.4,0.1c-0.6,0-0.8-0.2-0.8-0.9v-2H2.9z"/>
	<path d="M4.3,373.5c-0.3,0-0.4-0.2-0.6-0.7c-0.6-1.5-1-3.4-1-5.2c0-6.3,4.2-10.4,10.5-10.4c6.4,0,11.5,3.9,11.5,11.5
		c0,1.6-0.2,3.1-0.8,4.4c-0.2,0.5-0.3,0.7-0.6,0.7c-0.2,0-0.3-0.1-0.6-0.2l-1.8-0.7c-0.5-0.2-0.6-0.3-0.6-0.5s0.1-0.3,0.2-0.6
		c0.4-0.9,0.7-2.1,0.7-3.3c0-5.1-3.6-7.7-7.9-7.7s-7.2,2.7-7.2,7.1c0,1.3,0.3,2.6,0.8,3.5c0.2,0.3,0.2,0.5,0.2,0.6
		c0,0.2-0.2,0.4-0.6,0.6L5,373.2C4.6,373.5,4.4,373.5,4.3,373.5z"/>
	<path d="M6.1,384.8c0,1.5,0.1,4.2,0.1,4.4c0,0.6-0.2,0.8-0.9,0.8H3.7c-0.7,0-0.9-0.1-0.9-0.8c0-0.2,0.1-3,0.1-4.4v-2.4
		c0-1.4-0.1-3.9-0.1-4.1c0-0.7,0.2-0.9,1-0.9c1.7,0,3.6,0.1,5.1,0.1h9.6c1.5,0,3.5,0,5.1-0.1c0.7,0,1,0.2,1,0.9
		c0,0.2-0.1,2.6-0.1,4.1v1.7c0,1.5,0.1,4.2,0.1,4.4c0,0.6-0.2,0.8-0.9,0.8H22c-0.7,0-0.9-0.1-0.9-0.8c0-0.2,0.1-3,0.1-4.4V382
		c0-0.8-0.2-0.9-0.9-0.9h-3.5c-0.8,0-0.9,0.2-0.9,0.9v1.5c0,1.4,0.1,4.2,0.1,4.4c0,0.6-0.2,0.8-0.9,0.8h-1.5c-0.7,0-0.9-0.1-0.9-0.8
		c0-0.2,0.1-3,0.1-4.4V382c0-0.8-0.2-0.9-0.9-0.9H7c-0.8,0-0.9,0.2-0.9,0.9V384.8z"/>
</g>
<path d="M9,432.8c-1.8,0-5,0.1-5.4,0.1c-0.6,0-0.8-0.2-0.8-0.9v-1.9c0-0.7,0.1-0.9,0.8-0.9c0.4,0,3.6,0.1,5.4,0.1h10.7
	c0.5,0,0.7-0.1,0.7-0.4c0-0.1,0-0.3-0.1-0.5c-0.3-0.9-0.8-2-1.1-2.8c-0.1-0.2-0.2-0.4-0.2-0.6c0-0.3,0.2-0.4,0.7-0.6l1.5-0.6
	c0.2-0.1,0.4-0.1,0.6-0.1c0.3,0,0.4,0.2,0.6,0.7c0.5,1.5,1.2,3.3,1.8,4.8c0.3,0.6,0.4,1.1,0.4,1.8v0.8c0,0.7-0.1,0.9-0.8,0.9
	c-0.5,0-3.6-0.1-5.4-0.1H9V432.8z"/>
<path d="M14,467c-7.2,0-11.3-5.1-11.3-11c0-6.6,5.1-10.4,10.9-10.4c6.8,0,11.2,4.6,11.2,10.9C24.7,463.1,19.7,467,14,467z
	 M13.5,449.2c-4.1,0-7.5,2.5-7.5,6.9c0,4,2.9,7.2,7.7,7.2c4.1,0,7.4-2.5,7.4-6.9S17.9,449.2,13.5,449.2z"/>
<path d="M9,474.4c-1.8,0-5.1,0.1-5.4,0.1c-0.6,0-0.8-0.2-0.8-0.9v-1.8c0-0.7,0.1-0.9,0.8-0.9c0.2,0,3.6,0.1,5.4,0.1h9.7
	c1.7,0,4.8-0.1,5-0.1c0.6,0,0.8,0.2,0.8,0.9v1c0,0.8-0.1,1-0.7,1.5c-1.3,0.9-2.4,1.9-3.6,2.9l-9.5,7.6c-0.2,0.2-0.3,0.3-0.3,0.4
	c0,0.2,0.2,0.2,0.5,0.2h7.6c1.8,0,5.1-0.1,5.4-0.1c0.6,0,0.8,0.2,0.8,0.9v1.8c0,0.7-0.1,0.9-0.8,0.9c-0.2,0-3.6-0.1-5.4-0.1H8.7
	c-1.7,0-4.8,0.1-5,0.1c-0.6,0-0.8-0.2-0.8-0.9v-0.6c0-0.8,0.1-1,0.7-1.5c1.2-0.9,2.3-1.8,3.5-2.8l10-8.1c0.2-0.2,0.3-0.3,0.3-0.4
	c0-0.2-0.2-0.2-0.5-0.2H9z"/>
<path d="M9,508.4c-1.8,0-5,0.1-5.4,0.1c-0.6,0-0.8-0.2-0.8-0.9v-1.9c0-0.7,0.1-0.9,0.8-0.9c0.4,0,3.6,0.1,5.4,0.1h10.7
	c0.5,0,0.7-0.1,0.7-0.4c0-0.1,0-0.3-0.1-0.5c-0.3-0.9-0.8-2-1.1-2.8c-0.1-0.2-0.2-0.4-0.2-0.6c0-0.3,0.2-0.4,0.7-0.6l1.5-0.6
	c0.2-0.1,0.4-0.1,0.6-0.1c0.3,0,0.4,0.2,0.6,0.7c0.5,1.5,1.2,3.3,1.8,4.8c0.3,0.6,0.4,1.1,0.4,1.8v0.8c0,0.7-0.1,0.9-0.8,0.9
	c-0.5,0-3.6-0.1-5.4-0.1H9V508.4z"/>
<path d="M2.9,527c0-1.4-0.1-3.9-0.1-4.1c0-0.6,0.2-0.9,0.9-0.9c0.2,0,3.5,0.1,5.2,0.1h9.5c1.8,0,5.1-0.1,5.4-0.1
	c0.6,0,0.8,0.2,0.8,0.9v2c0,0.7-0.1,0.9-0.8,0.9c-0.2,0-3.6-0.1-5.4-0.1H7c-0.8,0-0.9,0.2-0.9,0.9v2.8c0,1.5,0.1,4.2,0.1,4.4
	c0,0.6-0.2,0.8-0.9,0.8H3.7c-0.7,0-0.9-0.1-0.9-0.8c0-0.2,0.1-3,0.1-4.4V527z"/>
<path d="M2.9,539.7c0-0.7,0.1-0.9,0.8-0.9c0.2,0,3.6,0.1,5.4,0.1h9.4c1.8,0,5.1-0.1,5.4-0.1c0.6,0,0.8,0.2,0.8,0.9v2
	c0,0.7-0.1,0.9-0.8,0.9c-0.2,0-3.6-0.1-5.4-0.1H9c-1.8,0-5.1,0.1-5.4,0.1c-0.6,0-0.8-0.2-0.8-0.9v-2H2.9z"/>
<path d="M8.2,560.1c-1.3-0.6-2.8-1.2-4.5-1.8C3,558,2.9,557.8,2.9,557v-1.3c0-0.8,0.1-0.9,0.9-1.3c1.7-0.6,3.2-1.3,4.5-1.8l10.2-4.3
	c1.6-0.7,3.2-1.4,5.3-2.4c0.2-0.1,0.4-0.2,0.5-0.2c0.2,0,0.3,0.2,0.3,0.7v2.4c0,0.8-0.1,0.9-0.9,1.2c-2,0.7-3.5,1.3-4.9,1.9L8.9,556
	c-0.2,0.1-0.4,0.2-0.4,0.3s0.1,0.2,0.4,0.3l9.9,4.1c1.5,0.6,2.9,1.2,4.9,1.9c0.7,0.3,0.9,0.4,0.9,1.2v2.3c0,0.5-0.1,0.7-0.3,0.7
	c-0.1,0-0.3-0.1-0.5-0.2c-2.1-1-3.7-1.7-5.3-2.3L8.2,560.1z"/>
<path d="M6.1,577.4c0,1.5,0.1,4.2,0.1,4.4c0,0.6-0.2,0.8-0.9,0.8H3.7c-0.7,0-0.9-0.1-0.9-0.8c0-0.2,0.1-3,0.1-4.4V575
	c0-1.4-0.1-3.9-0.1-4.1c0-0.7,0.2-0.9,1-0.9c1.7,0,3.6,0.1,5.1,0.1h9.6c1.5,0,3.5,0,5.1-0.1c0.7,0,1,0.2,1,0.9
	c0,0.2-0.1,2.6-0.1,4.1v1.7c0,1.5,0.1,4.2,0.1,4.4c0,0.6-0.2,0.8-0.9,0.8H22c-0.7,0-0.9-0.1-0.9-0.8c0-0.2,0.1-3,0.1-4.4v-2.2
	c0-0.8-0.2-0.9-0.9-0.9h-3.5c-0.8,0-0.9,0.2-0.9,0.9v1.5c0,1.4,0.1,4.2,0.1,4.4c0,0.6-0.2,0.8-0.9,0.8h-1.5c-0.7,0-0.9-0.1-0.9-0.8
	c0-0.2,0.1-3,0.1-4.4v-1.5c0-0.8-0.2-0.9-0.9-0.9H7c-0.8,0-0.9,0.2-0.9,0.9V577.4z"/>
<path d="M9,602.9c-1.8,0-5.1,0.1-5.4,0.1c-0.6,0-0.8-0.2-0.8-0.9v-1.9c0-0.7,0.1-0.9,0.8-0.9c0.2,0,3.6,0.1,5.4,0.1h11.3
	c0.8,0,0.9-0.2,0.9-0.9v-0.9c0-1.3-0.1-3.9-0.1-4.1c0-0.6,0.2-0.8,0.9-0.8h1.7c0.7,0,0.9,0.1,0.9,0.8c0,0.2-0.1,3-0.1,4.4v6.7
	c0,1.4,0.1,4.2,0.1,4.4c0,0.6-0.2,0.8-0.9,0.8H22c-0.7,0-0.9-0.1-0.9-0.8c0-0.2,0.1-2.8,0.1-4.1v-1c0-0.8-0.2-0.9-0.9-0.9L9,602.9
	L9,602.9z"/>
<path d="M8,618.4c0-0.8-0.1-1-0.7-1.3c-1-0.4-2-0.8-3.5-1.3c-0.7-0.3-0.9-0.4-0.9-1.2v-2.1c0-0.5,0.1-0.7,0.3-0.7
	c0.1,0,0.3,0.1,0.5,0.2c2.1,0.9,3.7,1.6,5.2,2.3l10.4,4.4c1.3,0.6,2.8,1.2,4.4,1.8c0.7,0.3,0.9,0.4,0.9,1.2v1.3
	c0,0.8-0.1,0.9-0.9,1.2c-1.7,0.6-3.1,1.3-4.4,1.8L9,630.4c-1.6,0.7-3.1,1.3-5.2,2.3c-0.2,0.1-0.4,0.2-0.5,0.2
	c-0.2,0-0.3-0.2-0.3-0.7v-2.4c0-0.8,0.1-0.9,0.9-1.2c1.5-0.5,2.5-0.9,3.5-1.3c0.7-0.3,0.7-0.5,0.7-1.3L8,618.4L8,618.4z M11.8,618.9
	c-0.2-0.1-0.4-0.1-0.5-0.1c-0.3,0-0.3,0.2-0.3,0.7v5.2c0,0.5,0.1,0.7,0.3,0.7c0.1,0,0.3,0,0.5-0.1l7-2.8c0.3-0.1,0.5-0.2,0.5-0.3
	s-0.2-0.2-0.5-0.3L11.8,618.9z"/>
<path d="M2.9,640.9c0-1.4-0.1-3.9-0.1-4.1c0-0.6,0.2-0.9,0.9-0.9c0.2,0,3.5,0.1,5.2,0.1h9.5c1.8,0,5.1-0.1,5.4-0.1
	c0.6,0,0.8,0.2,0.8,0.9v2c0,0.7-0.1,0.9-0.8,0.9c-0.2,0-3.6-0.1-5.4-0.1H7c-0.8,0-0.9,0.2-0.9,0.9v2.8c0,1.5,0.1,4.2,0.1,4.4
	c0,0.6-0.2,0.8-0.9,0.8H3.7c-0.7,0-0.9-0.1-0.9-0.8c0-0.2,0.1-3,0.1-4.4V640.9z"/>
<path d="M9,656.2c-1.8,0-5.1,0.1-5.4,0.1c-0.6,0-0.8-0.2-0.8-0.9v-1.9c0-0.7,0.1-0.9,0.8-0.9c0.2,0,3.6,0.1,5.4,0.1h9.4
	c1.8,0,5.1-0.1,5.4-0.1c0.6,0,0.8,0.2,0.8,0.9v1.9c0,0.7-0.1,0.9-0.8,0.9c-0.2,0-3.6-0.1-5.4-0.1h-2.6c-0.3,0-0.5,0.1-0.5,0.2
	c0,0.1,0.1,0.2,0.2,0.4l3.6,3.3c1.4,1.3,2.7,2.4,4.6,4.1c0.6,0.5,0.7,0.8,0.7,1.5v2.8c0,0.4-0.1,0.6-0.3,0.6c-0.1,0-0.2-0.1-0.4-0.2
	c-2.5-2.4-3.9-3.7-5.5-5.3l-1.5-1.4c-0.3-0.3-0.5-0.4-0.7-0.4c-0.2,0-0.4,0.1-0.7,0.3l-5.4,3.3c-1.7,1.2-3.5,2.3-6.4,4.1
	c-0.2,0.2-0.4,0.2-0.5,0.2c-0.2,0-0.2-0.2-0.2-0.7v-2.5c0-0.8,0.1-1,0.8-1.4c2.3-1.3,3.8-2.3,5.4-3.3l3.6-2.3
	c0.3-0.2,0.5-0.4,0.5-0.5c0-0.2-0.1-0.3-0.4-0.6l-2.1-1.9c-0.4-0.3-0.6-0.4-1.1-0.4H9V656.2z"/>
<path d="M8.9,693.3c-3.9,0-6.3-3-6.3-7.7c0-2.4,0.6-4.7,1.6-6.4c0.2-0.4,0.4-0.6,0.7-0.6c0.2,0,0.3,0.1,0.6,0.2l1.6,0.8
	c0.4,0.2,0.6,0.3,0.6,0.5s-0.1,0.3-0.3,0.6c-1,1.5-1.6,3.4-1.6,5.2c0,2.3,1.1,3.8,2.8,3.8c1.8,0,2.7-2,3.8-4.5
	c1.2-3,2.7-6.1,6.4-6.1c3.8,0,6,3,6,7.7c0,2-0.5,3.9-1.1,5.3c-0.2,0.4-0.4,0.6-0.6,0.6s-0.3-0.1-0.6-0.2l-1.8-0.7
	c-0.4-0.2-0.6-0.3-0.6-0.5s0.1-0.3,0.3-0.6c0.7-1.1,1.2-2.8,1.2-4.3c0-2.4-1.1-3.6-2.5-3.6c-1.6,0-2.4,1.6-3.5,4.1
	C14.1,690,12.6,693.3,8.9,693.3z"/>
<path d="M6.1,704.5c0,1.5,0.1,4.2,0.1,4.4c0,0.6-0.2,0.8-0.9,0.8H3.7c-0.7,0-0.9-0.1-0.9-0.8c0-0.2,0.1-3,0.1-4.4v-2.4
	c0-1.4-0.1-3.9-0.1-4.1c0-0.7,0.2-0.9,1-0.9c1.7,0,3.6,0.1,5.1,0.1h9.6c1.5,0,3.5,0,5.1-0.1c0.7,0,1,0.2,1,0.9
	c0,0.2-0.1,2.6-0.1,4.1v1.7c0,1.5,0.1,4.2,0.1,4.4c0,0.6-0.2,0.8-0.9,0.8H22c-0.7,0-0.9-0.1-0.9-0.8c0-0.2,0.1-3,0.1-4.4v-2.2
	c0-0.8-0.2-0.9-0.9-0.9h-3.5c-0.8,0-0.9,0.2-0.9,0.9v1.5c0,1.4,0.1,4.2,0.1,4.4c0,0.6-0.2,0.8-0.9,0.8h-1.5c-0.7,0-0.9-0.1-0.9-0.8
	c0-0.2,0.1-3,0.1-4.4v-1.5c0-0.8-0.2-0.9-0.9-0.9H7c-0.8,0-0.9,0.2-0.9,0.9V704.5z"/>
<path d="M9,717.6c-1.8,0-5.1,0.1-5.4,0.1c-0.6,0-0.8-0.2-0.8-0.9v-1.9c0-0.7,0.1-0.9,0.8-0.9c0.2,0,3.6,0.1,5.4,0.1h9.5
	c1.5,0,3.4,0,5.1-0.1c0.7,0,1,0.2,1,0.9c0,0.2-0.1,2.6-0.1,4.1v2.7c0,3.9-1.5,6.9-6,6.9c-2.9,0-5-1.4-6.2-3.7
	c-0.2-0.4-0.4-0.6-0.6-0.6c-0.2,0-0.3,0.1-0.6,0.3l-1.3,1c-2,1.5-3.6,2.7-6.1,4.7c-0.2,0.2-0.4,0.2-0.5,0.2c-0.2,0-0.3-0.3-0.3-0.7
	v-2.5c0-0.8,0.1-1,0.8-1.4c2-1.3,3.5-2.4,5.1-3.6l1.7-1.2c0.6-0.5,0.7-0.7,0.7-1.5v-1c0-0.8-0.2-0.9-0.9-0.9L9,717.6L9,717.6z
	 M15.1,717.6c-0.8,0-0.9,0.2-0.9,0.9v2c0,2.3,1,4.3,4,4.3c2.7,0,3.2-1.7,3.2-3.5v-2.8c0-0.8-0.2-0.9-0.9-0.9H15.1z"/>
<path d="M8.2,746.5c-1.3-0.6-2.8-1.2-4.5-1.8c-0.7-0.3-0.9-0.4-0.9-1.2v-1.3c0-0.8,0.1-0.9,0.9-1.3c1.7-0.6,3.2-1.3,4.5-1.8
	l10.2-4.3c1.6-0.7,3.2-1.4,5.3-2.4c0.2-0.1,0.4-0.2,0.5-0.2c0.2,0,0.3,0.2,0.3,0.7v2.4c0,0.8-0.1,0.9-0.9,1.2
	c-2,0.7-3.5,1.3-4.9,1.9l-9.9,4.1c-0.2,0.1-0.4,0.2-0.4,0.3s0.1,0.2,0.4,0.3l9.9,4.1c1.5,0.6,2.9,1.2,4.9,1.9
	c0.7,0.3,0.9,0.4,0.9,1.2v2.3c0,0.5-0.1,0.7-0.3,0.7c-0.1,0-0.3-0.1-0.5-0.2c-2.1-1-3.7-1.7-5.3-2.3L8.2,746.5z"/>
<path d="M2.9,757.5c0-0.7,0.1-0.9,0.8-0.9c0.2,0,3.6,0.1,5.4,0.1h9.4c1.8,0,5.1-0.1,5.4-0.1c0.6,0,0.8,0.2,0.8,0.9v2
	c0,0.7-0.1,0.9-0.8,0.9c-0.2,0-3.6-0.1-5.4-0.1H9c-1.8,0-5.1,0.1-5.4,0.1c-0.6,0-0.8-0.2-0.8-0.9v-2H2.9z"/>
<path d="M4.3,780.7c-0.3,0-0.4-0.2-0.6-0.7c-0.6-1.5-1-3.4-1-5.2c0-6.3,4.2-10.4,10.5-10.4c6.4,0,11.5,3.9,11.5,11.5
	c0,1.6-0.2,3.1-0.8,4.4c-0.2,0.5-0.3,0.7-0.6,0.7c-0.2,0-0.3-0.1-0.6-0.2l-1.8-0.7c-0.5-0.2-0.6-0.3-0.6-0.5s0.1-0.3,0.2-0.6
	c0.4-0.9,0.7-2.1,0.7-3.3c0-5.1-3.6-7.7-7.9-7.7s-7.2,2.7-7.2,7.1c0,1.3,0.3,2.6,0.8,3.5c0.2,0.3,0.2,0.5,0.2,0.6
	c0,0.2-0.2,0.4-0.6,0.6L5,780.4C4.6,780.6,4.4,780.7,4.3,780.7z"/>
<path d="M6.1,792c0,1.5,0.1,4.2,0.1,4.4c0,0.6-0.2,0.8-0.9,0.8H3.7c-0.7,0-0.9-0.1-0.9-0.8c0-0.2,0.1-3,0.1-4.4v-2.4
	c0-1.4-0.1-3.9-0.1-4.1c0-0.7,0.2-0.9,1-0.9c1.7,0,3.6,0.1,5.1,0.1h9.6c1.5,0,3.5,0,5.1-0.1c0.7,0,1,0.2,1,0.9
	c0,0.2-0.1,2.6-0.1,4.1v1.7c0,1.5,0.1,4.2,0.1,4.4c0,0.6-0.2,0.8-0.9,0.8H22c-0.7,0-0.9-0.1-0.9-0.8c0-0.2,0.1-3,0.1-4.4v-2.2
	c0-0.8-0.2-0.9-0.9-0.9h-3.5c-0.8,0-0.9,0.2-0.9,0.9v1.5c0,1.4,0.1,4.2,0.1,4.4c0,0.6-0.2,0.8-0.9,0.8h-1.5c-0.7,0-0.9-0.1-0.9-0.8
	c0-0.2,0.1-3,0.1-4.4v-1.5c0-0.8-0.2-0.9-0.9-0.9H7c-0.8,0-0.9,0.2-0.9,0.9V792z"/>
<path d="M9,840c-1.8,0-5,0.1-5.4,0.1c-0.6,0-0.8-0.2-0.8-0.9v-1.9c0-0.7,0.1-0.9,0.8-0.9c0.4,0,3.6,0.1,5.4,0.1h10.7
	c0.5,0,0.7-0.1,0.7-0.4c0-0.1,0-0.3-0.1-0.5c-0.3-0.9-0.8-2-1.1-2.8c-0.1-0.2-0.2-0.4-0.2-0.6c0-0.3,0.2-0.4,0.7-0.6l1.5-0.6
	c0.2-0.1,0.4-0.1,0.6-0.1c0.3,0,0.4,0.2,0.6,0.7c0.5,1.5,1.2,3.3,1.8,4.8c0.3,0.6,0.4,1.1,0.4,1.8v0.8c0,0.7-0.1,0.9-0.8,0.9
	c-0.5,0-3.6-0.1-5.4-0.1H9V840z"/>
<path d="M14,874.1c-7.2,0-11.3-5.1-11.3-11c0-6.6,5.1-10.4,10.9-10.4c6.8,0,11.2,4.6,11.2,10.9C24.7,870.3,19.7,874.1,14,874.1z
	 M13.5,856.4c-4.1,0-7.5,2.5-7.5,6.9c0,4,2.9,7.2,7.7,7.2c4.1,0,7.4-2.5,7.4-6.9C21.2,859.2,17.9,856.4,13.5,856.4z"/>
<path d="M9,881.6c-1.8,0-5.1,0.1-5.4,0.1c-0.6,0-0.8-0.2-0.8-0.9V879c0-0.7,0.1-0.9,0.8-0.9c0.2,0,3.6,0.1,5.4,0.1h9.7
	c1.7,0,4.8-0.1,5-0.1c0.6,0,0.8,0.2,0.8,0.9v1c0,0.8-0.1,1-0.7,1.5c-1.3,0.9-2.4,1.9-3.6,2.9l-9.5,7.6c-0.2,0.2-0.3,0.3-0.3,0.4
	c0,0.2,0.2,0.2,0.5,0.2h7.6c1.8,0,5.1-0.1,5.4-0.1c0.6,0,0.8,0.2,0.8,0.9v1.8c0,0.7-0.1,0.9-0.8,0.9c-0.2,0-3.6-0.1-5.4-0.1H8.7
	c-1.7,0-4.8,0.1-5,0.1c-0.6,0-0.8-0.2-0.8-0.9v-0.6c0-0.8,0.1-1,0.7-1.5c1.2-0.9,2.3-1.8,3.5-2.8l10-8.1c0.2-0.2,0.3-0.3,0.3-0.4
	c0-0.2-0.2-0.2-0.5-0.2L9,881.6L9,881.6z"/>
<path d="M9,915.6c-1.8,0-5,0.1-5.4,0.1c-0.6,0-0.8-0.2-0.8-0.9v-1.9c0-0.7,0.1-0.9,0.8-0.9c0.4,0,3.6,0.1,5.4,0.1h10.7
	c0.5,0,0.7-0.1,0.7-0.4c0-0.1,0-0.3-0.1-0.5c-0.3-0.9-0.8-2-1.1-2.8c-0.1-0.2-0.2-0.4-0.2-0.6c0-0.3,0.2-0.4,0.7-0.6l1.5-0.6
	c0.2-0.1,0.4-0.1,0.6-0.1c0.3,0,0.4,0.2,0.6,0.7c0.5,1.5,1.2,3.3,1.8,4.8c0.3,0.6,0.4,1.1,0.4,1.8v0.8c0,0.7-0.1,0.9-0.8,0.9
	c-0.5,0-3.6-0.1-5.4-0.1H9V915.6z"/>
<path d="M2.9,934.2c0-1.4-0.1-3.9-0.1-4.1c0-0.6,0.2-0.9,0.9-0.9c0.2,0,3.5,0.1,5.2,0.1h9.5c1.8,0,5.1-0.1,5.4-0.1
	c0.6,0,0.8,0.2,0.8,0.9v2c0,0.7-0.1,0.9-0.8,0.9c-0.2,0-3.6-0.1-5.4-0.1H7c-0.8,0-0.9,0.2-0.9,0.9v2.8c0,1.5,0.1,4.2,0.1,4.4
	c0,0.6-0.2,0.8-0.9,0.8H3.7c-0.7,0-0.9-0.1-0.9-0.8c0-0.2,0.1-3,0.1-4.4V934.2z"/>
<path d="M2.9,946.8c0-0.7,0.1-0.9,0.8-0.9c0.2,0,3.6,0.1,5.4,0.1h9.4c1.8,0,5.1-0.1,5.4-0.1c0.6,0,0.8,0.2,0.8,0.9v2
	c0,0.7-0.1,0.9-0.8,0.9c-0.2,0-3.6-0.1-5.4-0.1H9c-1.8,0-5.1,0.1-5.4,0.1c-0.6,0-0.8-0.2-0.8-0.9v-2H2.9z"/>
<path d="M8.2,967.2c-1.3-0.6-2.8-1.2-4.5-1.8c-0.7-0.3-0.9-0.4-0.9-1.2v-1.3c0-0.8,0.1-0.9,0.9-1.3c1.7-0.6,3.2-1.3,4.5-1.8
	l10.2-4.3c1.6-0.7,3.2-1.4,5.3-2.4c0.2-0.1,0.4-0.2,0.5-0.2c0.2,0,0.3,0.2,0.3,0.7v2.4c0,0.8-0.1,0.9-0.9,1.2
	c-2,0.7-3.5,1.3-4.9,1.9l-9.9,4.1c-0.2,0.1-0.4,0.2-0.4,0.3s0.1,0.2,0.4,0.3l9.9,4.1c1.5,0.6,2.9,1.2,4.9,1.9
	c0.7,0.3,0.9,0.4,0.9,1.2v2.3c0,0.5-0.1,0.7-0.3,0.7c-0.1,0-0.3-0.1-0.5-0.2c-2.1-1-3.7-1.7-5.3-2.3L8.2,967.2z"/>
<path d="M6.1,984.6c0,1.5,0.1,4.2,0.1,4.4c0,0.6-0.2,0.8-0.9,0.8H3.7c-0.7,0-0.9-0.1-0.9-0.8c0-0.2,0.1-3,0.1-4.4v-2.4
	c0-1.4-0.1-3.9-0.1-4.1c0-0.7,0.2-0.9,1-0.9c1.7,0,3.6,0.1,5.1,0.1h9.6c1.5,0,3.5,0,5.1-0.1c0.7,0,1,0.2,1,0.9
	c0,0.2-0.1,2.6-0.1,4.1v1.7c0,1.5,0.1,4.2,0.1,4.4c0,0.6-0.2,0.8-0.9,0.8H22c-0.7,0-0.9-0.1-0.9-0.8c0-0.2,0.1-3,0.1-4.4v-2.2
	c0-0.8-0.2-0.9-0.9-0.9h-3.5c-0.8,0-0.9,0.2-0.9,0.9v1.5c0,1.4,0.1,4.2,0.1,4.4c0,0.6-0.2,0.8-0.9,0.8h-1.5c-0.7,0-0.9-0.1-0.9-0.8
	c0-0.2,0.1-3,0.1-4.4v-1.5c0-0.8-0.2-0.9-0.9-0.9H7c-0.8,0-0.9,0.2-0.9,0.9V984.6z"/>
<path d="M9,1010c-1.8,0-5.1,0.1-5.4,0.1c-0.6,0-0.8-0.2-0.8-0.9v-1.9c0-0.7,0.1-0.9,0.8-0.9c0.2,0,3.6,0.1,5.4,0.1h11.3
	c0.8,0,0.9-0.2,0.9-0.9v-0.9c0-1.3-0.1-3.9-0.1-4.1c0-0.6,0.2-0.8,0.9-0.8h1.7c0.7,0,0.9,0.1,0.9,0.8c0,0.2-0.1,3-0.1,4.4v6.7
	c0,1.4,0.1,4.2,0.1,4.4c0,0.6-0.2,0.8-0.9,0.8H22c-0.7,0-0.9-0.1-0.9-0.8c0-0.2,0.1-2.8,0.1-4.1v-1c0-0.8-0.2-0.9-0.9-0.9L9,1010
	L9,1010z"/>
<path d="M8,1025.5c0-0.8-0.1-1-0.7-1.3c-1-0.4-2-0.8-3.5-1.3c-0.7-0.3-0.9-0.4-0.9-1.2v-2.1c0-0.5,0.1-0.7,0.3-0.7
	c0.1,0,0.3,0.1,0.5,0.2c2.1,0.9,3.7,1.6,5.2,2.3l10.4,4.4c1.3,0.6,2.8,1.2,4.4,1.8c0.7,0.3,0.9,0.4,0.9,1.2v1.3
	c0,0.8-0.1,0.9-0.9,1.2c-1.7,0.6-3.1,1.3-4.4,1.8L9,1037.5c-1.6,0.7-3.1,1.3-5.2,2.3c-0.2,0.1-0.4,0.2-0.5,0.2
	c-0.2,0-0.3-0.2-0.3-0.7v-2.4c0-0.8,0.1-0.9,0.9-1.2c1.5-0.5,2.5-0.9,3.5-1.3c0.7-0.3,0.7-0.5,0.7-1.3L8,1025.5L8,1025.5z
	 M11.8,1026.1c-0.2-0.1-0.4-0.1-0.5-0.1c-0.3,0-0.3,0.2-0.3,0.7v5.2c0,0.5,0.1,0.7,0.3,0.7c0.1,0,0.3,0,0.5-0.1l7-2.8
	c0.3-0.1,0.5-0.2,0.5-0.3c0-0.1-0.2-0.2-0.5-0.3L11.8,1026.1z"/>
<path d="M2.9,1048.1c0-1.4-0.1-3.9-0.1-4.1c0-0.6,0.2-0.9,0.9-0.9c0.2,0,3.5,0.1,5.2,0.1h9.5c1.8,0,5.1-0.1,5.4-0.1
	c0.6,0,0.8,0.2,0.8,0.9v2c0,0.7-0.1,0.9-0.8,0.9c-0.2,0-3.6-0.1-5.4-0.1H7c-0.8,0-0.9,0.2-0.9,0.9v2.8c0,1.5,0.1,4.2,0.1,4.4
	c0,0.6-0.2,0.8-0.9,0.8H3.7c-0.7,0-0.9-0.1-0.9-0.8c0-0.2,0.1-3,0.1-4.4V1048.1z"/>
<path d="M9,1063.3c-1.8,0-5.1,0.1-5.4,0.1c-0.6,0-0.8-0.2-0.8-0.9v-1.9c0-0.7,0.1-0.9,0.8-0.9c0.2,0,3.6,0.1,5.4,0.1h9.4
	c1.8,0,5.1-0.1,5.4-0.1c0.6,0,0.8,0.2,0.8,0.9v1.9c0,0.7-0.1,0.9-0.8,0.9c-0.2,0-3.6-0.1-5.4-0.1h-2.6c-0.3,0-0.5,0.1-0.5,0.2
	s0.1,0.2,0.2,0.4l3.6,3.3c1.4,1.3,2.7,2.4,4.6,4.1c0.6,0.5,0.7,0.8,0.7,1.5v2.8c0,0.4-0.1,0.6-0.3,0.6c-0.1,0-0.2-0.1-0.4-0.2
	c-2.5-2.4-3.9-3.7-5.5-5.3l-1.5-1.4c-0.3-0.3-0.5-0.4-0.7-0.4c-0.2,0-0.4,0.1-0.7,0.3l-5.4,3.3c-1.7,1.2-3.5,2.3-6.4,4.1
	c-0.2,0.2-0.4,0.2-0.5,0.2c-0.2,0-0.2-0.2-0.2-0.7v-2.5c0-0.8,0.1-1,0.8-1.4c2.3-1.3,3.8-2.3,5.4-3.3l3.6-2.3
	c0.3-0.2,0.5-0.4,0.5-0.5c0-0.2-0.1-0.3-0.4-0.6l-2.1-1.9c-0.4-0.3-0.6-0.4-1.1-0.4H9V1063.3z"/>
<path d="M8.9,1100.4c-3.9,0-6.3-3-6.3-7.7c0-2.4,0.6-4.7,1.6-6.4c0.2-0.4,0.4-0.6,0.7-0.6c0.2,0,0.3,0.1,0.6,0.2l1.6,0.8
	c0.4,0.2,0.6,0.3,0.6,0.5s-0.1,0.3-0.3,0.6c-1,1.5-1.6,3.4-1.6,5.2c0,2.3,1.1,3.8,2.8,3.8c1.8,0,2.7-2,3.8-4.5
	c1.2-3,2.7-6.1,6.4-6.1c3.8,0,6,3,6,7.7c0,2-0.5,3.9-1.1,5.3c-0.2,0.4-0.4,0.6-0.6,0.6s-0.3-0.1-0.6-0.2l-1.8-0.7
	c-0.4-0.2-0.6-0.3-0.6-0.5s0.1-0.3,0.3-0.6c0.7-1.1,1.2-2.8,1.2-4.3c0-2.4-1.1-3.6-2.5-3.6c-1.6,0-2.4,1.6-3.5,4.1
	C14.1,1097.2,12.6,1100.4,8.9,1100.4z"/>
<path d="M6.1,1111.6c0,1.5,0.1,4.2,0.1,4.4c0,0.6-0.2,0.8-0.9,0.8H3.7c-0.7,0-0.9-0.1-0.9-0.8c0-0.2,0.1-3,0.1-4.4v-2.4
	c0-1.4-0.1-3.9-0.1-4.1c0-0.7,0.2-0.9,1-0.9c1.7,0,3.6,0.1,5.1,0.1h9.6c1.5,0,3.5,0,5.1-0.1c0.7,0,1,0.2,1,0.9
	c0,0.2-0.1,2.6-0.1,4.1v1.7c0,1.5,0.1,4.2,0.1,4.4c0,0.6-0.2,0.8-0.9,0.8H22c-0.7,0-0.9-0.1-0.9-0.8c0-0.2,0.1-3,0.1-4.4v-2.2
	c0-0.8-0.2-0.9-0.9-0.9h-3.5c-0.8,0-0.9,0.2-0.9,0.9v1.5c0,1.4,0.1,4.2,0.1,4.4c0,0.6-0.2,0.8-0.9,0.8h-1.5c-0.7,0-0.9-0.1-0.9-0.8
	c0-0.2,0.1-3,0.1-4.4v-1.5c0-0.8-0.2-0.9-0.9-0.9H7c-0.8,0-0.9,0.2-0.9,0.9V1111.6z"/>
<path d="M9,1124.7c-1.8,0-5.1,0.1-5.4,0.1c-0.6,0-0.8-0.2-0.8-0.9v-1.9c0-0.7,0.1-0.9,0.8-0.9c0.2,0,3.6,0.1,5.4,0.1h9.5
	c1.5,0,3.4,0,5.1-0.1c0.7,0,1,0.2,1,0.9c0,0.2-0.1,2.6-0.1,4.1v2.7c0,3.9-1.5,6.9-6,6.9c-2.9,0-5-1.4-6.2-3.7
	c-0.2-0.4-0.4-0.6-0.6-0.6c-0.2,0-0.3,0.1-0.6,0.3l-1.3,1c-2,1.5-3.6,2.7-6.1,4.7c-0.2,0.2-0.4,0.2-0.5,0.2c-0.2,0-0.3-0.3-0.3-0.7
	v-2.5c0-0.8,0.1-1,0.8-1.4c2-1.3,3.5-2.4,5.1-3.6l1.7-1.2c0.6-0.5,0.7-0.7,0.7-1.5v-1c0-0.8-0.2-0.9-0.9-0.9L9,1124.7L9,1124.7z
	 M15.1,1124.7c-0.8,0-0.9,0.2-0.9,0.9v2c0,2.3,1,4.3,4,4.3c2.7,0,3.2-1.7,3.2-3.5v-2.8c0-0.8-0.2-0.9-0.9-0.9H15.1z"/>
<path d="M8.2,1153.7c-1.3-0.6-2.8-1.2-4.5-1.8c-0.7-0.3-0.9-0.4-0.9-1.2v-1.3c0-0.8,0.1-0.9,0.9-1.3c1.7-0.6,3.2-1.3,4.5-1.8
	l10.2-4.3c1.6-0.7,3.2-1.4,5.3-2.4c0.2-0.1,0.4-0.2,0.5-0.2c0.2,0,0.3,0.2,0.3,0.7v2.4c0,0.8-0.1,0.9-0.9,1.2
	c-2,0.7-3.5,1.3-4.9,1.9l-9.9,4.1c-0.2,0.1-0.4,0.2-0.4,0.3c0,0.1,0.1,0.2,0.4,0.3l9.9,4.1c1.5,0.6,2.9,1.2,4.9,1.9
	c0.7,0.3,0.9,0.4,0.9,1.2v2.3c0,0.5-0.1,0.7-0.3,0.7c-0.1,0-0.3-0.1-0.5-0.2c-2.1-1-3.7-1.7-5.3-2.3L8.2,1153.7z"/>
<path d="M2.9,1164.7c0-0.7,0.1-0.9,0.8-0.9c0.2,0,3.6,0.1,5.4,0.1h9.4c1.8,0,5.1-0.1,5.4-0.1c0.6,0,0.8,0.2,0.8,0.9v2
	c0,0.7-0.1,0.9-0.8,0.9c-0.2,0-3.6-0.1-5.4-0.1H9c-1.8,0-5.1,0.1-5.4,0.1c-0.6,0-0.8-0.2-0.8-0.9v-2H2.9z"/>
<path d="M4.3,1187.8c-0.3,0-0.4-0.2-0.6-0.7c-0.6-1.5-1-3.4-1-5.2c0-6.3,4.2-10.4,10.5-10.4c6.4,0,11.5,3.9,11.5,11.5
	c0,1.6-0.2,3.1-0.8,4.4c-0.2,0.5-0.3,0.7-0.6,0.7c-0.2,0-0.3-0.1-0.6-0.2l-1.8-0.7c-0.5-0.2-0.6-0.3-0.6-0.5s0.1-0.3,0.2-0.6
	c0.4-0.9,0.7-2.1,0.7-3.3c0-5.1-3.6-7.7-7.9-7.7s-7.2,2.7-7.2,7.1c0,1.3,0.3,2.6,0.8,3.5c0.2,0.3,0.2,0.5,0.2,0.6
	c0,0.2-0.2,0.4-0.6,0.6l-1.5,0.6C4.6,1187.8,4.4,1187.8,4.3,1187.8z"/>
<path d="M6.1,1199.1c0,1.5,0.1,4.2,0.1,4.4c0,0.6-0.2,0.8-0.9,0.8H3.7c-0.7,0-0.9-0.1-0.9-0.8c0-0.2,0.1-3,0.1-4.4v-2.4
	c0-1.4-0.1-3.9-0.1-4.1c0-0.7,0.2-0.9,1-0.9c1.7,0,3.6,0.1,5.1,0.1h9.6c1.5,0,3.5,0,5.1-0.1c0.7,0,1,0.2,1,0.9
	c0,0.2-0.1,2.6-0.1,4.1v1.7c0,1.5,0.1,4.2,0.1,4.4c0,0.6-0.2,0.8-0.9,0.8H22c-0.7,0-0.9-0.1-0.9-0.8c0-0.2,0.1-3,0.1-4.4v-2.2
	c0-0.8-0.2-0.9-0.9-0.9h-3.5c-0.8,0-0.9,0.2-0.9,0.9v1.5c0,1.4,0.1,4.2,0.1,4.4c0,0.6-0.2,0.8-0.9,0.8h-1.5c-0.7,0-0.9-0.1-0.9-0.8
	c0-0.2,0.1-3,0.1-4.4v-1.5c0-0.8-0.2-0.9-0.9-0.9H7c-0.8,0-0.9,0.2-0.9,0.9V1199.1z"/>
<path d="M9,1247.1c-1.8,0-5,0.1-5.4,0.1c-0.6,0-0.8-0.2-0.8-0.9v-1.9c0-0.7,0.1-0.9,0.8-0.9c0.4,0,3.6,0.1,5.4,0.1h10.7
	c0.5,0,0.7-0.1,0.7-0.4c0-0.1,0-0.3-0.1-0.5c-0.3-0.9-0.8-2-1.1-2.8c-0.1-0.2-0.2-0.4-0.2-0.6c0-0.3,0.2-0.4,0.7-0.6l1.5-0.6
	c0.2-0.1,0.4-0.1,0.6-0.1c0.3,0,0.4,0.2,0.6,0.7c0.5,1.5,1.2,3.3,1.8,4.8c0.3,0.6,0.4,1.1,0.4,1.8v0.8c0,0.7-0.1,0.9-0.8,0.9
	c-0.5,0-3.6-0.1-5.4-0.1H9V1247.1z"/>
<path d="M14,1281.3c-7.2,0-11.3-5.1-11.3-11c0-6.6,5.1-10.4,10.9-10.4c6.8,0,11.2,4.6,11.2,10.9C24.7,1277.4,19.7,1281.3,14,1281.3z
	 M13.5,1263.5c-4.1,0-7.5,2.5-7.5,6.9c0,4,2.9,7.2,7.7,7.2c4.1,0,7.4-2.5,7.4-6.9C21.2,1266.3,17.9,1263.5,13.5,1263.5z"/>
<path d="M9,1288.7c-1.8,0-5.1,0.1-5.4,0.1c-0.6,0-0.8-0.2-0.8-0.9v-1.8c0-0.7,0.1-0.9,0.8-0.9c0.2,0,3.6,0.1,5.4,0.1h9.7
	c1.7,0,4.8-0.1,5-0.1c0.6,0,0.8,0.2,0.8,0.9v1c0,0.8-0.1,1-0.7,1.5c-1.3,0.9-2.4,1.9-3.6,2.9l-9.5,7.6c-0.2,0.2-0.3,0.3-0.3,0.4
	c0,0.2,0.2,0.2,0.5,0.2h7.6c1.8,0,5.1-0.1,5.4-0.1c0.6,0,0.8,0.2,0.8,0.9v1.8c0,0.7-0.1,0.9-0.8,0.9c-0.2,0-3.6-0.1-5.4-0.1H8.7
	c-1.7,0-4.8,0.1-5,0.1c-0.6,0-0.8-0.2-0.8-0.9v-0.6c0-0.8,0.1-1,0.7-1.5c1.2-0.9,2.3-1.8,3.5-2.8l10-8.1c0.2-0.2,0.3-0.3,0.3-0.4
	c0-0.2-0.2-0.2-0.5-0.2H9z"/>
<path d="M9,1322.7c-1.8,0-5,0.1-5.4,0.1c-0.6,0-0.8-0.2-0.8-0.9v-1.9c0-0.7,0.1-0.9,0.8-0.9c0.4,0,3.6,0.1,5.4,0.1h10.7
	c0.5,0,0.7-0.1,0.7-0.4c0-0.1,0-0.3-0.1-0.5c-0.3-0.9-0.8-2-1.1-2.8c-0.1-0.2-0.2-0.4-0.2-0.6c0-0.3,0.2-0.4,0.7-0.6l1.5-0.6
	c0.2-0.1,0.4-0.1,0.6-0.1c0.3,0,0.4,0.2,0.6,0.7c0.5,1.5,1.2,3.3,1.8,4.8c0.3,0.6,0.4,1.1,0.4,1.8v0.8c0,0.7-0.1,0.9-0.8,0.9
	c-0.5,0-3.6-0.1-5.4-0.1H9V1322.7z"/>
<path d="M2.9,1341.3c0-1.4-0.1-3.9-0.1-4.1c0-0.6,0.2-0.9,0.9-0.9c0.2,0,3.5,0.1,5.2,0.1h9.5c1.8,0,5.1-0.1,5.4-0.1
	c0.6,0,0.8,0.2,0.8,0.9v2c0,0.7-0.1,0.9-0.8,0.9c-0.2,0-3.6-0.1-5.4-0.1H7c-0.8,0-0.9,0.2-0.9,0.9v2.8c0,1.5,0.1,4.2,0.1,4.4
	c0,0.6-0.2,0.8-0.9,0.8H3.7c-0.7,0-0.9-0.1-0.9-0.8c0-0.2,0.1-3,0.1-4.4V1341.3z"/>
<path d="M2.9,1354c0-0.7,0.1-0.9,0.8-0.9c0.2,0,3.6,0.1,5.4,0.1h9.4c1.8,0,5.1-0.1,5.4-0.1c0.6,0,0.8,0.2,0.8,0.9v2
	c0,0.7-0.1,0.9-0.8,0.9c-0.2,0-3.6-0.1-5.4-0.1H9c-1.8,0-5.1,0.1-5.4,0.1c-0.6,0-0.8-0.2-0.8-0.9v-2H2.9z"/>
<path d="M8.2,1374.4c-1.3-0.6-2.8-1.2-4.5-1.8c-0.7-0.3-0.9-0.4-0.9-1.2v-1.3c0-0.8,0.1-0.9,0.9-1.3c1.7-0.6,3.2-1.3,4.5-1.8
	l10.2-4.3c1.6-0.7,3.2-1.4,5.3-2.4c0.2-0.1,0.4-0.2,0.5-0.2c0.2,0,0.3,0.2,0.3,0.7v2.4c0,0.8-0.1,0.9-0.9,1.2
	c-2,0.7-3.5,1.3-4.9,1.9l-9.9,4.1c-0.2,0.1-0.4,0.2-0.4,0.3c0,0.1,0.1,0.2,0.4,0.3l9.9,4.1c1.5,0.6,2.9,1.2,4.9,1.9
	c0.7,0.3,0.9,0.4,0.9,1.2v2.3c0,0.5-0.1,0.7-0.3,0.7c-0.1,0-0.3-0.1-0.5-0.2c-2.1-1-3.7-1.7-5.3-2.3L8.2,1374.4z"/>
<path d="M6.1,1391.7c0,1.5,0.1,4.2,0.1,4.4c0,0.6-0.2,0.8-0.9,0.8H3.7c-0.7,0-0.9-0.1-0.9-0.8c0-0.2,0.1-3,0.1-4.4v-2.4
	c0-1.4-0.1-3.9-0.1-4.1c0-0.7,0.2-0.9,1-0.9c1.7,0,3.6,0.1,5.1,0.1h9.6c1.5,0,3.5,0,5.1-0.1c0.7,0,1,0.2,1,0.9
	c0,0.2-0.1,2.6-0.1,4.1v1.7c0,1.5,0.1,4.2,0.1,4.4c0,0.6-0.2,0.8-0.9,0.8H22c-0.7,0-0.9-0.1-0.9-0.8c0-0.2,0.1-3,0.1-4.4v-2.2
	c0-0.8-0.2-0.9-0.9-0.9h-3.5c-0.8,0-0.9,0.2-0.9,0.9v1.5c0,1.4,0.1,4.2,0.1,4.4c0,0.6-0.2,0.8-0.9,0.8h-1.5c-0.7,0-0.9-0.1-0.9-0.8
	c0-0.2,0.1-3,0.1-4.4v-1.5c0-0.8-0.2-0.9-0.9-0.9H7c-0.8,0-0.9,0.2-0.9,0.9V1391.7z"/>
<path d="M9,1417.2c-1.8,0-5.1,0.1-5.4,0.1c-0.6,0-0.8-0.2-0.8-0.9v-1.9c0-0.7,0.1-0.9,0.8-0.9c0.2,0,3.6,0.1,5.4,0.1h11.3
	c0.8,0,0.9-0.2,0.9-0.9v-0.9c0-1.3-0.1-3.9-0.1-4.1c0-0.6,0.2-0.8,0.9-0.8h1.7c0.7,0,0.9,0.1,0.9,0.8c0,0.2-0.1,3-0.1,4.4v6.7
	c0,1.4,0.1,4.2,0.1,4.4c0,0.6-0.2,0.8-0.9,0.8H22c-0.7,0-0.9-0.1-0.9-0.8c0-0.2,0.1-2.8,0.1-4.1v-1c0-0.8-0.2-0.9-0.9-0.9L9,1417.2
	L9,1417.2z"/>
<path d="M8,1432.7c0-0.8-0.1-1-0.7-1.3c-1-0.4-2-0.8-3.5-1.3c-0.7-0.3-0.9-0.4-0.9-1.2v-2.1c0-0.5,0.1-0.7,0.3-0.7
	c0.1,0,0.3,0.1,0.5,0.2c2.1,0.9,3.7,1.6,5.2,2.3l10.4,4.4c1.3,0.6,2.8,1.2,4.4,1.8c0.7,0.3,0.9,0.4,0.9,1.2v1.3
	c0,0.8-0.1,0.9-0.9,1.2c-1.7,0.6-3.1,1.3-4.4,1.8L9,1444.7c-1.6,0.7-3.1,1.3-5.2,2.3c-0.2,0.1-0.4,0.2-0.5,0.2
	c-0.2,0-0.3-0.2-0.3-0.7v-2.4c0-0.8,0.1-0.9,0.9-1.2c1.5-0.5,2.5-0.9,3.5-1.3c0.7-0.3,0.7-0.5,0.7-1.3L8,1432.7L8,1432.7z
	 M11.8,1433.2c-0.2-0.1-0.4-0.1-0.5-0.1c-0.3,0-0.3,0.2-0.3,0.7v5.2c0,0.5,0.1,0.7,0.3,0.7c0.1,0,0.3,0,0.5-0.1l7-2.8
	c0.3-0.1,0.5-0.2,0.5-0.3c0-0.1-0.2-0.2-0.5-0.3L11.8,1433.2z"/>
<path d="M2.9,1455.2c0-1.4-0.1-3.9-0.1-4.1c0-0.6,0.2-0.9,0.9-0.9c0.2,0,3.5,0.1,5.2,0.1h9.5c1.8,0,5.1-0.1,5.4-0.1
	c0.6,0,0.8,0.2,0.8,0.9v2c0,0.7-0.1,0.9-0.8,0.9c-0.2,0-3.6-0.1-5.4-0.1H7c-0.8,0-0.9,0.2-0.9,0.9v2.8c0,1.5,0.1,4.2,0.1,4.4
	c0,0.6-0.2,0.8-0.9,0.8H3.7c-0.7,0-0.9-0.1-0.9-0.8c0-0.2,0.1-3,0.1-4.4V1455.2z"/>
<path d="M9,1470.5c-1.8,0-5.1,0.1-5.4,0.1c-0.6,0-0.8-0.2-0.8-0.9v-1.9c0-0.7,0.1-0.9,0.8-0.9c0.2,0,3.6,0.1,5.4,0.1h9.4
	c1.8,0,5.1-0.1,5.4-0.1c0.6,0,0.8,0.2,0.8,0.9v1.9c0,0.7-0.1,0.9-0.8,0.9c-0.2,0-3.6-0.1-5.4-0.1h-2.6c-0.3,0-0.5,0.1-0.5,0.2
	s0.1,0.2,0.2,0.4l3.6,3.3c1.4,1.3,2.7,2.4,4.6,4.1c0.6,0.5,0.7,0.8,0.7,1.5v2.8c0,0.4-0.1,0.6-0.3,0.6c-0.1,0-0.2-0.1-0.4-0.2
	c-2.5-2.4-3.9-3.7-5.5-5.3l-1.5-1.4c-0.3-0.3-0.5-0.4-0.7-0.4c-0.2,0-0.4,0.1-0.7,0.3l-5.4,3.3c-1.7,1.2-3.5,2.3-6.4,4.1
	c-0.2,0.2-0.4,0.2-0.5,0.2c-0.2,0-0.2-0.2-0.2-0.7v-2.5c0-0.8,0.1-1,0.8-1.4c2.3-1.3,3.8-2.3,5.4-3.3l3.6-2.3
	c0.3-0.2,0.5-0.4,0.5-0.5c0-0.2-0.1-0.3-0.4-0.6l-2.1-1.9c-0.4-0.3-0.6-0.4-1.1-0.4H9V1470.5z"/>
<path d="M8.9,1507.6c-3.9,0-6.3-3-6.3-7.7c0-2.4,0.6-4.7,1.6-6.4c0.2-0.4,0.4-0.6,0.7-0.6c0.2,0,0.3,0.1,0.6,0.2l1.6,0.8
	c0.4,0.2,0.6,0.3,0.6,0.5s-0.1,0.3-0.3,0.6c-1,1.5-1.6,3.4-1.6,5.2c0,2.3,1.1,3.8,2.8,3.8c1.8,0,2.7-2,3.8-4.5
	c1.2-3,2.7-6.1,6.4-6.1c3.8,0,6,3,6,7.7c0,2-0.5,3.9-1.1,5.3c-0.2,0.4-0.4,0.6-0.6,0.6s-0.3-0.1-0.6-0.2l-1.8-0.7
	c-0.4-0.2-0.6-0.3-0.6-0.5s0.1-0.3,0.3-0.6c0.7-1.1,1.2-2.8,1.2-4.3c0-2.4-1.1-3.6-2.5-3.6c-1.6,0-2.4,1.6-3.5,4.1
	C14.1,1504.3,12.6,1507.6,8.9,1507.6z"/>
<path d="M6.1,1518.8c0,1.5,0.1,4.2,0.1,4.4c0,0.6-0.2,0.8-0.9,0.8H3.7c-0.7,0-0.9-0.1-0.9-0.8c0-0.2,0.1-3,0.1-4.4v-2.4
	c0-1.4-0.1-3.9-0.1-4.1c0-0.7,0.2-0.9,1-0.9c1.7,0,3.6,0.1,5.1,0.1h9.6c1.5,0,3.5,0,5.1-0.1c0.7,0,1,0.2,1,0.9
	c0,0.2-0.1,2.6-0.1,4.1v1.7c0,1.5,0.1,4.2,0.1,4.4c0,0.6-0.2,0.8-0.9,0.8H22c-0.7,0-0.9-0.1-0.9-0.8c0-0.2,0.1-3,0.1-4.4v-2.2
	c0-0.8-0.2-0.9-0.9-0.9h-3.5c-0.8,0-0.9,0.2-0.9,0.9v1.5c0,1.4,0.1,4.2,0.1,4.4c0,0.6-0.2,0.8-0.9,0.8h-1.5c-0.7,0-0.9-0.1-0.9-0.8
	c0-0.2,0.1-3,0.1-4.4v-1.5c0-0.8-0.2-0.9-0.9-0.9H7c-0.8,0-0.9,0.2-0.9,0.9V1518.8z"/>
<path d="M9,1531.9c-1.8,0-5.1,0.1-5.4,0.1c-0.6,0-0.8-0.2-0.8-0.9v-1.9c0-0.7,0.1-0.9,0.8-0.9c0.2,0,3.6,0.1,5.4,0.1h9.5
	c1.5,0,3.4,0,5.1-0.1c0.7,0,1,0.2,1,0.9c0,0.2-0.1,2.6-0.1,4.1v2.7c0,3.9-1.5,6.9-6,6.9c-2.9,0-5-1.4-6.2-3.7
	c-0.2-0.4-0.4-0.6-0.6-0.6c-0.2,0-0.3,0.1-0.6,0.3l-1.3,1c-2,1.5-3.6,2.7-6.1,4.7c-0.2,0.2-0.4,0.2-0.5,0.2c-0.2,0-0.3-0.3-0.3-0.7
	v-2.5c0-0.8,0.1-1,0.8-1.4c2-1.3,3.5-2.4,5.1-3.6l1.7-1.2c0.6-0.5,0.7-0.7,0.7-1.5v-1c0-0.8-0.2-0.9-0.9-0.9L9,1531.9L9,1531.9z
	 M15.1,1531.9c-0.8,0-0.9,0.2-0.9,0.9v2c0,2.3,1,4.3,4,4.3c2.7,0,3.2-1.7,3.2-3.5v-2.8c0-0.8-0.2-0.9-0.9-0.9H15.1z"/>
<path d="M8.2,1560.8c-1.3-0.6-2.8-1.2-4.5-1.8c-0.7-0.3-0.9-0.4-0.9-1.2v-1.3c0-0.8,0.1-0.9,0.9-1.3c1.7-0.6,3.2-1.3,4.5-1.8
	l10.2-4.3c1.6-0.7,3.2-1.4,5.3-2.4c0.2-0.1,0.4-0.2,0.5-0.2c0.2,0,0.3,0.2,0.3,0.7v2.4c0,0.8-0.1,0.9-0.9,1.2
	c-2,0.7-3.5,1.3-4.9,1.9l-9.9,4.1c-0.2,0.1-0.4,0.2-0.4,0.3c0,0.1,0.1,0.2,0.4,0.3l9.9,4.1c1.5,0.6,2.9,1.2,4.9,1.9
	c0.7,0.3,0.9,0.4,0.9,1.2v2.3c0,0.5-0.1,0.7-0.3,0.7c-0.1,0-0.3-0.1-0.5-0.2c-2.1-1-3.7-1.7-5.3-2.3L8.2,1560.8z"/>
<path d="M2.9,1571.8c0-0.7,0.1-0.9,0.8-0.9c0.2,0,3.6,0.1,5.4,0.1h9.4c1.8,0,5.1-0.1,5.4-0.1c0.6,0,0.8,0.2,0.8,0.9v2
	c0,0.7-0.1,0.9-0.8,0.9c-0.2,0-3.6-0.1-5.4-0.1H9c-1.8,0-5.1,0.1-5.4,0.1c-0.6,0-0.8-0.2-0.8-0.9v-2H2.9z"/>
<path d="M4.3,1595c-0.3,0-0.4-0.2-0.6-0.7c-0.6-1.5-1-3.4-1-5.2c0-6.3,4.2-10.4,10.5-10.4c6.4,0,11.5,3.9,11.5,11.5
	c0,1.6-0.2,3.1-0.8,4.4c-0.2,0.5-0.3,0.7-0.6,0.7c-0.2,0-0.3-0.1-0.6-0.2l-1.8-0.7c-0.5-0.2-0.6-0.3-0.6-0.5s0.1-0.3,0.2-0.6
	c0.4-0.9,0.7-2.1,0.7-3.3c0-5.1-3.6-7.7-7.9-7.7s-7.2,2.7-7.2,7.1c0,1.3,0.3,2.6,0.8,3.5c0.2,0.3,0.2,0.5,0.2,0.6
	c0,0.2-0.2,0.4-0.6,0.6l-1.5,0.6C4.6,1594.9,4.4,1595,4.3,1595z"/>
<path d="M6.1,1606.3c0,1.5,0.1,4.2,0.1,4.4c0,0.6-0.2,0.8-0.9,0.8H3.7c-0.7,0-0.9-0.1-0.9-0.8c0-0.2,0.1-3,0.1-4.4v-2.4
	c0-1.4-0.1-3.9-0.1-4.1c0-0.7,0.2-0.9,1-0.9c1.7,0,3.6,0.1,5.1,0.1h9.6c1.5,0,3.5,0,5.1-0.1c0.7,0,1,0.2,1,0.9
	c0,0.2-0.1,2.6-0.1,4.1v1.7c0,1.5,0.1,4.2,0.1,4.4c0,0.6-0.2,0.8-0.9,0.8H22c-0.7,0-0.9-0.1-0.9-0.8c0-0.2,0.1-3,0.1-4.4v-2.2
	c0-0.8-0.2-0.9-0.9-0.9h-3.5c-0.8,0-0.9,0.2-0.9,0.9v1.5c0,1.4,0.1,4.2,0.1,4.4c0,0.6-0.2,0.8-0.9,0.8h-1.5c-0.7,0-0.9-0.1-0.9-0.8
	c0-0.2,0.1-3,0.1-4.4v-1.5c0-0.8-0.2-0.9-0.9-0.9H7c-0.8,0-0.9,0.2-0.9,0.9V1606.3z"/>
<path d="M9,1654.3c-1.8,0-5,0.1-5.4,0.1c-0.6,0-0.8-0.2-0.8-0.9v-1.9c0-0.7,0.1-0.9,0.8-0.9c0.4,0,3.6,0.1,5.4,0.1h10.7
	c0.5,0,0.7-0.1,0.7-0.4c0-0.1,0-0.3-0.1-0.5c-0.3-0.9-0.8-2-1.1-2.8c-0.1-0.2-0.2-0.4-0.2-0.6c0-0.3,0.2-0.4,0.7-0.6l1.5-0.6
	c0.2-0.1,0.4-0.1,0.6-0.1c0.3,0,0.4,0.2,0.6,0.7c0.5,1.5,1.2,3.3,1.8,4.8c0.3,0.6,0.4,1.1,0.4,1.8v0.8c0,0.7-0.1,0.9-0.8,0.9
	c-0.5,0-3.6-0.1-5.4-0.1H9V1654.3z"/>
<path d="M14,1688.4c-7.2,0-11.3-5.1-11.3-11c0-6.6,5.1-10.4,10.9-10.4c6.8,0,11.2,4.6,11.2,10.9C24.7,1684.6,19.7,1688.4,14,1688.4z
	 M13.5,1670.7c-4.1,0-7.5,2.5-7.5,6.9c0,4,2.9,7.2,7.7,7.2c4.1,0,7.4-2.5,7.4-6.9C21.2,1673.5,17.9,1670.7,13.5,1670.7z"/>
<path d="M9,1695.9c-1.8,0-5.1,0.1-5.4,0.1c-0.6,0-0.8-0.2-0.8-0.9v-1.8c0-0.7,0.1-0.9,0.8-0.9c0.2,0,3.6,0.1,5.4,0.1h9.7
	c1.7,0,4.8-0.1,5-0.1c0.6,0,0.8,0.2,0.8,0.9v1c0,0.8-0.1,1-0.7,1.5c-1.3,0.9-2.4,1.9-3.6,2.9l-9.5,7.6c-0.2,0.2-0.3,0.3-0.3,0.4
	c0,0.2,0.2,0.2,0.5,0.2h7.6c1.8,0,5.1-0.1,5.4-0.1c0.6,0,0.8,0.2,0.8,0.9v1.8c0,0.7-0.1,0.9-0.8,0.9c-0.2,0-3.6-0.1-5.4-0.1H8.7
	c-1.7,0-4.8,0.1-5,0.1c-0.6,0-0.8-0.2-0.8-0.9v-0.6c0-0.8,0.1-1,0.7-1.5c1.2-0.9,2.3-1.8,3.5-2.8l10-8.1c0.2-0.2,0.3-0.3,0.3-0.4
	c0-0.2-0.2-0.2-0.5-0.2H9z"/>
<path d="M9,1729.9c-1.8,0-5,0.1-5.4,0.1c-0.6,0-0.8-0.2-0.8-0.9v-1.9c0-0.7,0.1-0.9,0.8-0.9c0.4,0,3.6,0.1,5.4,0.1h10.7
	c0.5,0,0.7-0.1,0.7-0.4c0-0.1,0-0.3-0.1-0.5c-0.3-0.9-0.8-2-1.1-2.8c-0.1-0.2-0.2-0.4-0.2-0.6c0-0.3,0.2-0.4,0.7-0.6l1.5-0.6
	c0.2-0.1,0.4-0.1,0.6-0.1c0.3,0,0.4,0.2,0.6,0.7c0.5,1.5,1.2,3.3,1.8,4.8c0.3,0.6,0.4,1.1,0.4,1.8v0.8c0,0.7-0.1,0.9-0.8,0.9
	c-0.5,0-3.6-0.1-5.4-0.1H9V1729.9z"/>
<path d="M2.9,1748.5c0-1.4-0.1-3.9-0.1-4.1c0-0.6,0.2-0.9,0.9-0.9c0.2,0,3.5,0.1,5.2,0.1h9.5c1.8,0,5.1-0.1,5.4-0.1
	c0.6,0,0.8,0.2,0.8,0.9v2c0,0.7-0.1,0.9-0.8,0.9c-0.2,0-3.6-0.1-5.4-0.1H7c-0.8,0-0.9,0.2-0.9,0.9v2.8c0,1.5,0.1,4.2,0.1,4.4
	c0,0.6-0.2,0.8-0.9,0.8H3.7c-0.7,0-0.9-0.1-0.9-0.8c0-0.2,0.1-3,0.1-4.4V1748.5z"/>
<path d="M2.9,1761.1c0-0.7,0.1-0.9,0.8-0.9c0.2,0,3.6,0.1,5.4,0.1h9.4c1.8,0,5.1-0.1,5.4-0.1c0.6,0,0.8,0.2,0.8,0.9v2
	c0,0.7-0.1,0.9-0.8,0.9c-0.2,0-3.6-0.1-5.4-0.1H9c-1.8,0-5.1,0.1-5.4,0.1c-0.6,0-0.8-0.2-0.8-0.9v-2H2.9z"/>
<path d="M8.2,1781.5c-1.3-0.6-2.8-1.2-4.5-1.8c-0.7-0.3-0.9-0.4-0.9-1.2v-1.3c0-0.8,0.1-0.9,0.9-1.3c1.7-0.6,3.2-1.3,4.5-1.8
	l10.2-4.3c1.6-0.7,3.2-1.4,5.3-2.4c0.2-0.1,0.4-0.2,0.5-0.2c0.2,0,0.3,0.2,0.3,0.7v2.4c0,0.8-0.1,0.9-0.9,1.2
	c-2,0.7-3.5,1.3-4.9,1.9l-9.9,4.1c-0.2,0.1-0.4,0.2-0.4,0.3c0,0.1,0.1,0.2,0.4,0.3l9.9,4.1c1.5,0.6,2.9,1.2,4.9,1.9
	c0.7,0.3,0.9,0.4,0.9,1.2v2.3c0,0.5-0.1,0.7-0.3,0.7c-0.1,0-0.3-0.1-0.5-0.2c-2.1-1-3.7-1.7-5.3-2.3L8.2,1781.5z"/>
<path d="M6.1,1798.9c0,1.5,0.1,4.2,0.1,4.4c0,0.6-0.2,0.8-0.9,0.8H3.7c-0.7,0-0.9-0.1-0.9-0.8c0-0.2,0.1-3,0.1-4.4v-2.4
	c0-1.4-0.1-3.9-0.1-4.1c0-0.7,0.2-0.9,1-0.9c1.7,0,3.6,0.1,5.1,0.1h9.6c1.5,0,3.5,0,5.1-0.1c0.7,0,1,0.2,1,0.9
	c0,0.2-0.1,2.6-0.1,4.1v1.7c0,1.5,0.1,4.2,0.1,4.4c0,0.6-0.2,0.8-0.9,0.8H22c-0.7,0-0.9-0.1-0.9-0.8c0-0.2,0.1-3,0.1-4.4v-2.2
	c0-0.8-0.2-0.9-0.9-0.9h-3.5c-0.8,0-0.9,0.2-0.9,0.9v1.5c0,1.4,0.1,4.2,0.1,4.4c0,0.6-0.2,0.8-0.9,0.8h-1.5c-0.7,0-0.9-0.1-0.9-0.8
	c0-0.2,0.1-3,0.1-4.4v-1.5c0-0.8-0.2-0.9-0.9-0.9H7c-0.8,0-0.9,0.2-0.9,0.9V1798.9z"/>
<path d="M9,1824.3c-1.8,0-5.1,0.1-5.4,0.1c-0.6,0-0.8-0.2-0.8-0.9v-1.9c0-0.7,0.1-0.9,0.8-0.9c0.2,0,3.6,0.1,5.4,0.1h11.3
	c0.8,0,0.9-0.2,0.9-0.9v-0.9c0-1.3-0.1-3.9-0.1-4.1c0-0.6,0.2-0.8,0.9-0.8h1.7c0.7,0,0.9,0.1,0.9,0.8c0,0.2-0.1,3-0.1,4.4v6.7
	c0,1.4,0.1,4.2,0.1,4.4c0,0.6-0.2,0.8-0.9,0.8H22c-0.7,0-0.9-0.1-0.9-0.8c0-0.2,0.1-2.8,0.1-4.1v-1c0-0.8-0.2-0.9-0.9-0.9L9,1824.3
	L9,1824.3z"/>
<path d="M8,1839.8c0-0.8-0.1-1-0.7-1.3c-1-0.4-2-0.8-3.5-1.3c-0.7-0.3-0.9-0.4-0.9-1.2v-2.1c0-0.5,0.1-0.7,0.3-0.7
	c0.1,0,0.3,0.1,0.5,0.2c2.1,0.9,3.7,1.6,5.2,2.3l10.4,4.4c1.3,0.6,2.8,1.2,4.4,1.8c0.7,0.3,0.9,0.4,0.9,1.2v1.3
	c0,0.8-0.1,0.9-0.9,1.2c-1.7,0.6-3.1,1.3-4.4,1.8L9,1851.8c-1.6,0.7-3.1,1.3-5.2,2.3c-0.2,0.1-0.4,0.2-0.5,0.2
	c-0.2,0-0.3-0.2-0.3-0.7v-2.4c0-0.8,0.1-0.9,0.9-1.2c1.5-0.5,2.5-0.9,3.5-1.3c0.7-0.3,0.7-0.5,0.7-1.3L8,1839.8L8,1839.8z
	 M11.8,1840.4c-0.2-0.1-0.4-0.1-0.5-0.1c-0.3,0-0.3,0.2-0.3,0.7v5.2c0,0.5,0.1,0.7,0.3,0.7c0.1,0,0.3,0,0.5-0.1l7-2.8
	c0.3-0.1,0.5-0.2,0.5-0.3c0-0.1-0.2-0.2-0.5-0.3L11.8,1840.4z"/>
<path d="M2.9,1862.4c0-1.4-0.1-3.9-0.1-4.1c0-0.6,0.2-0.9,0.9-0.9c0.2,0,3.5,0.1,5.2,0.1h9.5c1.8,0,5.1-0.1,5.4-0.1
	c0.6,0,0.8,0.2,0.8,0.9v2c0,0.7-0.1,0.9-0.8,0.9c-0.2,0-3.6-0.1-5.4-0.1H7c-0.8,0-0.9,0.2-0.9,0.9v2.8c0,1.5,0.1,4.2,0.1,4.4
	c0,0.6-0.2,0.8-0.9,0.8H3.7c-0.7,0-0.9-0.1-0.9-0.8c0-0.2,0.1-3,0.1-4.4V1862.4z"/>
<path d="M9,1877.6c-1.8,0-5.1,0.1-5.4,0.1c-0.6,0-0.8-0.2-0.8-0.9v-1.9c0-0.7,0.1-0.9,0.8-0.9c0.2,0,3.6,0.1,5.4,0.1h9.4
	c1.8,0,5.1-0.1,5.4-0.1c0.6,0,0.8,0.2,0.8,0.9v1.9c0,0.7-0.1,0.9-0.8,0.9c-0.2,0-3.6-0.1-5.4-0.1h-2.6c-0.3,0-0.5,0.1-0.5,0.2
	s0.1,0.2,0.2,0.4l3.6,3.3c1.4,1.3,2.7,2.4,4.6,4.1c0.6,0.5,0.7,0.8,0.7,1.5v2.8c0,0.4-0.1,0.6-0.3,0.6c-0.1,0-0.2-0.1-0.4-0.2
	c-2.5-2.4-3.9-3.7-5.5-5.3l-1.5-1.4c-0.3-0.3-0.5-0.4-0.7-0.4c-0.2,0-0.4,0.1-0.7,0.3l-5.4,3.3c-1.7,1.2-3.5,2.3-6.4,4.1
	c-0.2,0.2-0.4,0.2-0.5,0.2c-0.2,0-0.2-0.2-0.2-0.7v-2.5c0-0.8,0.1-1,0.8-1.4c2.3-1.3,3.8-2.3,5.4-3.3l3.6-2.3
	c0.3-0.2,0.5-0.4,0.5-0.5c0-0.2-0.1-0.3-0.4-0.6l-2.1-1.9c-0.4-0.3-0.6-0.4-1.1-0.4H9V1877.6z"/>
<path d="M8.9,1914.7c-3.9,0-6.3-3-6.3-7.7c0-2.4,0.6-4.7,1.6-6.4c0.2-0.4,0.4-0.6,0.7-0.6c0.2,0,0.3,0.1,0.6,0.2l1.6,0.8
	c0.4,0.2,0.6,0.3,0.6,0.5s-0.1,0.3-0.3,0.6c-1,1.5-1.6,3.4-1.6,5.2c0,2.3,1.1,3.8,2.8,3.8c1.8,0,2.7-2,3.8-4.5
	c1.2-3,2.7-6.1,6.4-6.1c3.8,0,6,3,6,7.7c0,2-0.5,3.9-1.1,5.3c-0.2,0.4-0.4,0.6-0.6,0.6s-0.3-0.1-0.6-0.2l-1.8-0.7
	c-0.4-0.2-0.6-0.3-0.6-0.5s0.1-0.3,0.3-0.6c0.7-1.1,1.2-2.8,1.2-4.3c0-2.4-1.1-3.6-2.5-3.6c-1.6,0-2.4,1.6-3.5,4.1
	C14.1,1911.5,12.6,1914.7,8.9,1914.7z"/>
<path d="M6.1,1925.9c0,1.5,0.1,4.2,0.1,4.4c0,0.6-0.2,0.8-0.9,0.8H3.7c-0.7,0-0.9-0.1-0.9-0.8c0-0.2,0.1-3,0.1-4.4v-2.4
	c0-1.4-0.1-3.9-0.1-4.1c0-0.7,0.2-0.9,1-0.9c1.7,0,3.6,0.1,5.1,0.1h9.6c1.5,0,3.5,0,5.1-0.1c0.7,0,1,0.2,1,0.9
	c0,0.2-0.1,2.6-0.1,4.1v1.7c0,1.5,0.1,4.2,0.1,4.4c0,0.6-0.2,0.8-0.9,0.8H22c-0.7,0-0.9-0.1-0.9-0.8c0-0.2,0.1-3,0.1-4.4v-2.2
	c0-0.8-0.2-0.9-0.9-0.9h-3.5c-0.8,0-0.9,0.2-0.9,0.9v1.5c0,1.4,0.1,4.2,0.1,4.4c0,0.6-0.2,0.8-0.9,0.8h-1.5c-0.7,0-0.9-0.1-0.9-0.8
	c0-0.2,0.1-3,0.1-4.4v-1.5c0-0.8-0.2-0.9-0.9-0.9H7c-0.8,0-0.9,0.2-0.9,0.9V1925.9z"/>
<path d="M9,1939c-1.8,0-5.1,0.1-5.4,0.1c-0.6,0-0.8-0.2-0.8-0.9v-1.9c0-0.7,0.1-0.9,0.8-0.9c0.2,0,3.6,0.1,5.4,0.1h9.5
	c1.5,0,3.4,0,5.1-0.1c0.7,0,1,0.2,1,0.9c0,0.2-0.1,2.6-0.1,4.1v2.7c0,3.9-1.5,6.9-6,6.9c-2.9,0-5-1.4-6.2-3.7
	c-0.2-0.4-0.4-0.6-0.6-0.6c-0.2,0-0.3,0.1-0.6,0.3l-1.3,1c-2,1.5-3.6,2.7-6.1,4.7c-0.2,0.2-0.4,0.2-0.5,0.2c-0.2,0-0.3-0.3-0.3-0.7
	v-2.5c0-0.8,0.1-1,0.8-1.4c2-1.3,3.5-2.4,5.1-3.6l1.7-1.2c0.6-0.5,0.7-0.7,0.7-1.5v-1c0-0.8-0.2-0.9-0.9-0.9L9,1939L9,1939z
	 M15.1,1939c-0.8,0-0.9,0.2-0.9,0.9v2c0,2.3,1,4.3,4,4.3c2.7,0,3.2-1.7,3.2-3.5v-2.8c0-0.8-0.2-0.9-0.9-0.9H15.1z"/>
<path d="M8.2,1968c-1.3-0.6-2.8-1.2-4.5-1.8c-0.7-0.3-0.9-0.4-0.9-1.2v-1.3c0-0.8,0.1-0.9,0.9-1.3c1.7-0.6,3.2-1.3,4.5-1.8l10.2-4.3
	c1.6-0.7,3.2-1.4,5.3-2.4c0.2-0.1,0.4-0.2,0.5-0.2c0.2,0,0.3,0.2,0.3,0.7v2.4c0,0.8-0.1,0.9-0.9,1.2c-2,0.7-3.5,1.3-4.9,1.9
	l-9.9,4.1c-0.2,0.1-0.4,0.2-0.4,0.3c0,0.1,0.1,0.2,0.4,0.3l9.9,4.1c1.5,0.6,2.9,1.2,4.9,1.9c0.7,0.3,0.9,0.4,0.9,1.2v2.3
	c0,0.5-0.1,0.7-0.3,0.7c-0.1,0-0.3-0.1-0.5-0.2c-2.1-1-3.7-1.7-5.3-2.3L8.2,1968z"/>
<path d="M2.9,1979c0-0.7,0.1-0.9,0.8-0.9c0.2,0,3.6,0.1,5.4,0.1h9.4c1.8,0,5.1-0.1,5.4-0.1c0.6,0,0.8,0.2,0.8,0.9v2
	c0,0.7-0.1,0.9-0.8,0.9c-0.2,0-3.6-0.1-5.4-0.1H9c-1.8,0-5.1,0.1-5.4,0.1c-0.6,0-0.8-0.2-0.8-0.9v-2H2.9z"/>
<path d="M4.3,2002.1c-0.3,0-0.4-0.2-0.6-0.7c-0.6-1.5-1-3.4-1-5.2c0-6.3,4.2-10.4,10.5-10.4c6.4,0,11.5,3.9,11.5,11.5
	c0,1.6-0.2,3.1-0.8,4.4c-0.2,0.5-0.3,0.7-0.6,0.7c-0.2,0-0.3-0.1-0.6-0.2l-1.8-0.7c-0.5-0.2-0.6-0.3-0.6-0.5s0.1-0.3,0.2-0.6
	c0.4-0.9,0.7-2.1,0.7-3.3c0-5.1-3.6-7.7-7.9-7.7s-7.2,2.7-7.2,7.1c0,1.3,0.3,2.6,0.8,3.5c0.2,0.3,0.2,0.5,0.2,0.6
	c0,0.2-0.2,0.4-0.6,0.6l-1.5,0.6C4.6,2002.1,4.4,2002.1,4.3,2002.1z"/>
<path d="M6.1,2013.4c0,1.5,0.1,4.2,0.1,4.4c0,0.6-0.2,0.8-0.9,0.8H3.7c-0.7,0-0.9-0.1-0.9-0.8c0-0.2,0.1-3,0.1-4.4v-2.4
	c0-1.4-0.1-3.9-0.1-4.1c0-0.7,0.2-0.9,1-0.9c1.7,0,3.6,0.1,5.1,0.1h9.6c1.5,0,3.5,0,5.1-0.1c0.7,0,1,0.2,1,0.9
	c0,0.2-0.1,2.6-0.1,4.1v1.7c0,1.5,0.1,4.2,0.1,4.4c0,0.6-0.2,0.8-0.9,0.8H22c-0.7,0-0.9-0.1-0.9-0.8c0-0.2,0.1-3,0.1-4.4v-2.2
	c0-0.8-0.2-0.9-0.9-0.9h-3.5c-0.8,0-0.9,0.2-0.9,0.9v1.5c0,1.4,0.1,4.2,0.1,4.4c0,0.6-0.2,0.8-0.9,0.8h-1.5c-0.7,0-0.9-0.1-0.9-0.8
	c0-0.2,0.1-3,0.1-4.4v-1.5c0-0.8-0.2-0.9-0.9-0.9H7c-0.8,0-0.9,0.2-0.9,0.9V2013.4z"/>
<path d="M9,2061.4c-1.8,0-5,0.1-5.4,0.1c-0.6,0-0.8-0.2-0.8-0.9v-1.9c0-0.7,0.1-0.9,0.8-0.9c0.4,0,3.6,0.1,5.4,0.1h10.7
	c0.5,0,0.7-0.1,0.7-0.4c0-0.1,0-0.3-0.1-0.5c-0.3-0.9-0.8-2-1.1-2.8c-0.1-0.2-0.2-0.4-0.2-0.6c0-0.3,0.2-0.4,0.7-0.6l1.5-0.6
	c0.2-0.1,0.4-0.1,0.6-0.1c0.3,0,0.4,0.2,0.6,0.7c0.5,1.5,1.2,3.3,1.8,4.8c0.3,0.6,0.4,1.1,0.4,1.8v0.8c0,0.7-0.1,0.9-0.8,0.9
	c-0.5,0-3.6-0.1-5.4-0.1H9V2061.4z"/>
<path d="M14,2095.6c-7.2,0-11.3-5.1-11.3-11c0-6.6,5.1-10.4,10.9-10.4c6.8,0,11.2,4.6,11.2,10.9C24.7,2091.8,19.7,2095.6,14,2095.6z
	 M13.5,2077.8c-4.1,0-7.5,2.5-7.5,6.9c0,4,2.9,7.2,7.7,7.2c4.1,0,7.4-2.5,7.4-6.9C21.2,2080.6,17.9,2077.8,13.5,2077.8z"/>
<path d="M9,2103c-1.8,0-5.1,0.1-5.4,0.1c-0.6,0-0.8-0.2-0.8-0.9v-1.8c0-0.7,0.1-0.9,0.8-0.9c0.2,0,3.6,0.1,5.4,0.1h9.7
	c1.7,0,4.8-0.1,5-0.1c0.6,0,0.8,0.2,0.8,0.9v1c0,0.8-0.1,1-0.7,1.5c-1.3,0.9-2.4,1.9-3.6,2.9l-9.5,7.6c-0.2,0.2-0.3,0.3-0.3,0.4
	c0,0.2,0.2,0.2,0.5,0.2h7.6c1.8,0,5.1-0.1,5.4-0.1c0.6,0,0.8,0.2,0.8,0.9v1.8c0,0.7-0.1,0.9-0.8,0.9c-0.2,0-3.6-0.1-5.4-0.1H8.7
	c-1.7,0-4.8,0.1-5,0.1c-0.6,0-0.8-0.2-0.8-0.9v-0.6c0-0.8,0.1-1,0.7-1.5c1.2-0.9,2.3-1.8,3.5-2.8l10-8.1c0.2-0.2,0.3-0.3,0.3-0.4
	c0-0.2-0.2-0.2-0.5-0.2L9,2103L9,2103z"/>
<path d="M9,2137c-1.8,0-5,0.1-5.4,0.1c-0.6,0-0.8-0.2-0.8-0.9v-1.9c0-0.7,0.1-0.9,0.8-0.9c0.4,0,3.6,0.1,5.4,0.1h10.7
	c0.5,0,0.7-0.1,0.7-0.4c0-0.1,0-0.3-0.1-0.5c-0.3-0.9-0.8-2-1.1-2.8c-0.1-0.2-0.2-0.4-0.2-0.6c0-0.3,0.2-0.4,0.7-0.6l1.5-0.6
	c0.2-0.1,0.4-0.1,0.6-0.1c0.3,0,0.4,0.2,0.6,0.7c0.5,1.5,1.2,3.3,1.8,4.8c0.3,0.6,0.4,1.1,0.4,1.8v0.8c0,0.7-0.1,0.9-0.8,0.9
	c-0.5,0-3.6-0.1-5.4-0.1H9V2137z"/>
<path d="M2.9,2155.6c0-1.4-0.1-3.9-0.1-4.1c0-0.6,0.2-0.9,0.9-0.9c0.2,0,3.5,0.1,5.2,0.1h9.5c1.8,0,5.1-0.1,5.4-0.1
	c0.6,0,0.8,0.2,0.8,0.9v2c0,0.7-0.1,0.9-0.8,0.9c-0.2,0-3.6-0.1-5.4-0.1H7c-0.8,0-0.9,0.2-0.9,0.9v2.8c0,1.5,0.1,4.2,0.1,4.4
	c0,0.6-0.2,0.8-0.9,0.8H3.7c-0.7,0-0.9-0.1-0.9-0.8c0-0.2,0.1-3,0.1-4.4V2155.6z"/>
<path d="M2.9,2168.3c0-0.7,0.1-0.9,0.8-0.9c0.2,0,3.6,0.1,5.4,0.1h9.4c1.8,0,5.1-0.1,5.4-0.1c0.6,0,0.8,0.2,0.8,0.9v2
	c0,0.7-0.1,0.9-0.8,0.9c-0.2,0-3.6-0.1-5.4-0.1H9c-1.8,0-5.1,0.1-5.4,0.1c-0.6,0-0.8-0.2-0.8-0.9v-2H2.9z"/>
<path d="M8.2,2188.7c-1.3-0.6-2.8-1.2-4.5-1.8c-0.7-0.3-0.9-0.4-0.9-1.2v-1.3c0-0.8,0.1-0.9,0.9-1.3c1.7-0.6,3.2-1.3,4.5-1.8
	l10.2-4.3c1.6-0.7,3.2-1.4,5.3-2.4c0.2-0.1,0.4-0.2,0.5-0.2c0.2,0,0.3,0.2,0.3,0.7v2.4c0,0.8-0.1,0.9-0.9,1.2
	c-2,0.7-3.5,1.3-4.9,1.9l-9.9,4.1c-0.2,0.1-0.4,0.2-0.4,0.3s0.1,0.2,0.4,0.3l9.9,4.1c1.5,0.6,2.9,1.2,4.9,1.9
	c0.7,0.3,0.9,0.4,0.9,1.2v2.3c0,0.5-0.1,0.7-0.3,0.7c-0.1,0-0.3-0.1-0.5-0.2c-2.1-1-3.7-1.7-5.3-2.3L8.2,2188.7z"/>
<path d="M6.1,2206c0,1.5,0.1,4.2,0.1,4.4c0,0.6-0.2,0.8-0.9,0.8H3.7c-0.7,0-0.9-0.1-0.9-0.8c0-0.2,0.1-3,0.1-4.4v-2.4
	c0-1.4-0.1-3.9-0.1-4.1c0-0.7,0.2-0.9,1-0.9c1.7,0,3.6,0.1,5.1,0.1h9.6c1.5,0,3.5,0,5.1-0.1c0.7,0,1,0.2,1,0.9
	c0,0.2-0.1,2.6-0.1,4.1v1.7c0,1.5,0.1,4.2,0.1,4.4c0,0.6-0.2,0.8-0.9,0.8H22c-0.7,0-0.9-0.1-0.9-0.8c0-0.2,0.1-3,0.1-4.4v-2.2
	c0-0.8-0.2-0.9-0.9-0.9h-3.5c-0.8,0-0.9,0.2-0.9,0.9v1.5c0,1.4,0.1,4.2,0.1,4.4c0,0.6-0.2,0.8-0.9,0.8h-1.5c-0.7,0-0.9-0.1-0.9-0.8
	c0-0.2,0.1-3,0.1-4.4v-1.5c0-0.8-0.2-0.9-0.9-0.9H7c-0.8,0-0.9,0.2-0.9,0.9V2206z"/>
<path d="M9,2231.5c-1.8,0-5.1,0.1-5.4,0.1c-0.6,0-0.8-0.2-0.8-0.9v-1.9c0-0.7,0.1-0.9,0.8-0.9c0.2,0,3.6,0.1,5.4,0.1h11.3
	c0.8,0,0.9-0.2,0.9-0.9v-0.9c0-1.3-0.1-3.9-0.1-4.1c0-0.6,0.2-0.8,0.9-0.8h1.7c0.7,0,0.9,0.1,0.9,0.8c0,0.2-0.1,3-0.1,4.4v6.7
	c0,1.4,0.1,4.2,0.1,4.4c0,0.6-0.2,0.8-0.9,0.8H22c-0.7,0-0.9-0.1-0.9-0.8c0-0.2,0.1-2.8,0.1-4.1v-1c0-0.8-0.2-0.9-0.9-0.9H9V2231.5z
	"/>
<path d="M8,2247c0-0.8-0.1-1-0.7-1.3c-1-0.4-2-0.8-3.5-1.3c-0.7-0.3-0.9-0.4-0.9-1.2v-2.1c0-0.5,0.1-0.7,0.3-0.7
	c0.1,0,0.3,0.1,0.5,0.2c2.1,0.9,3.7,1.6,5.2,2.3l10.4,4.4c1.3,0.6,2.8,1.2,4.4,1.8c0.7,0.3,0.9,0.4,0.9,1.2v1.3
	c0,0.8-0.1,0.9-0.9,1.2c-1.7,0.6-3.1,1.3-4.4,1.8L9,2259c-1.6,0.7-3.1,1.3-5.2,2.3c-0.2,0.1-0.4,0.2-0.5,0.2c-0.2,0-0.3-0.2-0.3-0.7
	v-2.4c0-0.8,0.1-0.9,0.9-1.2c1.5-0.5,2.5-0.9,3.5-1.3c0.7-0.3,0.7-0.5,0.7-1.3L8,2247L8,2247z M11.8,2247.5
	c-0.2-0.1-0.4-0.1-0.5-0.1c-0.3,0-0.3,0.2-0.3,0.7v5.2c0,0.5,0.1,0.7,0.3,0.7c0.1,0,0.3,0,0.5-0.1l7-2.8c0.3-0.1,0.5-0.2,0.5-0.3
	s-0.2-0.2-0.5-0.3L11.8,2247.5z"/>
<path d="M2.9,2269.5c0-1.4-0.1-3.9-0.1-4.1c0-0.6,0.2-0.9,0.9-0.9c0.2,0,3.5,0.1,5.2,0.1h9.5c1.8,0,5.1-0.1,5.4-0.1
	c0.6,0,0.8,0.2,0.8,0.9v2c0,0.7-0.1,0.9-0.8,0.9c-0.2,0-3.6-0.1-5.4-0.1H7c-0.8,0-0.9,0.2-0.9,0.9v2.8c0,1.5,0.1,4.2,0.1,4.4
	c0,0.6-0.2,0.8-0.9,0.8H3.7c-0.7,0-0.9-0.1-0.9-0.8c0-0.2,0.1-3,0.1-4.4V2269.5z"/>
<path d="M9,2284.8c-1.8,0-5.1,0.1-5.4,0.1c-0.6,0-0.8-0.2-0.8-0.9v-1.9c0-0.7,0.1-0.9,0.8-0.9c0.2,0,3.6,0.1,5.4,0.1h9.4
	c1.8,0,5.1-0.1,5.4-0.1c0.6,0,0.8,0.2,0.8,0.9v1.9c0,0.7-0.1,0.9-0.8,0.9c-0.2,0-3.6-0.1-5.4-0.1h-2.6c-0.3,0-0.5,0.1-0.5,0.2
	c0,0.1,0.1,0.2,0.2,0.4l3.6,3.3c1.4,1.3,2.7,2.4,4.6,4.1c0.6,0.5,0.7,0.8,0.7,1.5v2.8c0,0.4-0.1,0.6-0.3,0.6c-0.1,0-0.2-0.1-0.4-0.2
	c-2.5-2.4-3.9-3.7-5.5-5.3l-1.5-1.4c-0.3-0.3-0.5-0.4-0.7-0.4c-0.2,0-0.4,0.1-0.7,0.3L10,2294c-1.7,1.2-3.5,2.3-6.4,4.1
	c-0.2,0.2-0.4,0.2-0.5,0.2c-0.2,0-0.2-0.2-0.2-0.7v-2.5c0-0.8,0.1-1,0.8-1.4c2.3-1.3,3.8-2.3,5.4-3.3l3.6-2.3
	c0.3-0.2,0.5-0.4,0.5-0.5c0-0.2-0.1-0.3-0.4-0.6l-2.1-1.9c-0.4-0.3-0.6-0.4-1.1-0.4L9,2284.8L9,2284.8z"/>
<path d="M8.9,2321.9c-3.9,0-6.3-3-6.3-7.7c0-2.4,0.6-4.7,1.6-6.4c0.2-0.4,0.4-0.6,0.7-0.6c0.2,0,0.3,0.1,0.6,0.2l1.6,0.8
	c0.4,0.2,0.6,0.3,0.6,0.5s-0.1,0.3-0.3,0.6c-1,1.5-1.6,3.4-1.6,5.2c0,2.3,1.1,3.8,2.8,3.8c1.8,0,2.7-2,3.8-4.5
	c1.2-3,2.7-6.1,6.4-6.1c3.8,0,6,3,6,7.7c0,2-0.5,3.9-1.1,5.3c-0.2,0.4-0.4,0.6-0.6,0.6s-0.3-0.1-0.6-0.2l-1.8-0.7
	c-0.4-0.2-0.6-0.3-0.6-0.5s0.1-0.3,0.3-0.6c0.7-1.1,1.2-2.8,1.2-4.3c0-2.4-1.1-3.6-2.5-3.6c-1.6,0-2.4,1.6-3.5,4.1
	C14.1,2318.7,12.6,2321.9,8.9,2321.9z"/>
<path d="M6.1,2333.1c0,1.5,0.1,4.2,0.1,4.4c0,0.6-0.2,0.8-0.9,0.8H3.7c-0.7,0-0.9-0.1-0.9-0.8c0-0.2,0.1-3,0.1-4.4v-2.4
	c0-1.4-0.1-3.9-0.1-4.1c0-0.7,0.2-0.9,1-0.9c1.7,0,3.6,0.1,5.1,0.1h9.6c1.5,0,3.5,0,5.1-0.1c0.7,0,1,0.2,1,0.9
	c0,0.2-0.1,2.6-0.1,4.1v1.7c0,1.5,0.1,4.2,0.1,4.4c0,0.6-0.2,0.8-0.9,0.8H22c-0.7,0-0.9-0.1-0.9-0.8c0-0.2,0.1-3,0.1-4.4v-2.2
	c0-0.8-0.2-0.9-0.9-0.9h-3.5c-0.8,0-0.9,0.2-0.9,0.9v1.5c0,1.4,0.1,4.2,0.1,4.4c0,0.6-0.2,0.8-0.9,0.8h-1.5c-0.7,0-0.9-0.1-0.9-0.8
	c0-0.2,0.1-3,0.1-4.4v-1.5c0-0.8-0.2-0.9-0.9-0.9H7c-0.8,0-0.9,0.2-0.9,0.9V2333.1z"/>
<path d="M9,2346.2c-1.8,0-5.1,0.1-5.4,0.1c-0.6,0-0.8-0.2-0.8-0.9v-1.9c0-0.7,0.1-0.9,0.8-0.9c0.2,0,3.6,0.1,5.4,0.1h9.5
	c1.5,0,3.4,0,5.1-0.1c0.7,0,1,0.2,1,0.9c0,0.2-0.1,2.6-0.1,4.1v2.7c0,3.9-1.5,6.9-6,6.9c-2.9,0-5-1.4-6.2-3.7
	c-0.2-0.4-0.4-0.6-0.6-0.6c-0.2,0-0.3,0.1-0.6,0.3l-1.3,1c-2,1.5-3.6,2.7-6.1,4.7c-0.2,0.2-0.4,0.2-0.5,0.2c-0.2,0-0.3-0.3-0.3-0.7
	v-2.5c0-0.8,0.1-1,0.8-1.4c2-1.3,3.5-2.4,5.1-3.6l1.7-1.2c0.6-0.5,0.7-0.7,0.7-1.5v-1c0-0.8-0.2-0.9-0.9-0.9H9V2346.2z M15.1,2346.2
	c-0.8,0-0.9,0.2-0.9,0.9v2c0,2.3,1,4.3,4,4.3c2.7,0,3.2-1.7,3.2-3.5v-2.8c0-0.8-0.2-0.9-0.9-0.9H15.1z"/>
<path d="M8.2,2375.1c-1.3-0.6-2.8-1.2-4.5-1.8c-0.7-0.3-0.9-0.4-0.9-1.2v-1.3c0-0.8,0.1-0.9,0.9-1.3c1.7-0.6,3.2-1.3,4.5-1.8
	l10.2-4.3c1.6-0.7,3.2-1.4,5.3-2.4c0.2-0.1,0.4-0.2,0.5-0.2c0.2,0,0.3,0.2,0.3,0.7v2.4c0,0.8-0.1,0.9-0.9,1.2
	c-2,0.7-3.5,1.3-4.9,1.9l-9.9,4.1c-0.2,0.1-0.4,0.2-0.4,0.3s0.1,0.2,0.4,0.3l9.9,4.1c1.5,0.6,2.9,1.2,4.9,1.9
	c0.7,0.3,0.9,0.4,0.9,1.2v2.3c0,0.5-0.1,0.7-0.3,0.7c-0.1,0-0.3-0.1-0.5-0.2c-2.1-1-3.7-1.7-5.3-2.3L8.2,2375.1z"/>
<path d="M2.9,2386.1c0-0.7,0.1-0.9,0.8-0.9c0.2,0,3.6,0.1,5.4,0.1h9.4c1.8,0,5.1-0.1,5.4-0.1c0.6,0,0.8,0.2,0.8,0.9v2
	c0,0.7-0.1,0.9-0.8,0.9c-0.2,0-3.6-0.1-5.4-0.1H9c-1.8,0-5.1,0.1-5.4,0.1c-0.6,0-0.8-0.2-0.8-0.9v-2H2.9z"/>
<path d="M4.3,2409.3c-0.3,0-0.4-0.2-0.6-0.7c-0.6-1.5-1-3.4-1-5.2c0-6.3,4.2-10.4,10.5-10.4c6.4,0,11.5,3.9,11.5,11.5
	c0,1.6-0.2,3.1-0.8,4.4c-0.2,0.5-0.3,0.7-0.6,0.7c-0.2,0-0.3-0.1-0.6-0.2l-1.8-0.7c-0.5-0.2-0.6-0.3-0.6-0.5s0.1-0.3,0.2-0.6
	c0.4-0.9,0.7-2.1,0.7-3.3c0-5.1-3.6-7.7-7.9-7.7s-7.2,2.7-7.2,7.1c0,1.3,0.3,2.6,0.8,3.5c0.2,0.3,0.2,0.5,0.2,0.6
	c0,0.2-0.2,0.4-0.6,0.6L5,2409C4.6,2409.2,4.4,2409.3,4.3,2409.3z"/>
<path d="M6.1,2420.6c0,1.5,0.1,4.2,0.1,4.4c0,0.6-0.2,0.8-0.9,0.8H3.7c-0.7,0-0.9-0.1-0.9-0.8c0-0.2,0.1-3,0.1-4.4v-2.4
	c0-1.4-0.1-3.9-0.1-4.1c0-0.7,0.2-0.9,1-0.9c1.7,0,3.6,0.1,5.1,0.1h9.6c1.5,0,3.5,0,5.1-0.1c0.7,0,1,0.2,1,0.9
	c0,0.2-0.1,2.6-0.1,4.1v1.7c0,1.5,0.1,4.2,0.1,4.4c0,0.6-0.2,0.8-0.9,0.8H22c-0.7,0-0.9-0.1-0.9-0.8c0-0.2,0.1-3,0.1-4.4v-2.2
	c0-0.8-0.2-0.9-0.9-0.9h-3.5c-0.8,0-0.9,0.2-0.9,0.9v1.5c0,1.4,0.1,4.2,0.1,4.4c0,0.6-0.2,0.8-0.9,0.8h-1.5c-0.7,0-0.9-0.1-0.9-0.8
	c0-0.2,0.1-3,0.1-4.4v-1.5c0-0.8-0.2-0.9-0.9-0.9H7c-0.8,0-0.9,0.2-0.9,0.9V2420.6z"/>
<path d="M9,2468.6c-1.8,0-5,0.1-5.4,0.1c-0.6,0-0.8-0.2-0.8-0.9v-1.9c0-0.7,0.1-0.9,0.8-0.9c0.4,0,3.6,0.1,5.4,0.1h10.7
	c0.5,0,0.7-0.1,0.7-0.4c0-0.1,0-0.3-0.1-0.5c-0.3-0.9-0.8-2-1.1-2.8c-0.1-0.2-0.2-0.4-0.2-0.6c0-0.3,0.2-0.4,0.7-0.6l1.5-0.6
	c0.2-0.1,0.4-0.1,0.6-0.1c0.3,0,0.4,0.2,0.6,0.7c0.5,1.5,1.2,3.3,1.8,4.8c0.3,0.6,0.4,1.1,0.4,1.8v0.8c0,0.7-0.1,0.9-0.8,0.9
	c-0.5,0-3.6-0.1-5.4-0.1H9V2468.6z"/>
<path d="M14,2502.7c-7.2,0-11.3-5.1-11.3-11c0-6.6,5.1-10.4,10.9-10.4c6.8,0,11.2,4.6,11.2,10.9C24.7,2498.9,19.7,2502.7,14,2502.7z
	 M13.5,2485c-4.1,0-7.5,2.5-7.5,6.9c0,4,2.9,7.2,7.7,7.2c4.1,0,7.4-2.5,7.4-6.9C21.2,2487.8,17.9,2485,13.5,2485z"/>
<path d="M9,2510.2c-1.8,0-5.1,0.1-5.4,0.1c-0.6,0-0.8-0.2-0.8-0.9v-1.8c0-0.7,0.1-0.9,0.8-0.9c0.2,0,3.6,0.1,5.4,0.1h9.7
	c1.7,0,4.8-0.1,5-0.1c0.6,0,0.8,0.2,0.8,0.9v1c0,0.8-0.1,1-0.7,1.5c-1.3,0.9-2.4,1.9-3.6,2.9l-9.5,7.6c-0.2,0.2-0.3,0.3-0.3,0.4
	c0,0.2,0.2,0.2,0.5,0.2h7.6c1.8,0,5.1-0.1,5.4-0.1c0.6,0,0.8,0.2,0.8,0.9v1.8c0,0.7-0.1,0.9-0.8,0.9c-0.2,0-3.6-0.1-5.4-0.1H8.7
	c-1.7,0-4.8,0.1-5,0.1c-0.6,0-0.8-0.2-0.8-0.9v-0.6c0-0.8,0.1-1,0.7-1.5c1.2-0.9,2.3-1.8,3.5-2.8l10-8.1c0.2-0.2,0.3-0.3,0.3-0.4
	c0-0.2-0.2-0.2-0.5-0.2L9,2510.2L9,2510.2z"/>
<path d="M9,2544.2c-1.8,0-5,0.1-5.4,0.1c-0.6,0-0.8-0.2-0.8-0.9v-1.9c0-0.7,0.1-0.9,0.8-0.9c0.4,0,3.6,0.1,5.4,0.1h10.7
	c0.5,0,0.7-0.1,0.7-0.4c0-0.1,0-0.3-0.1-0.5c-0.3-0.9-0.8-2-1.1-2.8c-0.1-0.2-0.2-0.4-0.2-0.6c0-0.3,0.2-0.4,0.7-0.6l1.5-0.6
	c0.2-0.1,0.4-0.1,0.6-0.1c0.3,0,0.4,0.2,0.6,0.7c0.5,1.5,1.2,3.3,1.8,4.8c0.3,0.6,0.4,1.1,0.4,1.8v0.8c0,0.7-0.1,0.9-0.8,0.9
	c-0.5,0-3.6-0.1-5.4-0.1H9V2544.2z"/>
<path d="M2.9,2562.8c0-1.4-0.1-3.9-0.1-4.1c0-0.6,0.2-0.9,0.9-0.9c0.2,0,3.5,0.1,5.2,0.1h9.5c1.8,0,5.1-0.1,5.4-0.1
	c0.6,0,0.8,0.2,0.8,0.9v2c0,0.7-0.1,0.9-0.8,0.9c-0.2,0-3.6-0.1-5.4-0.1H7c-0.8,0-0.9,0.2-0.9,0.9v2.8c0,1.5,0.1,4.2,0.1,4.4
	c0,0.6-0.2,0.8-0.9,0.8H3.7c-0.7,0-0.9-0.1-0.9-0.8c0-0.2,0.1-3,0.1-4.4V2562.8z"/>
<path d="M2.9,2575.4c0-0.7,0.1-0.9,0.8-0.9c0.2,0,3.6,0.1,5.4,0.1h9.4c1.8,0,5.1-0.1,5.4-0.1c0.6,0,0.8,0.2,0.8,0.9v2
	c0,0.7-0.1,0.9-0.8,0.9c-0.2,0-3.6-0.1-5.4-0.1H9c-1.8,0-5.1,0.1-5.4,0.1c-0.6,0-0.8-0.2-0.8-0.9v-2H2.9z"/>
<path d="M8.2,2595.8c-1.3-0.6-2.8-1.2-4.5-1.8c-0.7-0.3-0.9-0.4-0.9-1.2v-1.3c0-0.8,0.1-0.9,0.9-1.3c1.7-0.6,3.2-1.3,4.5-1.8
	l10.2-4.3c1.6-0.7,3.2-1.4,5.3-2.4c0.2-0.1,0.4-0.2,0.5-0.2c0.2,0,0.3,0.2,0.3,0.7v2.4c0,0.8-0.1,0.9-0.9,1.2
	c-2,0.7-3.5,1.3-4.9,1.9l-9.9,4.1c-0.2,0.1-0.4,0.2-0.4,0.3s0.1,0.2,0.4,0.3l9.9,4.1c1.5,0.6,2.9,1.2,4.9,1.9
	c0.7,0.3,0.9,0.4,0.9,1.2v2.3c0,0.5-0.1,0.7-0.3,0.7c-0.1,0-0.3-0.1-0.5-0.2c-2.1-1-3.7-1.7-5.3-2.3L8.2,2595.8z"/>
<path d="M6.1,2613.2c0,1.5,0.1,4.2,0.1,4.4c0,0.6-0.2,0.8-0.9,0.8H3.7c-0.7,0-0.9-0.1-0.9-0.8c0-0.2,0.1-3,0.1-4.4v-2.4
	c0-1.4-0.1-3.9-0.1-4.1c0-0.7,0.2-0.9,1-0.9c1.7,0,3.6,0.1,5.1,0.1h9.6c1.5,0,3.5,0,5.1-0.1c0.7,0,1,0.2,1,0.9
	c0,0.2-0.1,2.6-0.1,4.1v1.7c0,1.5,0.1,4.2,0.1,4.4c0,0.6-0.2,0.8-0.9,0.8H22c-0.7,0-0.9-0.1-0.9-0.8c0-0.2,0.1-3,0.1-4.4v-2.2
	c0-0.8-0.2-0.9-0.9-0.9h-3.5c-0.8,0-0.9,0.2-0.9,0.9v1.5c0,1.4,0.1,4.2,0.1,4.4c0,0.6-0.2,0.8-0.9,0.8h-1.5c-0.7,0-0.9-0.1-0.9-0.8
	c0-0.2,0.1-3,0.1-4.4v-1.5c0-0.8-0.2-0.9-0.9-0.9H7c-0.8,0-0.9,0.2-0.9,0.9V2613.2z"/>
<path d="M9,2638.6c-1.8,0-5.1,0.1-5.4,0.1c-0.6,0-0.8-0.2-0.8-0.9v-1.9c0-0.7,0.1-0.9,0.8-0.9c0.2,0,3.6,0.1,5.4,0.1h11.3
	c0.8,0,0.9-0.2,0.9-0.9v-0.9c0-1.3-0.1-3.9-0.1-4.1c0-0.6,0.2-0.8,0.9-0.8h1.7c0.7,0,0.9,0.1,0.9,0.8c0,0.2-0.1,3-0.1,4.4v6.7
	c0,1.4,0.1,4.2,0.1,4.4c0,0.6-0.2,0.8-0.9,0.8H22c-0.7,0-0.9-0.1-0.9-0.8c0-0.2,0.1-2.8,0.1-4.1v-1c0-0.8-0.2-0.9-0.9-0.9H9V2638.6z
	"/>
<path d="M8,2654.1c0-0.8-0.1-1-0.7-1.3c-1-0.4-2-0.8-3.5-1.3c-0.7-0.3-0.9-0.4-0.9-1.2v-2.1c0-0.5,0.1-0.7,0.3-0.7
	c0.1,0,0.3,0.1,0.5,0.2c2.1,0.9,3.7,1.6,5.2,2.3l10.4,4.4c1.3,0.6,2.8,1.2,4.4,1.8c0.7,0.3,0.9,0.4,0.9,1.2v1.3
	c0,0.8-0.1,0.9-0.9,1.2c-1.7,0.6-3.1,1.3-4.4,1.8L9,2666.1c-1.6,0.7-3.1,1.3-5.2,2.3c-0.2,0.1-0.4,0.2-0.5,0.2
	c-0.2,0-0.3-0.2-0.3-0.7v-2.4c0-0.8,0.1-0.9,0.9-1.2c1.5-0.5,2.5-0.9,3.5-1.3c0.7-0.3,0.7-0.5,0.7-1.3L8,2654.1L8,2654.1z
	 M11.8,2654.7c-0.2-0.1-0.4-0.1-0.5-0.1c-0.3,0-0.3,0.2-0.3,0.7v5.2c0,0.5,0.1,0.7,0.3,0.7c0.1,0,0.3,0,0.5-0.1l7-2.8
	c0.3-0.1,0.5-0.2,0.5-0.3s-0.2-0.2-0.5-0.3L11.8,2654.7z"/>
<path d="M2.9,2676.7c0-1.4-0.1-3.9-0.1-4.1c0-0.6,0.2-0.9,0.9-0.9c0.2,0,3.5,0.1,5.2,0.1h9.5c1.8,0,5.1-0.1,5.4-0.1
	c0.6,0,0.8,0.2,0.8,0.9v2c0,0.7-0.1,0.9-0.8,0.9c-0.2,0-3.6-0.1-5.4-0.1H7c-0.8,0-0.9,0.2-0.9,0.9v2.8c0,1.5,0.1,4.2,0.1,4.4
	c0,0.6-0.2,0.8-0.9,0.8H3.7c-0.7,0-0.9-0.1-0.9-0.8c0-0.2,0.1-3,0.1-4.4V2676.7z"/>
<path d="M9,2691.9c-1.8,0-5.1,0.1-5.4,0.1c-0.6,0-0.8-0.2-0.8-0.9v-1.9c0-0.7,0.1-0.9,0.8-0.9c0.2,0,3.6,0.1,5.4,0.1h9.4
	c1.8,0,5.1-0.1,5.4-0.1c0.6,0,0.8,0.2,0.8,0.9v1.9c0,0.7-0.1,0.9-0.8,0.9c-0.2,0-3.6-0.1-5.4-0.1h-2.6c-0.3,0-0.5,0.1-0.5,0.2
	c0,0.1,0.1,0.2,0.2,0.4l3.6,3.3c1.4,1.3,2.7,2.4,4.6,4.1c0.6,0.5,0.7,0.8,0.7,1.5v2.8c0,0.4-0.1,0.6-0.3,0.6c-0.1,0-0.2-0.1-0.4-0.2
	c-2.5-2.4-3.9-3.7-5.5-5.3l-1.5-1.4c-0.3-0.3-0.5-0.4-0.7-0.4c-0.2,0-0.4,0.1-0.7,0.3l-5.4,3.3c-1.7,1.2-3.5,2.3-6.4,4.1
	c-0.2,0.2-0.4,0.2-0.5,0.2c-0.2,0-0.2-0.2-0.2-0.7v-2.5c0-0.8,0.1-1,0.8-1.4c2.3-1.3,3.8-2.3,5.4-3.3l3.6-2.3
	c0.3-0.2,0.5-0.4,0.5-0.5c0-0.2-0.1-0.3-0.4-0.6l-2.1-1.9c-0.4-0.3-0.6-0.4-1.1-0.4L9,2691.9L9,2691.9z"/>
<path d="M8.9,2729.1c-3.9,0-6.3-3-6.3-7.7c0-2.4,0.6-4.7,1.6-6.4c0.2-0.4,0.4-0.6,0.7-0.6c0.2,0,0.3,0.1,0.6,0.2l1.6,0.8
	c0.4,0.2,0.6,0.3,0.6,0.5s-0.1,0.3-0.3,0.6c-1,1.5-1.6,3.4-1.6,5.2c0,2.3,1.1,3.8,2.8,3.8c1.8,0,2.7-2,3.8-4.5
	c1.2-3,2.7-6.1,6.4-6.1c3.8,0,6,3,6,7.7c0,2-0.5,3.9-1.1,5.3c-0.2,0.4-0.4,0.6-0.6,0.6s-0.3-0.1-0.6-0.2l-1.8-0.7
	c-0.4-0.2-0.6-0.3-0.6-0.5s0.1-0.3,0.3-0.6c0.7-1.1,1.2-2.8,1.2-4.3c0-2.4-1.1-3.6-2.5-3.6c-1.6,0-2.4,1.6-3.5,4.1
	C14.1,2725.8,12.6,2729.1,8.9,2729.1z"/>
<path d="M6.1,2740.2c0,1.5,0.1,4.2,0.1,4.4c0,0.6-0.2,0.8-0.9,0.8H3.7c-0.7,0-0.9-0.1-0.9-0.8c0-0.2,0.1-3,0.1-4.4v-2.4
	c0-1.4-0.1-3.9-0.1-4.1c0-0.7,0.2-0.9,1-0.9c1.7,0,3.6,0.1,5.1,0.1h9.6c1.5,0,3.5,0,5.1-0.1c0.7,0,1,0.2,1,0.9
	c0,0.2-0.1,2.6-0.1,4.1v1.7c0,1.5,0.1,4.2,0.1,4.4c0,0.6-0.2,0.8-0.9,0.8H22c-0.7,0-0.9-0.1-0.9-0.8c0-0.2,0.1-3,0.1-4.4v-2.2
	c0-0.8-0.2-0.9-0.9-0.9h-3.5c-0.8,0-0.9,0.2-0.9,0.9v1.5c0,1.4,0.1,4.2,0.1,4.4c0,0.6-0.2,0.8-0.9,0.8h-1.5c-0.7,0-0.9-0.1-0.9-0.8
	c0-0.2,0.1-3,0.1-4.4v-1.5c0-0.8-0.2-0.9-0.9-0.9H7c-0.8,0-0.9,0.2-0.9,0.9V2740.2z"/>
<path d="M9,2753.3c-1.8,0-5.1,0.1-5.4,0.1c-0.6,0-0.8-0.2-0.8-0.9v-1.9c0-0.7,0.1-0.9,0.8-0.9c0.2,0,3.6,0.1,5.4,0.1h9.5
	c1.5,0,3.4,0,5.1-0.1c0.7,0,1,0.2,1,0.9c0,0.2-0.1,2.6-0.1,4.1v2.7c0,3.9-1.5,6.9-6,6.9c-2.9,0-5-1.4-6.2-3.7
	c-0.2-0.4-0.4-0.6-0.6-0.6c-0.2,0-0.3,0.1-0.6,0.3l-1.3,1c-2,1.5-3.6,2.7-6.1,4.7c-0.2,0.2-0.4,0.2-0.5,0.2c-0.2,0-0.3-0.3-0.3-0.7
	v-2.5c0-0.8,0.1-1,0.8-1.4c2-1.3,3.5-2.4,5.1-3.6l1.7-1.2c0.6-0.5,0.7-0.7,0.7-1.5v-1c0-0.8-0.2-0.9-0.9-0.9H9V2753.3z M15.1,2753.3
	c-0.8,0-0.9,0.2-0.9,0.9v2c0,2.3,1,4.3,4,4.3c2.7,0,3.2-1.7,3.2-3.5v-2.8c0-0.8-0.2-0.9-0.9-0.9H15.1z"/>
<path d="M8.2,2782.3c-1.3-0.6-2.8-1.2-4.5-1.8c-0.7-0.3-0.9-0.4-0.9-1.2v-1.3c0-0.8,0.1-0.9,0.9-1.3c1.7-0.6,3.2-1.3,4.5-1.8
	l10.2-4.3c1.6-0.7,3.2-1.4,5.3-2.4c0.2-0.1,0.4-0.2,0.5-0.2c0.2,0,0.3,0.2,0.3,0.7v2.4c0,0.8-0.1,0.9-0.9,1.2
	c-2,0.7-3.5,1.3-4.9,1.9l-9.9,4.1c-0.2,0.1-0.4,0.2-0.4,0.3s0.1,0.2,0.4,0.3l9.9,4.1c1.5,0.6,2.9,1.2,4.9,1.9
	c0.7,0.3,0.9,0.4,0.9,1.2v2.3c0,0.5-0.1,0.7-0.3,0.7c-0.1,0-0.3-0.1-0.5-0.2c-2.1-1-3.7-1.7-5.3-2.3L8.2,2782.3z"/>
<path d="M2.9,2793.3c0-0.7,0.1-0.9,0.8-0.9c0.2,0,3.6,0.1,5.4,0.1h9.4c1.8,0,5.1-0.1,5.4-0.1c0.6,0,0.8,0.2,0.8,0.9v2
	c0,0.7-0.1,0.9-0.8,0.9c-0.2,0-3.6-0.1-5.4-0.1H9c-1.8,0-5.1,0.1-5.4,0.1c-0.6,0-0.8-0.2-0.8-0.9v-2H2.9z"/>
<path d="M4.3,2816.4c-0.3,0-0.4-0.2-0.6-0.7c-0.6-1.5-1-3.4-1-5.2c0-6.3,4.2-10.4,10.5-10.4c6.4,0,11.5,3.9,11.5,11.5
	c0,1.6-0.2,3.1-0.8,4.4c-0.2,0.5-0.3,0.7-0.6,0.7c-0.2,0-0.3-0.1-0.6-0.2l-1.8-0.7c-0.5-0.2-0.6-0.3-0.6-0.5s0.1-0.3,0.2-0.6
	c0.4-0.9,0.7-2.1,0.7-3.3c0-5.1-3.6-7.7-7.9-7.7s-7.2,2.7-7.2,7.1c0,1.3,0.3,2.6,0.8,3.5c0.2,0.3,0.2,0.5,0.2,0.6
	c0,0.2-0.2,0.4-0.6,0.6l-1.5,0.6C4.6,2816.4,4.4,2816.4,4.3,2816.4z"/>
<path d="M6.1,2827.7c0,1.5,0.1,4.2,0.1,4.4c0,0.6-0.2,0.8-0.9,0.8H3.7c-0.7,0-0.9-0.1-0.9-0.8c0-0.2,0.1-3,0.1-4.4v-2.4
	c0-1.4-0.1-3.9-0.1-4.1c0-0.7,0.2-0.9,1-0.9c1.7,0,3.6,0.1,5.1,0.1h9.6c1.5,0,3.5,0,5.1-0.1c0.7,0,1,0.2,1,0.9
	c0,0.2-0.1,2.6-0.1,4.1v1.7c0,1.5,0.1,4.2,0.1,4.4c0,0.6-0.2,0.8-0.9,0.8H22c-0.7,0-0.9-0.1-0.9-0.8c0-0.2,0.1-3,0.1-4.4v-2.2
	c0-0.8-0.2-0.9-0.9-0.9h-3.5c-0.8,0-0.9,0.2-0.9,0.9v1.5c0,1.4,0.1,4.2,0.1,4.4c0,0.6-0.2,0.8-0.9,0.8h-1.5c-0.7,0-0.9-0.1-0.9-0.8
	c0-0.2,0.1-3,0.1-4.4v-1.5c0-0.8-0.2-0.9-0.9-0.9H7c-0.8,0-0.9,0.2-0.9,0.9V2827.7z"/>
<path d="M9,2875.8c-1.8,0-5,0.1-5.4,0.1c-0.6,0-0.8-0.2-0.8-0.9v-1.9c0-0.7,0.1-0.9,0.8-0.9c0.4,0,3.6,0.1,5.4,0.1h10.7
	c0.5,0,0.7-0.1,0.7-0.4c0-0.1,0-0.3-0.1-0.5c-0.3-0.9-0.8-2-1.1-2.8c-0.1-0.2-0.2-0.4-0.2-0.6c0-0.3,0.2-0.4,0.7-0.6l1.5-0.6
	c0.2-0.1,0.4-0.1,0.6-0.1c0.3,0,0.4,0.2,0.6,0.7c0.5,1.5,1.2,3.3,1.8,4.8c0.3,0.6,0.4,1.1,0.4,1.8v0.8c0,0.7-0.1,0.9-0.8,0.9
	c-0.5,0-3.6-0.1-5.4-0.1H9V2875.8z"/>
<path d="M14,2909.9c-7.2,0-11.3-5.1-11.3-11c0-6.6,5.1-10.4,10.9-10.4c6.8,0,11.2,4.6,11.2,10.9C24.7,2906.1,19.7,2909.9,14,2909.9z
	 M13.5,2892.1c-4.1,0-7.5,2.5-7.5,6.9c0,4,2.9,7.2,7.7,7.2c4.1,0,7.4-2.5,7.4-6.9C21.2,2894.9,17.9,2892.1,13.5,2892.1z"/>
<path d="M9,2917.4c-1.8,0-5.1,0.1-5.4,0.1c-0.6,0-0.8-0.2-0.8-0.9v-1.8c0-0.7,0.1-0.9,0.8-0.9c0.2,0,3.6,0.1,5.4,0.1h9.7
	c1.7,0,4.8-0.1,5-0.1c0.6,0,0.8,0.2,0.8,0.9v1c0,0.8-0.1,1-0.7,1.5c-1.3,0.9-2.4,1.9-3.6,2.9l-9.5,7.6c-0.2,0.2-0.3,0.3-0.3,0.4
	c0,0.2,0.2,0.2,0.5,0.2h7.6c1.8,0,5.1-0.1,5.4-0.1c0.6,0,0.8,0.2,0.8,0.9v1.8c0,0.7-0.1,0.9-0.8,0.9c-0.2,0-3.6-0.1-5.4-0.1H8.7
	c-1.7,0-4.8,0.1-5,0.1c-0.6,0-0.8-0.2-0.8-0.9v-0.6c0-0.8,0.1-1,0.7-1.5c1.2-0.9,2.3-1.8,3.5-2.8l10-8.1c0.2-0.2,0.3-0.3,0.3-0.4
	c0-0.2-0.2-0.2-0.5-0.2L9,2917.4L9,2917.4z"/>
<path d="M9,2951.3c-1.8,0-5,0.1-5.4,0.1c-0.6,0-0.8-0.2-0.8-0.9v-1.9c0-0.7,0.1-0.9,0.8-0.9c0.4,0,3.6,0.1,5.4,0.1h10.7
	c0.5,0,0.7-0.1,0.7-0.4c0-0.1,0-0.3-0.1-0.5c-0.3-0.9-0.8-2-1.1-2.8c-0.1-0.2-0.2-0.4-0.2-0.6c0-0.3,0.2-0.4,0.7-0.6l1.5-0.6
	c0.2-0.1,0.4-0.1,0.6-0.1c0.3,0,0.4,0.2,0.6,0.7c0.5,1.5,1.2,3.3,1.8,4.8c0.3,0.6,0.4,1.1,0.4,1.8v0.8c0,0.7-0.1,0.9-0.8,0.9
	c-0.5,0-3.6-0.1-5.4-0.1H9V2951.3z"/>
<path d="M2.9,2969.9c0-1.4-0.1-3.9-0.1-4.1c0-0.6,0.2-0.9,0.9-0.9c0.2,0,3.5,0.1,5.2,0.1h9.5c1.8,0,5.1-0.1,5.4-0.1
	c0.6,0,0.8,0.2,0.8,0.9v2c0,0.7-0.1,0.9-0.8,0.9c-0.2,0-3.6-0.1-5.4-0.1H7c-0.8,0-0.9,0.2-0.9,0.9v2.8c0,1.5,0.1,4.2,0.1,4.4
	c0,0.6-0.2,0.8-0.9,0.8H3.7c-0.7,0-0.9-0.1-0.9-0.8c0-0.2,0.1-3,0.1-4.4V2969.9z"/>
<path d="M2.9,2982.6c0-0.7,0.1-0.9,0.8-0.9c0.2,0,3.6,0.1,5.4,0.1h9.4c1.8,0,5.1-0.1,5.4-0.1c0.6,0,0.8,0.2,0.8,0.9v2
	c0,0.7-0.1,0.9-0.8,0.9c-0.2,0-3.6-0.1-5.4-0.1H9c-1.8,0-5.1,0.1-5.4,0.1c-0.6,0-0.8-0.2-0.8-0.9v-2H2.9z"/>
<path d="M8.2,3003c-1.3-0.6-2.8-1.2-4.5-1.8c-0.7-0.3-0.9-0.4-0.9-1.2v-1.3c0-0.8,0.1-0.9,0.9-1.3c1.7-0.6,3.2-1.3,4.5-1.8l10.2-4.3
	c1.6-0.7,3.2-1.4,5.3-2.4c0.2-0.1,0.4-0.2,0.5-0.2c0.2,0,0.3,0.2,0.3,0.7v2.4c0,0.8-0.1,0.9-0.9,1.2c-2,0.7-3.5,1.3-4.9,1.9
	l-9.9,4.1c-0.2,0.1-0.4,0.2-0.4,0.3s0.1,0.2,0.4,0.3l9.9,4.1c1.5,0.6,2.9,1.2,4.9,1.9c0.7,0.3,0.9,0.4,0.9,1.2v2.3
	c0,0.5-0.1,0.7-0.3,0.7c-0.1,0-0.3-0.1-0.5-0.2c-2.1-1-3.7-1.7-5.3-2.3L8.2,3003z"/>
<path d="M6.1,3020.3c0,1.5,0.1,4.2,0.1,4.4c0,0.6-0.2,0.8-0.9,0.8H3.7c-0.7,0-0.9-0.1-0.9-0.8c0-0.2,0.1-3,0.1-4.4v-2.4
	c0-1.4-0.1-3.9-0.1-4.1c0-0.7,0.2-0.9,1-0.9c1.7,0,3.6,0.1,5.1,0.1h9.6c1.5,0,3.5,0,5.1-0.1c0.7,0,1,0.2,1,0.9
	c0,0.2-0.1,2.6-0.1,4.1v1.7c0,1.5,0.1,4.2,0.1,4.4c0,0.6-0.2,0.8-0.9,0.8H22c-0.7,0-0.9-0.1-0.9-0.8c0-0.2,0.1-3,0.1-4.4v-2.2
	c0-0.8-0.2-0.9-0.9-0.9h-3.5c-0.8,0-0.9,0.2-0.9,0.9v1.5c0,1.4,0.1,4.2,0.1,4.4c0,0.6-0.2,0.8-0.9,0.8h-1.5c-0.7,0-0.9-0.1-0.9-0.8
	c0-0.2,0.1-3,0.1-4.4v-1.5c0-0.8-0.2-0.9-0.9-0.9H7c-0.8,0-0.9,0.2-0.9,0.9V3020.3z"/>
<path d="M9,3045.8c-1.8,0-5.1,0.1-5.4,0.1c-0.6,0-0.8-0.2-0.8-0.9v-1.9c0-0.7,0.1-0.9,0.8-0.9c0.2,0,3.6,0.1,5.4,0.1h11.3
	c0.8,0,0.9-0.2,0.9-0.9v-0.9c0-1.3-0.1-3.9-0.1-4.1c0-0.6,0.2-0.8,0.9-0.8h1.7c0.7,0,0.9,0.1,0.9,0.8c0,0.2-0.1,3-0.1,4.4v6.7
	c0,1.4,0.1,4.2,0.1,4.4c0,0.6-0.2,0.8-0.9,0.8H22c-0.7,0-0.9-0.1-0.9-0.8c0-0.2,0.1-2.8,0.1-4.1v-1c0-0.8-0.2-0.9-0.9-0.9H9V3045.8z
	"/>
<path d="M8,3061.3c0-0.8-0.1-1-0.7-1.3c-1-0.4-2-0.8-3.5-1.3c-0.7-0.3-0.9-0.4-0.9-1.2v-2.1c0-0.5,0.1-0.7,0.3-0.7
	c0.1,0,0.3,0.1,0.5,0.2c2.1,0.9,3.7,1.6,5.2,2.3l10.4,4.4c1.3,0.6,2.8,1.2,4.4,1.8c0.7,0.3,0.9,0.4,0.9,1.2v1.3
	c0,0.8-0.1,0.9-0.9,1.2c-1.7,0.6-3.1,1.3-4.4,1.8L9,3073.3c-1.6,0.7-3.1,1.3-5.2,2.3c-0.2,0.1-0.4,0.2-0.5,0.2
	c-0.2,0-0.3-0.2-0.3-0.7v-2.4c0-0.8,0.1-0.9,0.9-1.2c1.5-0.5,2.5-0.9,3.5-1.3c0.7-0.3,0.7-0.5,0.7-1.3L8,3061.3L8,3061.3z
	 M11.8,3061.8c-0.2-0.1-0.4-0.1-0.5-0.1c-0.3,0-0.3,0.2-0.3,0.7v5.2c0,0.5,0.1,0.7,0.3,0.7c0.1,0,0.3,0,0.5-0.1l7-2.8
	c0.3-0.1,0.5-0.2,0.5-0.3s-0.2-0.2-0.5-0.3L11.8,3061.8z"/>
<path d="M2.9,3083.8c0-1.4-0.1-3.9-0.1-4.1c0-0.6,0.2-0.9,0.9-0.9c0.2,0,3.5,0.1,5.2,0.1h9.5c1.8,0,5.1-0.1,5.4-0.1
	c0.6,0,0.8,0.2,0.8,0.9v2c0,0.7-0.1,0.9-0.8,0.9c-0.2,0-3.6-0.1-5.4-0.1H7c-0.8,0-0.9,0.2-0.9,0.9v2.8c0,1.5,0.1,4.2,0.1,4.4
	c0,0.6-0.2,0.8-0.9,0.8H3.7c-0.7,0-0.9-0.1-0.9-0.8c0-0.2,0.1-3,0.1-4.4V3083.8z"/>
<path d="M9,3099.1c-1.8,0-5.1,0.1-5.4,0.1c-0.6,0-0.8-0.2-0.8-0.9v-1.9c0-0.7,0.1-0.9,0.8-0.9c0.2,0,3.6,0.1,5.4,0.1h9.4
	c1.8,0,5.1-0.1,5.4-0.1c0.6,0,0.8,0.2,0.8,0.9v1.9c0,0.7-0.1,0.9-0.8,0.9c-0.2,0-3.6-0.1-5.4-0.1h-2.6c-0.3,0-0.5,0.1-0.5,0.2
	c0,0.1,0.1,0.2,0.2,0.4l3.6,3.3c1.4,1.3,2.7,2.4,4.6,4.1c0.6,0.5,0.7,0.8,0.7,1.5v2.8c0,0.4-0.1,0.6-0.3,0.6c-0.1,0-0.2-0.1-0.4-0.2
	c-2.5-2.4-3.9-3.7-5.5-5.3l-1.5-1.4c-0.3-0.3-0.5-0.4-0.7-0.4c-0.2,0-0.4,0.1-0.7,0.3l-5.4,3.3c-1.7,1.2-3.5,2.3-6.4,4.1
	c-0.2,0.2-0.4,0.2-0.5,0.2c-0.2,0-0.2-0.2-0.2-0.7v-2.5c0-0.8,0.1-1,0.8-1.4c2.3-1.3,3.8-2.3,5.4-3.3l3.6-2.3
	c0.3-0.2,0.5-0.4,0.5-0.5c0-0.2-0.1-0.3-0.4-0.6l-2.1-1.9c-0.4-0.3-0.6-0.4-1.1-0.4L9,3099.1L9,3099.1z"/>
<path d="M8.9,3136.2c-3.9,0-6.3-3-6.3-7.7c0-2.4,0.6-4.7,1.6-6.4c0.2-0.4,0.4-0.6,0.7-0.6c0.2,0,0.3,0.1,0.6,0.2l1.6,0.8
	c0.4,0.2,0.6,0.3,0.6,0.5s-0.1,0.3-0.3,0.6c-1,1.5-1.6,3.4-1.6,5.2c0,2.3,1.1,3.8,2.8,3.8c1.8,0,2.7-2,3.8-4.5
	c1.2-3,2.7-6.1,6.4-6.1c3.8,0,6,3,6,7.7c0,2-0.5,3.9-1.1,5.3c-0.2,0.4-0.4,0.6-0.6,0.6s-0.3-0.1-0.6-0.2l-1.8-0.7
	c-0.4-0.2-0.6-0.3-0.6-0.5s0.1-0.3,0.3-0.6c0.7-1.1,1.2-2.8,1.2-4.3c0-2.4-1.1-3.6-2.5-3.6c-1.6,0-2.4,1.6-3.5,4.1
	C14.1,3133,12.6,3136.2,8.9,3136.2z"/>
<path d="M6.1,3147.4c0,1.5,0.1,4.2,0.1,4.4c0,0.6-0.2,0.8-0.9,0.8H3.7c-0.7,0-0.9-0.1-0.9-0.8c0-0.2,0.1-3,0.1-4.4v-2.4
	c0-1.4-0.1-3.9-0.1-4.1c0-0.7,0.2-0.9,1-0.9c1.7,0,3.6,0.1,5.1,0.1h9.6c1.5,0,3.5,0,5.1-0.1c0.7,0,1,0.2,1,0.9
	c0,0.2-0.1,2.6-0.1,4.1v1.7c0,1.5,0.1,4.2,0.1,4.4c0,0.6-0.2,0.8-0.9,0.8H22c-0.7,0-0.9-0.1-0.9-0.8c0-0.2,0.1-3,0.1-4.4v-2.2
	c0-0.8-0.2-0.9-0.9-0.9h-3.5c-0.8,0-0.9,0.2-0.9,0.9v1.5c0,1.4,0.1,4.2,0.1,4.4c0,0.6-0.2,0.8-0.9,0.8h-1.5c-0.7,0-0.9-0.1-0.9-0.8
	c0-0.2,0.1-3,0.1-4.4v-1.5c0-0.8-0.2-0.9-0.9-0.9H7c-0.8,0-0.9,0.2-0.9,0.9V3147.4z"/>
<path d="M9,3160.5c-1.8,0-5.1,0.1-5.4,0.1c-0.6,0-0.8-0.2-0.8-0.9v-1.9c0-0.7,0.1-0.9,0.8-0.9c0.2,0,3.6,0.1,5.4,0.1h9.5
	c1.5,0,3.4,0,5.1-0.1c0.7,0,1,0.2,1,0.9c0,0.2-0.1,2.6-0.1,4.1v2.7c0,3.9-1.5,6.9-6,6.9c-2.9,0-5-1.4-6.2-3.7
	c-0.2-0.4-0.4-0.6-0.6-0.6c-0.2,0-0.3,0.1-0.6,0.3l-1.3,1c-2,1.5-3.6,2.7-6.1,4.7c-0.2,0.2-0.4,0.2-0.5,0.2c-0.2,0-0.3-0.3-0.3-0.7
	v-2.5c0-0.8,0.1-1,0.8-1.4c2-1.3,3.5-2.4,5.1-3.6l1.7-1.2c0.6-0.5,0.7-0.7,0.7-1.5v-1c0-0.8-0.2-0.9-0.9-0.9H9V3160.5z M15.1,3160.5
	c-0.8,0-0.9,0.2-0.9,0.9v2c0,2.3,1,4.3,4,4.3c2.7,0,3.2-1.7,3.2-3.5v-2.8c0-0.8-0.2-0.9-0.9-0.9H15.1z"/>
<path d="M8.2,3189.4c-1.3-0.6-2.8-1.2-4.5-1.8c-0.7-0.3-0.9-0.4-0.9-1.2v-1.3c0-0.8,0.1-0.9,0.9-1.3c1.7-0.6,3.2-1.3,4.5-1.8
	l10.2-4.3c1.6-0.7,3.2-1.4,5.3-2.4c0.2-0.1,0.4-0.2,0.5-0.2c0.2,0,0.3,0.2,0.3,0.7v2.4c0,0.8-0.1,0.9-0.9,1.2
	c-2,0.7-3.5,1.3-4.9,1.9l-9.9,4.1c-0.2,0.1-0.4,0.2-0.4,0.3s0.1,0.2,0.4,0.3l9.9,4.1c1.5,0.6,2.9,1.2,4.9,1.9
	c0.7,0.3,0.9,0.4,0.9,1.2v2.3c0,0.5-0.1,0.7-0.3,0.7c-0.1,0-0.3-0.1-0.5-0.2c-2.1-1-3.7-1.7-5.3-2.3L8.2,3189.4z"/>
<path d="M2.9,3200.4c0-0.7,0.1-0.9,0.8-0.9c0.2,0,3.6,0.1,5.4,0.1h9.4c1.8,0,5.1-0.1,5.4-0.1c0.6,0,0.8,0.2,0.8,0.9v2
	c0,0.7-0.1,0.9-0.8,0.9c-0.2,0-3.6-0.1-5.4-0.1H9c-1.8,0-5.1,0.1-5.4,0.1c-0.6,0-0.8-0.2-0.8-0.9v-2H2.9z"/>
<path d="M4.3,3223.6c-0.3,0-0.4-0.2-0.6-0.7c-0.6-1.5-1-3.4-1-5.2c0-6.3,4.2-10.4,10.5-10.4c6.4,0,11.5,3.9,11.5,11.5
	c0,1.6-0.2,3.1-0.8,4.4c-0.2,0.5-0.3,0.7-0.6,0.7c-0.2,0-0.3-0.1-0.6-0.2l-1.8-0.7c-0.5-0.2-0.6-0.3-0.6-0.5s0.1-0.3,0.2-0.6
	c0.4-0.9,0.7-2.1,0.7-3.3c0-5.1-3.6-7.7-7.9-7.7s-7.2,2.7-7.2,7.1c0,1.3,0.3,2.6,0.8,3.5c0.2,0.3,0.2,0.5,0.2,0.6
	c0,0.2-0.2,0.4-0.6,0.6l-1.5,0.6C4.6,3223.5,4.4,3223.6,4.3,3223.6z"/>
<path d="M6.1,3234.9c0,1.5,0.1,4.2,0.1,4.4c0,0.6-0.2,0.8-0.9,0.8H3.7c-0.7,0-0.9-0.1-0.9-0.8c0-0.2,0.1-3,0.1-4.4v-2.4
	c0-1.4-0.1-3.9-0.1-4.1c0-0.7,0.2-0.9,1-0.9c1.7,0,3.6,0.1,5.1,0.1h9.6c1.5,0,3.5,0,5.1-0.1c0.7,0,1,0.2,1,0.9
	c0,0.2-0.1,2.6-0.1,4.1v1.7c0,1.5,0.1,4.2,0.1,4.4c0,0.6-0.2,0.8-0.9,0.8H22c-0.7,0-0.9-0.1-0.9-0.8c0-0.2,0.1-3,0.1-4.4v-2.2
	c0-0.8-0.2-0.9-0.9-0.9h-3.5c-0.8,0-0.9,0.2-0.9,0.9v1.5c0,1.4,0.1,4.2,0.1,4.4c0,0.6-0.2,0.8-0.9,0.8h-1.5c-0.7,0-0.9-0.1-0.9-0.8
	c0-0.2,0.1-3,0.1-4.4v-1.5c0-0.8-0.2-0.9-0.9-0.9H7c-0.8,0-0.9,0.2-0.9,0.9V3234.9z"/>
<path d="M9,3282.9c-1.8,0-5,0.1-5.4,0.1c-0.6,0-0.8-0.2-0.8-0.9v-1.9c0-0.7,0.1-0.9,0.8-0.9c0.4,0,3.6,0.1,5.4,0.1h10.7
	c0.5,0,0.7-0.1,0.7-0.4c0-0.1,0-0.3-0.1-0.5c-0.3-0.9-0.8-2-1.1-2.8c-0.1-0.2-0.2-0.4-0.2-0.6c0-0.3,0.2-0.4,0.7-0.6l1.5-0.6
	c0.2-0.1,0.4-0.1,0.6-0.1c0.3,0,0.4,0.2,0.6,0.7c0.5,1.5,1.2,3.3,1.8,4.8c0.3,0.6,0.4,1.1,0.4,1.8v0.8c0,0.7-0.1,0.9-0.8,0.9
	c-0.5,0-3.6-0.1-5.4-0.1H9V3282.9z"/>
<path d="M14,3317c-7.2,0-11.3-5.1-11.3-11c0-6.6,5.1-10.4,10.9-10.4c6.8,0,11.2,4.6,11.2,10.9C24.7,3313.2,19.7,3317,14,3317z
	 M13.5,3299.3c-4.1,0-7.5,2.5-7.5,6.9c0,4,2.9,7.2,7.7,7.2c4.1,0,7.4-2.5,7.4-6.9C21.2,3302.1,17.9,3299.3,13.5,3299.3z"/>
<path d="M9,3324.5c-1.8,0-5.1,0.1-5.4,0.1c-0.6,0-0.8-0.2-0.8-0.9v-1.8c0-0.7,0.1-0.9,0.8-0.9c0.2,0,3.6,0.1,5.4,0.1h9.7
	c1.7,0,4.8-0.1,5-0.1c0.6,0,0.8,0.2,0.8,0.9v1c0,0.8-0.1,1-0.7,1.5c-1.3,0.9-2.4,1.9-3.6,2.9l-9.5,7.6c-0.2,0.2-0.3,0.3-0.3,0.4
	c0,0.2,0.2,0.2,0.5,0.2h7.6c1.8,0,5.1-0.1,5.4-0.1c0.6,0,0.8,0.2,0.8,0.9v1.8c0,0.7-0.1,0.9-0.8,0.9c-0.2,0-3.6-0.1-5.4-0.1H8.7
	c-1.7,0-4.8,0.1-5,0.1c-0.6,0-0.8-0.2-0.8-0.9v-0.6c0-0.8,0.1-1,0.7-1.5c1.2-0.9,2.3-1.8,3.5-2.8l10-8.1c0.2-0.2,0.3-0.3,0.3-0.4
	c0-0.2-0.2-0.2-0.5-0.2L9,3324.5L9,3324.5z"/>
<path d="M9,3358.5c-1.8,0-5,0.1-5.4,0.1c-0.6,0-0.8-0.2-0.8-0.9v-1.9c0-0.7,0.1-0.9,0.8-0.9c0.4,0,3.6,0.1,5.4,0.1h10.7
	c0.5,0,0.7-0.1,0.7-0.4c0-0.1,0-0.3-0.1-0.5c-0.3-0.9-0.8-2-1.1-2.8c-0.1-0.2-0.2-0.4-0.2-0.6c0-0.3,0.2-0.4,0.7-0.6l1.5-0.6
	c0.2-0.1,0.4-0.1,0.6-0.1c0.3,0,0.4,0.2,0.6,0.7c0.5,1.5,1.2,3.3,1.8,4.8c0.3,0.6,0.4,1.1,0.4,1.8v0.8c0,0.7-0.1,0.9-0.8,0.9
	c-0.5,0-3.6-0.1-5.4-0.1H9V3358.5z"/>
<path d="M2.9,3377.1c0-1.4-0.1-3.9-0.1-4.1c0-0.6,0.2-0.9,0.9-0.9c0.2,0,3.5,0.1,5.2,0.1h9.5c1.8,0,5.1-0.1,5.4-0.1
	c0.6,0,0.8,0.2,0.8,0.9v2c0,0.7-0.1,0.9-0.8,0.9c-0.2,0-3.6-0.1-5.4-0.1H7c-0.8,0-0.9,0.2-0.9,0.9v2.8c0,1.5,0.1,4.2,0.1,4.4
	c0,0.6-0.2,0.8-0.9,0.8H3.7c-0.7,0-0.9-0.1-0.9-0.8c0-0.2,0.1-3,0.1-4.4V3377.1z"/>
<path d="M2.9,3389.7c0-0.7,0.1-0.9,0.8-0.9c0.2,0,3.6,0.1,5.4,0.1h9.4c1.8,0,5.1-0.1,5.4-0.1c0.6,0,0.8,0.2,0.8,0.9v2
	c0,0.7-0.1,0.9-0.8,0.9c-0.2,0-3.6-0.1-5.4-0.1H9c-1.8,0-5.1,0.1-5.4,0.1c-0.6,0-0.8-0.2-0.8-0.9v-2H2.9z"/>
<path d="M8.2,3410.2c-1.3-0.6-2.8-1.2-4.5-1.8c-0.7-0.3-0.9-0.4-0.9-1.2v-1.3c0-0.8,0.1-0.9,0.9-1.3c1.7-0.6,3.2-1.3,4.5-1.8
	l10.2-4.3c1.6-0.7,3.2-1.4,5.3-2.4c0.2-0.1,0.4-0.2,0.5-0.2c0.2,0,0.3,0.2,0.3,0.7v2.4c0,0.8-0.1,0.9-0.9,1.2
	c-2,0.7-3.5,1.3-4.9,1.9l-9.9,4.1c-0.2,0.1-0.4,0.2-0.4,0.3s0.1,0.2,0.4,0.3l9.9,4.1c1.5,0.6,2.9,1.2,4.9,1.9
	c0.7,0.3,0.9,0.4,0.9,1.2v2.3c0,0.5-0.1,0.7-0.3,0.7c-0.1,0-0.3-0.1-0.5-0.2c-2.1-1-3.7-1.7-5.3-2.3L8.2,3410.2z"/>
<path d="M6.1,3427.5c0,1.5,0.1,4.2,0.1,4.4c0,0.6-0.2,0.8-0.9,0.8H3.7c-0.7,0-0.9-0.1-0.9-0.8c0-0.2,0.1-3,0.1-4.4v-2.4
	c0-1.4-0.1-3.9-0.1-4.1c0-0.7,0.2-0.9,1-0.9c1.7,0,3.6,0.1,5.1,0.1h9.6c1.5,0,3.5,0,5.1-0.1c0.7,0,1,0.2,1,0.9
	c0,0.2-0.1,2.6-0.1,4.1v1.7c0,1.5,0.1,4.2,0.1,4.4c0,0.6-0.2,0.8-0.9,0.8H22c-0.7,0-0.9-0.1-0.9-0.8c0-0.2,0.1-3,0.1-4.4v-2.2
	c0-0.8-0.2-0.9-0.9-0.9h-3.5c-0.8,0-0.9,0.2-0.9,0.9v1.5c0,1.4,0.1,4.2,0.1,4.4c0,0.6-0.2,0.8-0.9,0.8h-1.5c-0.7,0-0.9-0.1-0.9-0.8
	c0-0.2,0.1-3,0.1-4.4v-1.5c0-0.8-0.2-0.9-0.9-0.9H7c-0.8,0-0.9,0.2-0.9,0.9V3427.5z"/>
<path d="M9,3452.9c-1.8,0-5.1,0.1-5.4,0.1c-0.6,0-0.8-0.2-0.8-0.9v-1.9c0-0.7,0.1-0.9,0.8-0.9c0.2,0,3.6,0.1,5.4,0.1h11.3
	c0.8,0,0.9-0.2,0.9-0.9v-0.9c0-1.3-0.1-3.9-0.1-4.1c0-0.6,0.2-0.8,0.9-0.8h1.7c0.7,0,0.9,0.1,0.9,0.8c0,0.2-0.1,3-0.1,4.4v6.7
	c0,1.4,0.1,4.2,0.1,4.4c0,0.6-0.2,0.8-0.9,0.8H22c-0.7,0-0.9-0.1-0.9-0.8c0-0.2,0.1-2.8,0.1-4.1v-1c0-0.8-0.2-0.9-0.9-0.9H9V3452.9z
	"/>
<path d="M8,3468.5c0-0.8-0.1-1-0.7-1.3c-1-0.4-2-0.8-3.5-1.3c-0.7-0.3-0.9-0.4-0.9-1.2v-2.1c0-0.5,0.1-0.7,0.3-0.7
	c0.1,0,0.3,0.1,0.5,0.2c2.1,0.9,3.7,1.6,5.2,2.3l10.4,4.4c1.3,0.6,2.8,1.2,4.4,1.8c0.7,0.3,0.9,0.4,0.9,1.2v1.3
	c0,0.8-0.1,0.9-0.9,1.2c-1.7,0.6-3.1,1.3-4.4,1.8L9,3480.5c-1.6,0.7-3.1,1.3-5.2,2.3c-0.2,0.1-0.4,0.2-0.5,0.2
	c-0.2,0-0.3-0.2-0.3-0.7v-2.4c0-0.8,0.1-0.9,0.9-1.2c1.5-0.5,2.5-0.9,3.5-1.3c0.7-0.3,0.7-0.5,0.7-1.3L8,3468.5L8,3468.5z
	 M11.8,3469c-0.2-0.1-0.4-0.1-0.5-0.1c-0.3,0-0.3,0.2-0.3,0.7v5.2c0,0.5,0.1,0.7,0.3,0.7c0.1,0,0.3,0,0.5-0.1l7-2.8
	c0.3-0.1,0.5-0.2,0.5-0.3s-0.2-0.2-0.5-0.3L11.8,3469z"/>
<path d="M2.9,3491c0-1.4-0.1-3.9-0.1-4.1c0-0.6,0.2-0.9,0.9-0.9c0.2,0,3.5,0.1,5.2,0.1h9.5c1.8,0,5.1-0.1,5.4-0.1
	c0.6,0,0.8,0.2,0.8,0.9v2c0,0.7-0.1,0.9-0.8,0.9c-0.2,0-3.6-0.1-5.4-0.1H7c-0.8,0-0.9,0.2-0.9,0.9v2.8c0,1.5,0.1,4.2,0.1,4.4
	c0,0.6-0.2,0.8-0.9,0.8H3.7c-0.7,0-0.9-0.1-0.9-0.8c0-0.2,0.1-3,0.1-4.4V3491z"/>
<path d="M9,3506.3c-1.8,0-5.1,0.1-5.4,0.1c-0.6,0-0.8-0.2-0.8-0.9v-1.9c0-0.7,0.1-0.9,0.8-0.9c0.2,0,3.6,0.1,5.4,0.1h9.4
	c1.8,0,5.1-0.1,5.4-0.1c0.6,0,0.8,0.2,0.8,0.9v1.9c0,0.7-0.1,0.9-0.8,0.9c-0.2,0-3.6-0.1-5.4-0.1h-2.6c-0.3,0-0.5,0.1-0.5,0.2
	c0,0.1,0.1,0.2,0.2,0.4l3.6,3.3c1.4,1.3,2.7,2.4,4.6,4.1c0.6,0.5,0.7,0.8,0.7,1.5v2.8c0,0.4-0.1,0.6-0.3,0.6c-0.1,0-0.2-0.1-0.4-0.2
	c-2.5-2.4-3.9-3.7-5.5-5.3l-1.5-1.4c-0.3-0.3-0.5-0.4-0.7-0.4c-0.2,0-0.4,0.1-0.7,0.3l-5.4,3.3c-1.7,1.2-3.5,2.3-6.4,4.1
	c-0.2,0.2-0.4,0.2-0.5,0.2c-0.2,0-0.2-0.2-0.2-0.7v-2.5c0-0.8,0.1-1,0.8-1.4c2.3-1.3,3.8-2.3,5.4-3.3l3.6-2.3
	c0.3-0.2,0.5-0.4,0.5-0.5c0-0.2-0.1-0.3-0.4-0.6l-2.1-1.9c-0.4-0.3-0.6-0.4-1.1-0.4L9,3506.3L9,3506.3z"/>
<path d="M8.9,3543.4c-3.9,0-6.3-3-6.3-7.7c0-2.4,0.6-4.7,1.6-6.4c0.2-0.4,0.4-0.6,0.7-0.6c0.2,0,0.3,0.1,0.6,0.2l1.6,0.8
	c0.4,0.2,0.6,0.3,0.6,0.5s-0.1,0.3-0.3,0.6c-1,1.5-1.6,3.4-1.6,5.2c0,2.3,1.1,3.8,2.8,3.8c1.8,0,2.7-2,3.8-4.5
	c1.2-3,2.7-6.1,6.4-6.1c3.8,0,6,3,6,7.7c0,2-0.5,3.9-1.1,5.3c-0.2,0.4-0.4,0.6-0.6,0.6s-0.3-0.1-0.6-0.2l-1.8-0.7
	c-0.4-0.2-0.6-0.3-0.6-0.5s0.1-0.3,0.3-0.6c0.7-1.1,1.2-2.8,1.2-4.3c0-2.4-1.1-3.6-2.5-3.6c-1.6,0-2.4,1.6-3.5,4.1
	C14.1,3540.1,12.6,3543.4,8.9,3543.4z"/>
<path d="M6.1,3554.6c0,1.5,0.1,4.2,0.1,4.4c0,0.6-0.2,0.8-0.9,0.8H3.7c-0.7,0-0.9-0.1-0.9-0.8c0-0.2,0.1-3,0.1-4.4v-2.4
	c0-1.4-0.1-3.9-0.1-4.1c0-0.7,0.2-0.9,1-0.9c1.7,0,3.6,0.1,5.1,0.1h9.6c1.5,0,3.5,0,5.1-0.1c0.7,0,1,0.2,1,0.9
	c0,0.2-0.1,2.6-0.1,4.1v1.7c0,1.5,0.1,4.2,0.1,4.4c0,0.6-0.2,0.8-0.9,0.8H22c-0.7,0-0.9-0.1-0.9-0.8c0-0.2,0.1-3,0.1-4.4v-2.2
	c0-0.8-0.2-0.9-0.9-0.9h-3.5c-0.8,0-0.9,0.2-0.9,0.9v1.5c0,1.4,0.1,4.2,0.1,4.4c0,0.6-0.2,0.8-0.9,0.8h-1.5c-0.7,0-0.9-0.1-0.9-0.8
	c0-0.2,0.1-3,0.1-4.4v-1.5c0-0.8-0.2-0.9-0.9-0.9H7c-0.8,0-0.9,0.2-0.9,0.9V3554.6z"/>
<path d="M9,3567.6c-1.8,0-5.1,0.1-5.4,0.1c-0.6,0-0.8-0.2-0.8-0.9v-1.9c0-0.7,0.1-0.9,0.8-0.9c0.2,0,3.6,0.1,5.4,0.1h9.5
	c1.5,0,3.4,0,5.1-0.1c0.7,0,1,0.2,1,0.9c0,0.2-0.1,2.6-0.1,4.1v2.7c0,3.9-1.5,6.9-6,6.9c-2.9,0-5-1.4-6.2-3.7
	c-0.2-0.4-0.4-0.6-0.6-0.6c-0.2,0-0.3,0.1-0.6,0.3l-1.3,1c-2,1.5-3.6,2.7-6.1,4.7c-0.2,0.2-0.4,0.2-0.5,0.2c-0.2,0-0.3-0.3-0.3-0.7
	v-2.5c0-0.8,0.1-1,0.8-1.4c2-1.3,3.5-2.4,5.1-3.6l1.7-1.2c0.6-0.5,0.7-0.7,0.7-1.5v-1c0-0.8-0.2-0.9-0.9-0.9H9V3567.6z M15.1,3567.6
	c-0.8,0-0.9,0.2-0.9,0.9v2c0,2.3,1,4.3,4,4.3c2.7,0,3.2-1.7,3.2-3.5v-2.8c0-0.8-0.2-0.9-0.9-0.9H15.1z"/>
<path d="M8.2,3596.6c-1.3-0.6-2.8-1.2-4.5-1.8c-0.7-0.3-0.9-0.4-0.9-1.2v-1.3c0-0.8,0.1-0.9,0.9-1.3c1.7-0.6,3.2-1.3,4.5-1.8
	l10.2-4.3c1.6-0.7,3.2-1.4,5.3-2.4c0.2-0.1,0.4-0.2,0.5-0.2c0.2,0,0.3,0.2,0.3,0.7v2.4c0,0.8-0.1,0.9-0.9,1.2
	c-2,0.7-3.5,1.3-4.9,1.9l-9.9,4.1c-0.2,0.1-0.4,0.2-0.4,0.3s0.1,0.2,0.4,0.3l9.9,4.1c1.5,0.6,2.9,1.2,4.9,1.9
	c0.7,0.3,0.9,0.4,0.9,1.2v2.3c0,0.5-0.1,0.7-0.3,0.7c-0.1,0-0.3-0.1-0.5-0.2c-2.1-1-3.7-1.7-5.3-2.3L8.2,3596.6z"/>
<path d="M2.9,3607.6c0-0.7,0.1-0.9,0.8-0.9c0.2,0,3.6,0.1,5.4,0.1h9.4c1.8,0,5.1-0.1,5.4-0.1c0.6,0,0.8,0.2,0.8,0.9v2
	c0,0.7-0.1,0.9-0.8,0.9c-0.2,0-3.6-0.1-5.4-0.1H9c-1.8,0-5.1,0.1-5.4,0.1c-0.6,0-0.8-0.2-0.8-0.9v-2H2.9z"/>
<path d="M4.3,3630.8c-0.3,0-0.4-0.2-0.6-0.7c-0.6-1.5-1-3.4-1-5.2c0-6.3,4.2-10.4,10.5-10.4c6.4,0,11.5,3.9,11.5,11.5
	c0,1.6-0.2,3.1-0.8,4.4c-0.2,0.5-0.3,0.7-0.6,0.7c-0.2,0-0.3-0.1-0.6-0.2l-1.8-0.7c-0.5-0.2-0.6-0.3-0.6-0.5s0.1-0.3,0.2-0.6
	c0.4-0.9,0.7-2.1,0.7-3.3c0-5.1-3.6-7.7-7.9-7.7s-7.2,2.7-7.2,7.1c0,1.3,0.3,2.6,0.8,3.5c0.2,0.3,0.2,0.5,0.2,0.6
	c0,0.2-0.2,0.4-0.6,0.6l-1.5,0.6C4.6,3630.7,4.4,3630.8,4.3,3630.8z"/>
<path d="M6.1,3642c0,1.5,0.1,4.2,0.1,4.4c0,0.6-0.2,0.8-0.9,0.8H3.7c-0.7,0-0.9-0.1-0.9-0.8c0-0.2,0.1-3,0.1-4.4v-2.4
	c0-1.4-0.1-3.9-0.1-4.1c0-0.7,0.2-0.9,1-0.9c1.7,0,3.6,0.1,5.1,0.1h9.6c1.5,0,3.5,0,5.1-0.1c0.7,0,1,0.2,1,0.9
	c0,0.2-0.1,2.6-0.1,4.1v1.7c0,1.5,0.1,4.2,0.1,4.4c0,0.6-0.2,0.8-0.9,0.8H22c-0.7,0-0.9-0.1-0.9-0.8c0-0.2,0.1-3,0.1-4.4v-2.2
	c0-0.8-0.2-0.9-0.9-0.9h-3.5c-0.8,0-0.9,0.2-0.9,0.9v1.5c0,1.4,0.1,4.2,0.1,4.4c0,0.6-0.2,0.8-0.9,0.8h-1.5c-0.7,0-0.9-0.1-0.9-0.8
	c0-0.2,0.1-3,0.1-4.4v-1.5c0-0.8-0.2-0.9-0.9-0.9H7c-0.8,0-0.9,0.2-0.9,0.9V3642z"/>
<path d="M9,3690.1c-1.8,0-5,0.1-5.4,0.1c-0.6,0-0.8-0.2-0.8-0.9v-1.9c0-0.7,0.1-0.9,0.8-0.9c0.4,0,3.6,0.1,5.4,0.1h10.7
	c0.5,0,0.7-0.1,0.7-0.4c0-0.1,0-0.3-0.1-0.5c-0.3-0.9-0.8-2-1.1-2.8c-0.1-0.2-0.2-0.4-0.2-0.6c0-0.3,0.2-0.4,0.7-0.6l1.5-0.6
	c0.2-0.1,0.4-0.1,0.6-0.1c0.3,0,0.4,0.2,0.6,0.7c0.5,1.5,1.2,3.3,1.8,4.8c0.3,0.6,0.4,1.1,0.4,1.8v0.8c0,0.7-0.1,0.9-0.8,0.9
	c-0.5,0-3.6-0.1-5.4-0.1H9V3690.1z"/>
<path d="M14,3724.2c-7.2,0-11.3-5.1-11.3-11c0-6.6,5.1-10.4,10.9-10.4c6.8,0,11.2,4.6,11.2,10.9C24.7,3720.4,19.7,3724.2,14,3724.2z
	 M13.5,3706.5c-4.1,0-7.5,2.5-7.5,6.9c0,4,2.9,7.2,7.7,7.2c4.1,0,7.4-2.5,7.4-6.9S17.9,3706.5,13.5,3706.5z"/>
<path d="M9,3731.7c-1.8,0-5.1,0.1-5.4,0.1c-0.6,0-0.8-0.2-0.8-0.9v-1.8c0-0.7,0.1-0.9,0.8-0.9c0.2,0,3.6,0.1,5.4,0.1h9.7
	c1.7,0,4.8-0.1,5-0.1c0.6,0,0.8,0.2,0.8,0.9v1c0,0.8-0.1,1-0.7,1.5c-1.3,0.9-2.4,1.9-3.6,2.9l-9.5,7.6c-0.2,0.2-0.3,0.3-0.3,0.4
	c0,0.2,0.2,0.2,0.5,0.2h7.6c1.8,0,5.1-0.1,5.4-0.1c0.6,0,0.8,0.2,0.8,0.9v1.8c0,0.7-0.1,0.9-0.8,0.9c-0.2,0-3.6-0.1-5.4-0.1H8.7
	c-1.7,0-4.8,0.1-5,0.1c-0.6,0-0.8-0.2-0.8-0.9v-0.6c0-0.8,0.1-1,0.7-1.5c1.2-0.9,2.3-1.8,3.5-2.8l10-8.1c0.2-0.2,0.3-0.3,0.3-0.4
	c0-0.2-0.2-0.2-0.5-0.2L9,3731.7L9,3731.7z"/>
<path d="M9,3765.6c-1.8,0-5,0.1-5.4,0.1c-0.6,0-0.8-0.2-0.8-0.9v-1.9c0-0.7,0.1-0.9,0.8-0.9c0.4,0,3.6,0.1,5.4,0.1h10.7
	c0.5,0,0.7-0.1,0.7-0.4c0-0.1,0-0.3-0.1-0.5c-0.3-0.9-0.8-2-1.1-2.8c-0.1-0.2-0.2-0.4-0.2-0.6c0-0.3,0.2-0.4,0.7-0.6l1.5-0.6
	c0.2-0.1,0.4-0.1,0.6-0.1c0.3,0,0.4,0.2,0.6,0.7c0.5,1.5,1.2,3.3,1.8,4.8c0.3,0.6,0.4,1.1,0.4,1.8v0.8c0,0.7-0.1,0.9-0.8,0.9
	c-0.5,0-3.6-0.1-5.4-0.1H9V3765.6z"/>
<path d="M2.9,3784.2c0-1.4-0.1-3.9-0.1-4.1c0-0.6,0.2-0.9,0.9-0.9c0.2,0,3.5,0.1,5.2,0.1h9.5c1.8,0,5.1-0.1,5.4-0.1
	c0.6,0,0.8,0.2,0.8,0.9v2c0,0.7-0.1,0.9-0.8,0.9c-0.2,0-3.6-0.1-5.4-0.1H7c-0.8,0-0.9,0.2-0.9,0.9v2.8c0,1.5,0.1,4.2,0.1,4.4
	c0,0.6-0.2,0.8-0.9,0.8H3.7c-0.7,0-0.9-0.1-0.9-0.8c0-0.2,0.1-3,0.1-4.4V3784.2z"/>
<path d="M2.9,3796.9c0-0.7,0.1-0.9,0.8-0.9c0.2,0,3.6,0.1,5.4,0.1h9.4c1.8,0,5.1-0.1,5.4-0.1c0.6,0,0.8,0.2,0.8,0.9v2
	c0,0.7-0.1,0.9-0.8,0.9c-0.2,0-3.6-0.1-5.4-0.1H9c-1.8,0-5.1,0.1-5.4,0.1c-0.6,0-0.8-0.2-0.8-0.9v-2H2.9z"/>
<path d="M8.2,3817.3c-1.3-0.6-2.8-1.2-4.5-1.8c-0.7-0.3-0.9-0.4-0.9-1.2v-1.3c0-0.8,0.1-0.9,0.9-1.3c1.7-0.6,3.2-1.3,4.5-1.8
	l10.2-4.3c1.6-0.7,3.2-1.4,5.3-2.4c0.2-0.1,0.4-0.2,0.5-0.2c0.2,0,0.3,0.2,0.3,0.7v2.4c0,0.8-0.1,0.9-0.9,1.2
	c-2,0.7-3.5,1.3-4.9,1.9l-9.9,4.1c-0.2,0.1-0.4,0.2-0.4,0.3s0.1,0.2,0.4,0.3l9.9,4.1c1.5,0.6,2.9,1.2,4.9,1.9
	c0.7,0.3,0.9,0.4,0.9,1.2v2.3c0,0.5-0.1,0.7-0.3,0.7c-0.1,0-0.3-0.1-0.5-0.2c-2.1-1-3.7-1.7-5.3-2.3L8.2,3817.3z"/>
<path d="M6.1,3834.7c0,1.5,0.1,4.2,0.1,4.4c0,0.6-0.2,0.8-0.9,0.8H3.7c-0.7,0-0.9-0.1-0.9-0.8c0-0.2,0.1-3,0.1-4.4v-2.4
	c0-1.4-0.1-3.9-0.1-4.1c0-0.7,0.2-0.9,1-0.9c1.7,0,3.6,0.1,5.1,0.1h9.6c1.5,0,3.5,0,5.1-0.1c0.7,0,1,0.2,1,0.9
	c0,0.2-0.1,2.6-0.1,4.1v1.7c0,1.5,0.1,4.2,0.1,4.4c0,0.6-0.2,0.8-0.9,0.8H22c-0.7,0-0.9-0.1-0.9-0.8c0-0.2,0.1-3,0.1-4.4v-2.2
	c0-0.8-0.2-0.9-0.9-0.9h-3.5c-0.8,0-0.9,0.2-0.9,0.9v1.5c0,1.4,0.1,4.2,0.1,4.4c0,0.6-0.2,0.8-0.9,0.8h-1.5c-0.7,0-0.9-0.1-0.9-0.8
	c0-0.2,0.1-3,0.1-4.4v-1.5c0-0.8-0.2-0.9-0.9-0.9H7c-0.8,0-0.9,0.2-0.9,0.9V3834.7z"/>
<path d="M9,3860.1c-1.8,0-5.1,0.1-5.4,0.1c-0.6,0-0.8-0.2-0.8-0.9v-1.9c0-0.7,0.1-0.9,0.8-0.9c0.2,0,3.6,0.1,5.4,0.1h11.3
	c0.8,0,0.9-0.2,0.9-0.9v-0.9c0-1.3-0.1-3.9-0.1-4.1c0-0.6,0.2-0.8,0.9-0.8h1.7c0.7,0,0.9,0.1,0.9,0.8c0,0.2-0.1,3-0.1,4.4v6.7
	c0,1.4,0.1,4.2,0.1,4.4c0,0.6-0.2,0.8-0.9,0.8H22c-0.7,0-0.9-0.1-0.9-0.8c0-0.2,0.1-2.8,0.1-4.1v-1c0-0.8-0.2-0.9-0.9-0.9H9V3860.1z
	"/>
<path d="M8,3875.6c0-0.8-0.1-1-0.7-1.3c-1-0.4-2-0.8-3.5-1.3c-0.7-0.3-0.9-0.4-0.9-1.2v-2.1c0-0.5,0.1-0.7,0.3-0.7
	c0.1,0,0.3,0.1,0.5,0.2c2.1,0.9,3.7,1.6,5.2,2.3l10.4,4.4c1.3,0.6,2.8,1.2,4.4,1.8c0.7,0.3,0.9,0.4,0.9,1.2v1.3
	c0,0.8-0.1,0.9-0.9,1.2c-1.7,0.6-3.1,1.3-4.4,1.8L9,3887.6c-1.6,0.7-3.1,1.3-5.2,2.3c-0.2,0.1-0.4,0.2-0.5,0.2
	c-0.2,0-0.3-0.2-0.3-0.7v-2.4c0-0.8,0.1-0.9,0.9-1.2c1.5-0.5,2.5-0.9,3.5-1.3c0.7-0.3,0.7-0.5,0.7-1.3L8,3875.6L8,3875.6z
	 M11.8,3876.2c-0.2-0.1-0.4-0.1-0.5-0.1c-0.3,0-0.3,0.2-0.3,0.7v5.2c0,0.5,0.1,0.7,0.3,0.7c0.1,0,0.3,0,0.5-0.1l7-2.8
	c0.3-0.1,0.5-0.2,0.5-0.3s-0.2-0.2-0.5-0.3L11.8,3876.2z"/>
<path d="M2.9,3898.2c0-1.4-0.1-3.9-0.1-4.1c0-0.6,0.2-0.9,0.9-0.9c0.2,0,3.5,0.1,5.2,0.1h9.5c1.8,0,5.1-0.1,5.4-0.1
	c0.6,0,0.8,0.2,0.8,0.9v2c0,0.7-0.1,0.9-0.8,0.9c-0.2,0-3.6-0.1-5.4-0.1H7c-0.8,0-0.9,0.2-0.9,0.9v2.8c0,1.5,0.1,4.2,0.1,4.4
	c0,0.6-0.2,0.8-0.9,0.8H3.7c-0.7,0-0.9-0.1-0.9-0.8c0-0.2,0.1-3,0.1-4.4V3898.2z"/>
<path d="M9,3913.4c-1.8,0-5.1,0.1-5.4,0.1c-0.6,0-0.8-0.2-0.8-0.9v-1.9c0-0.7,0.1-0.9,0.8-0.9c0.2,0,3.6,0.1,5.4,0.1h9.4
	c1.8,0,5.1-0.1,5.4-0.1c0.6,0,0.8,0.2,0.8,0.9v1.9c0,0.7-0.1,0.9-0.8,0.9c-0.2,0-3.6-0.1-5.4-0.1h-2.6c-0.3,0-0.5,0.1-0.5,0.2
	c0,0.1,0.1,0.2,0.2,0.4l3.6,3.3c1.4,1.3,2.7,2.4,4.6,4.1c0.6,0.5,0.7,0.8,0.7,1.5v2.8c0,0.4-0.1,0.6-0.3,0.6c-0.1,0-0.2-0.1-0.4-0.2
	c-2.5-2.4-3.9-3.7-5.5-5.3l-1.5-1.4c-0.3-0.3-0.5-0.4-0.7-0.4c-0.2,0-0.4,0.1-0.7,0.3l-5.4,3.3c-1.7,1.2-3.5,2.3-6.4,4.1
	c-0.2,0.2-0.4,0.2-0.5,0.2c-0.2,0-0.2-0.2-0.2-0.7v-2.5c0-0.8,0.1-1,0.8-1.4c2.3-1.3,3.8-2.3,5.4-3.3l3.6-2.3
	c0.3-0.2,0.5-0.4,0.5-0.5c0-0.2-0.1-0.3-0.4-0.6l-2.1-1.9c-0.4-0.3-0.6-0.4-1.1-0.4L9,3913.4L9,3913.4z"/>
<path d="M8.9,3950.5c-3.9,0-6.3-3-6.3-7.7c0-2.4,0.6-4.7,1.6-6.4c0.2-0.4,0.4-0.6,0.7-0.6c0.2,0,0.3,0.1,0.6,0.2l1.6,0.8
	c0.4,0.2,0.6,0.3,0.6,0.5s-0.1,0.3-0.3,0.6c-1,1.5-1.6,3.4-1.6,5.2c0,2.3,1.1,3.8,2.8,3.8c1.8,0,2.7-2,3.8-4.5
	c1.2-3,2.7-6.1,6.4-6.1c3.8,0,6,3,6,7.7c0,2-0.5,3.9-1.1,5.3c-0.2,0.4-0.4,0.6-0.6,0.6s-0.3-0.1-0.6-0.2l-1.8-0.7
	c-0.4-0.2-0.6-0.3-0.6-0.5s0.1-0.3,0.3-0.6c0.7-1.1,1.2-2.8,1.2-4.3c0-2.4-1.1-3.6-2.5-3.6c-1.6,0-2.4,1.6-3.5,4.1
	C14.1,3947.3,12.6,3950.5,8.9,3950.5z"/>
<path d="M6.1,3961.7c0,1.5,0.1,4.2,0.1,4.4c0,0.6-0.2,0.8-0.9,0.8H3.7c-0.7,0-0.9-0.1-0.9-0.8c0-0.2,0.1-3,0.1-4.4v-2.4
	c0-1.4-0.1-3.9-0.1-4.1c0-0.7,0.2-0.9,1-0.9c1.7,0,3.6,0.1,5.1,0.1h9.6c1.5,0,3.5,0,5.1-0.1c0.7,0,1,0.2,1,0.9
	c0,0.2-0.1,2.6-0.1,4.1v1.7c0,1.5,0.1,4.2,0.1,4.4c0,0.6-0.2,0.8-0.9,0.8H22c-0.7,0-0.9-0.1-0.9-0.8c0-0.2,0.1-3,0.1-4.4v-2.2
	c0-0.8-0.2-0.9-0.9-0.9h-3.5c-0.8,0-0.9,0.2-0.9,0.9v1.5c0,1.4,0.1,4.2,0.1,4.4c0,0.6-0.2,0.8-0.9,0.8h-1.5c-0.7,0-0.9-0.1-0.9-0.8
	c0-0.2,0.1-3,0.1-4.4v-1.5c0-0.8-0.2-0.9-0.9-0.9H7c-0.8,0-0.9,0.2-0.9,0.9V3961.7z"/>
<path d="M9,3974.8c-1.8,0-5.1,0.1-5.4,0.1c-0.6,0-0.8-0.2-0.8-0.9v-1.9c0-0.7,0.1-0.9,0.8-0.9c0.2,0,3.6,0.1,5.4,0.1h9.5
	c1.5,0,3.4,0,5.1-0.1c0.7,0,1,0.2,1,0.9c0,0.2-0.1,2.6-0.1,4.1v2.7c0,3.9-1.5,6.9-6,6.9c-2.9,0-5-1.4-6.2-3.7
	c-0.2-0.4-0.4-0.6-0.6-0.6c-0.2,0-0.3,0.1-0.6,0.3l-1.3,1c-2,1.5-3.6,2.7-6.1,4.7c-0.2,0.2-0.4,0.2-0.5,0.2c-0.2,0-0.3-0.3-0.3-0.7
	v-2.5c0-0.8,0.1-1,0.8-1.4c2-1.3,3.5-2.4,5.1-3.6l1.7-1.2c0.6-0.5,0.7-0.7,0.7-1.5v-1c0-0.8-0.2-0.9-0.9-0.9H9V3974.8z M15.1,3974.8
	c-0.8,0-0.9,0.2-0.9,0.9v2c0,2.3,1,4.3,4,4.3c2.7,0,3.2-1.7,3.2-3.5v-2.8c0-0.8-0.2-0.9-0.9-0.9H15.1z"/>
<path d="M8.2,4003.7c-1.3-0.6-2.8-1.2-4.5-1.8c-0.7-0.3-0.9-0.4-0.9-1.2v-1.3c0-0.8,0.1-0.9,0.9-1.3c1.7-0.6,3.2-1.3,4.5-1.8
	l10.2-4.3c1.6-0.7,3.2-1.4,5.3-2.4c0.2-0.1,0.4-0.2,0.5-0.2c0.2,0,0.3,0.2,0.3,0.7v2.4c0,0.8-0.1,0.9-0.9,1.2
	c-2,0.7-3.5,1.3-4.9,1.9l-9.9,4.1c-0.2,0.1-0.4,0.2-0.4,0.3s0.1,0.2,0.4,0.3l9.9,4.1c1.5,0.6,2.9,1.2,4.9,1.9
	c0.7,0.3,0.9,0.4,0.9,1.2v2.3c0,0.5-0.1,0.7-0.3,0.7c-0.1,0-0.3-0.1-0.5-0.2c-2.1-1-3.7-1.7-5.3-2.3L8.2,4003.7z"/>
<path d="M2.9,4014.8c0-0.7,0.1-0.9,0.8-0.9c0.2,0,3.6,0.1,5.4,0.1h9.4c1.8,0,5.1-0.1,5.4-0.1c0.6,0,0.8,0.2,0.8,0.9v2
	c0,0.7-0.1,0.9-0.8,0.9c-0.2,0-3.6-0.1-5.4-0.1H9c-1.8,0-5.1,0.1-5.4,0.1c-0.6,0-0.8-0.2-0.8-0.9v-2H2.9z"/>
<path d="M4.3,4037.9c-0.3,0-0.4-0.2-0.6-0.7c-0.6-1.5-1-3.4-1-5.2c0-6.3,4.2-10.4,10.5-10.4c6.4,0,11.5,3.9,11.5,11.5
	c0,1.6-0.2,3.1-0.8,4.4c-0.2,0.5-0.3,0.7-0.6,0.7c-0.2,0-0.3-0.1-0.6-0.2l-1.8-0.7c-0.5-0.2-0.6-0.3-0.6-0.5s0.1-0.3,0.2-0.6
	c0.4-0.9,0.7-2.1,0.7-3.3c0-5.1-3.6-7.7-7.9-7.7s-7.2,2.7-7.2,7.1c0,1.3,0.3,2.6,0.8,3.5c0.2,0.3,0.2,0.5,0.2,0.6
	c0,0.2-0.2,0.4-0.6,0.6l-1.5,0.6C4.6,4037.8,4.4,4037.9,4.3,4037.9z"/>
<path d="M6.1,4049.2c0,1.5,0.1,4.2,0.1,4.4c0,0.6-0.2,0.8-0.9,0.8H3.7c-0.7,0-0.9-0.1-0.9-0.8c0-0.2,0.1-3,0.1-4.4v-2.4
	c0-1.4-0.1-3.9-0.1-4.1c0-0.7,0.2-0.9,1-0.9c1.7,0,3.6,0.1,5.1,0.1h9.6c1.5,0,3.5,0,5.1-0.1c0.7,0,1,0.2,1,0.9
	c0,0.2-0.1,2.6-0.1,4.1v1.7c0,1.5,0.1,4.2,0.1,4.4c0,0.6-0.2,0.8-0.9,0.8H22c-0.7,0-0.9-0.1-0.9-0.8c0-0.2,0.1-3,0.1-4.4v-2.2
	c0-0.8-0.2-0.9-0.9-0.9h-3.5c-0.8,0-0.9,0.2-0.9,0.9v1.5c0,1.4,0.1,4.2,0.1,4.4c0,0.6-0.2,0.8-0.9,0.8h-1.5c-0.7,0-0.9-0.1-0.9-0.8
	c0-0.2,0.1-3,0.1-4.4v-1.5c0-0.8-0.2-0.9-0.9-0.9H7c-0.8,0-0.9,0.2-0.9,0.9V4049.2z"/>
</svg>
