<?xml version="1.0" encoding="utf-8"?>
<!-- Generator: Adobe Illustrator 25.4.1, SVG Export Plug-In . SVG Version: 6.00 Build 0)  -->
<svg version="1.1" id="レイヤー_1" xmlns="http://www.w3.org/2000/svg" xmlns:xlink="http://www.w3.org/1999/xlink" x="0px"
	 y="0px" viewBox="0 0 542 135" style="enable-background:new 0 0 542 135;" xml:space="preserve">
<style type="text/css">
	.st0{fill:#5F8AFF;}
	.st1{fill:#FFFFFF;}
	.st2{fill:#909090;}
	.st3{fill:#FF5D8C;}
</style>
<path class="st0" d="M526.7,134.8H15.3c-4.1,0-7.4-3.3-7.4-7.4V20.5c0-4.1,3.3-7.4,7.4-7.4h511.4c4.1,0,7.4,3.3,7.4,7.4v106.9
	C534.1,131.5,530.8,134.8,526.7,134.8z"/>
<g>
	<path class="st1" d="M533.5,125.9H8.5c-4.2,0-7.6-3.4-7.6-7.6V8.6C0.9,4.4,4.3,1,8.5,1h524.9c4.2,0,7.6,3.4,7.6,7.6v109.7
		C541.1,122.5,537.7,125.9,533.5,125.9z"/>
	<path class="st2" d="M533.5,126.7H8.5c-4.6,0-8.4-3.8-8.4-8.4V8.6c0-4.6,3.8-8.4,8.4-8.4h524.9c4.6,0,8.4,3.8,8.4,8.4v109.7
		C541.9,122.9,538.1,126.7,533.5,126.7z M8.5,1.8c-3.8,0-6.8,3.1-6.8,6.8v109.7c0,3.8,3.1,6.8,6.8,6.8h524.9c3.8,0,6.8-3.1,6.8-6.8
		V8.6c0-3.8-3.1-6.8-6.8-6.8H8.5z"/>
</g>
<path class="st0" d="M494.1,107.7c-0.2,0-0.4,0-0.5-0.2c-0.5-0.3-0.6-0.9-0.3-1.4l26.5-42.8l-26.5-42.8c-0.3-0.5-0.1-1.1,0.3-1.4
	c0.5-0.3,1.1-0.1,1.4,0.3l26.9,43.3c0.2,0.3,0.2,0.7,0,1.1l-26.9,43.3C494.7,107.6,494.4,107.7,494.1,107.7z"/>
<g>
	<circle class="st3" cx="95.7" cy="63.4" r="28.8"/>
	<g>
		<path class="st1" d="M92.5,75.6c0-2.1,1.5-3.6,3.5-3.6c2.1,0,3.5,1.5,3.5,3.6c0,2.1-1.3,3.6-3.5,3.6
			C93.8,79.3,92.5,77.7,92.5,75.6z M98.3,69.2h-4.6l-0.8-20.8h6.2L98.3,69.2z"/>
	</g>
</g>
<g>
	<g>
		<path class="st0" d="M143.9,46.2c0.4,0,0.5,0.3,0.5,0.6c0.6,3,3,3.4,5.6,3.4c2.7,0,5.8-0.3,8.5-1c0.1,0,0.3-0.1,0.4-0.1
			c0.5,0,0.5,0.6,0.5,0.9c0,0.3,0.1,1.1,0.1,1.4c0,0.5-0.2,0.9-0.7,1c-1.5,0.5-6.8,0.8-8.5,0.8c-2.9,0-6.1-0.4-7.9-3
			c-0.5-0.6-1.1-2-1.1-2.8C141.3,46.9,143.8,46.2,143.9,46.2z M145.7,35.5c1.7,0.5,3.6,0.7,5.4,0.7c1.5,0,3.1-0.2,4.6-0.5
			c0.1,0,0.3,0,0.4,0c0.7,0,0.7,1,0.7,2.3c0,0.7-0.1,0.9-0.6,1c-1.2,0.2-3,0.3-4.3,0.3c-1.8,0-5.8-0.2-7.4-0.8
			c-0.3-0.1-0.5-0.3-0.5-0.6c0-0.3,0.2-1.1,0.3-1.5c0.1-0.5,0.2-1,0.7-1C145.1,35.3,145.5,35.4,145.7,35.5z M161.4,36.7
			c0,0.4-1,1.3-1.4,1.3c-0.2,0-0.3-0.2-0.7-0.7c-0.5-0.6-1.1-1.2-1.7-1.8c-0.1-0.1-0.3-0.3-0.3-0.4c0-0.3,1.1-1.2,1.4-1.2
			C159,33.9,161.4,36.3,161.4,36.7z M164,34.4c0,0.4-1,1.3-1.4,1.3c-0.2,0-0.4-0.3-0.7-0.7c-0.5-0.7-1.1-1.2-1.7-1.8
			c-0.1-0.1-0.3-0.3-0.3-0.4c0-0.4,1.1-1.2,1.4-1.2C161.6,31.7,164,34.1,164,34.4z"/>
		<path class="st0" d="M174,45.4c-0.1,0-0.2,0.1-0.2,0.3v6.1c0,1.3,0.1,2.6,0.1,4c0,0.9-0.3,0.9-1.4,0.9c-1.2,0-1.5,0-1.5-0.9
			c0-1.3,0.1-2.7,0.1-4v-4.2c0-0.1-0.1-0.2-0.2-0.2c-0.1,0-0.1,0.1-0.2,0.1c-0.4,0.8-2.5,4.8-3.3,4.8c-0.5,0-2-1.1-2-1.7
			c0-0.2,0.2-0.4,0.3-0.6c2.2-2.7,3.3-4.6,4.6-7.7c0-0.1,0-0.1,0-0.2c0-0.5-0.5-0.5-0.5-0.5h-0.5c-1,0-2,0.1-2.8,0.1
			c-0.7,0-0.7-0.4-0.7-1.4c0-1-0.1-1.4,0.7-1.4c0.9,0,1.8,0.1,2.8,0.1h0.8c0.6,0,0.8-0.3,0.8-0.8v-1.7c0-0.4-0.2-0.7-0.6-0.7h-0.1
			c-0.5,0.1-1.9,0.3-2.3,0.3c-0.8,0-1.3-1.7-1.3-2c0-0.4,0.3-0.4,1-0.5c2.6-0.3,5.9-1,8.1-2.2c0.1-0.1,0.2-0.1,0.3-0.1
			c0.3,0,1.1,1,1.3,1.2c0.2,0.2,0.9,1,0.9,1.2c0,0.2-0.1,0.3-0.3,0.3c-0.1,0-0.2,0-0.3,0c-0.1,0-0.3-0.1-0.4-0.1
			c-0.1,0-2.6,0.9-2.9,1c-0.5,0.2-0.7,0.5-0.7,1V38c0,0.5,0.3,0.8,0.8,0.8h1c0.9,0,1.9-0.1,2.8-0.1c0.7,0,0.7,0.4,0.7,1.4
			c0,1,0.1,1.4-0.7,1.4c-0.8,0-1.8-0.1-2.8-0.1h-0.5c-0.2,0-0.5,0.1-0.5,0.4c0,0.1,0,0.2,0.1,0.3c1.1,1.6,2.3,3.1,3.7,4.4
			c0.2,0.2,0.5,0.4,0.5,0.6c0,0.6-1.2,1.6-1.6,1.6c-0.7,0-2.6-2.7-3-3.3C174.2,45.4,174.1,45.4,174,45.4z M180.6,36.7
			c0-0.7,0-1.3-0.1-1.9c0-0.1,0-0.2,0-0.3c0-0.3,0.2-0.4,0.5-0.4c0.3,0,2.1,0.1,2.6,0.2c0.2,0,0.6,0.1,0.6,0.4
			c0,0.2-0.2,0.3-0.4,0.5c-0.3,0.3-0.3,0.5-0.3,1.7v8.8c0,1.3,0.1,2.6,0.1,3.8c0,0.9-0.3,1-1.5,1c-1.2,0-1.5-0.1-1.5-1
			c0-1.3,0.1-2.6,0.1-3.8V36.7z M186.6,34.5c0-0.9,0-1.8-0.1-2.5c0-0.1,0-0.2,0-0.3c0-0.3,0.3-0.4,0.5-0.4c0.5,0,1.9,0.1,2.4,0.1
			c0.2,0,0.7,0,0.7,0.3c0,0.2-0.2,0.3-0.4,0.5c-0.3,0.2-0.2,0.4-0.3,0.7c0,0.7,0,1.8,0,2.5V51c0,0.7,0.1,1.4,0.1,2.1
			c0,0.9,0,1.9-0.8,2.5c-1,0.7-2.8,0.9-3.9,0.9c-0.7,0-1.7,0.1-1.7-2.2c0-0.4,0.1-0.9,0.6-0.9c0.3,0,0.9,0.1,1.5,0.1
			c1.5,0,1.4-0.5,1.4-2.3V34.5z"/>
		<path class="st0" d="M199.3,47.7c-0.5,0-0.8,0.2-0.9,0.7c-0.3,2.6-1.1,5.2-2.6,7.3c-0.2,0.3-0.5,0.7-0.9,0.7c-0.5,0-2-1-2-1.6
			c0-0.2,0.1-0.3,0.2-0.5c2.6-3.9,2.7-7.7,2.7-12.2v-6c0-0.9-0.1-1.8-0.1-2.7c0-1.1,0.5-1.5,1.6-1.5c0.8,0,1.6,0.1,2.4,0.1h13
			c0.8,0,1.6-0.1,2.4-0.1c1.1,0,1.6,0.3,1.6,1.5c0,0.9,0,1.8,0,2.7v14.7c0,0.7,0.1,1.4,0.1,2.2c0,1-0.1,2-1,2.7
			c-1,0.7-2.6,0.8-3.7,0.8c-0.5,0-1.6,0.1-1.6-2.3c0-0.5,0.1-0.7,0.6-0.7c0.5,0,0.9,0.1,1.3,0.1c1.4,0,1.4-0.3,1.4-1.7v-3.4
			c0-0.5-0.2-0.8-0.8-0.8h-5c-0.6,0-0.8,0.2-0.8,0.8v2.5c0,1.4,0.1,2.8,0.1,4.2c0,0.9-0.3,0.9-1.5,0.9c-1.2,0-1.5,0-1.5-0.9
			c0-1.4,0.1-2.8,0.1-4.2v-2.5c0-0.5-0.2-0.8-0.8-0.8H199.3z M199.6,41.3c-0.6,0-0.8,0.2-0.8,0.8v0.3c0,0.6,0,1.3,0,1.9
			c0,0.5,0.2,0.8,0.8,0.8h4.1c0.6,0,0.8-0.2,0.8-0.8v-2.2c0-0.6-0.2-0.8-0.8-0.8H199.6z M204.4,35.7c-0.1-0.5-0.3-0.7-0.8-0.8h-4.1
			c-0.5,0.1-0.7,0.3-0.8,0.8v2.2c0.1,0.5,0.3,0.7,0.8,0.8h4.1c0.5-0.1,0.7-0.3,0.8-0.8V35.7z M213.1,38.7c0.5-0.1,0.8-0.3,0.8-0.8
			v-2.2c0-0.5-0.3-0.7-0.8-0.8h-5c-0.5,0.1-0.7,0.3-0.8,0.8v2.2c0.1,0.5,0.3,0.7,0.8,0.8H213.1z M207.3,44.3
			c0.1,0.5,0.3,0.7,0.8,0.8h5c0.5-0.1,0.8-0.3,0.8-0.8v-2.2c0-0.5-0.3-0.7-0.8-0.8h-5c-0.5,0.1-0.7,0.3-0.8,0.8V44.3z"/>
		<path class="st0" d="M227.2,37c0.2,0.1,0.6,0.1,0.6,0.4c0,0.2-0.1,0.2-0.3,0.4c-0.4,0.3-0.4,0.9-0.5,1.4c-0.1,1-0.2,2-0.2,3
			c0,1.9,0.2,4.1,0.9,5.9c0.3,0.8,1.3,2.5,2.3,2.5c0.8,0,1.6-1.2,2-1.9c0.2-0.3,0.4-0.7,0.8-0.7c0.6,0,2,1.2,2,1.7
			c0,0.5-1.3,2-1.7,2.5c-0.8,0.9-1.7,1.8-3,1.8c-2.1,0-3.7-1.9-4.7-3.6c-1.4-2.7-1.6-6.2-1.6-9.2c0-0.5,0.1-4.1,0.1-4.3
			c0-0.2,0.2-0.3,0.4-0.3C224.6,36.4,226.7,36.9,227.2,37z M238.7,36.4c0.6,0,3,1.8,4.4,4.4c0.8,1.5,1.7,4.2,1.7,5.9
			c0,0.5-0.3,0.7-0.8,0.8c-0.5,0.1-1.1,0.3-1.6,0.3c-0.9,0-0.9-0.4-0.9-1.1c-0.3-3.3-1.5-6-4.2-8.1c-0.2-0.1-0.3-0.2-0.3-0.4
			C237,37.7,238.1,36.4,238.7,36.4z"/>
		<path class="st0" d="M261.3,32.1c0.3,0.1,1,0.3,1,0.6c0,0.1-0.2,0.2-0.3,0.3c-0.4,0.3-0.5,0.4-0.7,1c-0.1,0.3-0.7,2.4-0.7,2.5
			c0,0.3,0.2,0.4,0.4,0.4c0.5,0,2.7-0.8,3.3-1c0.2-0.1,0.4-0.1,0.6-0.1c0.6,0,0.6,1.7,0.6,2.2c0,0.5-0.1,0.9-0.5,1
			c-1.4,0.5-3.2,0.8-4.6,1.1c-0.8,0.2-0.9,0.3-1.2,1.1c-1.3,3.8-3.4,9-5.3,12.5c-0.4,0.7-0.6,1.1-1,1.1c-0.5,0-2.4-0.9-2.4-1.5
			c0-0.3,0.3-0.7,0.5-0.9c1.8-2.6,3.9-7.5,5-10.5c0.1-0.2,0.2-0.6,0.2-0.7c0-0.3-0.2-0.4-0.5-0.4c-0.4,0-1.6,0.1-2.5,0.1
			c-0.6,0-1,0-1.2-0.5c-0.1-0.4-0.2-1.6-0.2-2.1c0-0.3,0.1-0.5,0.4-0.5c0.3,0,1.4,0.1,2.7,0.1c1.8,0,2.2,0,2.5-0.5
			c0.3-0.6,1-4.3,1-5.2c0-0.4,0-0.7,0.3-0.7C259.1,31.4,261,32,261.3,32.1z M261,50.4c1.2,1.4,3.4,1.6,5.1,1.6c1.5,0,2.6-0.1,4-0.6
			c0.1,0,0.2-0.1,0.3-0.1c0.5,0,0.5,0.7,0.5,1.8c0,0.6,0,1.2-0.3,1.4c-0.5,0.2-3.7,0.4-4.4,0.4c-1.9,0-4.5-0.2-6.1-1.3
			c-0.5-0.3-1.4-1-1.4-1.6c0-0.4,1.3-2.1,1.8-2.1C260.6,50,260.8,50.3,261,50.4z M264.4,41.3c1.5,0,4.3,0.3,5.7,0.8
			c0.3,0.1,0.4,0.3,0.4,0.6c0,0.4-0.3,1.6-0.5,2c-0.1,0.3-0.2,0.4-0.5,0.4c-0.2,0-0.4-0.1-0.6-0.1c-1.4-0.5-3-0.7-4.5-0.7
			c-0.4,0-0.7,0-1.1,0c-0.6,0-0.7-0.1-0.7-0.6C262.6,41.1,263.1,41.3,264.4,41.3z"/>
		<path class="st0" d="M289,32.1c0.3,0.1,1,0.3,1,0.6c0,0.1-0.2,0.2-0.3,0.3c-0.4,0.3-0.5,0.4-0.7,1c-0.1,0.3-0.7,2.4-0.7,2.5
			c0,0.3,0.2,0.4,0.4,0.4c0.5,0,2.7-0.8,3.3-1c0.2-0.1,0.4-0.1,0.6-0.1c0.6,0,0.6,1.7,0.6,2.2c0,0.5-0.1,0.9-0.5,1
			c-1.4,0.5-3.2,0.8-4.6,1.1c-0.8,0.2-0.9,0.3-1.2,1.1c-1.3,3.8-3.4,9-5.3,12.5c-0.4,0.7-0.6,1.1-1,1.1c-0.5,0-2.4-0.9-2.4-1.5
			c0-0.3,0.3-0.7,0.5-0.9c1.8-2.6,3.9-7.5,5-10.5c0.1-0.2,0.2-0.6,0.2-0.7c0-0.3-0.2-0.4-0.5-0.4c-0.4,0-1.6,0.1-2.5,0.1
			c-0.6,0-1,0-1.2-0.5c-0.1-0.4-0.2-1.6-0.2-2.1c0-0.3,0.1-0.5,0.4-0.5c0.3,0,1.4,0.1,2.7,0.1c1.8,0,2.2,0,2.5-0.5
			c0.3-0.6,1-4.3,1-5.2c0-0.4,0-0.7,0.3-0.7C286.7,31.4,288.6,32,289,32.1z M288.6,50.4c1.2,1.4,3.4,1.6,5.1,1.6
			c1.5,0,2.6-0.1,4-0.6c0.1,0,0.2-0.1,0.3-0.1c0.5,0,0.5,0.7,0.5,1.8c0,0.6,0,1.2-0.3,1.4c-0.5,0.2-3.7,0.4-4.4,0.4
			c-1.9,0-4.5-0.2-6.1-1.3c-0.5-0.3-1.4-1-1.4-1.6c0-0.4,1.3-2.1,1.8-2.1C288.3,50,288.5,50.3,288.6,50.4z M292,41.3
			c1.5,0,4.3,0.3,5.7,0.8c0.3,0.1,0.4,0.3,0.4,0.6c0,0.4-0.3,1.6-0.5,2c-0.1,0.3-0.2,0.4-0.5,0.4c-0.2,0-0.4-0.1-0.6-0.1
			c-1.4-0.6-3-0.7-4.5-0.7c-0.4,0-0.7,0-1.1,0c-0.6,0-0.7-0.1-0.7-0.6C290.2,41.1,290.7,41.3,292,41.3z M297.9,36.5
			c0,0.4-1,1.2-1.4,1.2c-0.2,0-0.3-0.2-0.4-0.3c-0.6-0.8-1.2-1.6-2-2.3c-0.1-0.1-0.3-0.3-0.3-0.4c0-0.4,1.1-1.1,1.4-1.1
			C295.6,33.7,297.9,36.2,297.9,36.5z M300.8,34.7c0,0.4-1,1.3-1.4,1.3c-0.2,0-0.3-0.2-0.4-0.3c-0.6-0.8-1.2-1.5-2-2.3
			c-0.1-0.1-0.2-0.2-0.2-0.4c0-0.3,1-1.2,1.4-1.2C298.5,31.8,300.8,34.4,300.8,34.7z"/>
		<path class="st0" d="M321.9,35.6c0,0.3-0.4,0.3-0.6,0.3c-0.3,0-0.5,0.1-0.8,0.3c-0.7,0.5-1.4,1-2.1,1.6c-1.6,1.3-3.2,2.6-4.7,4
			c-0.5,0.5-1.2,1.1-1.2,1.6c0,0.7,0.9,1.7,1.4,2.2c1.6,1.7,3.4,3.3,5.1,4.9c0.5,0.4,2.4,2,2.4,2.6c0,0.7-1.7,2.3-2.4,2.3
			c-0.3,0-0.7-0.5-0.9-0.7c-1.1-1.3-2.3-2.5-3.4-3.7c-1.5-1.5-3.1-3.1-4.5-4.7c-0.8-0.9-1.4-1.7-1.4-3c0-0.7,0.2-1.4,0.6-2
			c0.7-0.9,2.7-2.5,3.7-3.3c1.7-1.4,4-3.3,5.3-5c0.1-0.1,0.3-0.3,0.4-0.3c0.4,0,1.2,1,1.5,1.3C320.8,34.2,321.9,35.2,321.9,35.6z"/>
		<path class="st0" d="M341.1,35.8c0,0,0,0.1,0.2,0.1h4c0.6,0,0.8-0.1,1.2-0.6c0.8-1.1,1.6-2.7,2.2-3.9c0.1-0.2,0.2-0.4,0.4-0.4
			c0.2,0,1.2,0.4,1.4,0.5c0.6,0.2,1.6,0.6,1.6,1c0,0.3-0.3,0.3-0.4,0.3c-0.3,0-0.4,0-0.6,0.2c-0.2,0.2-1,1.4-1.5,2.2
			c-0.1,0.1-0.1,0.2-0.1,0.3c0,0.3,0.2,0.3,0.4,0.3h2.5c1.1,0,2.3-0.1,3.4-0.1c0.7,0,0.6,0.3,0.6,1.3c0,0.9,0,1.3-0.6,1.3
			c-1.2,0-2.3-0.1-3.4-0.1h-16.8c-1.1,0-2.3,0.1-3.4,0.1c-0.7,0-0.6-0.3-0.6-1.3c0-1,0-1.3,0.6-1.3c1.1,0,2.3,0.1,3.4,0.1h2.5
			c0.3,0,0.5-0.1,0.5-0.4c0-0.1,0-0.2-0.1-0.3c-0.5-0.9-1-1.7-1.6-2.5c-0.1-0.1-0.3-0.3-0.3-0.5c0-0.5,1.8-1.2,2.2-1.2
			c0.4,0,0.6,0.3,1.4,1.5c0.3,0.4,1.4,2.2,1.4,2.5c0,0.2-0.3,0.4-0.4,0.5C341.1,35.7,341.1,35.8,341.1,35.8z M336.9,50.7
			c-0.5,0-0.8,0.2-0.8,0.8v1.6c0,0.9,0.1,1.8,0.1,2.8c0,0.7-0.2,0.7-1.4,0.7c-1.1,0-1.4,0-1.4-0.7c0-0.9,0.1-1.9,0.1-2.8v-9.6
			c0-0.7-0.1-1.4-0.1-2.1c0-0.9,0.4-1.2,1.3-1.2c0.6,0,1.3,0.1,1.9,0.1h3.3c0.6,0,1.2-0.1,1.9-0.1c0.9,0,1.4,0.2,1.4,1.2
			c0,0.7,0,1.4,0,2v8.9c0,0.5,0,1,0,1.5c0,0.9-0.1,1.7-0.9,2.2c-0.8,0.4-2,0.6-2.8,0.6c-1,0-1.7,0-1.7-2c0-0.5,0.1-0.7,0.5-0.7
			c0.5,0,0.9,0,1.3,0c1,0,0.9-0.5,0.9-1.1v-1.2c0-0.6-0.2-0.8-0.8-0.8H336.9z M339.8,44.5c0.5-0.1,0.8-0.3,0.8-0.8v-0.3
			c0-0.5-0.3-0.7-0.8-0.8h-2.8c-0.5,0.1-0.7,0.3-0.8,0.8v0.3c0.1,0.5,0.3,0.7,0.8,0.8H339.8z M336.9,46.7c-0.5,0-0.7,0.3-0.8,0.8
			v0.3c0.1,0.5,0.3,0.7,0.8,0.8h2.8c0.5-0.1,0.8-0.3,0.8-0.8v-0.3c0-0.5-0.3-0.8-0.8-0.8H336.9z M346.2,43c0-0.7-0.1-1.4-0.1-2
			c0-0.1,0-0.1,0-0.2c0-0.3,0.3-0.3,0.5-0.3c0.4,0,2,0.1,2.4,0.1c0.2,0,0.6,0,0.6,0.3c0,0.2-0.2,0.3-0.4,0.4
			c-0.3,0.2-0.3,0.4-0.3,1.3v5.4c0,1,0.1,2,0.1,3.1c0,0.7-0.3,0.8-1.3,0.8c-1.2,0-1.4,0-1.4-0.8c0-1,0.1-2,0.1-3.1V43z M351.9,41.9
			c0-0.6,0-1.2-0.1-1.7c0-0.1,0-0.2,0-0.2c0-0.3,0.3-0.3,0.5-0.3c0.3,0,1.8,0.1,2.3,0.1c0.2,0,0.7,0,0.7,0.4c0,0.2-0.2,0.3-0.4,0.4
			c-0.3,0.2-0.3,0.5-0.3,1.5v9.8c0,0.5,0.1,1.1,0.1,1.7c0,0.9-0.1,1.8-0.9,2.3c-0.9,0.7-2.7,0.8-3.8,0.8c-0.4,0-0.9,0-1.1-0.3
			c-0.3-0.4-0.5-1.2-0.5-1.7c0-0.5,0.1-0.9,0.6-0.9c0.1,0,0.9,0.1,1.5,0.1c1.3,0,1.4-0.3,1.4-1.9V41.9z"/>
		<path class="st0" d="M367.1,34.8c0.2,0.1,0.6,0.2,0.6,0.5c0,0.2-0.1,0.2-0.4,0.4c-0.5,0.3-0.6,0.5-0.9,1.2c-1,2.5-1.6,5.4-1.6,8.1
			c0,0.5,0.1,4,0.8,4c0.3,0,0.7-0.8,0.8-1.1c0.2-0.4,0.3-0.7,0.6-0.7c0.3,0,1,0.6,1,0.9c0,0.3-1.1,2.8-1.1,4.1
			c0,0.3,0.1,0.9,0.1,1.2c0,0.1,0.1,0.3,0.1,0.4c0,0.7-1.6,1.4-2.2,1.4c-0.5,0-0.8-0.6-1.2-1.4c-1.3-2.7-1.7-5.7-1.7-8.7
			c0-3.3,0.6-6.2,1.4-9.4c0.1-0.5,0.3-0.9,0.4-1.4c0.1-0.3,0.1-0.6,0.4-0.6C364.4,33.6,366.7,34.6,367.1,34.8z M370.7,48.3
			c1.2,1.5,2.4,2,4.3,2c2.1,0,4.2-0.3,6.2-0.9c0.1-0.1,0.4-0.1,0.6-0.1c0.5,0,0.5,0.7,0.5,2.1c0,0.3,0,0.9-0.3,1
			c-0.8,0.4-5.6,0.9-6.7,0.9c-4.6,0-6.5-2.4-6.5-2.8c0-0.4,1-2.4,1.5-2.4C370.5,48.1,370.6,48.2,370.7,48.3z M371.7,36
			c1.2,0.3,2.5,0.4,3.7,0.4c1.4,0,2.9-0.2,4.3-0.6c0.1,0,0.3-0.1,0.5-0.1c0.4,0,0.5,0.3,0.6,0.7c0.1,0.5,0.1,1,0.1,1.5
			c0,0.6,0,0.8-0.5,0.9c-1.1,0.2-3.6,0.4-4.8,0.4c-0.9,0-4.4-0.2-5-0.6c-0.3-0.2-0.3-0.8-0.3-1.1c0-1.4,0.1-1.8,0.6-1.8
			C371.1,35.8,371.4,35.9,371.7,36z"/>
		<path class="st0" d="M389.5,48.7c0.7,0,5.5,3.9,5.5,4.6c0,0.6-1.4,2.2-2.1,2.2c-0.2,0-0.4-0.3-0.6-0.4c-1.2-1.5-2.7-2.8-4.3-3.9
			c-0.2-0.1-0.5-0.3-0.5-0.5C387.5,50.2,389,48.7,389.5,48.7z"/>
		<path class="st0" d="M144.9,86.6c-1.1,2.4-2.4,4.6-3.8,6.8c-0.1,0.2-0.3,0.5-0.3,0.8c0,0.1,0.1,0.4,0.1,0.6c0,0.3-0.2,0.4-0.3,0.4
			c-0.3,0-1-0.6-1.4-0.9c-0.3-0.3-1.2-0.8-1.2-1.2c0-0.1,0.3-0.5,0.4-0.7c1.4-1.9,3.5-5.9,4.5-8.2c0.1-0.2,0.2-0.4,0.4-0.4
			c0.6,0,2,1,2,1.6C145.4,85.6,145,86.3,144.9,86.6z M142.5,81.9c-0.2,0-1-0.6-1.4-1c-0.7-0.7-1.9-1.4-2.6-1.9
			c-0.1-0.1-0.3-0.2-0.3-0.4c0-0.5,1-1.9,1.5-1.9c0.4,0,2,1.2,2.4,1.5c0.4,0.3,2,1.4,2,1.8C144.1,80.5,143,81.9,142.5,81.9z
			 M144,75.5c-0.2,0-0.5-0.2-0.8-0.5c-1-0.8-2-1.5-3-2.2c-0.3-0.2-0.5-0.3-0.5-0.6c0-0.3,1-1.8,1.5-1.8c0.4,0,1.8,1.1,2.2,1.4
			c0.5,0.4,1.4,1.1,1.9,1.5c0.1,0.1,0.3,0.3,0.3,0.5C145.5,74.2,144.5,75.5,144,75.5z M156.2,78.5c-0.5,0-0.8,0.2-0.8,0.8v3.6
			c0,0.5,0.3,0.8,0.8,0.8h1.6c1,0,2.1-0.1,3.1-0.1c0.8,0,0.7,0.4,0.7,1.4c0,1,0,1.4-0.7,1.4c-1,0-2.1-0.1-3.1-0.1h-1.6
			c-0.5,0-0.8,0.2-0.8,0.8v4.2c0,0.6,0.3,0.8,0.8,0.8h3.1c1,0,2.1-0.1,3.1-0.1c0.7,0,0.7,0.4,0.7,1.4c0,1.1,0,1.4-0.7,1.4
			c-1,0-2.1-0.1-3.1-0.1h-10.7c-1,0-2.1,0.1-3.1,0.1c-0.7,0-0.7-0.3-0.7-1.4c0-1,0-1.4,0.7-1.4c1,0,2.1,0.1,3.1,0.1h3
			c0.6,0,0.8-0.2,0.8-0.8v-4.2c0-0.6-0.2-0.8-0.8-0.8h-1.2c-1,0-2,0.1-3.1,0.1c-0.8,0-0.8-0.3-0.8-1.4c0-1,0-1.4,0.8-1.4
			c1,0,2,0.1,3.1,0.1h1.2c0.6,0,0.8-0.3,0.8-0.8v-3.6c0-0.6-0.2-0.8-0.8-0.8h-2.2c-1,0-2,0.1-2.9,0.1c-0.7,0-0.7-0.4-0.7-1.4
			c0-1,0-1.4,0.7-1.4c1,0,2,0.1,2.9,0.1h3.9c0.2,0,0.3-0.1,0.3-0.3c0-0.1-0.1-0.2-0.1-0.3c-1.1-1-2.2-1.9-3.4-2.8
			c-0.2-0.2-0.5-0.3-0.5-0.7c0-0.3,0.9-1.7,1.5-1.7c0.4,0,1.9,1.2,2.3,1.6c0.4,0.4,2.5,2,2.5,2.5c0,0.3-0.4,0.8-0.7,1.1
			c-0.1,0.1-0.1,0.1-0.1,0.3c0,0.2,0.2,0.3,0.3,0.3h3.2c1,0,2-0.1,2.9-0.1c0.7,0,0.7,0.4,0.7,1.4c0,1,0,1.4-0.7,1.4
			c-1,0-2-0.1-2.9-0.1H156.2z"/>
		<path class="st0" d="M175.9,72.5c0.5,0,0.8-0.2,0.8-0.8c0-0.2-0.1-1-0.1-1.1c0-0.4,0.3-0.4,0.5-0.4c0.6,0,1.8,0.1,2.4,0.2
			c0.4,0.1,0.9,0.1,0.9,0.5c0,0.2-0.1,0.3-0.4,0.5c-0.2,0.1-0.3,0.3-0.3,0.5v0.2c0,0.4,0.4,0.6,0.8,0.6h4c1.1,0,2.3-0.1,3.4-0.1
			c0.7,0,0.7,0.3,0.7,1.1s0,1.1-0.7,1.1c-0.9,0-1.8-0.1-2.7-0.1c0,0-0.1,0-0.1,0.1c0,0,0,0,0.1,0.1c0.2,0.1,0.7,0.2,0.7,0.5
			c0,0.3-0.3,0.3-0.5,0.3c-0.3,0-0.4,0.1-0.5,0.3l-0.3,0.6c-0.1,0.1-0.1,0.2-0.1,0.3c0,0.3,0.3,0.3,0.5,0.4h1.9
			c1.1,0,2.3-0.1,3.4-0.1c0.7,0,0.7,0.2,0.7,1.1c0,0.9,0,1.1-0.7,1.1c-1.1,0-2.3-0.1-3.4-0.1h-16.8c-1.2,0-2.3,0.1-3.4,0.1
			c-0.7,0-0.7-0.2-0.7-1.1c0-0.9,0-1.1,0.7-1.1c1.1,0,2.3,0.1,3.4,0.1h2.3c0.1,0,0.5,0,0.5-0.5c0-0.1,0-0.2,0-0.3
			c-0.1-0.1-0.1-0.2-0.2-0.4c-0.2-0.4-0.4-0.9-0.4-1c0-0.1,0.1-0.2,0.1-0.3c0,0,0-0.1,0-0.1c0-0.1-0.1-0.1-0.1-0.1
			c-1.1,0-2.2,0.1-3.3,0.1c-0.7,0-0.7-0.3-0.7-1.1s0-1.1,0.7-1.1c1.1,0,2.3,0.1,3.4,0.1H175.9z M171,90.1c-0.2,0-0.3,0.3-0.4,0.5
			c-0.5,1.2-1.5,2.9-2.3,3.9c-0.2,0.3-0.4,0.5-0.7,0.5c-0.5,0-1.9-0.6-1.9-1.2c0-0.3,0.3-0.7,0.5-0.9c1-1.3,1.7-2.4,2.2-3.9
			c0.1-0.2,0.2-0.4,0.4-0.4c0.3,0,1.4,0.4,1.7,0.5c0.5,0.2,0.9,0.3,0.9,0.6C171.5,90,171.2,90,171,90.1z M176.6,88
			c0-0.1-0.1-0.1-0.1-0.1h-3.1c-0.7,0-1.4,0.1-2.2,0.1c-0.8,0-1.4-0.1-1.4-1.1c0-0.5,0.1-1,0.1-1.6v-2.4c0-0.6-0.1-1.1-0.1-1.6
			c0-0.9,0.6-1.1,1.4-1.1c0.7,0,1.5,0.1,2.2,0.1h9.7c0.7,0,1.4-0.1,2.2-0.1c0.8,0,1.4,0.1,1.4,1.1c0,0.5,0,1,0,1.5v2.4
			c0,0.5,0,1,0,1.5c0,0.9-0.5,1.1-1.3,1.1c-0.8,0-1.5-0.1-2.2-0.1h-3.7c-0.2,0-0.4,0.1-0.4,0.3c0,0.1,0.1,0.2,0.1,0.3
			c0.3,0.4,1.5,1.8,1.5,2.2c0,0.6-1.5,1.2-1.9,1.2c-0.3,0-0.5-0.3-0.7-0.5c-0.5-0.8-1.1-1.5-1.7-2.2c-0.1-0.1-0.2-0.3-0.2-0.4
			c0-0.2,0.3-0.4,0.4-0.6C176.6,88,176.6,88,176.6,88z M180.9,92.7c0.9,0,1.2-0.1,1.6-1.8c0.1-0.5,0.1-0.7,0.7-0.7s2.1,0.2,2.1,1.1
			c0,0.9-0.6,2.2-1,2.9c-0.6,0.9-1.5,0.9-2.5,0.9h-7.1c-1.2,0-2.6-0.1-2.6-1.7c0-0.3,0-0.7,0-1v-1.6c0-0.7-0.1-1.5-0.1-1.8
			c0-0.3,0.2-0.3,0.4-0.3c0.3,0,2,0.1,2.4,0.1c0.4,0,0.9,0,0.9,0.4c0,0.2-0.2,0.3-0.4,0.4c-0.3,0.2-0.3,0.3-0.3,1.1V92
			c0,0.7,0.4,0.7,1.1,0.7H180.9z M183.3,83.2c0.3,0,0.4-0.2,0.4-0.5v-0.2c0-0.3-0.2-0.4-0.4-0.5h-10.1c-0.3,0-0.4,0.2-0.4,0.5v0.2
			c0,0.3,0.2,0.5,0.4,0.5H183.3z M173.3,84.8c-0.3,0-0.5,0.2-0.5,0.5v0.2c0,0.3,0.2,0.5,0.5,0.5h9.9c0.3,0,0.5-0.2,0.5-0.5v-0.2
			c0-0.3-0.2-0.5-0.5-0.5H173.3z M175.5,77c0,0.1,0.1,0.1,0.1,0.1h4.7c0.6,0,0.8-0.1,1.1-0.7c0.2-0.4,0.4-0.8,0.6-1.2
			c0-0.1,0-0.2,0-0.2c0-0.3-0.3-0.4-0.6-0.5h-6c-0.3,0-0.5,0.1-0.5,0.4c0,0.1,0,0.1,0.1,0.2c0.2,0.3,0.6,1.2,0.6,1.4
			c0,0.1,0,0.1-0.1,0.2C175.5,77,175.5,77,175.5,77z M188.6,94.8c-0.4,0-0.5-0.3-0.7-0.6c-0.7-1.5-1.5-2.9-2.5-4.2
			c-0.1-0.2-0.3-0.4-0.3-0.6c0-0.5,1.4-1.1,1.8-1.1c0.2,0,0.4,0.1,0.5,0.3c0.5,0.6,1.2,1.6,1.6,2.3c0.3,0.5,1.4,2.3,1.4,2.8
			C190.5,94.3,188.8,94.8,188.6,94.8z"/>
		<path class="st0" d="M199,90.2c-0.3,0.1-0.4,0.3-0.7,1c-0.7,1.4-1.4,2.7-2.3,3.9c-0.2,0.3-0.3,0.5-0.7,0.5c-0.6,0-2-0.7-2-1.3
			c0-0.2,0.2-0.5,0.4-0.7c0.9-1.1,1.9-2.8,2.4-4.2c0.1-0.4,0.2-0.7,0.5-0.7c0.4,0,1.9,0.6,2.4,0.7c0.2,0.1,0.5,0.2,0.5,0.5
			C199.4,90.1,199.2,90.2,199,90.2z M207.7,73.1h5.7c1,0,2-0.1,3-0.1c0.7,0,0.7,0.3,0.7,1.4c0,1,0,1.4-0.7,1.4c-1,0-2-0.1-3-0.1
			h-5.7c-0.6,0-0.8,0.2-0.8,0.8v0.7c0,0.5,0.2,0.8,0.8,0.8h3.5c0.8,0,1.6-0.1,2.4-0.1c0.8,0,1.8,0.1,1.8,1.1c0,0.5,0,1.1,0,1.6v4.7
			c0,0.3,0.1,1.9,0.1,1.9c0,0.6-0.4,0.6-1.5,0.6c-1,0-1.4,0-1.5-0.5c-0.1-0.2-0.1-0.3-0.3-0.3h-12.4c-0.2,0-0.3,0.1-0.3,0.3
			c-0.1,0.4-0.4,0.4-1.5,0.4c-1,0-1.5,0-1.5-0.6c0-0.1,0.1-1.6,0.1-1.9v-4.7c0-0.5,0-1.1,0-1.6c0-1.1,0.9-1.2,1.8-1.2
			c0.8,0,1.6,0.1,2.4,0.1h2.6c0.6,0,0.8-0.3,0.8-0.8v-4.6c0-0.6,0-1.1-0.1-1.7c0-0.1,0-0.2,0-0.3c0-0.3,0.2-0.4,0.5-0.4
			c0.4,0,2.3,0.2,2.7,0.2c0.2,0,0.6,0.1,0.6,0.4c0,0.2-0.2,0.3-0.4,0.4c-0.4,0.3-0.3,0.6-0.4,1.1C206.9,72.9,207.1,73.1,207.7,73.1z
			 M211.7,84.6c0.5-0.1,0.7-0.3,0.8-0.8v-2.7c-0.1-0.5-0.3-0.7-0.8-0.8h-11.5c-0.5,0.1-0.7,0.3-0.8,0.8v2.7c0.1,0.5,0.3,0.7,0.8,0.8
			H211.7z M202.5,95.4c-0.9,0-0.8-0.7-0.9-2.1c-0.1-1-0.2-2.3-0.4-3.3c0-0.1-0.1-0.3-0.1-0.4c0-0.6,1.4-0.9,1.9-0.9
			c0.8,0,0.9,0.3,1.3,2.8c0.1,0.7,0.3,2.2,0.3,2.8C204.6,95.2,203.2,95.4,202.5,95.4z M209.1,95.5c-0.8,0-0.8-0.6-1.1-2.1
			c-0.2-0.9-0.6-2.5-1-3.3c-0.1-0.1-0.1-0.3-0.1-0.5c0-0.7,1.4-0.9,1.9-0.9c0.7,0,0.9,0.4,1.2,1.6c0.4,1.3,0.7,2.6,1,3.9
			c0,0.1,0.1,0.3,0.1,0.4C211,95.3,209.6,95.5,209.1,95.5z M216.3,95.7c-0.4,0-0.7-0.5-0.8-0.8c-0.7-1.5-1.4-2.9-2.4-4.3
			c-0.1-0.2-0.3-0.5-0.3-0.7c0-0.5,1.6-1.1,2-1.1c0.3,0,0.4,0.2,0.6,0.3c0.4,0.4,1.1,1.7,1.4,2.2c0.3,0.5,1.5,2.7,1.5,3.1
			C218.3,95.2,216.8,95.7,216.3,95.7z"/>
		<path class="st0" d="M235.5,72.1c0,0.2-0.2,0.3-0.3,0.3c-0.5,0.2-0.6,0.3-0.9,1c-0.1,0.1-0.3,0.5-0.3,0.7c0,0.2,0.1,0.3,0.3,0.3
			c0.6,0,2.7-0.6,3.3-0.8c0.2-0.1,0.5-0.2,0.7-0.2c0.5,0,0.6,0.5,0.7,0.9c0.1,0.4,0.2,1.1,0.2,1.5c0,0.5-0.9,0.6-1.5,0.7
			c-1.8,0.4-3.6,0.7-5.4,0.9c-0.5,0.1-0.6,0.1-0.9,0.5c-0.2,0.2-1,1.4-1,1.6c0,0.1,0.1,0.2,0.2,0.2c0.2,0,0.4-0.1,0.5-0.2
			c1-0.4,2-0.7,3.1-0.7c1.8,0,2.9,0.8,3.2,2.6c0.1,0.3,0.1,0.5,0.4,0.5c0.3,0,2.9-1.4,3.3-1.6c0.2-0.1,0.5-0.3,0.7-0.3
			c0.5,0,1.2,2.2,1.2,2.7c0,0.3-0.3,0.5-0.9,0.6c-0.1,0.1-0.3,0.1-0.4,0.1c-1.1,0.4-2.2,0.9-3.3,1.4c-0.5,0.2-0.7,0.4-0.7,0.9V86
			c0,0.9,0,1.7,0,2.6c0,1-0.1,1.1-1.2,1.1c-1.2,0-1.7-0.1-1.7-0.8c0-0.6,0.1-1.2,0.1-1.8c0-0.3-0.1-0.5-0.4-0.5
			c-0.1,0-3.1,1.2-3.1,3c0,1.9,2.8,2.1,4.1,2.1c1.9,0,3.4-0.3,5.3-0.7c0.2,0,0.4-0.1,0.6-0.1c0.4,0,0.6,0.3,0.6,1.9
			c0,0.9,0,1.1-0.7,1.2c-1.1,0.3-4.2,0.4-5.4,0.4c-1.6,0-3-0.1-4.5-0.7c-1.7-0.8-2.8-2.1-2.8-4.1c0-2.6,2.1-3.9,4-5.1
			c0.6-0.3,1.2-0.7,1.8-0.9c0.3-0.1,0.5-0.3,0.5-0.7c0-0.2-0.1-0.6-0.1-0.8c-0.1-0.6-0.6-1-1.2-1c-1.6,0-4.2,1.4-5.3,2.5
			c-0.8,0.8-1.8,2.3-2.4,3.3c-0.1,0.1-0.2,0.3-0.4,0.3c-0.5,0-2.4-1.1-2.4-1.6c0-0.2,0.2-0.5,0.4-0.6c0.7-0.7,4.8-6.4,4.8-6.9
			c0-0.3-0.2-0.3-0.6-0.3c-0.5,0-1.1,0.1-2,0.1c-0.6,0-0.7-0.1-0.7-1.6c0-1.1,0.1-1.3,0.8-1.3c0.5,0,1.2,0.1,2,0.1h0.8
			c0.7,0,1.5,0,1.8-0.4c0.5-0.6,1.3-2.8,1.5-3.7c0.1-0.3,0.1-0.6,0.4-0.6C232.5,70.3,235.5,71.6,235.5,72.1z"/>
		<path class="st0" d="M254.4,85.2c0.4,0,0.5,0.3,0.5,0.6c0.6,3,3,3.4,5.6,3.4c2.7,0,5.8-0.3,8.5-1c0.1,0,0.3-0.1,0.4-0.1
			c0.5,0,0.5,0.6,0.5,0.9c0,0.3,0.1,1.1,0.1,1.4c0,0.5-0.2,0.9-0.7,1c-1.5,0.5-6.8,0.8-8.5,0.8c-2.9,0-6.1-0.4-7.9-3
			c-0.5-0.6-1.1-2-1.1-2.8C251.8,85.9,254.4,85.2,254.4,85.2z M256.2,74.5c1.7,0.5,3.6,0.7,5.4,0.7c1.5,0,3.1-0.2,4.6-0.5
			c0.1,0,0.3,0,0.4,0c0.7,0,0.7,1,0.7,2.3c0,0.7-0.1,0.9-0.6,1c-1.2,0.2-3,0.3-4.3,0.3c-1.8,0-5.8-0.2-7.4-0.8
			c-0.3-0.1-0.5-0.3-0.5-0.6c0-0.3,0.2-1.1,0.3-1.5c0.1-0.5,0.2-1,0.7-1C255.6,74.3,256,74.4,256.2,74.5z M272,75.7
			c0,0.4-1,1.3-1.4,1.3c-0.2,0-0.3-0.2-0.7-0.7c-0.5-0.6-1.1-1.2-1.7-1.8c-0.1-0.1-0.3-0.3-0.3-0.4c0-0.3,1.1-1.2,1.4-1.2
			C269.6,72.9,272,75.3,272,75.7z M274.5,73.4c0,0.4-1,1.3-1.4,1.3c-0.2,0-0.4-0.3-0.7-0.7c-0.5-0.7-1.1-1.2-1.7-1.8
			c-0.1-0.1-0.3-0.3-0.3-0.4c0-0.4,1.1-1.2,1.4-1.2C272.1,70.7,274.5,73.1,274.5,73.4z"/>
		<path class="st0" d="M294.6,76.2c0.2,0,1.1,0.3,1.4,0.4c0.1,0,0.1,0,0.2,0.1c0.4,0.1,1,0.2,1,0.5c0,0.2-0.3,0.3-0.4,0.3
			c-0.2,0.1-0.3,0.1-0.4,0.3c-0.1,0.4-0.3,0.7-0.4,1.1c0,0.1-0.1,0.1-0.1,0.3c0,0.4,0.5,0.4,0.5,0.4h0.9c1,0,2.1-0.1,3.1-0.1
			c0.6,0,0.6,0.3,0.6,1.2c0,0.9,0,1.2-0.6,1.2c-1,0-2.1-0.1-3.1-0.1h-0.6c-0.5,0-0.7,0.2-0.7,0.7v0.4c0,0.5,0.2,0.7,0.7,0.7h0.3
			c1,0,1.9-0.1,2.9-0.1c0.6,0,0.6,0.3,0.6,1.2s0,1.2-0.6,1.2c-1,0-1.9-0.1-2.9-0.1h-0.1c-0.5,0-0.7,0.3-0.8,0.8v0.3
			c0.1,0.5,0.3,0.8,0.8,0.8c1,0,2-0.1,3-0.1c0.6,0,0.6,0.3,0.6,1.2c0,0.9,0,1.2-0.6,1.2c-1,0-2-0.1-3-0.1c-0.5,0-0.8,0.2-0.8,0.8
			v0.5c0.1,0.5,0.3,0.8,0.8,0.8h1.1c1,0,1.9-0.1,2.9-0.1c0.6,0,0.6,0.3,0.6,1.2c0,0.9,0,1.2-0.6,1.2c-1,0-2-0.1-2.9-0.1h-6.8
			c-0.4,0-0.7,0.2-0.7,0.7c0,0.9-0.2,0.9-1.4,0.9s-1.4,0-1.4-0.9c0-1.1,0.1-2.2,0.1-3.4v-6.7c0-0.2-0.1-0.3-0.3-0.3
			c-0.1,0-0.2,0-0.2,0.1l-0.1,0.1c-0.3,0.3-0.6,0.6-0.9,0.6c-0.4,0-0.9-0.5-1.1-0.8c-0.1-0.1-0.1-0.1-0.2-0.1
			c-0.2,0-0.2,0.2-0.2,0.3v4.8c0,0.8,0.1,1.6,0.1,2.4c0,0.7-0.3,0.7-1.2,0.7c-0.8,0-1.2,0-1.2-0.7c0-0.1,0-0.2,0-0.3
			c0-0.5-0.2-0.7-0.7-0.7H281c-0.5,0-0.7,0.2-0.8,0.8c0,0.4,0,0.8,0,1.2c0,0.7-0.3,0.7-1.2,0.7c-0.9,0-1.2,0-1.2-0.7
			c0-0.8,0.1-1.6,0.1-2.4v-3.7c0-0.1,0-0.2-0.1-0.2c-0.1,0-0.1,0-0.1,0.1c-0.1,0.2-0.3,0.5-0.5,0.5c-0.4,0-1.7-1.3-1.7-1.8
			c0-0.2,0.1-0.4,0.2-0.5c1-1.5,1.9-3.6,2.5-5.4c0.5-1.6,0.7-2.6,0.9-4.3v-0.1c0-0.4-0.3-0.6-0.7-0.6c-0.3,0-1.4,0.1-1.6,0.1
			c-0.6,0-0.6-0.3-0.6-1.4c0-1,0-1.4,0.6-1.4c0.7,0,1.5,0.1,2.4,0.1h3.1c0.8,0,1.6-0.1,2.4-0.1c0.6,0,0.6,0.4,0.6,1.4
			c0,1,0,1.4-0.6,1.4c-0.7,0-1.4-0.1-2.1-0.1c-0.5,0-0.8,0.2-0.9,0.7c-0.2,1.2-0.4,2.4-0.7,3.5c0,0.1,0,0.1,0,0.2
			c0,0.4,0.3,0.5,0.6,0.5h0.6c0.5,0,0.9-0.1,1.2-0.1c0.8,0,1.2,0.2,1.2,1.2c0,0.7,0,1.4,0,2.1c0,0.2,0.1,0.3,0.3,0.3
			c0.1,0,0.2,0,0.2-0.1c2.3-2.3,3.5-4.1,5-6.9c0.1-0.1,0.1-0.2,0.1-0.3c0-0.3-0.3-0.4-0.5-0.4h-0.5c-0.5,0-0.8,0.2-0.8,0.7
			c0,0.3,0.1,0.9,0.1,1.1c0,0.7-0.5,0.7-1.2,0.7c-0.9,0-1.3,0-1.3-0.7c0-0.5,0-0.9,0-1.3v-0.4c0-0.5,0-1,0-1.3c0-1,0.6-1.2,1.8-1.2
			c0.5,0,1.2,0.1,1.9,0.1h1.2c0.6,0,0.8-0.1,1.1-0.7c0.2-0.5,0.4-1,0.5-1.6c0.1-0.3,0.1-0.4,0.3-0.4c0.2,0,1.4,0.3,1.7,0.4
			c0.7,0.2,1.2,0.3,1.2,0.6c0,0.3-0.3,0.3-0.4,0.3c-0.3,0.1-0.4,0.3-0.5,0.7c0,0.1-0.1,0.1-0.1,0.2c0,0.5,0.5,0.5,0.6,0.5h1.9
			c0.7,0,1.4-0.1,1.9-0.1c1.1,0,1.7,0.2,1.7,1.1c0,0.4,0,0.9,0,1.4v0.5c0,0.5,0.1,0.9,0.1,1.4c0,0.7-0.5,0.7-1.3,0.7
			c-0.7,0-1.2,0.1-1.2-0.7c0-0.2,0-0.9,0.1-1.2c0-0.6-0.2-0.8-0.8-0.8h-3.3c-0.6,0-0.8,0.1-1.1,0.7c-0.5,1-1,2-1.6,2.9
			c-0.1,0.1-0.1,0.2-0.1,0.3c0,0.3,0.2,0.3,0.5,0.4h0.6c0.6,0,0.8-0.1,1.1-0.7c0.3-0.8,0.5-1.4,0.8-2.3
			C294.3,76.3,294.4,76.2,294.6,76.2z M281.6,88.4c0.5-0.1,0.7-0.3,0.8-0.8v-4.7c-0.1-0.5-0.3-0.7-0.8-0.8H281
			c-0.5,0.1-0.7,0.3-0.8,0.8v4.7c0.1,0.5,0.3,0.7,0.8,0.8H281.6z M291.1,81.8c-0.4,0-0.7,0.3-0.7,0.7v0.4c0,0.4,0.3,0.7,0.7,0.7h1.7
			c0.4,0,0.7-0.3,0.7-0.7v-0.4c0-0.4-0.3-0.7-0.7-0.7H291.1z M292.6,87.6c0.5-0.1,0.7-0.3,0.8-0.8v-0.3c-0.1-0.5-0.3-0.7-0.8-0.8
			h-1.5c-0.5,0.1-0.8,0.3-0.8,0.8v0.3c0,0.5,0.3,0.7,0.8,0.8H292.6z M291.2,89.9c-0.5,0-0.8,0.2-0.8,0.8v0.5c0,0.5,0.2,0.8,0.8,0.8
			h1.5c0.6,0,0.8-0.3,0.8-0.8v-0.5c0-0.6-0.2-0.8-0.8-0.8H291.2z"/>
		<path class="st0" d="M306.8,77.2c-0.8,0-1.6,0.1-2.3,0.1c-0.7,0-0.7-0.4-0.7-1.2c0-0.8,0-1.2,0.7-1.2c0.7,0,1.5,0.1,2.2,0.1h3.7
			c0.8,0,1.5-0.1,2.2-0.1c0.7,0,0.7,0.4,0.7,1.2c0,0.8,0,1.2-0.7,1.2c-0.8,0-1.5-0.1-2.2-0.1H306.8z M309.5,94.2H308
			c-0.4,0-0.5,0.1-0.5,0.5v0.2c0,0.7-0.3,0.7-1.3,0.7c-1,0-1.3,0-1.3-0.7c0-0.7,0-1.4,0-2.1v-3.2c0-0.6,0-1.2,0-1.8
			c0-1,0.4-1.4,1.4-1.4c0.5,0,1,0,1.5,0h1.9c0.5,0,1,0,1.5,0c1,0,1.4,0.4,1.4,1.4c0,0.6,0,1.1,0,1.7v3.2c0,0.7,0.1,1.4,0.1,2.1
			c0,0.6-0.3,0.7-1.3,0.7c-1.1,0-1.3,0-1.2-0.9C310,94.3,309.9,94.2,309.5,94.2z M307.9,81c-0.7,0-1.4,0.1-2.2,0.1
			c-0.6,0-0.6-0.5-0.6-1.2c0-0.7,0-1.1,0.6-1.1c0.7,0,1.4,0,2.2,0h1.8c0.9,0,1.5-0.1,1.9-0.1c0.8,0,0.8,0.2,0.8,1.2
			c0,0.7,0.1,1.2-0.6,1.2c-0.7,0-1.4-0.1-2.1-0.1H307.9z M308,84.8c-0.7,0-1.4,0.1-2.1,0.1c-0.7,0-0.7-0.4-0.7-1.1
			c0-0.7,0-1.1,0.6-1.1c0.7,0,1.4,0.1,2.2,0.1h1.7c0.7,0,1.4-0.1,2.2-0.1c0.7,0,0.6,0.4,0.6,1.1c0,0.7,0,1.1-0.7,1.1
			c-0.7,0-1.4-0.1-2.1-0.1H308z M307.6,73.4c-0.6,0-1.4,0.1-1.8,0.1c-0.6,0-0.6-0.4-0.6-1.2c0-0.7-0.1-1.2,0.5-1.2
			c0.6,0,1.2,0.1,1.8,0.1h2.4c0.6,0,1.2,0,1.9,0c0.6,0,0.5,0.5,0.5,1.1c0,0.8,0,1.2-0.6,1.2c-0.5,0-1.2-0.1-1.8-0.1H307.6z
			 M309.3,92c0.5,0,0.7-0.3,0.8-0.8v-1.7c-0.1-0.5-0.3-0.8-0.8-0.8h-1.1c-0.5,0-0.7,0.3-0.8,0.8v1.7c0.1,0.5,0.3,0.8,0.8,0.8H309.3z
			 M316.5,88.3c-0.3,0.1-0.3,0.3-0.3,0.6c-0.1,1.1-0.5,3.4-0.9,4.5c-0.1,0.4-0.3,0.7-0.7,0.7c-0.4,0-1.1-0.2-1.4-0.3
			c-0.2-0.1-0.3-0.3-0.3-0.5c0-0.1,0-0.3,0.1-0.4c0.6-1.6,0.9-3.5,0.9-4.9c0-0.5,0-0.7,0.4-0.7c0.2,0,1.3,0.2,1.6,0.2
			c0.3,0.1,1,0.1,1,0.5C316.8,88.1,316.6,88.2,316.5,88.3z M316.8,78.9c0-0.3-0.2-0.5-0.4-0.6c-0.3-0.1-0.5-0.2-0.7-0.3
			c-0.9-0.4-1.2-0.6-1.2-0.9s0.8-1.9,1.3-1.9c0.3,0,1.4,0.7,1.6,0.8c0.1,0.1,0.2,0.1,0.3,0.1c0.3,0,0.4-0.2,0.5-0.5
			c0.1-0.4,0.1-0.7,0.2-1.1v-0.2c0-0.4-0.4-0.6-0.7-0.6h-0.4c-0.9,0-1.8,0.1-2.7,0.1c-0.7,0-0.7-0.3-0.7-1.3c0-1.1,0-1.4,0.7-1.4
			c0.9,0,1.8,0.1,2.7,0.1h6.6c0.8,0,1.7,0,2.6,0c1.4,0,1.7,0.5,1.7,1.8c0,2-0.4,6.9-1.1,8.7c-0.7,1.8-2.2,2-3.9,2
			c-0.9,0-1.7-0.1-1.7-1.9v-0.2c0-0.2-0.2-0.3-0.4-0.3c-0.3-0.1-0.7-0.4-1.1-0.7c-0.2-0.1-0.3-0.3-0.6-0.3c-0.3,0-0.4,0.2-0.6,0.4
			c-1,1.3-1.9,2.2-3.2,3.2c-0.2,0.1-0.6,0.4-0.9,0.4c-0.7,0-1.8-1.4-1.8-1.8c0-0.3,0.5-0.6,0.7-0.7c1-0.7,2.1-1.6,2.8-2.6
			C316.7,79.2,316.8,79.1,316.8,78.9z M320,88.6v2.8c0,1,0.3,1,0.9,1h1.1c0.7,0,0.9-0.1,1.1-1.8c0-0.3,0.1-0.6,0.6-0.6
			c0.3,0,1.2,0.2,1.5,0.3c0.4,0.1,0.6,0.3,0.6,0.7c0,0.8-0.4,2.6-0.8,3.2c-0.6,1-1.5,1-2.6,1h-2.2c-2,0-2.9-0.3-2.9-2.4
			c0-0.5,0.1-1,0.1-1.5v-2.6c0-0.6,0-1.3-0.1-1.9c0-0.1,0-0.2,0-0.3c0-0.3,0.3-0.3,0.5-0.3c0.4,0,1.5,0.1,2,0.1
			c0.1,0,0.3-0.1,0.3-0.2c0-0.2-0.1-0.3-0.3-0.4c-0.3-0.2-0.6-0.5-0.6-0.8c0-0.5,1.1-1.4,1.6-1.4c0.4,0,1.4,1.1,1.7,1.4
			c0.3,0.3,1.6,1.5,1.6,1.9c0,0.5-1.1,1.5-1.6,1.5c-0.2,0-0.4-0.3-0.5-0.4c-0.3-0.4-0.6-0.7-1-1.1c0,0-0.1,0-0.1,0
			c-0.1,0-0.2,0.1-0.2,0.1C320,87.2,320,87.3,320,88.6z M322.2,80.5c0,0.3,0.2,0.4,0.4,0.4c0.2,0,0.5,0,0.7,0c1,0,1.3-0.2,1.6-1.1
			c0.3-1,0.5-4.2,0.5-5.2c0-0.7-0.3-0.7-1-0.7h-2.2c-0.6,0-0.8,0.2-0.9,0.7c-0.1,0.9-0.3,1.7-0.5,2.6c0,0.1-0.1,0.2-0.1,0.3
			c0,0.4,0.2,0.5,0.5,0.8c0.4,0.2,1.4,0.8,1.4,1.2c0,0.3-0.1,0.5-0.3,0.8C322.3,80.3,322.2,80.4,322.2,80.5z M327.3,93.3
			c-0.4,0-0.5-0.3-0.6-0.6c-0.5-1.3-1.3-3.3-2-4.5c-0.1-0.1-0.3-0.4-0.3-0.6c0-0.5,1.5-1.1,1.9-1.1c0.3,0,0.4,0.3,0.6,0.5
			c0.5,0.9,1,1.9,1.4,2.9c0.3,0.8,0.9,2.1,0.9,2.4C329.2,92.7,327.7,93.3,327.3,93.3z"/>
		<path class="st0" d="M349.6,74.6c0,0.3-0.4,0.3-0.6,0.3c-0.3,0-0.5,0.1-0.8,0.3c-0.7,0.5-1.4,1-2.1,1.6c-1.6,1.3-3.2,2.6-4.7,4
			c-0.5,0.5-1.2,1.1-1.2,1.6c0,0.7,0.9,1.7,1.4,2.2c1.6,1.7,3.4,3.3,5.1,4.9c0.5,0.4,2.4,2,2.4,2.6c0,0.7-1.7,2.3-2.4,2.3
			c-0.3,0-0.7-0.5-0.9-0.7c-1.1-1.3-2.3-2.5-3.4-3.7c-1.5-1.5-3.1-3.1-4.5-4.7c-0.8-0.9-1.4-1.7-1.4-3c0-0.7,0.2-1.4,0.6-2
			c0.7-0.9,2.7-2.5,3.7-3.3c1.7-1.4,4-3.3,5.3-5c0.1-0.1,0.3-0.3,0.4-0.3c0.4,0,1.2,1,1.5,1.3C348.4,73.2,349.6,74.2,349.6,74.6z"/>
		<path class="st0" d="M371.9,71.1c0.3,0.1,1,0.3,1,0.6c0,0.1-0.2,0.2-0.3,0.3c-0.4,0.3-0.5,0.4-0.7,1c-0.1,0.3-0.7,2.4-0.7,2.5
			c0,0.3,0.2,0.4,0.4,0.4c0.5,0,2.7-0.8,3.3-1c0.2-0.1,0.4-0.1,0.6-0.1c0.6,0,0.6,1.7,0.6,2.2c0,0.5-0.1,0.9-0.5,1
			c-1.4,0.5-3.2,0.8-4.6,1.1c-0.8,0.2-0.9,0.3-1.2,1.1c-1.3,3.8-3.4,9-5.3,12.5c-0.4,0.7-0.6,1.1-1,1.1c-0.5,0-2.4-0.9-2.4-1.5
			c0-0.3,0.3-0.7,0.5-0.9c1.8-2.6,3.9-7.5,5-10.5c0.1-0.2,0.2-0.6,0.2-0.7c0-0.3-0.2-0.4-0.5-0.4c-0.4,0-1.6,0.1-2.5,0.1
			c-0.6,0-1,0-1.2-0.5c-0.1-0.4-0.2-1.6-0.2-2.1c0-0.3,0.1-0.5,0.4-0.5c0.3,0,1.4,0.1,2.7,0.1c1.8,0,2.2,0,2.5-0.5
			c0.3-0.6,1-4.3,1-5.2c0-0.4,0-0.7,0.3-0.7C369.7,70.4,371.5,71,371.9,71.1z M371.5,89.4c1.2,1.4,3.4,1.6,5.1,1.6
			c1.5,0,2.6-0.1,4-0.6c0.1,0,0.2-0.1,0.3-0.1c0.5,0,0.5,0.7,0.5,1.8c0,0.6,0,1.2-0.3,1.4c-0.5,0.2-3.7,0.4-4.4,0.4
			c-1.9,0-4.5-0.2-6.1-1.3c-0.5-0.3-1.4-1-1.4-1.6c0-0.4,1.3-2.1,1.8-2.1C371.2,89,371.4,89.3,371.5,89.4z M375,80.3
			c1.5,0,4.3,0.3,5.7,0.8c0.3,0.1,0.4,0.3,0.4,0.6c0,0.4-0.3,1.6-0.5,2c-0.1,0.3-0.2,0.4-0.5,0.4c-0.2,0-0.4-0.1-0.6-0.1
			c-1.4-0.6-3-0.7-4.5-0.7c-0.4,0-0.7,0-1.1,0c-0.6,0-0.7-0.1-0.7-0.6C373.1,80.1,373.6,80.3,375,80.3z M380.8,75.5
			c0,0.4-1,1.2-1.4,1.2c-0.2,0-0.3-0.2-0.4-0.3c-0.6-0.8-1.2-1.6-2-2.3c-0.1-0.1-0.3-0.3-0.3-0.4c0-0.4,1.1-1.1,1.4-1.1
			C378.5,72.7,380.8,75.2,380.8,75.5z M383.7,73.7c0,0.4-1,1.3-1.4,1.3c-0.2,0-0.3-0.2-0.4-0.3c-0.6-0.8-1.2-1.5-2-2.3
			c-0.1-0.1-0.2-0.2-0.2-0.4c0-0.3,1-1.2,1.4-1.2C381.4,70.8,383.7,73.4,383.7,73.7z"/>
		<path class="st0" d="M398.9,71.7c0.6,1.1,1.2,2.2,1.8,3.3c0.2,0.3,0.4,0.5,0.8,0.5c0.5,0,2.6-1.2,3.1-1.5c0.2-0.1,0.5-0.3,0.8-0.3
			c0.6,0,1.8,1.7,1.8,2.2c0,0.3-0.5,0.5-0.8,0.7c-1,0.5-1.6,0.8-2.6,1.2c-0.4,0.1-0.9,0.3-0.9,0.8c0,0.4,0.3,0.7,0.5,1.1
			c1.2,2.2,2.5,4.5,4.1,6.2c0.2,0.2,0.5,0.5,0.5,0.8c0,0.6-1.4,1.9-2,1.9c-0.3,0-0.7-0.4-1.1-0.6c-1.4-1-4.3-2.4-6.7-2.4
			c-1.5,0-3,0.9-3,2.5c0,2.9,4.3,3.5,6.5,3.5c0.7,0,1.2-0.1,1.6-0.1c0.6,0,0.7,0.4,0.7,0.9c0,0.5-0.1,1.2-0.3,1.7
			c-0.1,0.4-0.4,0.5-1,0.5c-1.5,0-3.5-0.3-4.9-0.7c-2.9-0.7-5.6-2.4-5.6-5.8c0-3.4,2.8-5.4,6-5.4c1.3,0,2.4,0.3,3.5,0.8
			c0.1,0,0.2,0.1,0.3,0.1c0.1,0,0.3-0.1,0.3-0.3c0-0.1-0.1-0.3-0.2-0.4c-0.6-1-1.1-1.7-1.6-2.8c-0.3-0.5-0.5-1-1.1-1
			c-0.1,0-0.2,0.1-0.4,0.1c-1.4,0.4-5.3,1.1-6.7,1.1c-0.6,0-0.8-0.2-1-1c-0.1-0.5-0.3-1-0.3-1.5c0-0.5,0.3-0.5,0.7-0.5
			c1.8-0.1,3.9-0.2,5.7-0.6c0.3-0.1,0.7-0.2,0.7-0.6c0-0.4-1.8-3-2.1-3.5c-0.1-0.1-0.2-0.3-0.2-0.5c0-0.6,2.4-1.2,2.8-1.2
			S398.8,71.3,398.9,71.7z"/>
		<path class="st0" d="M420.6,76c0.2,0.1,0.6,0.1,0.6,0.4c0,0.2-0.1,0.2-0.3,0.4c-0.4,0.3-0.4,0.9-0.5,1.4c-0.1,1-0.2,2-0.2,3
			c0,1.9,0.2,4.1,0.9,5.9c0.3,0.8,1.3,2.5,2.3,2.5c0.8,0,1.6-1.2,2-1.9c0.2-0.3,0.4-0.7,0.8-0.7c0.6,0,2,1.2,2,1.7
			c0,0.5-1.3,2-1.7,2.5c-0.8,0.9-1.7,1.8-3,1.8c-2.1,0-3.7-1.9-4.7-3.6c-1.4-2.7-1.6-6.2-1.6-9.2c0-0.5,0.1-4.1,0.1-4.3
			c0-0.2,0.2-0.3,0.4-0.3C418,75.4,420.1,75.9,420.6,76z M432.2,75.4c0.6,0,3,1.8,4.4,4.4c0.8,1.5,1.7,4.2,1.7,5.9
			c0,0.5-0.3,0.7-0.8,0.8c-0.5,0.1-1.1,0.3-1.6,0.3c-0.9,0-0.9-0.4-0.9-1.1c-0.3-3.3-1.5-6-4.2-8.1c-0.2-0.1-0.3-0.2-0.3-0.4
			C430.5,76.7,431.6,75.4,432.2,75.4z"/>
		<path class="st0" d="M450.4,90.8c0,2.2-1.8,3.9-3.9,3.9c-2.2,0-3.9-1.8-3.9-3.9c0-2.2,1.8-3.9,3.9-3.9
			C448.7,86.8,450.4,88.6,450.4,90.8z M444,90.8c0,1.4,1.1,2.5,2.5,2.5c1.4,0,2.5-1.1,2.5-2.5c0-1.4-1.1-2.5-2.5-2.5
			C445.1,88.2,444,89.4,444,90.8z"/>
	</g>
</g>
</svg>
