<?xml version="1.0" encoding="utf-8"?>
<!-- Generator: Adobe Illustrator 25.4.1, SVG Export Plug-In . SVG Version: 6.00 Build 0)  -->
<svg version="1.1" id="レイヤー_1" xmlns="http://www.w3.org/2000/svg" xmlns:xlink="http://www.w3.org/1999/xlink" x="0px"
	 y="0px" viewBox="0 0 364 90" style="enable-background:new 0 0 364 90;" xml:space="preserve">
<style type="text/css">
	.st0{fill:#5F8AFF;}
	.st1{fill:#FFFFFF;stroke:#909090;stroke-width:1.0605;stroke-linecap:round;stroke-linejoin:round;stroke-miterlimit:10;}
	.st2{fill:#FFFFFF;stroke:#FF5D8C;stroke-width:3;stroke-linecap:round;stroke-linejoin:round;stroke-miterlimit:10;}
	.st3{fill:none;stroke:#FF5D8C;stroke-width:3;stroke-linecap:round;stroke-linejoin:round;stroke-miterlimit:10;}
	.st4{fill:none;stroke:#FF5D8C;stroke-width:1.3443;stroke-linecap:round;stroke-linejoin:round;stroke-miterlimit:10;}
</style>
<path class="st0" d="M353.9,90H10.1c-2.8,0-5-2.2-5-5V13.1c0-2.8,2.2-5,5-5h343.7c2.8,0,5,2.2,5,5V85C358.9,87.8,356.6,90,353.9,90z
	"/>
<path class="st1" d="M358.4,84H5.6c-2.8,0-5.1-2.3-5.1-5.1V5.1C0.5,2.3,2.8,0,5.6,0h352.8c2.8,0,5.1,2.3,5.1,5.1v73.8
	C363.5,81.7,361.2,84,358.4,84z"/>
<g>
	<path class="st2" d="M128.4,53.6h-27.6c-1,0-1.8-0.8-1.8-1.8V32.4c0-1,0.8-1.8,1.8-1.8h27.6c1,0,1.8,0.8,1.8,1.8v19.5
		C130.1,52.9,129.3,53.6,128.4,53.6z"/>
	<polygon class="st3" points="114.6,45.4 130.1,30.7 99,30.7 	"/>
</g>
<g>
	<path class="st0" d="M152.3,45.1c-0.2,0-2.5,1.8-2.8,2.1c-0.1,0.1-0.2,0.2-0.3,0.2c-0.4,0-1.1-1.4-1.1-1.8c0-0.2,0.2-0.3,0.4-0.4
		c1.1-0.6,2.1-1.3,3.1-1.9c0.7-0.4,0.8-0.5,0.8-1v-0.6c0-0.3,0-0.6,0-0.9v-0.2c0-0.2-0.2-0.4-0.4-0.4c0,0-0.1,0-0.1,0
		c-0.4,0.1-1.7,0.3-1.9,0.3c-0.2,0-0.6,0-0.6-1.4c0-0.5,0-0.6,0.4-0.6c0.6,0,1.3-0.1,1.8-0.1c0.2,0,0.5,0,0.7-0.2
		c0.2-0.2,0.2-0.4,0.2-0.6c0-0.5,0-1.1,0-1.6c0-0.4,0-0.8,0-0.9c0-0.2,0.1-0.3,0.2-0.3c0.3,0,1.6,0.3,1.9,0.3c0.1,0,0.4,0.1,0.4,0.2
		c0,0.1-0.1,0.2-0.2,0.3c-0.3,0.2-0.3,0.5-0.4,1c0,0.1,0,0.3-0.1,0.4c0,0.1,0,0.2,0,0.3c0,0.2,0.2,0.3,0.3,0.3c0.1,0,1-0.3,1.2-0.3
		c0.1,0,0.2-0.1,0.3-0.1c0.4,0,0.5,1.2,0.5,1.6c0,0.5-0.3,0.5-1.8,0.7c-0.7,0.1-0.7,0.3-0.7,1.1v0.3c0,0.3,0,0.7,0.3,0.7
		c0.1,0,0.4-0.1,0.5-0.2c1-0.4,2.1-0.6,3.2-0.6c2.1,0,4.2,1.3,4.2,3.6c0,1.2-0.6,2.2-1.5,2.8s-2.7,0.9-3.8,0.9h-0.2
		c-0.3,0-0.7,0-0.8-0.2c-0.2-0.3-0.3-1-0.3-1.4c0-0.2,0.1-0.5,0.3-0.5c0.2,0,0.9,0.2,1.6,0.2c1.1,0,2.7-0.4,2.7-1.8
		c0-1.2-1.2-1.8-2.3-1.8c-1,0-2.5,0.4-3.4,0.9c-0.2,0.1-0.3,0.3-0.3,0.6c0,0.2,0,1,0.1,1.3c0,0.4,0.2,2.1,0.2,2.3
		c0,0.9-1.2,1.4-1.7,1.4c-0.4,0-0.6-0.4-0.7-0.7c-0.3-0.7-0.6-1-1.2-1.5c-0.1-0.1-0.2-0.2-0.2-0.4c0-0.2,0.2-0.4,0.4-0.4
		c0.1,0,0.8,0.5,1,0.6c0.1,0.1,0.2,0.1,0.2,0.1c0.1,0,0.1-0.1,0.1-0.2c0,0,0-0.8,0-0.8c0-0.1,0-0.2,0-0.3
		C152.5,45.3,152.5,45.1,152.3,45.1z M161.9,38.4c0.5,0.4,1.5,1.2,1.5,1.4c0,0.4-0.8,1.3-1.2,1.3c-0.2,0-0.3-0.1-0.4-0.2
		c-0.8-0.8-1.6-1.5-2.5-2.1c-0.1-0.1-0.3-0.2-0.3-0.5c0-0.3,0.8-1.2,1.1-1.2c0.2,0,1,0.6,1.4,1C161.6,38.2,161.7,38.3,161.9,38.4z"
		/>
	<path class="st0" d="M168.2,46.9c0,0.9,0.1,1.9,0.1,2.8c0,0.6-0.2,0.6-1,0.6c-0.8,0-1,0-1-0.6c0-1,0.1-1.9,0.1-2.8V36.5
		c0-0.6,0-1.2,0-1.8c0-0.8,0.3-1,1-1c0.5,0,1,0,1.4,0h2c0.5,0,1,0,1.4,0c0.7,0,1,0.2,1,1c0,0.6,0,1.2,0,1.8v0.9c0,0.6,0,1.2,0,1.8
		c0,0.7-0.3,1-1,1c-0.5,0-1,0-1.5,0h-2c-0.4,0-0.5,0.2-0.5,0.5V46.9z M168.7,35.3c-0.3,0-0.5,0.2-0.5,0.5v0.1c0,0.3,0.2,0.5,0.5,0.5
		h2.2c0.3,0,0.5-0.2,0.5-0.5v-0.1c0-0.3-0.2-0.5-0.5-0.5H168.7z M168.2,38.2c0,0.3,0.2,0.5,0.5,0.5h2.2c0.3,0,0.5-0.2,0.5-0.5V38
		c0-0.3-0.2-0.5-0.5-0.5h-2.2c-0.3,0-0.5,0.2-0.5,0.5V38.2z M173.1,47.4c-0.3,0-0.4,0.1-0.4,0.4v0.1c0,0.4-0.2,0.4-0.9,0.4
		c-0.7,0-0.9,0-0.9-0.4c0-0.5,0-1,0-1.4v-2.7c0-0.4,0-0.7,0-1.1c0-0.6,0.4-0.7,1-0.7c0.4,0,0.8,0,1.2,0h2.1c0.4,0,0.8,0,1.2,0
		c0.6,0,1,0.1,1,0.8c0,0.3,0,0.7,0,1.1v2.7c0,0.5,0,1,0,1.4c0,0.4-0.2,0.4-0.9,0.4c-0.7,0-0.9,0-0.9-0.4v-0.2c0-0.3-0.1-0.4-0.4-0.4
		H173.1z M175,45.8c0.3,0,0.5-0.2,0.5-0.5v-1.1c0-0.3-0.2-0.5-0.5-0.5h-1.9c-0.3,0-0.5,0.2-0.5,0.5v1.1c0,0.3,0.2,0.5,0.5,0.5H175z
		 M177.5,40.1c-0.5,0-1,0-1.4,0c-0.7,0-1-0.2-1-1c0-0.6,0-1.2,0-1.8v-0.9c0-0.6,0-1.2,0-1.8c0-0.7,0.3-1,1-1c0.5,0,1,0,1.5,0h1.9
		c0.5,0,1,0,1.4,0c0.7,0,1,0.2,1,1c0,0.6,0,1.2,0,1.8v9.7c0,0.6,0,1.2,0,1.8c0,0.7-0.1,1.3-0.7,1.7c-0.6,0.5-1.7,0.5-2.4,0.5
		c-0.7,0-1.1,0-1.1-1.4c0-0.3,0.1-0.5,0.4-0.5c0.4,0,0.7,0,1.1,0c0.8,0,0.8-0.3,0.8-1v-6.8c0-0.4-0.2-0.5-0.5-0.5H177.5z
		 M177.3,35.3c-0.3,0-0.5,0.2-0.5,0.5v0.1c0,0.3,0.2,0.5,0.5,0.5h2.2c0.3,0,0.4-0.2,0.4-0.5v-0.1c0-0.3-0.2-0.5-0.4-0.5H177.3z
		 M176.9,38.2c0,0.3,0.2,0.5,0.5,0.5h2.2c0.3,0,0.4-0.2,0.4-0.5V38c0-0.3-0.2-0.5-0.4-0.5h-2.2c-0.3,0-0.5,0.2-0.5,0.5V38.2z"/>
	<path class="st0" d="M188.4,37.1c0.2,0,0.4,0.1,0.4,0.3c0,0.1-0.1,0.2-0.2,0.2c-0.3,0.2-0.3,0.6-0.3,0.9c-0.1,0.7-0.2,1.3-0.2,2
		c0,1.3,0.1,2.8,0.6,4c0.2,0.5,0.9,1.7,1.5,1.7c0.5,0,1.1-0.8,1.3-1.3c0.1-0.2,0.3-0.5,0.5-0.5c0.4,0,1.4,0.8,1.4,1.1
		c0,0.4-0.9,1.4-1.1,1.7c-0.6,0.6-1.1,1.2-2,1.2c-1.4,0-2.5-1.3-3.1-2.4c-1-1.8-1.1-4.2-1.1-6.2c0-0.3,0.1-2.7,0.1-2.9
		c0-0.2,0.1-0.2,0.3-0.2C186.7,36.7,188.1,37,188.4,37.1z M196.2,36.7c0.4,0,2,1.2,2.9,3c0.5,1,1.1,2.8,1.1,4c0,0.4-0.2,0.5-0.5,0.6
		c-0.3,0.1-0.7,0.2-1.1,0.2c-0.6,0-0.6-0.3-0.6-0.7c-0.2-2.2-1-4-2.8-5.4c-0.1-0.1-0.2-0.2-0.2-0.3C195,37.5,195.8,36.7,196.2,36.7z
		"/>
	<path class="st0" d="M207.3,40.2c0-0.1-0.1-0.2-0.2-0.2c-0.1,0-0.1,0-0.2,0.1c-0.5,0.4-2.5,1.9-2.9,1.9c-0.4,0-1.2-0.9-1.2-1.3
		c0-0.2,0.3-0.4,0.5-0.5c2.1-1.2,4-2.8,5.5-4.6c0.5-0.6,1.2-1.5,1.5-2.2c0.1-0.1,0.1-0.3,0.3-0.3c0.2,0,1.5,0.3,1.8,0.4
		c0.2,0,0.4,0.1,0.4,0.3c0,0.1-0.1,0.2-0.2,0.3c-0.1,0-0.1,0.1-0.1,0.1c0,0,0,0.1,0,0.1c1.7,2.5,4.2,4.3,6.8,5.8
		c0.4,0.2,0.5,0.3,0.5,0.5c0,0.3-0.6,1.5-0.9,1.5c-0.4,0-2.9-1.8-3.3-2.1c-0.1-0.1-0.1-0.1-0.2-0.1c-0.2,0-0.2,0.2-0.2,0.3v0.4
		c0,0.4,0,0.8-0.4,0.8c-0.6,0-1.2,0-1.8,0h-3.5c-0.6,0-1.2,0-1.8,0c-0.4,0-0.4-0.4-0.4-0.8V40.2z M208.3,49.2
		c-0.3,0-0.4,0.1-0.4,0.4v0.2c0,0.5-0.3,0.5-1,0.5c-0.7,0-1,0-1-0.5c0-0.1,0-1.2,0-1.4V45c0-0.4,0-0.8,0-1.1c0-0.9,0.5-1.1,1.3-1.1
		c0.5,0,0.9,0,1.4,0h5.4c0.5,0,1,0,1.4,0c0.8,0,1.3,0.2,1.3,1c0,0.4,0,0.8,0,1.1v3.4c0,0.5,0,1.1,0,1.4c0,0.5-0.3,0.5-1,0.5
		c-0.8,0-1,0-1-0.5v-0.2c0-0.3-0.1-0.4-0.4-0.4H208.3z M214.2,47.5c0.3,0,0.5-0.2,0.5-0.5v-1.8c0-0.3-0.2-0.5-0.5-0.5h-5.8
		c-0.3,0-0.5,0.2-0.5,0.5V47c0,0.3,0.2,0.5,0.5,0.5H214.2z M211.3,35.7c-0.1,0-0.2,0.1-0.3,0.2c-0.9,1.2-1.9,2.1-3,3.2
		c-0.1,0.1-0.1,0.1-0.1,0.2c0,0.1,0.1,0.2,0.2,0.2c0.4,0,0.9,0,1.3,0h3.5c1.2,0,1.5,0,1.5-0.3c0-0.2-0.2-0.3-0.5-0.6
		c-0.1-0.1-0.1-0.1-0.2-0.2c-0.8-0.7-1.6-1.7-2.3-2.6C211.5,35.8,211.4,35.7,211.3,35.7z"/>
	<path class="st0" d="M228.5,34.1c0.1,0,0.2,0.1,0.2,0.2c0,0.1-0.1,0.2-0.1,0.2c-0.2,0.2-0.3,0.2-0.3,1c0,0.3-0.1,1.1-0.1,1.4
		c0,0.2,0.1,0.2,0.3,0.3c0.1,0,0.7,0.8,0.7,1c0,0.2-0.2,0.3-0.3,0.4c-0.2,0.2-0.9,1.1-0.9,1.5c0,0.2,0,0.3,0.1,0.3
		c0.1,0,0.2-0.1,0.2-0.2c1.4-1.2,2.9-2.3,4.8-2.3c2.6,0,4.4,2.2,4.4,4.7c0,2.9-2.2,4.7-4.6,5.7c-0.3,0.2-1.2,0.5-1.6,0.5
		c-0.5,0-1-1.2-1-1.6c0-0.3,0.2-0.4,0.5-0.4c2.1-0.5,4.6-1.6,4.6-4.1c0-1.4-1-2.8-2.5-2.8c-1.6,0-3.8,1.5-4.8,2.7
		c-0.2,0.2-0.2,0.5-0.2,0.8c0,1.1,0,2.2,0.1,3.4c0,0.5,0.1,2.3,0.1,2.6c0,0.2-0.2,0.3-1.4,0.3c-0.6,0-0.8,0-0.8-0.4
		c0-0.2,0-0.5,0-0.6c0-0.6,0.1-1.4,0.1-1.5c0-0.6,0-1.2,0-1.8c0-0.1,0-0.3-0.2-0.3s-0.3,0.2-0.4,0.3c-0.4,0.4-1.1,1.4-1.4,1.9
		c-0.1,0.1-0.2,0.3-0.3,0.3c-0.3,0-1.4-1.1-1.4-1.5c0-0.2,0.3-0.5,0.5-0.6c1.1-1.1,2.5-2.8,3.2-4.2c0.1-0.2,0.1-0.5,0.1-0.7v-0.2
		c0-0.2-0.1-0.4-0.3-0.4c-0.1,0-0.2,0-0.3,0.1c-0.4,0.1-1.8,0.5-2,0.5s-0.4-0.2-0.4-0.5c-0.1-0.3-0.3-1.2-0.3-1.4
		c0-0.3,0.2-0.3,0.4-0.3h0.3c0.7,0,1.4-0.1,2.1-0.2c0.2,0,0.5-0.1,0.6-0.3c0.1-0.2,0.1-0.6,0.1-0.8c0-0.6,0-1.3,0-1.9
		c0-0.3,0-0.5,0-0.6c0-0.2,0.1-0.3,0.3-0.3C226.8,33.8,228.3,34,228.5,34.1z"/>
	<path class="st0" d="M246.5,36.1c0.1,0,0.2,0.1,0.2,0.2c0,0.1-0.1,0.2-0.2,0.3c-0.2,0.3-0.3,1-0.3,1.5v0.5c0,0.3,0,0.7,0.4,0.7
		c0.2,0,2-0.3,2.4-0.4c1-0.2,1.4-0.1,1.4-0.8c0-0.9-0.1-2.2-0.3-3.1c0-0.1,0-0.2,0-0.2c0-0.2,0.1-0.2,0.3-0.2c0.2,0,1.7,0.2,2,0.3
		c0.1,0,0.4,0.1,0.4,0.2c0,0.1-0.1,0.2-0.2,0.3c-0.2,0.2-0.1,0.7-0.1,1c0,0.5,0,1,0,1.5c0,0.2,0.1,0.5,0.4,0.5
		c0.2,0,1.3-0.2,1.5-0.2c0.3,0,1.3-0.2,1.5-0.2c0.4,0,0.4,0.3,0.4,1.3c0,0.9-0.1,0.9-1,0.9c-0.3,0-0.8,0.1-1.4,0.1
		c-1.1,0.1-1.4,0-1.5,0.8c-0.2,2.4-0.6,4-3.4,4c-0.2,0-0.4,0-0.5-0.2c-0.2-0.3-0.3-1.1-0.3-1.4c0-0.2,0.1-0.4,0.3-0.4
		c0.2,0,0.3,0,0.5,0c0.6,0,1.1-0.2,1.3-0.8c0.1-0.2,0.2-0.9,0.2-1.2c0-0.2-0.2-0.3-0.3-0.3c-0.2,0-2.7,0.4-3.1,0.5
		c-0.5,0.1-0.7,0.2-0.7,0.8c0,0.7,0.1,2.9,0.2,3.5c0.3,1.2,1.5,1.3,2.9,1.3c1.2,0,2.5-0.2,3.7-0.4c0.1,0,0.1,0,0.2,0
		c0.3,0,0.3,0.3,0.3,0.6c0,0.3,0,1.3-0.2,1.5c-0.3,0.2-3.1,0.3-3.6,0.3c-1.9,0-4.4-0.1-5-2.4c-0.3-1.1-0.3-2.7-0.3-3.9
		c0-0.3-0.1-0.6-0.4-0.6c-0.2,0-2.4,0.5-2.7,0.6c-0.1,0-0.2,0-0.3,0c-0.3,0-0.3-0.3-0.4-0.8c0-0.1,0-0.2,0-0.3
		c0-0.2-0.1-0.6-0.1-0.8c0-0.4,0.3-0.4,0.6-0.4c0.5,0,1.8-0.2,2.4-0.3c0.5-0.1,0.8-0.1,0.8-0.7c0-0.7,0-2.2-0.1-2.9
		c0-0.1,0-0.2,0-0.3c0-0.2,0.1-0.3,0.3-0.3C244.6,35.8,246.2,36,246.5,36.1z"/>
</g>
<polyline class="st4" points="331.9,71.3 350,42.2 331.9,13.1 "/>
</svg>
