<?xml version="1.0" encoding="utf-8"?>
<!-- Generator: Adobe Illustrator 25.4.1, SVG Export Plug-In . SVG Version: 6.00 Build 0)  -->
<svg version="1.1" id="レイヤー_1" xmlns="http://www.w3.org/2000/svg" xmlns:xlink="http://www.w3.org/1999/xlink" x="0px"
	 y="0px" viewBox="0 0 374 91" style="enable-background:new 0 0 374 91;" xml:space="preserve">
<style type="text/css">
	.st0{fill:#FFFFFF;}
</style>
<path class="st0" d="M118.2,0l3.3,14.1L125.3,0h3l3.8,14.2L135.5,0h3.3L134,19.3h-3.6l-3.8-14l-3.9,14h-3.4l-4.1-16.4h-5.1v16.4
	h-3.6V2.8h-5.4V0H118.2z M142,19.3h3.6V0H142V19.3z M162.6,13.9L154.5,0h-4.3v19.2h3.3V4.5l8.7,14.8h3.7V0h-3.3V13.9z M190.2,6v0.1
	c0,2-0.6,3.4-1.9,4.4c-1.3,1-3,1.5-5.1,1.5h-2.7v7.3h-3.6V0h6.2c2.2,0,4,0.5,5.2,1.5C189.6,2.5,190.2,4,190.2,6z M186.7,6
	c0-2.1-1.2-3.2-3.6-3.2h-2.6v6.6h2.6c2.4,0,3.6-1.1,3.6-3.3V6z M210.7,0h4.7l6.4,19.2h-3.7l-1.5-4.8h-7.3l-1.5,4.8h-14.3V0h3.6v16.4
	h8.2L210.7,0z M215.7,11.9l-2.8-8.9l-2.9,8.9H215.7z M237.2,13.9L229.1,0h-4.3v19.2h3.3V4.5l8.7,14.8h3.7V0h-3.3V13.9z M262,2.8
	v16.4h3.6V2.8h5.4V0H245v19.2h12.5v-2.8h-8.9v-5.6h6.8V8.1h-6.8V2.8H262z"/>
<g>
	<path class="st0" d="M5,57.7c0.5,0,1,0,1.5,0c0.3,0,0.4,0.1,0.4,0.5c0,0.4-0.1,0.5-0.4,0.5c-0.5,0-1,0-1.5,0H2.2c-0.5,0-1,0-1.5,0
		c-0.3,0-0.4-0.1-0.4-0.5c0-0.4,0.1-0.5,0.4-0.5c0.5,0,1,0,1.5,0H5z M5,60.1c0.5,0,1,0,1.5,0C6.9,60,7,60.1,7,60.5
		C7,60.9,6.9,61,6.5,61c-0.4,0-0.9,0-1.3,0H4.7c-0.5,0-0.5,0.1-0.5,0.5v2.8c0,0.6,0,1.2,0,1.8c0,0.3-0.1,0.4-0.6,0.4
		s-0.6-0.1-0.6-0.4c0-0.6,0-1.2,0-1.8v-2.8C3.1,61.1,3,61,2.5,61H2c-0.4,0-0.9,0-1.3,0c-0.3,0-0.4-0.1-0.4-0.5
		c0-0.4,0.1-0.5,0.4-0.5c0.5,0,1,0,1.5,0H5z"/>
	<path class="st0" d="M13.4,64.1c0,0.4,0,0.8,0,1.2c0,0.4,0,0.8,0,0.9c0,0.3-0.1,0.3-0.4,0.3h-0.4c-0.3,0-0.4,0-0.4-0.3
		c0-0.1,0-0.4,0-0.9c0-0.4,0-0.9,0-1.3v-4.4c0-0.2,0-0.3-0.1-0.3c0,0-0.1,0-0.2,0c-0.4,0.1-0.8,0.3-1.1,0.4c-0.1,0-0.2,0.1-0.2,0.1
		c-0.1,0-0.2-0.1-0.2-0.3l-0.1-0.3c0-0.1-0.1-0.2-0.1-0.2c0-0.1,0.1-0.2,0.3-0.2c0.5-0.2,1.2-0.4,1.7-0.7c0.3-0.1,0.4-0.2,0.7-0.2
		H13c0.3,0,0.4,0.1,0.4,0.4c0,0.4,0,1.5,0,2V64.1z"/>
	<path class="st0" d="M18.7,61.3c1.5,0,2.8,0.8,2.8,2.4c0,1.4-0.9,2.9-3.4,2.9c-0.7,0-1.5-0.2-2-0.4c-0.2-0.1-0.3-0.2-0.3-0.3
		c0-0.1,0-0.1,0.1-0.2l0.1-0.3c0.1-0.2,0.1-0.3,0.2-0.3c0,0,0.1,0,0.2,0.1c0.5,0.3,1.1,0.4,1.7,0.4c1.6,0,2.2-0.9,2.2-1.9
		c0-1-0.8-1.6-2-1.6c-0.5,0-1,0.1-1.4,0.3c-0.1,0-0.2,0.1-0.3,0.1c-0.1,0-0.1,0-0.3-0.1c-0.2-0.1-0.2-0.1-0.2-0.2c0,0,0-0.1,0-0.2
		c0-0.4,0.1-0.7,0.1-1.1l0.1-1.4c0-0.4,0-0.7,0.1-1.1c0-0.3,0.1-0.4,0.3-0.4c0.2,0,1.1,0,1.7,0h0.6c0.6,0,1.6,0,1.8,0
		c0.3,0,0.3,0.1,0.3,0.4v0.3c0,0.3,0,0.4-0.3,0.4c-0.2,0-1.2,0-1.8,0h-1.3c-0.3,0-0.4,0-0.4,0.4l-0.1,1.6v0.1c0,0.1,0,0.2,0.1,0.2
		c0,0,0.1,0,0.2,0C18,61.3,18.3,61.3,18.7,61.3z"/>
	<path class="st0" d="M29.8,62.1c0,2.8-1.6,4.5-3.5,4.5c-1.8,0-3.3-1.4-3.3-4.1c0-2.4,1.2-4.4,3.5-4.4
		C28.3,58.1,29.8,59.4,29.8,62.1z M24.2,62.5c0,2,0.9,3.1,2.2,3.1c1.4,0,2.4-1.3,2.4-3.4c0-2-1-3.1-2.2-3.1
		C24.9,59.1,24.2,60.7,24.2,62.5z"/>
	<path class="st0" d="M32.7,63.9c-0.3,0-0.7,0-1,0c-0.3,0-0.4,0-0.4-0.4v-0.3c0-0.3,0.1-0.4,0.4-0.4c0.3,0,0.7,0,1,0h0.9
		c0.3,0,0.6,0,0.9,0c0.3,0,0.4,0,0.4,0.4v0.3c0,0.3-0.1,0.4-0.4,0.4s-0.6,0-0.9,0H32.7z"/>
	<path class="st0" d="M43.2,62.1c0,2.8-1.6,4.5-3.5,4.5c-1.8,0-3.3-1.4-3.3-4.1c0-2.4,1.2-4.4,3.5-4.4
		C41.7,58.1,43.2,59.4,43.2,62.1z M37.5,62.5c0,2,0.9,3.1,2.2,3.1c1.4,0,2.4-1.3,2.4-3.4c0-2-1-3.1-2.2-3.1
		C38.3,59.1,37.5,60.7,37.5,62.5z"/>
	<path class="st0" d="M51.5,62.1c0,2.8-1.6,4.5-3.5,4.5c-1.8,0-3.3-1.4-3.3-4.1c0-2.4,1.2-4.4,3.5-4.4
		C49.9,58.1,51.5,59.4,51.5,62.1z M45.8,62.5c0,2,0.9,3.1,2.2,3.1c1.4,0,2.4-1.3,2.4-3.4c0-2-1-3.1-2.2-3.1
		C46.6,59.1,45.8,60.7,45.8,62.5z"/>
	<path class="st0" d="M59.7,62.1c0,2.8-1.6,4.5-3.5,4.5c-1.8,0-3.3-1.4-3.3-4.1c0-2.4,1.2-4.4,3.5-4.4
		C58.2,58.1,59.7,59.4,59.7,62.1z M54.1,62.5c0,2,0.9,3.1,2.2,3.1c1.4,0,2.4-1.3,2.4-3.4c0-2-1-3.1-2.2-3.1
		C54.8,59.1,54.1,60.7,54.1,62.5z"/>
	<path class="st0" d="M64.2,64.1c0,0.4,0,0.8,0,1.2c0,0.4,0,0.8,0,0.9c0,0.3-0.1,0.3-0.4,0.3h-0.4c-0.3,0-0.4,0-0.4-0.3
		c0-0.1,0-0.4,0-0.9c0-0.4,0-0.9,0-1.3v-4.4c0-0.2,0-0.3-0.1-0.3c0,0-0.1,0-0.2,0c-0.4,0.1-0.8,0.3-1.1,0.4c-0.1,0-0.2,0.1-0.2,0.1
		c-0.1,0-0.2-0.1-0.2-0.3l-0.1-0.3c0-0.1-0.1-0.2-0.1-0.2c0-0.1,0.1-0.2,0.3-0.2c0.5-0.2,1.2-0.4,1.7-0.7c0.3-0.1,0.4-0.2,0.7-0.2
		h0.1c0.3,0,0.4,0.1,0.4,0.4c0,0.4,0,1.5,0,2V64.1z"/>
	<path class="st0" d="M72.3,63.6c-0.1,0-0.1,0-0.2,0.2c-0.1,0.1-0.2,0.1-0.5,0.1c-0.4,0-0.5,0-0.5-0.3c0-0.2,0-0.5,0-0.7v-2.1
		c0-0.2,0-0.4,0-0.7c0-0.3,0.2-0.5,0.5-0.5c0.3,0,0.7,0,1,0H74c0.2,0,0.3-0.1,0.3-0.3v-0.2c0-0.2-0.1-0.3-0.3-0.3h-2.8
		c-0.5,0-1,0-1.4,0c-0.3,0-0.3-0.1-0.3-0.4s0-0.5,0.3-0.5c0.5,0,1,0,1.4,0h2.7c0.2,0,0.3-0.1,0.3-0.3c0-0.2,0-0.4,0-0.7
		c0,0,0-0.1,0-0.1c0-0.1,0.1-0.2,0.2-0.2c0.2,0,0.7,0,0.9,0c0.1,0,0.3,0,0.3,0.2c0,0.1-0.1,0.1-0.2,0.2c-0.1,0.1-0.1,0.2-0.1,0.6
		c0,0.2,0.1,0.3,0.3,0.3h2.8c0.5,0,1,0,1.4,0c0.3,0,0.3,0.1,0.3,0.5s0,0.4-0.3,0.4c-0.5,0-1,0-1.4,0h-2.9c-0.2,0-0.3,0.1-0.3,0.3
		v0.2c0,0.2,0.1,0.3,0.3,0.3h1.4c0.3,0,0.7,0,1,0c0.3,0,0.5,0.1,0.5,0.5c0,0.2,0,0.5,0,0.7v2.1c0,0.2,0,0.5,0,0.7
		c0,0.3-0.1,0.3-0.5,0.3c-0.3,0-0.4,0-0.5-0.1c0-0.1-0.1-0.2-0.2-0.2h-1.1c-0.1,0-0.1,0-0.1,0.1c0,0,0,0.1,0,0.1
		c1.1,1,2.4,1.7,3.7,2.4c0.3,0.2,0.4,0.2,0.4,0.3c0,0.2-0.3,0.7-0.5,0.7c-0.2,0-1.5-0.8-1.7-0.9c-0.9-0.6-1.7-1.2-2.5-1.9
		c0,0-0.1,0-0.1,0c-0.1,0-0.1,0.1-0.1,0.2v0.9c0,0.6,0,1.2,0,1.8c0,0.4-0.1,0.4-0.5,0.4c-0.4,0-0.5,0-0.5-0.4c0-0.6,0-1.2,0-1.8
		v-0.9c0,0,0-0.2-0.1-0.2c0,0-0.1,0-0.1,0c-0.9,0.9-2,1.7-3.1,2.3c-0.2,0.1-0.9,0.5-1.1,0.5c-0.2,0-0.5-0.5-0.5-0.7
		c0-0.1,0.2-0.2,0.4-0.3c1.3-0.6,2.7-1.4,3.7-2.3c0,0,0-0.1,0-0.1c0-0.1-0.1-0.1-0.1-0.1H72.3z M74,61.2c0.2,0,0.3-0.1,0.3-0.3v-0.2
		c0-0.2-0.1-0.3-0.3-0.3h-1.6c-0.2,0-0.3,0.1-0.3,0.3V61c0,0.2,0.1,0.3,0.3,0.3H74z M74,62.8c0.2,0,0.3-0.1,0.3-0.3v-0.2
		c0-0.2-0.1-0.3-0.3-0.3h-1.6c-0.2,0-0.3,0.1-0.3,0.3v0.2c0,0.2,0.1,0.3,0.3,0.3H74z M77.1,61.2c0.2,0,0.3-0.1,0.3-0.3v-0.2
		c0-0.2-0.1-0.3-0.3-0.3h-1.6c-0.2,0-0.3,0.1-0.3,0.3V61c0,0.2,0.1,0.3,0.3,0.3H77.1z M77.1,62.8c0.2,0,0.3-0.1,0.3-0.3v-0.2
		c0-0.2-0.1-0.3-0.3-0.3h-1.6c-0.2,0-0.3,0.1-0.3,0.3v0.2c0,0.2,0.1,0.3,0.3,0.3H77.1z"/>
	<path class="st0" d="M87.7,58.1h2.8c0.5,0,1,0,1.4,0c0.3,0,0.3,0.1,0.3,0.5c0,0.3,0,0.5-0.2,0.5c-0.5,0-1,0-1.5,0h-7.2
		c-0.5,0-1,0-1.4,0c-0.3,0-0.3-0.1-0.3-0.5c0-0.4,0-0.5,0.3-0.5c0.5,0,1,0,1.4,0h2.8c0.2,0,0.3-0.1,0.3-0.3c0-0.3,0-0.5,0-0.8
		c0,0,0-0.1,0-0.1c0-0.1,0.1-0.2,0.2-0.2c0.2,0,0.7,0,0.9,0.1c0.1,0,0.2,0,0.2,0.1c0,0.1-0.1,0.1-0.2,0.2c-0.1,0.1-0.2,0.3-0.1,0.7
		C87.4,58,87.5,58.1,87.7,58.1z M85.1,64.6c-0.1,0-0.2,0.1-0.2,0.2c-0.6,0.8-1.4,1.5-2.2,2.1c-0.1,0.1-0.3,0.2-0.4,0.2
		c-0.2,0-0.6-0.3-0.6-0.5c0-0.1,0.2-0.2,0.3-0.3c0.7-0.5,1.7-1.4,2.2-2.2c0.1-0.1,0.1-0.2,0.2-0.2c0.1,0,0.4,0.1,0.5,0.2
		c0.4,0.2,0.5,0.2,0.5,0.3C85.3,64.5,85.2,64.5,85.1,64.6z M84.6,63.2c-0.1,0-0.1,0-0.2,0.1c0,0.1-0.1,0.1-0.5,0.1
		c-0.4,0-0.5,0-0.5-0.3c0-0.2,0-0.4,0-0.6V61c0-0.2,0-0.4,0-0.6c0-0.3,0.1-0.5,0.5-0.5c0.3,0,0.6,0,1,0H89c0.3,0,0.6,0,0.8,0
		c0.5,0,0.7,0.1,0.7,0.5c0,0.2,0,0.4,0,0.6v1.6c0,0.2,0,0.4,0,0.7c0,0.2-0.1,0.3-0.5,0.3c-0.4,0-0.4,0-0.5-0.1
		c0-0.1-0.1-0.1-0.2-0.1h-1.6c-0.2,0-0.3,0.1-0.3,0.3v2.1c0,0.3,0,0.5,0,0.8c0,1.1-1.1,1.1-1.9,1.1c-0.2,0-0.4,0-0.5-0.1
		c-0.1-0.1-0.1-0.4-0.1-0.6c0-0.2,0.1-0.3,0.2-0.3c0.1,0,0.3,0,0.6,0c0.8,0,0.8-0.1,0.8-0.9v-2.1c0-0.2-0.1-0.3-0.3-0.3H84.6z
		 M89.1,62.4c0.2,0,0.3-0.1,0.3-0.3v-1c0-0.2-0.1-0.3-0.3-0.3h-4.4c-0.2,0-0.3,0.1-0.3,0.3v1c0,0.2,0.1,0.3,0.3,0.3H89.1z M91.3,67
		c-0.1,0-0.2-0.1-0.3-0.2c-0.8-0.9-1.2-1.3-2.2-2.1c-0.1-0.1-0.2-0.2-0.2-0.3c0-0.2,0.4-0.5,0.6-0.5c0.1,0,0.2,0.1,0.3,0.1
		c0.4,0.4,0.9,0.8,1.3,1.1c0.2,0.2,1.1,1.1,1.1,1.3C91.9,66.6,91.5,67,91.3,67z"/>
	<path class="st0" d="M99.3,57.4c0.1-0.1,0.1-0.3,0.2-0.3c0.1,0,0.4,0.2,0.5,0.2c0.3,0.2,0.4,0.2,0.4,0.3c0,0.1-0.1,0.1-0.2,0.1
		c-0.2,0.1-0.2,0.1-0.3,0.3c-0.4,0.6-0.8,1.3-1.2,1.9c0,0,0,0.1,0,0.1c0,0.1,0.1,0.1,0.2,0.1c0.3,0,0.6,0,0.8,0
		c0.3,0,0.3,0.1,0.3,0.4c0,0.3,0,0.5-0.3,0.5c-0.4,0-0.8,0-1.2,0h-0.4c-0.2,0-0.3,0-0.5,0.2c-0.3,0.3-0.5,0.6-0.8,0.8
		c0,0,0,0.1,0,0.1c0,0.1,0.1,0.1,0.1,0.1h1.8c0.4,0,0.5,0.1,0.5,0.5c0,0.2,0,0.4,0,0.7v2.7c0,0.3,0,0.5,0,0.8s-0.1,0.3-0.5,0.3
		c-0.4,0-0.5,0-0.5-0.3c0-0.2-0.1-0.2-0.2-0.2h-2c-0.2,0-0.2,0.1-0.2,0.2c0,0.1,0,0.1,0,0.2c0,0.3-0.1,0.3-0.5,0.3
		c-0.3,0-0.5,0-0.5-0.3c0-0.3,0-0.5,0-0.8v-2.6c0-0.1,0-0.2-0.2-0.2c-0.1,0-0.1,0-0.2,0.1c-0.1,0.1-0.4,0.2-0.4,0.2
		c-0.2,0-0.5-0.5-0.5-0.6c0-0.1,0.3-0.3,0.4-0.3c0.9-0.5,1.6-1,2.4-1.7c0,0,0-0.1,0-0.1c0-0.1-0.1-0.1-0.1-0.1h-1
		c-0.4,0-0.8,0-1.2,0c-0.3,0-0.3-0.2-0.3-0.5c0-0.3,0-0.4,0.3-0.4c0.4,0,0.8,0,1.2,0h0.5c0.2,0,0.3-0.1,0.3-0.3v-0.6
		c0-0.2-0.1-0.3-0.3-0.3c-0.3,0-0.7,0-1,0c-0.3,0-0.3-0.2-0.3-0.4s0-0.4,0.3-0.4c0.3,0,0.7,0,1,0c0.2,0,0.3-0.1,0.3-0.3
		c0-0.3,0-0.5,0-0.8v-0.1c0-0.1,0.1-0.2,0.2-0.2c0.1,0,0.7,0,0.8,0.1c0.1,0,0.3,0,0.3,0.1c0,0.1-0.1,0.1-0.2,0.2
		c-0.1,0.1-0.1,0.2-0.1,0.5v0.1c0,0.2,0.1,0.3,0.3,0.3c0.2,0,0.6,0,0.8,0c0.3,0,0.3,0.2,0.3,0.4c0,0.3,0,0.4-0.3,0.4
		c-0.3,0-0.6,0-0.8,0c-0.2,0-0.3,0.1-0.3,0.3v0.6c0,0.2,0.1,0.3,0.3,0.3c0.2,0,0.2,0,0.3-0.2C98.2,59.3,98.8,58.3,99.3,57.4z
		 M97.9,64.1c0.2,0,0.3-0.1,0.3-0.3v-0.4c0-0.2-0.1-0.3-0.3-0.3H96c-0.2,0-0.3,0.1-0.3,0.3v0.4c0,0.2,0.1,0.3,0.3,0.3H97.9z
		 M96,64.9c-0.2,0-0.3,0.1-0.3,0.3v0.5c0,0.2,0.1,0.3,0.3,0.3h1.9c0.2,0,0.3-0.1,0.3-0.3v-0.5c0-0.2-0.1-0.3-0.3-0.3H96z M101.8,58
		c-0.2,0-0.3,0.1-0.3,0.3v7c0,0.6,0,1.1,0,1.7c0,0.4-0.1,0.4-0.5,0.4c-0.4,0-0.5,0-0.5-0.4c0-0.6,0-1.1,0-1.7v-6.8
		c0-0.3,0-0.6,0-0.9c0-0.4,0.2-0.6,0.6-0.6c0.3,0,0.6,0,0.9,0h1c0.2,0,0.6,0,0.7,0c0.3,0,0.7,0.3,0.7,0.5c0,0.5-0.9,2-1.1,2.5
		c0,0.1-0.2,0.3-0.2,0.4c0,0.1,0.1,0.3,0.2,0.4c0.7,0.9,1,1.7,1,2.9c0,0.5-0.1,1.2-0.5,1.6c-0.3,0.4-0.8,0.4-1.3,0.4
		c-0.4,0-0.5,0-0.6-0.3c0-0.1-0.1-0.4-0.1-0.5c0-0.2,0.1-0.2,0.2-0.2c0.1,0,0.3,0,0.5,0c0.7,0,0.8-0.6,0.8-1.1
		c0-0.9-0.5-1.9-1.1-2.6c-0.1-0.1-0.2-0.2-0.2-0.3c0-0.1,0.1-0.4,0.4-1c0.5-1,0.7-1.5,0.7-1.6c0-0.1-0.2-0.1-0.3-0.1H101.8z"/>
	<path class="st0" d="M107.8,61.5c-0.1,0-0.2-0.1-0.2-0.1c-0.5-0.4-0.9-0.7-1.4-1.1c-0.1-0.1-0.2-0.1-0.2-0.2c0-0.2,0.3-0.6,0.5-0.6
		c0.1,0,0.9,0.5,1,0.7c0.2,0.1,0.8,0.6,0.8,0.8S108,61.5,107.8,61.5z M108.7,63.4c-0.5,1.1-1,2.1-1.7,3.1c0,0.1-0.1,0.2-0.1,0.3
		c0,0.1,0,0.2,0,0.2c0,0.1,0,0.1-0.1,0.1s-0.9-0.5-0.9-0.7c0-0.1,0.1-0.2,0.1-0.3c0.5-0.8,1.5-2.6,1.9-3.5c0-0.1,0.1-0.2,0.2-0.2
		c0.1,0,0.7,0.3,0.7,0.5C108.8,63.2,108.7,63.4,108.7,63.4z M108.4,58.8c-0.1,0-0.2-0.1-0.2-0.1c-0.5-0.4-0.9-0.7-1.4-1
		c-0.1-0.1-0.2-0.1-0.2-0.2c0-0.1,0.3-0.6,0.5-0.6c0.2,0,0.8,0.5,1,0.6c0.2,0.1,0.7,0.5,0.8,0.6c0.1,0,0.1,0.1,0.1,0.2
		C108.9,58.4,108.6,58.8,108.4,58.8z M112.1,65.7c-0.7,0.5-1.6,0.9-2.4,1.3c-0.2,0.1-0.2,0.1-0.3,0.3c0,0.1,0,0.2-0.1,0.2
		c-0.2,0-0.6-0.9-0.6-1c0-0.1,0.1-0.1,0.2-0.1c0.7-0.2,2.1-1,2.7-1.4c0.1,0,0.2-0.2,0.3-0.2c0.3,0,0.3,0.5,0.3,0.7
		C112.3,65.6,112.2,65.6,112.1,65.7z M113.5,58.2c0,0.2,0.1,0.3,0.3,0.3h0.7c0.4,0,0.8,0,1.1,0c0.2,0,0.3,0.1,0.3,0.5
		c0,0.4,0,0.5-0.3,0.5c-0.4,0-0.7,0-1.1,0h-0.7c-0.2,0-0.3,0.1-0.3,0.3v1c0,0.2,0.1,0.3,0.3,0.3h1.2c0.5,0,0.9,0,1.4,0
		c0.3,0,0.3,0.1,0.3,0.5c0,0.4,0,0.5-0.3,0.5c-0.5,0-0.9,0-1.4,0h-4.5c-0.5,0-0.9,0-1.4,0c-0.3,0-0.3-0.1-0.3-0.5
		c0-0.3,0-0.5,0.3-0.5c0.2,0,0.4,0,0.7,0c0.2,0,0.3-0.1,0.3-0.3v-1.8c0-0.2,0-0.5,0-0.7c0,0,0-0.1,0-0.1c0-0.1,0.1-0.2,0.2-0.2
		c0.2,0,0.5,0,0.7,0.1c0.2,0,0.4,0,0.4,0.2c0,0.1-0.1,0.1-0.2,0.2c-0.1,0.1-0.1,0.2-0.1,0.6v1.8c0,0.2,0.1,0.3,0.3,0.3h0.8
		c0.2,0,0.3-0.1,0.3-0.3v-3c0-0.3,0-0.5,0-0.8c0,0,0-0.1,0-0.1c0-0.1,0.1-0.2,0.2-0.2c0.1,0,0.7,0.1,0.9,0.1c0.1,0,0.2,0,0.2,0.2
		c0,0.1-0.1,0.1-0.2,0.2c-0.1,0.1-0.1,0.2-0.1,0.6V58.2z M111.6,63.3c0.3,0.2,0.4,0.3,0.4,0.4c0,0.1-0.2,0.6-0.5,0.6
		c-0.1,0-0.1,0-0.2-0.1c-0.6-0.4-1.2-0.8-1.8-1.1c-0.1,0-0.2-0.1-0.2-0.2c0-0.2,0.3-0.6,0.4-0.6C110,62.3,111.4,63.2,111.6,63.3z
		 M116,67.4c-0.1,0-0.2-0.1-0.3-0.2c-0.8-0.6-1.7-1.1-2.7-1.6c-0.1,0-0.3-0.1-0.3-0.2c0-0.2,0.2-0.6,0.4-0.6c0.2,0,1.4,0.7,1.6,0.8
		c0.4,0.2,1.2,0.7,1.5,0.9c0.1,0,0.1,0.1,0.1,0.2C116.5,66.9,116.2,67.4,116,67.4z M116.1,63.2C116,63.2,116,63.1,116.1,63.2
		c-0.1,0-0.1,0-0.2,0c-0.1,0-0.1,0-0.2,0.1c-0.7,0.5-1.3,0.8-2,1.1c-0.1,0-0.2,0.1-0.3,0.1c-0.2,0-0.5-0.5-0.5-0.6s0.2-0.2,0.3-0.3
		c0.8-0.3,1.5-0.7,2.2-1.2c0,0,0.1-0.1,0.1-0.1c0.1,0,0.2,0.2,0.4,0.4c0.1,0.1,0.1,0.1,0.2,0.2c0.1,0.1,0.1,0.2,0.1,0.2
		C116.2,63.1,116.1,63.2,116.1,63.2z"/>
	<path class="st0" d="M123.4,60c-0.1,0-0.1,0-0.2,0.1c-0.9,1.2-2.1,2.2-3.3,3c-0.2,0.1-1.1,0.7-1.3,0.7c-0.2,0-0.6-0.4-0.6-0.7
		c0-0.2,0.2-0.3,0.4-0.3c1.8-0.9,3.5-2.4,4.6-4.1c0.1-0.1,0.1-0.2,0.2-0.2c0.1,0,0.6,0.2,0.7,0.2c0.2,0.1,0.3,0.1,0.3,0.3
		c0,0.1-0.1,0.1-0.2,0.1c-0.1,0-0.1,0-0.1,0.1c0,0,0,0,0,0.1c1,1.5,2.8,2.7,4.4,3.4c0.1,0.1,0.4,0.2,0.4,0.3c0,0.2-0.3,0.7-0.5,0.7
		c-0.3,0-1.7-0.8-2-1c-1.1-0.7-2.1-1.6-2.8-2.6C123.6,60.1,123.5,60,123.4,60z M122.1,57.5c-0.1,0-0.1,0.1-0.2,0.1
		c-0.7,0.8-1.6,1.7-2.5,2.3c-0.1,0.1-0.2,0.2-0.4,0.2c-0.2,0-0.5-0.4-0.5-0.6c0-0.1,0.1-0.2,0.2-0.2c0.9-0.6,1.9-1.5,2.6-2.4
		c0-0.1,0.1-0.1,0.2-0.1c0.1,0,0.6,0.3,0.7,0.4c0.1,0,0.2,0.1,0.2,0.2C122.3,57.5,122.1,57.5,122.1,57.5z M121.6,66.8
		c-0.2,0-0.2,0.1-0.2,0.2c0,0.1,0,0.1,0,0.2c0,0.2-0.1,0.3-0.5,0.3c-0.4,0-0.5,0-0.5-0.3c0-0.3,0-0.5,0-0.8v-2.6c0-0.2,0-0.4,0-0.7
		c0-0.4,0.3-0.5,0.6-0.5h4.8c0.4,0,0.6,0.1,0.6,0.5c0,0.2,0,0.4,0,0.7v2.6c0,0.2,0,0.6,0,0.8c0,0.3-0.1,0.3-0.5,0.3
		c-0.4,0-0.5,0-0.5-0.3V67c0-0.2-0.1-0.2-0.2-0.2H121.6z M121.4,65.6c0,0.2,0.1,0.3,0.3,0.3h3.4c0.2,0,0.3-0.1,0.3-0.3V64
		c0-0.2-0.1-0.3-0.3-0.3h-3.4c-0.2,0-0.3,0.1-0.3,0.3V65.6z M128,60.1c-0.4,0-3.2-2.5-3.2-2.9c0-0.2,0.5-0.5,0.6-0.5
		c0.1,0,0.2,0.1,0.2,0.2c0.8,0.9,1.7,1.7,2.7,2.4c0.1,0.1,0.2,0.1,0.2,0.2C128.5,59.7,128.2,60.1,128,60.1z"/>
	<path class="st0" d="M132.1,66.9c-0.2,0-0.2,0.1-0.2,0.2c0,0.3,0,0.3-0.5,0.3c-0.4,0-0.5,0-0.5-0.3c0-0.4,0-0.7,0-1.1v-7.4
		c0-0.3,0-0.5,0-0.8c0-0.4,0.2-0.6,0.6-0.6c0.3,0,0.6,0,0.8,0h7.1c0.3,0,0.7,0,1,0c0.3,0,0.3,0.1,0.3,0.5c0,0.4,0,0.5-0.3,0.5
		c-0.3,0-0.7,0-1,0h-7.2c-0.2,0-0.3,0.1-0.3,0.3v7.1c0,0.2,0.1,0.3,0.3,0.3h6.8c0.5,0,0.9,0,1.4,0c0.3,0,0.3,0.1,0.3,0.5
		c0,0.4,0,0.5-0.3,0.5c-0.5,0-0.9,0-1.4,0H132.1z M137.2,61.9c0,0.1,0,0.2,0.1,0.2c0.3,0.3,2,2,2,2.3c0,0.2-0.4,0.6-0.6,0.6
		c-0.1,0-0.2-0.1-0.3-0.2c-0.4-0.6-1.1-1.4-1.7-1.9c-0.1,0-0.1-0.1-0.2-0.1c-0.1,0-0.2,0-0.2,0.1c-0.8,0.9-1.8,1.7-2.8,2.3
		c-0.1,0.1-0.3,0.2-0.4,0.2c-0.2,0-0.6-0.4-0.6-0.6c0-0.2,0.2-0.3,0.3-0.3c1-0.6,2-1.4,2.8-2.2c0.1-0.1,0.1-0.1,0.1-0.2
		s0-0.2-0.1-0.2c-0.7-0.6-1.4-1.1-2.2-1.5c-0.1-0.1-0.3-0.2-0.3-0.3c0-0.2,0.3-0.6,0.6-0.6c0.3,0,2.2,1.4,2.5,1.7
		c0.1,0,0.1,0.1,0.2,0.1c0.1,0,0.2-0.1,0.2-0.1c0.5-0.7,0.9-1.4,1.3-2.1c0-0.1,0.1-0.3,0.2-0.3c0.1,0,1,0.3,1,0.5
		c0,0.1-0.1,0.1-0.2,0.1c-0.1,0-0.2,0.2-0.3,0.4c-0.4,0.7-0.8,1.4-1.3,2C137.2,61.8,137.2,61.8,137.2,61.9z"/>
	<path class="st0" d="M144,58.5v-0.7c0-0.3,0-0.5,0-0.8c0,0,0-0.1,0-0.1c0-0.1,0.1-0.2,0.2-0.2c0.2,0,0.5,0,0.7,0.1
		c0.3,0,0.5,0,0.5,0.2c0,0.1-0.1,0.1-0.2,0.2c-0.1,0.1-0.1,0.2-0.1,0.6v0.7c0,0.2,0.1,0.3,0.3,0.3c0.2,0,0.5,0,0.7,0
		c0.4,0,0.6,0.4,0.6,0.7c0,0.5-0.9,1.7-1.2,2.1c-0.1,0.1-0.1,0.1-0.1,0.2s0,0.2,0.1,0.2c0.4,0.4,0.8,0.8,1.2,1.1
		c0.1,0.1,0.2,0.2,0.2,0.3c0,0.2-0.3,0.6-0.5,0.6c-0.2,0-1-0.8-1.1-1c0,0-0.1,0-0.1,0c-0.1,0-0.1,0.1-0.1,0.1v2.5c0,0.5,0,0.9,0,1.4
		c0,0.4-0.1,0.4-0.5,0.4s-0.5,0-0.5-0.4c0-0.5,0-0.9,0-1.4v-2.1c0-0.1,0-0.1-0.1-0.1c0,0-0.1,0-0.1,0c-0.2,0.2-0.8,0.8-1,0.8
		c-0.2,0-0.5-0.4-0.5-0.6c0-0.2,0.2-0.3,0.3-0.4c0.7-0.6,1.5-1.4,2.1-2.1c0.2-0.2,0.9-1.2,0.9-1.4c0-0.1-0.1-0.1-0.4-0.1H144
		c-0.4,0-0.8,0-1.2,0c-0.2,0-0.3-0.1-0.3-0.5c0-0.4,0-0.5,0.3-0.5c0.3,0,0.7,0,1,0C143.9,58.8,144,58.7,144,58.5z M150.7,64.3
		c-0.2,0-0.3,0.1-0.3,0.3v0.7c0,0.6,0,1.2,0,1.8c0,0.4-0.1,0.4-0.5,0.4c-0.4,0-0.5,0-0.5-0.4c0-0.6,0-1.2,0-1.8v-0.7
		c0-0.2-0.1-0.3-0.3-0.3h-0.8c-0.1,0-0.2,0.1-0.2,0.2c0,0.2-0.1,0.2-0.5,0.2c-0.4,0-0.5,0-0.5-0.3c0-0.3,0-0.7,0-1v-3.4
		c0-0.3,0-0.6,0-0.8c0-0.4,0.2-0.5,0.6-0.5c0.3,0,0.5,0,0.8,0h0.6c0.2,0,0.3-0.1,0.3-0.3v-0.6c0-0.2,0-0.5,0-0.7c0,0,0-0.1,0-0.1
		c0-0.1,0.1-0.2,0.2-0.2c0.2,0,0.6,0,0.8,0.1c0.1,0,0.3,0,0.3,0.1c0,0.1-0.1,0.1-0.2,0.2c-0.1,0.1-0.1,0.3-0.1,0.7v0.5
		c0,0.2,0.1,0.3,0.3,0.3h0.7c0.3,0,0.5,0,0.8,0c0.4,0,0.6,0.1,0.6,0.6c0,0.3,0,0.6,0,0.8v3.4c0,0.3,0,0.7,0,1c0,0.3-0.1,0.3-0.5,0.3
		c-0.4,0-0.4,0-0.5-0.2c0-0.1-0.1-0.2-0.2-0.2H150.7z M149.4,59.8c0-0.2-0.1-0.3-0.3-0.3h-0.7c-0.2,0-0.3,0.1-0.3,0.3v0.8
		c0,0.2,0.1,0.3,0.3,0.3h0.7c0.2,0,0.3-0.1,0.3-0.3V59.8z M149.4,62.2c0-0.2-0.1-0.3-0.3-0.3h-0.7c-0.2,0-0.3,0.1-0.3,0.3V63
		c0,0.2,0.1,0.3,0.3,0.3h0.7c0.2,0,0.3-0.1,0.3-0.3V62.2z M151.8,59.8c0-0.2-0.1-0.3-0.3-0.3h-0.8c-0.2,0-0.3,0.1-0.3,0.3v0.8
		c0,0.2,0.1,0.3,0.3,0.3h0.8c0.2,0,0.3-0.1,0.3-0.3V59.8z M151.8,62.2c0-0.2-0.1-0.3-0.3-0.3h-0.8c-0.2,0-0.3,0.1-0.3,0.3V63
		c0,0.2,0.1,0.3,0.3,0.3h0.8c0.2,0,0.3-0.1,0.3-0.3V62.2z"/>
	<path class="st0" d="M163,58c0.4,0,0.7,0,1,0c0.4,0,0.7,0,0.8,0.2c0.1,0.1,0.1,0.2,0.1,0.4c0,0.1,0,0.3,0,0.5v0.6
		c0,0.1,0,0.3,0,0.4c0,0.2-0.2,0.3-0.5,0.3c-0.3,0-0.5,0-0.5-0.2c0-0.1,0-0.3,0-0.4v-0.5c0-0.2-0.1-0.3-0.3-0.3h-7.4
		c-0.2,0-0.3,0.1-0.3,0.3v0.4c0,0.1,0,0.3,0,0.4c0,0.2-0.2,0.2-0.5,0.2c-0.3,0-0.5,0-0.5-0.3c0-0.1,0-0.3,0-0.4V59
		c0-0.2,0-0.4,0-0.6c0-0.4,0.3-0.5,0.8-0.5c0.3,0,0.6,0,1.1,0h2.3c0.2,0,0.3-0.1,0.3-0.3c0-0.2,0-0.5,0-0.7c0,0,0-0.1,0-0.1
		c0-0.1,0.1-0.2,0.2-0.2c0.2,0,0.7,0,0.9,0.1c0.1,0,0.2,0,0.2,0.1c0,0.1-0.1,0.1-0.2,0.2c-0.1,0.1-0.1,0.2-0.1,0.6
		c0,0.2,0.1,0.3,0.3,0.3H163z M159.7,63.5c0,0.1,0.1,0.2,0.2,0.2h2.3c0.3,0,0.7,0,1,0c0.4,0,0.7,0.1,0.7,0.5c0,0.2,0,0.4,0,0.6v1.8
		c0,0.1,0,0.6,0,0.6c0,0.3-0.2,0.3-0.5,0.3c-0.3,0-0.5,0-0.5-0.3v-0.1c0-0.2-0.1-0.2-0.2-0.2h-5.6c-0.2,0-0.2,0.1-0.2,0.2v0.1
		c0,0.2-0.2,0.2-0.5,0.2c-0.4,0-0.5,0-0.5-0.3c0-0.2,0-0.4,0-0.6v-1.7c0-0.2,0-0.4,0-0.6c0-0.5,0.3-0.5,0.7-0.5c0.3,0,0.7,0,1,0h0.7
		c0.2,0,0.3,0,0.4-0.2c0.1-0.2,0.1-0.3,0.2-0.5c0,0,0-0.1,0-0.1c0-0.1-0.1-0.2-0.2-0.2h-0.7c-0.1,0-0.1,0-0.1,0.1
		c-0.1,0.1-0.1,0.1-0.5,0.1c-0.4,0-0.5,0-0.5-0.3c0-0.2,0-0.4,0-0.6v-1.1c0-0.2,0-0.4,0-0.6c0-0.4,0.3-0.5,0.7-0.5
		c0.3,0,0.5,0,0.8,0h3.2c0.3,0,0.5,0,0.8,0c0.3,0,0.7,0.1,0.7,0.5c0,0.2,0,0.4,0,0.6v1.1c0,0.1,0,0.6,0,0.6c0,0.3-0.2,0.3-0.5,0.3
		c-0.3,0-0.4,0-0.5-0.1c0-0.1-0.1-0.2-0.2-0.2h-1.6c-0.2,0-0.3,0-0.4,0.3C159.8,63.1,159.7,63.2,159.7,63.5
		C159.7,63.4,159.7,63.5,159.7,63.5z M162.6,66c0.2,0,0.3-0.1,0.3-0.3v-0.8c0-0.2-0.1-0.3-0.3-0.3h-5.4c-0.2,0-0.3,0.1-0.3,0.3v0.8
		c0,0.2,0.1,0.3,0.3,0.3H162.6z M161.7,61.9c0.2,0,0.3-0.1,0.3-0.3V61c0-0.2-0.1-0.3-0.3-0.3h-3.6c-0.2,0-0.3,0.1-0.3,0.3v0.5
		c0,0.2,0.1,0.3,0.3,0.3H161.7z"/>
	<path class="st0" d="M170.8,58.7C170.8,58.7,170.9,58.7,170.8,58.7l1.8,0.1c0.3,0,0.4,0,0.5-0.2c0.4-0.4,0.8-1.2,1-1.7
		c0-0.1,0.1-0.1,0.2-0.1c0.1,0,0.3,0.1,0.4,0.1c0.1,0.1,0.7,0.2,0.7,0.4c0,0.1-0.1,0.1-0.2,0.1c-0.1,0-0.2,0-0.2,0.1
		c-0.2,0.3-0.2,0.4-0.7,1.1c0,0,0,0.1,0,0.1c0,0.1,0.1,0.1,0.2,0.1h1.3c0.5,0,1,0,1.4,0c0.3,0,0.3,0.1,0.3,0.5c0,0.3,0,0.4-0.3,0.4
		c-0.5,0-1,0-1.4,0h-7.2c-0.5,0-1,0-1.4,0c-0.2,0-0.3-0.1-0.3-0.4c0-0.3,0-0.5,0.3-0.5c0.5,0,1,0,1.4,0h1.3c0.1,0,0.2,0,0.2-0.2
		c0,0,0-0.1,0-0.1c-0.2-0.4-0.5-0.8-0.8-1.2c0-0.1-0.1-0.1-0.1-0.2c0-0.2,0.5-0.4,0.7-0.4c0.2,0,0.3,0.2,0.6,0.6
		c0.1,0.2,0.6,1,0.6,1.1C171,58.5,170.9,58.6,170.8,58.7C170.8,58.6,170.8,58.6,170.8,58.7z M168.9,64.8c-0.2,0-0.3,0.1-0.3,0.3v0.7
		c0,0.4,0,0.8,0,1.2c0,0.3-0.1,0.4-0.5,0.4c-0.4,0-0.5,0-0.5-0.4c0-0.2,0-0.6,0-1.1v-4.1c0-0.3,0-0.5,0-0.8c0-0.4,0.1-0.5,0.5-0.5
		c0.2,0,0.5,0,0.7,0h1.6c0.2,0,0.5,0,0.7,0c0.4,0,0.5,0.1,0.5,0.5c0,0.3,0,0.5,0,0.8v3.9c0,0.2,0,0.4,0,0.6c0,0.4,0,0.7-0.4,0.9
		c-0.3,0.1-0.8,0.2-1.1,0.2c-0.4,0-0.7,0-0.7-0.7c0-0.2,0-0.3,0.2-0.3c0.1,0,0.3,0,0.6,0c0.5,0,0.4-0.3,0.4-0.6v-0.7
		c0-0.2-0.1-0.3-0.3-0.3H168.9z M170.4,62.3c0.2,0,0.3-0.1,0.3-0.3v-0.4c0-0.2-0.1-0.3-0.3-0.3h-1.5c-0.2,0-0.3,0.1-0.3,0.3V62
		c0,0.2,0.1,0.3,0.3,0.3H170.4z M168.8,63.1c-0.2,0-0.3,0.1-0.3,0.3v0.4c0,0.2,0.1,0.3,0.3,0.3h1.5c0.2,0,0.3-0.1,0.3-0.3v-0.4
		c0-0.2-0.1-0.3-0.3-0.3H168.8z M173.1,61.6c0-0.3,0-0.6,0-0.8c0,0,0-0.1,0-0.1c0-0.1,0.1-0.1,0.2-0.1c0.1,0,0.8,0.1,0.9,0.1
		c0.1,0,0.2,0,0.2,0.1c0,0.1-0.1,0.1-0.2,0.2c-0.1,0.1-0.1,0.2-0.1,0.6v2.3c0,0.4,0,0.9,0,1.3c0,0.3-0.1,0.4-0.5,0.4
		c-0.4,0-0.5,0-0.5-0.4c0-0.4,0-0.9,0-1.3V61.6z M175.5,61.2c0-0.3,0-0.5,0-0.7c0,0,0-0.1,0-0.1c0-0.1,0.1-0.1,0.2-0.1
		c0.2,0,0.4,0,0.6,0c0.3,0,0.5,0,0.5,0.2c0,0.1-0.1,0.1-0.2,0.2c-0.1,0.1-0.2,0.2-0.2,0.7v4.2c0,0.2,0,0.5,0,0.8
		c0,0.3-0.1,0.7-0.4,0.9c-0.4,0.2-1,0.3-1.5,0.3c-0.1,0-0.4,0-0.4-0.1c-0.1-0.1-0.2-0.4-0.2-0.6s0-0.3,0.2-0.3c0.1,0,0.4,0,0.6,0
		c0.6,0,0.7-0.1,0.7-0.9V61.2z"/>
	<path class="st0" d="M181.7,61.3c1.5,0,2.8,0.8,2.8,2.4c0,1.4-0.9,2.9-3.4,2.9c-0.7,0-1.5-0.2-2-0.4c-0.2-0.1-0.3-0.2-0.3-0.3
		c0-0.1,0-0.1,0.1-0.2l0.1-0.3c0.1-0.2,0.1-0.3,0.2-0.3c0,0,0.1,0,0.2,0.1c0.5,0.3,1.1,0.4,1.7,0.4c1.6,0,2.2-0.9,2.2-1.9
		c0-1-0.8-1.6-2-1.6c-0.5,0-1,0.1-1.4,0.3c-0.1,0-0.2,0.1-0.3,0.1c-0.1,0-0.1,0-0.3-0.1c-0.2-0.1-0.2-0.1-0.2-0.2c0,0,0-0.1,0-0.2
		c0-0.4,0.1-0.7,0.1-1.1l0.1-1.4c0-0.4,0-0.7,0.1-1.1c0-0.3,0.1-0.4,0.3-0.4c0.2,0,1.1,0,1.7,0h0.6c0.6,0,1.6,0,1.8,0
		c0.3,0,0.3,0.1,0.3,0.4v0.3c0,0.3,0,0.4-0.3,0.4c-0.2,0-1.2,0-1.8,0h-1.3c-0.3,0-0.4,0-0.4,0.4l-0.1,1.6v0.1c0,0.1,0,0.2,0.1,0.2
		c0,0,0.1,0,0.2,0C180.9,61.3,181.3,61.3,181.7,61.3z"/>
	<path class="st0" d="M187.4,63.9c-0.3,0-0.7,0-1,0c-0.3,0-0.4,0-0.4-0.4v-0.3c0-0.3,0.1-0.4,0.4-0.4c0.3,0,0.7,0,1,0h0.9
		c0.3,0,0.6,0,0.9,0c0.3,0,0.4,0,0.4,0.4v0.3c0,0.3-0.1,0.4-0.4,0.4s-0.6,0-0.9,0H187.4z"/>
	<path class="st0" d="M196.2,64.9c0,0.5,0,1.2,0,1.3c0,0.3-0.1,0.3-0.4,0.3h-0.4c-0.3,0-0.4,0-0.4-0.3c0-0.2,0-0.8,0-1.3
		c0-0.3,0-0.3-0.3-0.3h-1.9c-0.6,0-1.5,0-1.7,0c-0.3,0-0.3-0.1-0.3-0.4v-0.1c0-0.3,0-0.4,0.2-0.7c0.3-0.4,0.5-0.9,0.7-1.3L193,60
		c0.3-0.5,0.5-1,0.8-1.5c0.1-0.3,0.2-0.3,0.5-0.3h0.5c0.2,0,0.3,0,0.3,0.1c0,0,0,0.1-0.1,0.2c-0.4,0.6-0.7,1.2-1,1.8l-1.7,3.1
		c0,0.1-0.1,0.2-0.1,0.2c0,0.1,0.1,0.1,0.3,0.1h2.3c0.3,0,0.3,0,0.3-0.3c0-0.9,0-1.9,0-2.1c0-0.3,0.1-0.3,0.4-0.3h0.4
		c0.3,0,0.4,0,0.4,0.3c0,0.2,0,1.2,0,2.1c0,0.3,0,0.3,0.3,0.3c0.4,0,0.9,0,1,0c0.3,0,0.3,0.1,0.3,0.4v0.2c0,0.3,0,0.4-0.3,0.4
		c-0.2,0-0.7,0-1,0C196.2,64.6,196.2,64.6,196.2,64.9z"/>
	<path class="st0" d="M202.5,61.1c1.4,0,2.6,0.8,2.6,2.5c0,1.8-1.3,3-3.2,3c-1.9,0-3.1-1.2-3.1-3.3c0-1.6,0.5-3.1,1.6-4.1
		c0.9-0.8,2.2-1.2,3-1.2c0.2,0,0.3,0.1,0.3,0.3v0.3c0,0.3,0,0.4-0.4,0.4c-1.2,0.1-2.2,0.7-2.8,1.6c-0.2,0.3-0.5,0.9-0.5,1
		c0,0,0,0.1,0,0.1c0,0,0.1,0,0.2-0.1C201,61.4,201.7,61.1,202.5,61.1z M200.3,62.8c-0.2,0.2-0.3,0.4-0.3,0.7c0,1.4,0.9,2.2,2.1,2.2
		c1.3,0,2.1-0.9,2.1-2c0-1-0.7-1.7-1.8-1.7C201.6,62.1,200.8,62.3,200.3,62.8z"/>
	<path class="st0" d="M207.9,63.9c-0.3,0-0.7,0-1,0c-0.3,0-0.4,0-0.4-0.4v-0.3c0-0.3,0.1-0.4,0.4-0.4c0.3,0,0.7,0,1,0h0.9
		c0.3,0,0.6,0,0.9,0c0.3,0,0.4,0,0.4,0.4v0.3c0,0.3-0.1,0.4-0.4,0.4s-0.6,0-0.9,0H207.9z"/>
	<path class="st0" d="M214.6,64.1c0,0.4,0,0.8,0,1.2c0,0.4,0,0.8,0,0.9c0,0.3-0.1,0.3-0.4,0.3h-0.4c-0.3,0-0.4,0-0.4-0.3
		c0-0.1,0-0.4,0-0.9c0-0.4,0-0.9,0-1.3v-4.4c0-0.2,0-0.3-0.1-0.3c0,0-0.1,0-0.2,0c-0.4,0.1-0.8,0.3-1.1,0.4c-0.1,0-0.2,0.1-0.2,0.1
		c-0.1,0-0.2-0.1-0.2-0.3l-0.1-0.3c0-0.1-0.1-0.2-0.1-0.2c0-0.1,0.1-0.2,0.3-0.2c0.5-0.2,1.2-0.4,1.7-0.7c0.3-0.1,0.4-0.2,0.7-0.2
		h0.1c0.3,0,0.4,0.1,0.4,0.4c0,0.4,0,1.5,0,2V64.1z"/>
	<path class="st0" d="M226.7,64.1c0,0.4,0,1.1,0,1.5c0,0.3,0,0.5,0,0.6c0,0.3-0.1,0.3-0.4,0.3H226c-0.3,0-0.4,0-0.4-0.3
		c0-0.1,0-0.3,0-0.6c0-0.5,0-1.1,0-1.5v-4.6c0-0.3-0.1-0.4-0.4-0.4h-0.4c-0.6,0-1.4,0-1.7,0c-0.2,0-0.3-0.1-0.3-0.4v-0.3
		c0-0.3,0-0.4,0.3-0.4c0.2,0,1.1,0,1.7,0h2.5c0.6,0,1.5,0,1.7,0c0.3,0,0.3,0.1,0.3,0.4v0.3c0,0.3,0,0.4-0.3,0.4c-0.2,0-1.1,0-1.7,0
		h-0.5c-0.3,0-0.4,0.1-0.4,0.4V64.1z"/>
	<path class="st0" d="M234.7,64.6c-0.2,0.5-0.4,1-0.6,1.6c-0.1,0.3-0.1,0.4-0.5,0.4h-0.1c-0.3,0-0.4,0-0.4-0.4
		c-0.2-0.5-0.3-1-0.5-1.6l-1.4-4.2c-0.2-0.6-0.4-1.2-0.7-1.8c0-0.1,0-0.2,0-0.2c0-0.1,0.1-0.1,0.3-0.1h0.5c0.3,0,0.4,0,0.5,0.4
		c0.2,0.6,0.4,1.2,0.5,1.8l1.3,4c0,0.1,0.1,0.1,0.1,0.1c0,0,0.1,0,0.1-0.1l1.5-4c0.2-0.6,0.4-1.2,0.7-1.8c0.1-0.3,0.2-0.3,0.4-0.3
		h0.1c0.3,0,0.3,0,0.4,0.3c0.2,0.7,0.4,1.2,0.6,1.8l1.5,4c0,0.1,0.1,0.1,0.1,0.1c0,0,0.1,0,0.1-0.1l1.3-4c0.2-0.6,0.4-1.1,0.5-1.8
		c0.1-0.3,0.2-0.4,0.5-0.4h0.5c0.2,0,0.3,0,0.3,0.1c0,0,0,0.1,0,0.2c-0.3,0.7-0.5,1.2-0.7,1.8l-1.5,4.3c-0.2,0.5-0.3,1-0.5,1.6
		c-0.1,0.3-0.1,0.4-0.5,0.4h-0.1c-0.3,0-0.4,0-0.5-0.4c-0.2-0.6-0.4-1.1-0.6-1.6l-1.5-4.2c0-0.1-0.1-0.1-0.1-0.1c0,0-0.1,0-0.1,0.1
		L234.7,64.6z"/>
	<path class="st0" d="M244.3,66.5c-0.3,0-0.4,0-0.4-0.3c0-0.1,0-0.5,0-0.9c0-0.4,0-0.9,0-1.2v-3.5c0-0.4,0-0.8,0-1.3
		c0-0.4,0-0.8,0-0.9c0-0.3,0.1-0.3,0.4-0.3h0.4c0.3,0,0.4,0,0.4,0.3c0,0.1,0,0.4,0,0.9c0,0.4,0,0.9,0,1.2v3.5c0,0.4,0,0.8,0,1.3
		c0,0.4,0,0.8,0,0.9c0,0.3-0.1,0.3-0.4,0.3H244.3z"/>
	<path class="st0" d="M248.3,64.1c0,0.3,0,0.8,0,1.1c0,0.4,0,0.9,0,1c0,0.3-0.1,0.3-0.4,0.3h-0.4c-0.3,0-0.4,0-0.4-0.3
		c0-0.1,0-0.5,0-0.9c0-0.4,0-0.8,0-1.2v-3.7c0-0.3,0-0.7,0-1.1c0-0.4,0-0.8,0-0.8c0-0.3,0.1-0.3,0.4-0.3h0.2c0.3,0,0.4,0,0.6,0.3
		c0.4,0.5,0.7,0.9,1.1,1.4l3.3,4.3c0.1,0.1,0.1,0.1,0.1,0.1c0,0,0.1-0.1,0.1-0.2v-3.5c0-0.4,0-0.8,0-1.2c0-0.4,0-0.8,0-0.9
		c0-0.3,0.1-0.3,0.4-0.3h0.4c0.3,0,0.4,0,0.4,0.3c0,0.1,0,0.5,0,0.9c0,0.4,0,0.9,0,1.2v3.7c0,0.3,0,0.8,0,1.1c0,0.4,0,0.7,0,0.8
		c0,0.3-0.1,0.3-0.3,0.3h-0.1c-0.3,0-0.4,0-0.5-0.3c-0.3-0.4-0.6-0.9-1-1.3l-3.5-4.5c-0.1-0.1-0.1-0.1-0.1-0.1c0,0-0.1,0.1-0.1,0.2
		V64.1z"/>
	<path class="st0" d="M259.1,66.5c-0.3,0-0.4,0-0.4-0.3c0-0.1,0-0.6,0-1.1c0-0.4,0-0.8,0-1v-3.6c0-0.7,0-2,0-2.1
		c0-0.3,0.1-0.4,0.4-0.4c0.1,0,1,0,1.6,0h1c1.7,0,2.7,0.7,2.7,2.4c0,1.6-0.9,2.8-3.1,2.8h-1.1c-0.3,0-0.4,0.1-0.4,0.4v0.4
		c0,0.3,0,0.7,0,1c0,0.5,0,1,0,1.1c0,0.3-0.1,0.3-0.4,0.3H259.1z M259.9,62.1c0,0.3,0.1,0.4,0.4,0.4h1.1c1.1,0,1.9-0.5,1.9-1.8
		c0-1.2-0.8-1.5-1.7-1.5h-1.3c-0.3,0-0.4,0.1-0.4,0.4V62.1z"/>
	<path class="st0" d="M268,66.5c-0.6,0-1.5,0-1.6,0c-0.3,0-0.4-0.1-0.4-0.4c0-0.1,0-1.4,0-2.1v-3.6c0-0.3,0-0.8,0-1.1
		c0-0.4,0-0.9,0-1c0-0.3,0.1-0.3,0.4-0.3h0.4c0.3,0,0.4,0,0.4,0.3c0,0.1,0,0.5,0,1c0,0.4,0,0.8,0,1.1v4.6c0,0.3,0.1,0.4,0.4,0.4h1.2
		c0.6,0,1.5,0,1.7,0c0.2,0,0.3,0.1,0.3,0.4v0.3c0,0.3,0,0.4-0.3,0.4c-0.2,0-1.1,0-1.7,0H268z"/>
	<path class="st0" d="M273.6,64.7c-0.2,0.5-0.4,0.9-0.6,1.5c-0.1,0.3-0.2,0.3-0.5,0.3H272c-0.2,0-0.3,0-0.3-0.1c0,0,0-0.1,0.1-0.2
		c0.4-0.8,0.6-1.4,0.9-2l1.7-4.1c0.2-0.5,0.4-1,0.7-1.6c0.1-0.3,0.2-0.4,0.5-0.4h0.3c0.3,0,0.4,0,0.5,0.4c0.2,0.6,0.4,1.1,0.6,1.6
		l1.7,4.1c0.3,0.7,0.6,1.3,0.9,2c0,0.1,0.1,0.2,0.1,0.2c0,0.1-0.1,0.1-0.3,0.1h-0.5c-0.3,0-0.4,0-0.5-0.4c-0.2-0.6-0.3-0.9-0.5-1.4
		l-0.1-0.2c-0.1-0.2-0.2-0.3-0.4-0.3h-3.2c-0.3,0-0.4,0.1-0.4,0.3L273.6,64.7z M274.3,63c0,0.1,0,0.2,0,0.2c0,0.1,0.1,0.1,0.3,0.1
		h2.4c0.2,0,0.3,0,0.3-0.1c0,0,0-0.1,0-0.2l-1.3-3.2c0-0.1-0.1-0.2-0.1-0.2c0,0-0.1,0.1-0.1,0.2L274.3,63z"/>
	<path class="st0" d="M282.1,64.1c0,0.3,0,0.8,0,1.1c0,0.4,0,0.9,0,1c0,0.3-0.1,0.3-0.4,0.3h-0.4c-0.3,0-0.4,0-0.4-0.3
		c0-0.1,0-0.5,0-0.9c0-0.4,0-0.8,0-1.2v-3.7c0-0.3,0-0.7,0-1.1c0-0.4,0-0.8,0-0.8c0-0.3,0.1-0.3,0.4-0.3h0.2c0.3,0,0.4,0,0.6,0.3
		c0.4,0.5,0.7,0.9,1.1,1.4l3.3,4.3c0.1,0.1,0.1,0.1,0.1,0.1c0,0,0.1-0.1,0.1-0.2v-3.5c0-0.4,0-0.8,0-1.2c0-0.4,0-0.8,0-0.9
		c0-0.3,0.1-0.3,0.4-0.3h0.4c0.3,0,0.4,0,0.4,0.3c0,0.1,0,0.5,0,0.9c0,0.4,0,0.9,0,1.2v3.7c0,0.3,0,0.8,0,1.1c0,0.4,0,0.7,0,0.8
		c0,0.3-0.1,0.3-0.3,0.3h-0.1c-0.3,0-0.4,0-0.5-0.3c-0.3-0.4-0.6-0.9-1-1.3l-3.5-4.5c-0.1-0.1-0.1-0.1-0.1-0.1c0,0-0.1,0.1-0.1,0.2
		V64.1z"/>
	<path class="st0" d="M292.6,65.6c0.6,0,1.5,0,1.7,0c0.2,0,0.3,0.1,0.3,0.4v0.3c0,0.3,0,0.4-0.3,0.4c-0.2,0-1.1,0-1.7,0h-0.8
		c-0.5,0-1.3,0-1.5,0c-0.3,0-0.4,0-0.4-0.4c0-0.1,0-1.4,0-2.1v-3.6c0-0.7,0-2,0-2.1c0-0.3,0.1-0.4,0.4-0.4c0.1,0,1,0,1.6,0h0.5
		c0.6,0,1.5,0,1.7,0c0.3,0,0.3,0.1,0.3,0.4v0.3c0,0.3,0,0.4-0.3,0.4c-0.2,0-1.1,0-1.7,0h-1c-0.3,0-0.4,0.1-0.4,0.4v1.7
		c0,0.3,0.1,0.4,0.4,0.4h0.8c0.6,0,1.5,0,1.7,0c0.3,0,0.3,0.1,0.3,0.4v0.3c0,0.3,0,0.4-0.3,0.4c-0.2,0-1,0-2.5,0
		c-0.3,0-0.4,0.1-0.4,0.4v2.3c0,0.3,0.1,0.4,0.4,0.4H292.6z"/>
	<path class="st0" d="M299.7,64.1c0,0.4,0,1.1,0,1.5c0,0.3,0,0.5,0,0.6c0,0.3-0.1,0.3-0.4,0.3h-0.4c-0.3,0-0.4,0-0.4-0.3
		c0-0.1,0-0.3,0-0.6c0-0.5,0-1.1,0-1.5v-4.6c0-0.3-0.1-0.4-0.4-0.4h-0.4c-0.6,0-1.4,0-1.7,0c-0.2,0-0.3-0.1-0.3-0.4v-0.3
		c0-0.3,0-0.4,0.3-0.4c0.2,0,1.1,0,1.7,0h2.5c0.6,0,1.5,0,1.7,0c0.3,0,0.3,0.1,0.3,0.4v0.3c0,0.3,0,0.4-0.3,0.4c-0.2,0-1.1,0-1.7,0
		H300c-0.3,0-0.4,0.1-0.4,0.4V64.1z"/>
	<path class="st0" d="M311.7,64.3c0,1.5-1.1,2.3-2.8,2.3c-0.9,0-1.8-0.3-2.4-0.6c-0.2-0.1-0.2-0.2-0.2-0.3c0-0.1,0-0.1,0.1-0.2
		l0.2-0.3c0.1-0.2,0.1-0.2,0.2-0.2c0.1,0,0.1,0,0.2,0.1c0.6,0.4,1.3,0.6,2,0.6c1,0,1.7-0.5,1.7-1.3c0-0.8-0.8-1.2-1.8-1.6
		c-1.2-0.5-2.4-1.1-2.4-2.5s1.1-2.2,2.8-2.2c0.7,0,1.4,0.2,1.9,0.4c0.2,0.1,0.3,0.2,0.3,0.3c0,0.1,0,0.1-0.1,0.2l-0.2,0.4
		c-0.1,0.2-0.1,0.3-0.2,0.3c0,0-0.1,0-0.2-0.1c-0.4-0.2-1-0.4-1.6-0.4c-1,0-1.6,0.5-1.6,1.1c0,0.7,0.6,1.1,1.8,1.5
		C310.6,62.3,311.7,62.9,311.7,64.3z"/>
	<path class="st0" d="M318.8,63.4c0,2-1.3,3.2-3,3.2c-1.6,0-2.8-1.1-2.8-2.9c0-1.9,1.1-3.2,3-3.2C317.6,60.5,318.8,61.6,318.8,63.4z
		 M314,63.7c0,1.2,0.8,2,1.8,2c1.1,0,1.9-0.9,1.9-2.2c0-1.3-0.8-2-1.8-2C314.7,61.5,314,62.4,314,63.7z"/>
	<path class="st0" d="M324.6,66.5c-0.3,0-0.4,0-0.4-0.4c0-0.2,0-0.2-0.1-0.2c0,0-0.1,0-0.2,0.1c-0.5,0.3-1.1,0.6-1.7,0.6
		c-1.2,0-2-0.8-2-2.1v-2.1c0-0.5,0-1.4,0-1.6c0-0.3,0.1-0.3,0.4-0.3h0.4c0.3,0,0.4,0,0.4,0.3c0,0.2,0,1,0,1.6v1.9
		c0,0.8,0.4,1.4,1.3,1.4c0.4,0,0.9-0.1,1.3-0.5c0.2-0.2,0.3-0.3,0.3-0.6v-2.2c0-0.5,0-1.4,0-1.6c0-0.3,0.1-0.3,0.4-0.3h0.3
		c0.3,0,0.4,0,0.4,0.3c0,0.2,0,1,0,1.6v2.2c0,0.5,0,1.4,0,1.6c0,0.3-0.1,0.3-0.4,0.3H324.6z"/>
	<path class="st0" d="M330.3,66.1c0,0.3-0.1,0.4-0.4,0.4c-0.2,0-0.4,0-0.5,0c-1.4,0-1.9-0.7-1.9-1.9v-2.9c0-0.2-0.1-0.3-0.2-0.3
		c-0.2,0-0.4,0-0.5,0c-0.2,0-0.3-0.1-0.3-0.4v-0.2c0-0.3,0.1-0.4,0.3-0.4c0.1,0,0.3,0,0.5,0c0.1,0,0.2-0.1,0.2-0.4
		c0-0.5,0-0.9,0-1.1c0-0.3,0.1-0.3,0.4-0.3h0.3c0.3,0,0.4,0,0.4,0.3c0,0.2,0,0.6,0,1.1c0,0.3,0.1,0.4,0.4,0.4h0.2c0.3,0,0.8,0,0.8,0
		c0.3,0,0.4,0,0.4,0.4v0.2c0,0.3-0.1,0.4-0.4,0.4c-0.1,0-0.6,0-0.8,0h-0.2c-0.3,0-0.4,0.1-0.4,0.4v2.7c0,0.8,0.3,1,1,1
		c0.2,0,0.4,0,0.6,0c0.2,0,0.2,0.1,0.2,0.3V66.1z"/>
	<path class="st0" d="M333,64.7c0,0.5,0,1.4,0,1.6c0,0.3-0.1,0.3-0.4,0.3h-0.4c-0.3,0-0.4,0-0.4-0.3c0-0.2,0-1,0-1.6v-5
		c0-0.5,0-1.4,0-1.6c0-0.3,0.1-0.3,0.4-0.3h0.4c0.3,0,0.4,0,0.4,0.3c0,0.2,0,1,0,1.6v1.1c0,0.2,0,0.3,0.1,0.3c0,0,0.1,0,0.2-0.1
		c0.4-0.3,1-0.5,1.6-0.5c1.2,0,2,0.8,2,2.1v2.1c0,0.6,0,1.4,0,1.6c0,0.3-0.1,0.3-0.4,0.3h-0.3c-0.3,0-0.4,0-0.4-0.3c0-0.2,0-1,0-1.6
		v-1.8c0-0.8-0.4-1.4-1.3-1.4c-0.4,0-0.9,0.1-1.3,0.5c-0.2,0.2-0.3,0.3-0.3,0.6V64.7z"/>
	<path class="st0" d="M343.4,66.5c-0.6,0-1.5,0-1.6,0c-0.3,0-0.4-0.1-0.4-0.4c0-0.1,0-1.4,0-2.1v-3.6c0-0.7,0-2,0-2.1
		c0-0.3,0.1-0.4,0.4-0.4c0.1,0,1,0,1.6,0h0.8c1.7,0,2.7,0.4,2.7,1.9c0,0.7-0.2,1.4-0.8,1.8c-0.1,0.1-0.1,0.1-0.1,0.1
		c0,0,0.1,0.1,0.2,0.1c0.8,0.3,1.2,0.9,1.2,1.9c0,1.7-1.2,2.5-3,2.5H343.4z M342.6,61.3c0,0.3,0.1,0.4,0.4,0.4h1.1
		c0.9,0,1.7-0.3,1.7-1.5c0-0.9-0.8-1.1-1.6-1.1h-1.3c-0.3,0-0.4,0.1-0.4,0.4V61.3z M342.6,65.3c0,0.3,0.1,0.4,0.4,0.4h1.3
		c1.1,0,1.9-0.5,1.9-1.6c0-1.1-0.7-1.4-1.7-1.4h-1.5c-0.3,0-0.4,0.1-0.4,0.4V65.3z"/>
	<path class="st0" d="M350.9,66.5c-0.6,0-1.5,0-1.6,0c-0.3,0-0.4-0.1-0.4-0.4c0-0.1,0-1.4,0-2.1v-3.6c0-0.3,0-0.8,0-1.1
		c0-0.4,0-0.9,0-1c0-0.3,0.1-0.3,0.4-0.3h0.4c0.3,0,0.4,0,0.4,0.3c0,0.1,0,0.5,0,1c0,0.4,0,0.8,0,1.1v4.6c0,0.3,0.1,0.4,0.4,0.4h1.2
		c0.6,0,1.5,0,1.7,0c0.2,0,0.3,0.1,0.3,0.4v0.3c0,0.3,0,0.4-0.3,0.4c-0.2,0-1.1,0-1.7,0H350.9z"/>
	<path class="st0" d="M357.3,66.5c-0.6,0-1.5,0-1.6,0c-0.3,0-0.4-0.1-0.4-0.4c0-0.1,0-1.4,0-2.1v-3.6c0-0.7,0-2,0-2.1
		c0-0.3,0.1-0.4,0.4-0.4c0.1,0,1,0,1.6,0h1.2c2.5,0,3.8,1.3,3.8,3.9c0,2.6-1.3,4.5-4.2,4.5H357.3z M356.5,65.2
		c0,0.3,0.1,0.4,0.4,0.4h1.3c2.2,0,3.1-1.5,3.1-3.5c0-1.7-0.9-3-2.9-3h-1.6c-0.3,0-0.4,0.1-0.4,0.4V65.2z"/>
	<path class="st0" d="M370.5,65.6c0,0.3-0.1,0.4-0.3,0.5c-0.6,0.3-1.5,0.5-2.3,0.5c-2.8,0-4.3-1.7-4.3-4.1c0-2.6,1.8-4.4,4.6-4.4
		c0.7,0,1.4,0.1,1.8,0.3c0.2,0.1,0.3,0.1,0.3,0.3c0,0.1,0,0.1,0,0.2l-0.1,0.4c-0.1,0.2-0.1,0.3-0.2,0.3c-0.1,0-0.1,0-0.2-0.1
		c-0.4-0.2-1-0.3-1.5-0.3c-2.2,0-3.4,1.5-3.4,3.4c0,2.1,1.4,3.1,3.2,3.1c0.4,0,0.8-0.1,1.1-0.2c0.3-0.1,0.3-0.2,0.3-0.5v-0.8
		c0-0.5,0-1.1,0-1.4c0-0.2,0.1-0.3,0.4-0.3h0.4c0.3,0,0.4,0,0.4,0.3c0,0.2,0,0.8,0,1.4V65.6z"/>
	<path class="st0" d="M373.7,65.8c0,0.4-0.3,0.8-0.8,0.8c-0.4,0-0.7-0.3-0.7-0.7c0-0.4,0.3-0.8,0.8-0.8
		C373.4,65.1,373.7,65.4,373.7,65.8z"/>
	<path class="st0" d="M78.9,88.4c0,0.4,0,1.1,0,1.5c0,0.3,0,0.5,0,0.6c0,0.3-0.1,0.3-0.4,0.3h-0.4c-0.3,0-0.4,0-0.4-0.3
		c0-0.1,0-0.3,0-0.6c0-0.5,0-1.1,0-1.5v-4.6c0-0.3-0.1-0.4-0.4-0.4H77c-0.6,0-1.4,0-1.7,0c-0.2,0-0.3-0.1-0.3-0.4v-0.3
		c0-0.3,0-0.4,0.3-0.4c0.2,0,1.1,0,1.7,0h2.5c0.6,0,1.5,0,1.7,0c0.3,0,0.3,0.1,0.3,0.4v0.3c0,0.3,0,0.4-0.3,0.4c-0.2,0-1.1,0-1.7,0
		h-0.5c-0.3,0-0.4,0.1-0.4,0.4V88.4z"/>
	<path class="st0" d="M87.6,90c0,0.1,0.1,0.2,0.1,0.2c0,0.1-0.1,0.2-0.2,0.3c-0.5,0.3-1.2,0.4-1.8,0.4c-2,0-2.9-1.4-2.9-3
		c0-1.8,1.1-3.2,2.9-3.2c1.5,0,2.3,1.1,2.3,2.8c0,0.4-0.1,0.5-0.4,0.5h-3.5c-0.2,0-0.3,0-0.3,0.2c0,0.1,0.1,0.5,0.2,0.7
		c0.3,0.6,0.8,0.9,1.7,0.9c0.5,0,0.9-0.1,1.3-0.3c0.1-0.1,0.2-0.1,0.3-0.1c0.1,0,0.1,0.1,0.2,0.3L87.6,90z M86.9,87.1
		c0-0.1-0.1-0.4-0.1-0.6c-0.2-0.4-0.6-0.7-1.1-0.7c-0.7,0-1.2,0.3-1.5,0.8c-0.1,0.2-0.2,0.4-0.2,0.6c0,0.1,0.1,0.1,0.3,0.1h2.4
		C86.8,87.3,86.9,87.2,86.9,87.1z"/>
	<path class="st0" d="M91.5,90.9c-0.1,0-0.2,0-0.3,0c-1.3,0-1.8-0.5-1.8-1.9v-5c0-0.6,0-1.4,0-1.6c0-0.3,0.1-0.3,0.4-0.3h0.4
		c0.3,0,0.4,0,0.4,0.3c0,0.2,0,1,0,1.6v4.9c0,0.7,0.1,1,0.9,1c0.1,0,0.2,0,0.3,0c0.1,0,0.1,0,0.1,0.2v0.4
		C91.8,90.8,91.7,90.9,91.5,90.9z"/>
	<path class="st0" d="M96,84.1c0,0.4-0.3,0.8-0.8,0.8c-0.4,0-0.8-0.3-0.8-0.7c0-0.4,0.3-0.8,0.8-0.8C95.7,83.4,96,83.7,96,84.1z
		 M96,88.7c0,0.4-0.3,0.8-0.8,0.8c-0.4,0-0.8-0.3-0.8-0.7c0-0.4,0.3-0.8,0.8-0.8C95.7,88,96,88.3,96,88.7z"/>
	<path class="st0" d="M105.8,86.5c0,2.8-1.6,4.5-3.5,4.5c-1.8,0-3.3-1.4-3.3-4.1c0-2.4,1.2-4.4,3.5-4.4
		C104.3,82.4,105.8,83.8,105.8,86.5z M100.1,86.8c0,2,0.9,3.1,2.2,3.1c1.4,0,2.4-1.3,2.4-3.4c0-2-1-3.1-2.2-3.1
		C100.9,83.4,100.1,85,100.1,86.8z"/>
	<path class="st0" d="M111.2,86.3c0,0,0.1,0.1,0.2,0.1c1,0.3,1.4,1,1.4,1.9c0,1.3-1,2.6-3.4,2.6c-0.8,0-1.6-0.2-2-0.4
		c-0.2-0.1-0.3-0.1-0.3-0.3c0-0.1,0-0.1,0.1-0.2l0.1-0.3c0.1-0.2,0.1-0.3,0.2-0.3c0.1,0,0.1,0,0.3,0.1c0.4,0.2,1,0.4,1.8,0.4
		c1.6,0,2.3-0.9,2.3-1.7c0-0.9-0.7-1.4-2.3-1.4c-0.3,0-0.7,0-0.9,0c-0.2,0-0.3-0.1-0.3-0.4v-0.2c0-0.3,0-0.4,0.3-0.4
		c0.2,0,0.5,0,0.7,0c1.5,0,2.1-0.7,2.1-1.4c0-0.7-0.6-1.2-1.6-1.2c-0.7,0-1.2,0.2-1.6,0.5c-0.1,0.1-0.2,0.1-0.3,0.1
		c-0.1,0-0.1-0.1-0.2-0.3l-0.1-0.3c0-0.1-0.1-0.2-0.1-0.2c0-0.1,0.1-0.2,0.2-0.3c0.6-0.3,1.3-0.5,2.2-0.5c1.8,0,2.6,1,2.6,2
		c0,0.6-0.3,1.4-1.1,1.8C111.3,86.3,111.2,86.3,111.2,86.3z"/>
	<path class="st0" d="M115.8,88.2c-0.3,0-0.7,0-1,0c-0.3,0-0.4,0-0.4-0.4v-0.3c0-0.3,0.1-0.4,0.4-0.4c0.3,0,0.7,0,1,0h0.9
		c0.3,0,0.6,0,0.9,0c0.3,0,0.4,0,0.4,0.4v0.3c0,0.3-0.1,0.4-0.4,0.4s-0.6,0-0.9,0H115.8z"/>
	<path class="st0" d="M122.3,85.6c1.5,0,2.8,0.8,2.8,2.4c0,1.4-0.9,2.9-3.4,2.9c-0.7,0-1.5-0.2-2-0.4c-0.2-0.1-0.3-0.2-0.3-0.3
		c0-0.1,0-0.1,0.1-0.2l0.1-0.3c0.1-0.2,0.1-0.3,0.2-0.3c0,0,0.1,0,0.2,0.1c0.5,0.3,1.1,0.4,1.7,0.4c1.6,0,2.2-0.9,2.2-1.9
		c0-1-0.8-1.6-2-1.6c-0.5,0-1,0.1-1.4,0.3c-0.1,0-0.2,0.1-0.3,0.1c-0.1,0-0.1,0-0.3-0.1c-0.2-0.1-0.2-0.1-0.2-0.2c0,0,0-0.1,0-0.2
		c0-0.4,0.1-0.7,0.1-1.1l0.1-1.4c0-0.4,0-0.7,0.1-1.1c0-0.3,0.1-0.4,0.3-0.4c0.2,0,1.1,0,1.7,0h0.6c0.6,0,1.6,0,1.8,0
		c0.3,0,0.3,0.1,0.3,0.4v0.3c0,0.3,0,0.4-0.3,0.4c-0.2,0-1.2,0-1.8,0h-1.3c-0.3,0-0.4,0-0.4,0.4l-0.1,1.6v0.1c0,0.1,0,0.2,0.1,0.2
		c0,0,0.1,0,0.2,0C121.5,85.7,121.9,85.6,122.3,85.6z"/>
	<path class="st0" d="M130.1,88.3c-0.3,0.7-0.5,1.4-0.8,2.2c-0.1,0.3-0.2,0.4-0.5,0.4h-0.5c-0.2,0-0.3,0-0.3-0.1c0,0,0-0.1,0.1-0.2
		c0.3-0.8,0.6-1.5,0.9-2.2l1.7-4.5c0-0.1,0-0.2,0-0.2c0-0.1-0.1-0.1-0.3-0.1h-2.1c-0.6,0-1.6,0-1.8,0c-0.2,0-0.3-0.1-0.3-0.4v-0.3
		c0-0.3,0-0.4,0.3-0.4c0.2,0,1.2,0,1.8,0h1.6c0.6,0,1.6,0,1.8,0c0.3,0,0.3,0.1,0.3,0.4V83c0,0.3,0,0.4-0.1,0.7
		c-0.2,0.5-0.4,1.1-0.6,1.6L130.1,88.3z"/>
	<path class="st0" d="M136.9,85.5c1.4,0,2.6,0.8,2.6,2.5c0,1.8-1.3,3-3.2,3c-1.9,0-3.1-1.2-3.1-3.3c0-1.6,0.5-3.1,1.6-4.1
		c0.9-0.8,2.2-1.2,3-1.2c0.2,0,0.3,0.1,0.3,0.3v0.3c0,0.3,0,0.4-0.4,0.4c-1.2,0.1-2.2,0.7-2.8,1.6c-0.2,0.3-0.5,0.9-0.5,1
		c0,0,0,0.1,0,0.1c0,0,0.1,0,0.2-0.1C135.3,85.7,136.1,85.5,136.9,85.5z M134.6,87.1c-0.2,0.2-0.3,0.4-0.3,0.7
		c0,1.4,0.9,2.2,2.1,2.2c1.3,0,2.1-0.9,2.1-2c0-1-0.7-1.7-1.8-1.7C136,86.4,135.2,86.6,134.6,87.1z"/>
	<path class="st0" d="M144.5,85.5c1.4,0,2.6,0.8,2.6,2.5c0,1.8-1.3,3-3.2,3c-1.9,0-3.1-1.2-3.1-3.3c0-1.6,0.5-3.1,1.6-4.1
		c0.9-0.8,2.2-1.2,3-1.2c0.2,0,0.3,0.1,0.3,0.3v0.3c0,0.3,0,0.4-0.4,0.4c-1.2,0.1-2.2,0.7-2.8,1.6c-0.2,0.3-0.5,0.9-0.5,1
		c0,0,0,0.1,0,0.1c0,0,0.1,0,0.2-0.1C142.9,85.7,143.7,85.5,144.5,85.5z M142.2,87.1c-0.2,0.2-0.3,0.4-0.3,0.7
		c0,1.4,0.9,2.2,2.1,2.2c1.3,0,2.1-0.9,2.1-2c0-1-0.7-1.7-1.8-1.7C143.5,86.4,142.8,86.6,142.2,87.1z"/>
	<path class="st0" d="M149.9,88.2c-0.3,0-0.7,0-1,0c-0.3,0-0.4,0-0.4-0.4v-0.3c0-0.3,0.1-0.4,0.4-0.4c0.3,0,0.7,0,1,0h0.9
		c0.3,0,0.6,0,0.9,0c0.3,0,0.4,0,0.4,0.4v0.3c0,0.3-0.1,0.4-0.4,0.4s-0.6,0-0.9,0H149.9z"/>
	<path class="st0" d="M157.5,86.3c0,0,0.1,0.1,0.2,0.1c1,0.3,1.4,1,1.4,1.9c0,1.3-1,2.6-3.4,2.6c-0.8,0-1.6-0.2-2-0.4
		c-0.2-0.1-0.3-0.1-0.3-0.3c0-0.1,0-0.1,0.1-0.2l0.1-0.3c0.1-0.2,0.1-0.3,0.2-0.3c0.1,0,0.1,0,0.3,0.1c0.4,0.2,1,0.4,1.8,0.4
		c1.6,0,2.3-0.9,2.3-1.7c0-0.9-0.7-1.4-2.3-1.4c-0.3,0-0.7,0-0.9,0c-0.2,0-0.3-0.1-0.3-0.4v-0.2c0-0.3,0-0.4,0.3-0.4
		c0.2,0,0.5,0,0.7,0c1.5,0,2.1-0.7,2.1-1.4c0-0.7-0.6-1.2-1.6-1.2c-0.7,0-1.2,0.2-1.6,0.5c-0.1,0.1-0.2,0.1-0.3,0.1
		c-0.1,0-0.1-0.1-0.2-0.3l-0.1-0.3c0-0.1-0.1-0.2-0.1-0.2c0-0.1,0.1-0.2,0.2-0.3c0.6-0.3,1.3-0.5,2.2-0.5c1.8,0,2.6,1,2.6,2
		c0,0.6-0.3,1.4-1.1,1.8C157.5,86.3,157.5,86.3,157.5,86.3z"/>
	<path class="st0" d="M165.1,86.4c0,0,0.1,0.1,0.2,0.1c1,0.4,1.7,1.1,1.7,2.2c0,1.3-1,2.3-3.3,2.3c-1.8,0-3.1-0.8-3.1-2.2
		c0-1,0.6-1.7,1.6-2.2c0.1-0.1,0.2-0.1,0.2-0.2s0-0.1-0.2-0.2c-0.7-0.4-1.3-1-1.3-1.9c0-1.1,1-2,2.9-2c1.8,0,2.8,0.8,2.8,1.9
		c0,0.9-0.5,1.5-1.4,1.9C165.1,86.3,165.1,86.3,165.1,86.4z M163.6,86.9c-0.1,0-0.2,0-0.3,0.1c-0.9,0.4-1.6,0.9-1.6,1.7
		c0,0.9,0.9,1.3,2.1,1.3c1.3,0,2.2-0.5,2.2-1.4c0-0.8-0.8-1.2-2-1.7C163.8,86.9,163.7,86.9,163.6,86.9z M163.8,83.3
		c-1.1,0-1.8,0.4-1.8,1.1c0,0.7,0.7,1.1,1.6,1.4c0.1,0,0.2,0.1,0.3,0.1c0.1,0,0.2,0,0.3-0.1c0.8-0.4,1.3-0.8,1.3-1.5
		C165.6,83.7,164.8,83.3,163.8,83.3z"/>
	<path class="st0" d="M171.3,88.4c0,0.4,0,0.8,0,1.2c0,0.4,0,0.8,0,0.9c0,0.3-0.1,0.3-0.4,0.3h-0.4c-0.3,0-0.4,0-0.4-0.3
		c0-0.1,0-0.4,0-0.9c0-0.4,0-0.9,0-1.3V84c0-0.2,0-0.3-0.1-0.3c0,0-0.1,0-0.2,0c-0.4,0.1-0.8,0.3-1.1,0.4c-0.1,0-0.2,0.1-0.2,0.1
		c-0.1,0-0.2-0.1-0.2-0.3l-0.1-0.3c0-0.1-0.1-0.2-0.1-0.2c0-0.1,0.1-0.2,0.3-0.2c0.5-0.2,1.2-0.4,1.7-0.7c0.3-0.1,0.4-0.2,0.7-0.2
		h0.1c0.3,0,0.4,0.1,0.4,0.4c0,0.4,0,1.5,0,2V88.4z"/>
	<path class="st0" d="M176.8,88.4c0,0.4,0,0.8,0,1.2c0,0.4,0,0.8,0,0.9c0,0.3-0.1,0.3-0.4,0.3h-0.4c-0.3,0-0.4,0-0.4-0.3
		c0-0.1,0-0.4,0-0.9c0-0.4,0-0.9,0-1.3V84c0-0.2,0-0.3-0.1-0.3c0,0-0.1,0-0.2,0c-0.4,0.1-0.8,0.3-1.1,0.4c-0.1,0-0.2,0.1-0.2,0.1
		c-0.1,0-0.2-0.1-0.2-0.3l-0.1-0.3c0-0.1-0.1-0.2-0.1-0.2c0-0.1,0.1-0.2,0.3-0.2c0.5-0.2,1.2-0.4,1.7-0.7c0.3-0.1,0.4-0.2,0.7-0.2
		h0.1c0.3,0,0.4,0.1,0.4,0.4c0,0.4,0,1.5,0,2V88.4z"/>
	<path class="st0" d="M181.8,90.9c-0.2,0-0.3,0-0.3-0.1c0,0,0-0.1,0.1-0.2c0.2-0.4,0.4-0.7,0.7-1l3.4-5.7c0.2-0.4,0.4-0.7,0.6-1
		c0.2-0.3,0.2-0.3,0.6-0.3h0.4c0.2,0,0.3,0,0.3,0.1c0,0,0,0.1-0.1,0.2c-0.2,0.4-0.4,0.7-0.6,1.1l-3.4,5.7c-0.2,0.3-0.4,0.7-0.6,1
		c-0.2,0.3-0.2,0.3-0.6,0.3H181.8z"/>
	<path class="st0" d="M192.5,88.4c0,0.3,0,0.8,0,1.2c0,0.4,0,0.9,0,0.9c0,0.3-0.1,0.3-0.4,0.3h-0.4c-0.3,0-0.4,0-0.4-0.3
		c0-0.1,0-0.5,0-0.9c0-0.4,0-0.9,0-1.2v-3.6c0-0.7,0-2,0-2.1c0-0.3,0.1-0.4,0.4-0.4c0.1,0,1,0,1.6,0h0.5c0.6,0,1.5,0,1.7,0
		c0.3,0,0.3,0.1,0.3,0.4v0.3c0,0.3,0,0.4-0.3,0.4c-0.2,0-1.1,0-1.7,0h-1c-0.3,0-0.4,0.1-0.4,0.4v1.7c0,0.3,0.1,0.4,0.4,0.4h0.8
		c0.6,0,1.5,0,1.7,0c0.3,0,0.3,0.1,0.3,0.4v0.3c0,0.3,0,0.4-0.3,0.4c-0.2,0-1.2,0-1.7,0h-0.8c-0.3,0-0.4,0.1-0.4,0.4V88.4z"/>
	<path class="st0" d="M201.2,90.9c-0.3,0-0.3,0-0.3-0.3c0-0.2,0-0.2-0.1-0.2c0,0-0.1,0-0.2,0.1c-0.5,0.3-1.1,0.6-1.8,0.6
		c-1,0-1.7-0.5-1.7-1.5c0-1.5,1.9-2.2,3.4-2.3c0.2,0,0.3-0.1,0.3-0.2c0-0.2-0.1-0.5-0.2-0.7c-0.2-0.3-0.5-0.4-1-0.4
		c-0.5,0-1.1,0.2-1.5,0.5c-0.1,0.1-0.2,0.1-0.2,0.1c-0.1,0-0.1-0.1-0.2-0.2l-0.1-0.3c0-0.1-0.1-0.2-0.1-0.2c0-0.1,0.1-0.2,0.3-0.3
		c0.6-0.3,1.3-0.5,2-0.5c1.7,0,2.1,1,2.1,2.4l0,1.7c0,0.6,0,1.4,0,1.7c0,0.2-0.1,0.3-0.4,0.3H201.2z M200.6,88
		c-0.2,0-0.5,0.1-0.7,0.1c-1,0.2-1.8,0.6-1.8,1.2c0,0.4,0.4,0.7,0.9,0.7c0.5,0,1.1-0.2,1.5-0.5c0.2-0.2,0.3-0.3,0.3-0.5l0-0.8
		C200.8,88.1,200.8,88,200.6,88z"/>
	<path class="st0" d="M205.2,89.2c-0.3,0.5-0.6,0.9-0.9,1.3c-0.2,0.3-0.3,0.3-0.6,0.3h-0.5c-0.2,0-0.3,0-0.3-0.1c0,0,0-0.1,0.1-0.2
		c0.4-0.5,0.8-1,1.2-1.5l0.7-0.9c0.1-0.1,0.1-0.2,0.1-0.3c0-0.1,0-0.2-0.1-0.3l-0.5-0.7c-0.4-0.5-0.8-1-1.1-1.5
		c-0.1-0.1-0.1-0.2-0.1-0.2c0-0.1,0.1-0.1,0.3-0.1h0.5c0.3,0,0.4,0,0.6,0.3c0.3,0.4,0.6,0.8,0.9,1.3l0.2,0.2
		c0.1,0.1,0.1,0.2,0.2,0.2s0.1-0.1,0.2-0.2l0.1-0.2c0.3-0.5,0.6-0.9,0.9-1.3c0.2-0.3,0.3-0.3,0.6-0.3h0.5c0.2,0,0.3,0,0.3,0.1
		c0,0,0,0.1-0.1,0.2c-0.4,0.5-0.8,1-1.2,1.5l-0.6,0.8c-0.1,0.1-0.1,0.2-0.1,0.3c0,0.1,0,0.2,0.1,0.3l0.6,0.9c0.4,0.5,0.8,1,1.1,1.5
		c0.1,0.1,0.1,0.2,0.1,0.2c0,0.1-0.1,0.1-0.3,0.1h-0.5c-0.3,0-0.4,0-0.6-0.3c-0.3-0.4-0.6-0.9-0.9-1.3l-0.3-0.4
		c-0.1-0.1-0.1-0.2-0.2-0.2s-0.1,0.1-0.2,0.2L205.2,89.2z"/>
	<path class="st0" d="M212.6,84.1c0,0.4-0.3,0.8-0.8,0.8c-0.4,0-0.8-0.3-0.8-0.7c0-0.4,0.3-0.8,0.8-0.8
		C212.3,83.4,212.6,83.7,212.6,84.1z M212.6,88.7c0,0.4-0.3,0.8-0.8,0.8c-0.4,0-0.8-0.3-0.8-0.7c0-0.4,0.3-0.8,0.8-0.8
		C212.3,88,212.6,88.3,212.6,88.7z"/>
	<path class="st0" d="M222.4,86.5c0,2.8-1.6,4.5-3.5,4.5c-1.8,0-3.3-1.4-3.3-4.1c0-2.4,1.2-4.4,3.5-4.4
		C220.8,82.4,222.4,83.8,222.4,86.5z M216.7,86.8c0,2,0.9,3.1,2.2,3.1c1.4,0,2.4-1.3,2.4-3.4c0-2-1-3.1-2.2-3.1
		C217.5,83.4,216.7,85,216.7,86.8z"/>
	<path class="st0" d="M227.8,86.3c0,0,0.1,0.1,0.2,0.1c1,0.3,1.4,1,1.4,1.9c0,1.3-1,2.6-3.4,2.6c-0.8,0-1.6-0.2-2-0.4
		c-0.2-0.1-0.3-0.1-0.3-0.3c0-0.1,0-0.1,0.1-0.2l0.1-0.3c0.1-0.2,0.1-0.3,0.2-0.3c0.1,0,0.1,0,0.3,0.1c0.4,0.2,1,0.4,1.8,0.4
		c1.6,0,2.3-0.9,2.3-1.7c0-0.9-0.7-1.4-2.3-1.4c-0.3,0-0.7,0-0.9,0c-0.2,0-0.3-0.1-0.3-0.4v-0.2c0-0.3,0-0.4,0.3-0.4
		c0.2,0,0.5,0,0.7,0c1.5,0,2.1-0.7,2.1-1.4c0-0.7-0.6-1.2-1.6-1.2c-0.7,0-1.2,0.2-1.6,0.5c-0.1,0.1-0.2,0.1-0.3,0.1
		c-0.1,0-0.1-0.1-0.2-0.3l-0.1-0.3c0-0.1-0.1-0.2-0.1-0.2c0-0.1,0.1-0.2,0.2-0.3c0.6-0.3,1.3-0.5,2.2-0.5c1.8,0,2.6,1,2.6,2
		c0,0.6-0.3,1.4-1.1,1.8C227.8,86.3,227.8,86.3,227.8,86.3z"/>
	<path class="st0" d="M232.3,88.2c-0.3,0-0.7,0-1,0c-0.3,0-0.4,0-0.4-0.4v-0.3c0-0.3,0.1-0.4,0.4-0.4c0.3,0,0.7,0,1,0h0.9
		c0.3,0,0.6,0,0.9,0c0.3,0,0.4,0,0.4,0.4v0.3c0,0.3-0.1,0.4-0.4,0.4s-0.6,0-0.9,0H232.3z"/>
	<path class="st0" d="M238.8,85.6c1.5,0,2.8,0.8,2.8,2.4c0,1.4-0.9,2.9-3.4,2.9c-0.7,0-1.5-0.2-2-0.4c-0.2-0.1-0.3-0.2-0.3-0.3
		c0-0.1,0-0.1,0.1-0.2l0.1-0.3c0.1-0.2,0.1-0.3,0.2-0.3c0,0,0.1,0,0.2,0.1c0.5,0.3,1.1,0.4,1.7,0.4c1.6,0,2.2-0.9,2.2-1.9
		c0-1-0.8-1.6-2-1.6c-0.5,0-1,0.1-1.4,0.3c-0.1,0-0.2,0.1-0.3,0.1c-0.1,0-0.1,0-0.3-0.1c-0.2-0.1-0.2-0.1-0.2-0.2c0,0,0-0.1,0-0.2
		c0-0.4,0.1-0.7,0.1-1.1l0.1-1.4c0-0.4,0-0.7,0.1-1.1c0-0.3,0.1-0.4,0.3-0.4c0.2,0,1.1,0,1.7,0h0.6c0.6,0,1.6,0,1.8,0
		c0.3,0,0.3,0.1,0.3,0.4v0.3c0,0.3,0,0.4-0.3,0.4c-0.2,0-1.2,0-1.8,0H238c-0.3,0-0.4,0-0.4,0.4l-0.1,1.6v0.1c0,0.1,0,0.2,0.1,0.2
		c0,0,0.1,0,0.2,0C238.1,85.7,238.4,85.6,238.8,85.6z"/>
	<path class="st0" d="M246.6,88.3c-0.3,0.7-0.5,1.4-0.8,2.2c-0.1,0.3-0.2,0.4-0.5,0.4h-0.5c-0.2,0-0.3,0-0.3-0.1c0,0,0-0.1,0.1-0.2
		c0.3-0.8,0.6-1.5,0.9-2.2l1.7-4.5c0-0.1,0-0.2,0-0.2c0-0.1-0.1-0.1-0.3-0.1h-2.1c-0.6,0-1.6,0-1.8,0c-0.2,0-0.3-0.1-0.3-0.4v-0.3
		c0-0.3,0-0.4,0.3-0.4c0.2,0,1.2,0,1.8,0h1.6c0.6,0,1.6,0,1.8,0c0.3,0,0.3,0.1,0.3,0.4V83c0,0.3,0,0.4-0.1,0.7
		c-0.2,0.5-0.4,1.1-0.6,1.6L246.6,88.3z"/>
	<path class="st0" d="M253.4,85.5c1.4,0,2.6,0.8,2.6,2.5c0,1.8-1.3,3-3.2,3c-1.9,0-3.1-1.2-3.1-3.3c0-1.6,0.5-3.1,1.6-4.1
		c0.9-0.8,2.2-1.2,3-1.2c0.2,0,0.3,0.1,0.3,0.3v0.3c0,0.3,0,0.4-0.4,0.4c-1.2,0.1-2.2,0.7-2.8,1.6c-0.2,0.3-0.5,0.9-0.5,1
		c0,0,0,0.1,0,0.1c0,0,0.1,0,0.2-0.1C251.9,85.7,252.7,85.5,253.4,85.5z M251.2,87.1c-0.2,0.2-0.3,0.4-0.3,0.7
		c0,1.4,0.9,2.2,2.1,2.2c1.3,0,2.1-0.9,2.1-2c0-1-0.7-1.7-1.8-1.7C252.5,86.4,251.7,86.6,251.2,87.1z"/>
	<path class="st0" d="M261,85.5c1.4,0,2.6,0.8,2.6,2.5c0,1.8-1.3,3-3.2,3c-1.9,0-3.1-1.2-3.1-3.3c0-1.6,0.5-3.1,1.6-4.1
		c0.9-0.8,2.2-1.2,3-1.2c0.2,0,0.3,0.1,0.3,0.3v0.3c0,0.3,0,0.4-0.4,0.4c-1.2,0.1-2.2,0.7-2.8,1.6c-0.2,0.3-0.5,0.9-0.5,1
		c0,0,0,0.1,0,0.1c0,0,0.1,0,0.2-0.1C259.5,85.7,260.2,85.5,261,85.5z M258.8,87.1c-0.2,0.2-0.3,0.4-0.3,0.7c0,1.4,0.9,2.2,2.1,2.2
		c1.3,0,2.1-0.9,2.1-2c0-1-0.7-1.7-1.8-1.7C260.1,86.4,259.3,86.6,258.8,87.1z"/>
	<path class="st0" d="M266.4,88.2c-0.3,0-0.7,0-1,0c-0.3,0-0.4,0-0.4-0.4v-0.3c0-0.3,0.1-0.4,0.4-0.4c0.3,0,0.7,0,1,0h0.9
		c0.3,0,0.6,0,0.9,0c0.3,0,0.4,0,0.4,0.4v0.3c0,0.3-0.1,0.4-0.4,0.4s-0.6,0-0.9,0H266.4z"/>
	<path class="st0" d="M274,86.3c0,0,0.1,0.1,0.2,0.1c1,0.3,1.4,1,1.4,1.9c0,1.3-1,2.6-3.4,2.6c-0.8,0-1.6-0.2-2-0.4
		c-0.2-0.1-0.3-0.1-0.3-0.3c0-0.1,0-0.1,0.1-0.2l0.1-0.3c0.1-0.2,0.1-0.3,0.2-0.3c0.1,0,0.1,0,0.3,0.1c0.4,0.2,1,0.4,1.8,0.4
		c1.6,0,2.3-0.9,2.3-1.7c0-0.9-0.7-1.4-2.3-1.4c-0.3,0-0.7,0-0.9,0c-0.2,0-0.3-0.1-0.3-0.4v-0.2c0-0.3,0-0.4,0.3-0.4
		c0.2,0,0.5,0,0.7,0c1.5,0,2.1-0.7,2.1-1.4c0-0.7-0.6-1.2-1.6-1.2c-0.7,0-1.2,0.2-1.6,0.5c-0.1,0.1-0.2,0.1-0.3,0.1
		c-0.1,0-0.1-0.1-0.2-0.3l-0.1-0.3c0-0.1-0.1-0.2-0.1-0.2c0-0.1,0.1-0.2,0.2-0.3c0.6-0.3,1.3-0.5,2.2-0.5c1.8,0,2.6,1,2.6,2
		c0,0.6-0.3,1.4-1.1,1.8C274.1,86.3,274,86.3,274,86.3z"/>
	<path class="st0" d="M281.6,86.4c0,0,0.1,0.1,0.2,0.1c1,0.4,1.7,1.1,1.7,2.2c0,1.3-1,2.3-3.3,2.3c-1.8,0-3.1-0.8-3.1-2.2
		c0-1,0.6-1.7,1.6-2.2c0.1-0.1,0.2-0.1,0.2-0.2s0-0.1-0.2-0.2c-0.7-0.4-1.3-1-1.3-1.9c0-1.1,1-2,2.9-2c1.8,0,2.8,0.8,2.8,1.9
		c0,0.9-0.5,1.5-1.4,1.9C281.7,86.3,281.6,86.3,281.6,86.4z M280.1,86.9c-0.1,0-0.2,0-0.3,0.1c-0.9,0.4-1.6,0.9-1.6,1.7
		c0,0.9,0.9,1.3,2.1,1.3c1.3,0,2.2-0.5,2.2-1.4c0-0.8-0.8-1.2-2-1.7C280.3,86.9,280.2,86.9,280.1,86.9z M280.4,83.3
		c-1.1,0-1.8,0.4-1.8,1.1c0,0.7,0.7,1.1,1.6,1.4c0.1,0,0.2,0.1,0.3,0.1c0.1,0,0.2,0,0.3-0.1c0.8-0.4,1.3-0.8,1.3-1.5
		C282.1,83.7,281.4,83.3,280.4,83.3z"/>
	<path class="st0" d="M287.9,88.4c0,0.4,0,0.8,0,1.2c0,0.4,0,0.8,0,0.9c0,0.3-0.1,0.3-0.4,0.3h-0.4c-0.3,0-0.4,0-0.4-0.3
		c0-0.1,0-0.4,0-0.9c0-0.4,0-0.9,0-1.3V84c0-0.2,0-0.3-0.1-0.3c0,0-0.1,0-0.2,0c-0.4,0.1-0.8,0.3-1.1,0.4c-0.1,0-0.2,0.1-0.2,0.1
		c-0.1,0-0.2-0.1-0.2-0.3l-0.1-0.3c0-0.1-0.1-0.2-0.1-0.2c0-0.1,0.1-0.2,0.3-0.2c0.5-0.2,1.2-0.4,1.7-0.7c0.3-0.1,0.4-0.2,0.7-0.2
		h0.1c0.3,0,0.4,0.1,0.4,0.4c0,0.4,0,1.5,0,2V88.4z"/>
	<path class="st0" d="M294.9,86.4c0,0,0.1,0.1,0.2,0.1c1,0.4,1.7,1.1,1.7,2.2c0,1.3-1,2.3-3.3,2.3c-1.8,0-3.1-0.8-3.1-2.2
		c0-1,0.6-1.7,1.6-2.2c0.1-0.1,0.2-0.1,0.2-0.2s0-0.1-0.2-0.2c-0.7-0.4-1.3-1-1.3-1.9c0-1.1,1-2,2.9-2c1.8,0,2.8,0.8,2.8,1.9
		c0,0.9-0.5,1.5-1.4,1.9C294.9,86.3,294.9,86.3,294.9,86.4z M293.4,86.9c-0.1,0-0.2,0-0.3,0.1c-0.9,0.4-1.6,0.9-1.6,1.7
		c0,0.9,0.9,1.3,2.1,1.3c1.3,0,2.2-0.5,2.2-1.4c0-0.8-0.8-1.2-2-1.7C293.5,86.9,293.4,86.9,293.4,86.9z M293.6,83.3
		c-1.1,0-1.8,0.4-1.8,1.1c0,0.7,0.7,1.1,1.6,1.4c0.1,0,0.2,0.1,0.3,0.1s0.2,0,0.3-0.1c0.8-0.4,1.3-0.8,1.3-1.5
		C295.3,83.7,294.6,83.3,293.6,83.3z"/>
</g>
</svg>
