<?xml version="1.0" encoding="utf-8"?>
<!-- Generator: Adobe Illustrator 25.4.1, SVG Export Plug-In . SVG Version: 6.00 Build 0)  -->
<svg version="1.1" id="レイヤー_1" xmlns="http://www.w3.org/2000/svg" xmlns:xlink="http://www.w3.org/1999/xlink" x="0px"
	 y="0px" viewBox="0 0 428 242" style="enable-background:new 0 0 428 242;" xml:space="preserve">
<style type="text/css">
	.st0{fill:#FFFFFF;}
</style>
<g>
	<g>
		<path class="st0" d="M94.2,230h-2.5v-11.4h-3.2v-1.6c2.7-0.2,3.6-1.5,3.9-2.3h1.8V230z"/>
		<path class="st0" d="M110.6,224.7c0,2.9-1.7,5.7-5.4,5.7c-3.7,0-5.4-2.8-5.4-5.7c0-3.3,2.2-5.6,5.4-5.6
			C108.4,219.1,110.6,221.4,110.6,224.7z M102.1,224.6c0,2.1,1.1,4,3,4c2,0,3-1.8,3-4c0-1.8-1-3.7-3-3.7
			C103.1,220.9,102.1,222.8,102.1,224.6z"/>
		<path class="st0" d="M122.2,230h-2.3v-6.6c0-1.1-0.3-2.5-2.2-2.5c-1.4,0-2.4,1.2-2.6,2.3v6.7h-2.3v-10.6h2.3v1.1
			c0.5-0.7,1.5-1.4,3.1-1.4c2.9,0,4,1.9,4,4V230z"/>
		<path class="st0" d="M132,230h-2.5v-11.4h-3.2v-1.6c2.7-0.2,3.6-1.5,3.9-2.3h1.8V230z"/>
		<path class="st0" d="M145.9,220.9l0-2l11.6,0c0.2,0,0.2-0.1,0.4-0.1c0.1,0,1.8,0.9,1.8,1.3c0,0.1-0.1,0.2-0.4,0.3
			c-1.5,4.9-4.8,8.5-10.2,9.6c0,0-0.1,0-0.1,0c-0.1,0-0.1,0-0.1-0.1c-0.3-0.6-2.2-1.8-2.2-1.8c6-0.7,8.9-3.6,10.1-7.2L145.9,220.9z
			 M157.9,216.6h-10.5l0-1.9h10.5V216.6z"/>
		<path class="st0" d="M174.7,230.5h-2.3l0.1-9c-2,1.6-4.1,2.9-6,3.6c-0.1,0-0.1,0-0.2,0c-0.1,0-0.1,0-0.1-0.1
			c-0.5-0.6-2.1-1.5-2.1-1.5c5.2-1.7,10.1-5.8,12.3-9.2c0,0,1.4,0.7,2.2,1.2c0.2,0.1,0.2,0.2,0.2,0.3c0,0.1-0.1,0.2-0.3,0.2
			c-0.1,0-0.3,0-0.4-0.1c-1,1.2-2.2,2.5-3.4,3.6V230.5z"/>
		<path class="st0" d="M198.6,216c0.9,0.7,0.9,0.9,0.9,0.9c0,0.1-0.1,0.2-0.4,0.3c-1.9,7.4-6,10.8-10.4,12.6c-0.1,0-0.1,0-0.1,0
			c-0.1,0-0.1,0-0.2-0.1c-0.5-0.6-2.3-1.7-2.3-1.7c5.6-1.5,9.1-5.4,10.3-10.3l-10.7,0.1v-2.1l11.6-0.1c0.3,0,0.3-0.2,0.5-0.2
			c0.1,0,0.5,0.3,0.6,0.4c-0.4-0.8-1.2-1.9-1.8-2.5l1.2-0.6c0.5,0.5,1.6,1.6,2,2.5L198.6,216z M200.9,215.4
			c-0.4-0.8-1.2-1.9-1.8-2.4l1.2-0.6c0.5,0.4,1.5,1.4,1.9,2.3L200.9,215.4z"/>
		<path class="st0" d="M217.6,224.3C217.6,224.3,217.6,224.3,217.6,224.3c-0.1,0.1-0.1,0-0.2,0c-1.8-1.3-3.9-2.3-5.7-2.9v9.2h-2.2
			v-14c0,0,0-1.4-0.1-2.2c2.3,0.1,2.9,0.1,2.9,0.4c0,0.1-0.2,0.3-0.6,0.4c-0.1,0.7-0.1,1.4-0.1,1.4v2.6c2.2,0.7,5.4,2,7.4,3.1
			L217.6,224.3z"/>
		<path class="st0" d="M239.7,223.3h-15.3v-2.1h15.3V223.3z"/>
		<path class="st0" d="M251.4,218.4c-2.7,3.4-5.2,5-5.3,5c0,0-0.1,0-0.1-0.1c-0.6-0.5-2-1.1-2-1.1c3.7-2,6-4.9,7.5-8
			c0.5,0.1,1.9,0.5,2.2,0.6c0.3,0.1,0.4,0.2,0.4,0.3c0,0.2-0.3,0.3-0.6,0.3c-0.2,0.4-0.5,0.8-0.8,1.2c2,0,4.4-0.1,4.5-0.1
			c0.2,0,0.2-0.2,0.4-0.2c0.3,0,1.7,1.1,1.7,1.3c0,0.2-0.2,0.3-0.5,0.3c-2.9,5.7-5.9,10.1-12.1,12.2c0,0-0.1,0-0.1,0
			c0,0-0.1,0-0.1,0c-0.5-0.6-2.1-1.6-2.1-1.6c6.2-1.7,9.3-5.3,11.8-10.3L251.4,218.4z"/>
		<path class="st0" d="M280.5,220.7H276v0.1c0,4.9-1.8,7.8-6.5,9.6c0,0-0.1,0-0.1,0c0,0-0.1,0-0.1-0.1c-0.5-0.6-2.1-1.5-2.1-1.5
			c5-1.2,6.7-3.5,6.7-8.1h-4v4.5h-2v-4.5h-4.7v-2h4.7v-2.2c0,0,0-1.1-0.1-1.7c0.1,0,0.2,0,0.3,0c2.2,0,2.4,0.2,2.4,0.3
			c0,0.1-0.2,0.3-0.6,0.4c0,0.5,0,1.3,0,1.3v2h4v-0.6c0-0.6,0-2.5,0-3.5c0.1,0,0.2,0,0.3,0c2.1,0,2.4,0.2,2.4,0.4
			c0,0.1-0.2,0.3-0.6,0.4c0,0.4-0.1,1-0.1,1.4c0,0.7,0,1.5,0,2h4.5V220.7z"/>
		<path class="st0" d="M299.4,223.3h-15.3v-2.1h15.3V223.3z"/>
		<path class="st0" d="M308.2,223c0,1-0.1,1.7-0.1,1.8c0,1.7,0.1,2.5,3.4,2.5c1.7,0,4.3-0.2,6.7-0.6c0,0-0.6,1.7-0.7,2.4
			c0,0.1,0,0.1-0.1,0.1c-1.7,0.2-3.9,0.3-5.5,0.3c-4.3,0-5.8-1.3-5.8-3.9c0-1.5,0.2-8.4,0.2-8.4c0-0.6,0-1.2,0-1.9
			c0.5,0,2,0.1,2.5,0.2c0.2,0,0.3,0.1,0.3,0.2c0,0.1-0.2,0.3-0.6,0.4c0,0.4,0,0.8-0.1,1.3c0,1.1-0.1,2.4-0.1,3.6
			c2.4-0.8,5.7-2.1,7.6-3.5c0.5,0.4,1.8,1.8,1.8,2.2c0,0.1-0.1,0.2-0.2,0.2c-0.2,0-0.4-0.1-0.6-0.2C314.2,221,310.5,222.3,308.2,223
			z M317.8,218.1c-0.3-0.7-1.3-2-2.1-2.7l1.2-0.7c0.6,0.5,1.8,1.7,2.2,2.6L317.8,218.1z M320,216.9c-0.4-0.8-1.4-1.9-2.1-2.5
			l1.2-0.8c0.5,0.4,1.8,1.6,2.2,2.4L320,216.9z"/>
		<path class="st0" d="M325.7,218.3l0-2l9-0.1c0.2,0,0.2-0.2,0.4-0.2c0.1,0,1.6,1.1,1.6,1.3c0,0.1-0.2,0.3-0.4,0.3
			c-0.7,1.5-1.7,3.3-3,5.1c1.9,1.4,4.4,3.6,6,5.4l-1.9,1.5c0,0-0.1,0-0.1,0c0,0,0,0-0.1,0c-1.4-1.9-3.5-3.9-5.2-5.3
			c-3.3,4-6.9,5.3-7,5.3c0,0-0.1,0-0.1,0c-0.4-0.5-2-1.5-2-1.5c6.3-2.3,9.1-6.7,10.7-10L325.7,218.3z"/>
	</g>
	<path class="st0" d="M337.4,241.7H90.6c-10.6,0-19.2-8.6-19.2-19.2s8.6-19.2,19.2-19.2h246.7c10.6,0,19.2,8.6,19.2,19.2
		S348,241.7,337.4,241.7z M90.6,206c-9.1,0-16.5,7.4-16.5,16.5s7.4,16.5,16.5,16.5h246.7c9.1,0,16.5-7.4,16.5-16.5
		s-7.4-16.5-16.5-16.5H90.6z"/>
	<g>
		<g>
			<g>
				<path class="st0" d="M98.8,145.4c0,6.2,19.6,4,19.6,17.5c0,8.7-7.8,14.3-16,14.3c-8.1,0-14.9-1.1-14.9-10.9
					c0-0.6,0.1-1.1,0.7-1.1c1.9,0,3.8,0.8,5.6,1.3c2.2,0.7,4.5,1.3,6.8,1.3c2.3,0,5.1-0.8,5.1-3.5c0-1.3-0.4-2.2-1.4-2.9
					c-1.5-1.1-3.4-1.4-5.2-1.9c-6-1.7-12.9-6.5-12.9-13.3c0-9,8.6-13.4,16.6-13.4c7.5,0,14.2,0.1,14.2,9.6c0,1-0.6,1.5-1.6,1.5
					c-1.8,0-3.7-0.6-5.4-1c-2.2-0.5-4.5-1-6.7-1C101.1,142,98.8,142.8,98.8,145.4z"/>
				<path class="st0" d="M121.6,151.5c0-3.9,0.1-15.3,4-17.2c2.5-1.2,8.9-1.4,11.9-1.4c9.4,0,19.1,5.2,19.1,15.7
					c0,17.1-21,13.8-22.2,15c-0.6,0.6-0.6,3.3-0.6,4.2c0,1.5,0.2,3.1,0.2,4.6c0,2.6-0.7,4-3.5,4c-1.6,0-3.3-0.1-4.8-0.7
					c-3.9-1.5-4-13.9-4-17.5V151.5z M133.8,151.4c0,3.2,1,3.5,4,3.5c4.3,0,7.3-3.1,7.3-7.3c0-4-4.2-5.9-7.6-5.9h-1.5
					c-1.7,0-2.1,1.2-2.1,2.6V151.4z"/>
				<path class="st0" d="M154.8,171.4c0-6,9.1-34,13.8-37.1c1.4-1,2.6-1,4.3-1c2.6,0,4,0.3,5.7,2.4c3.7,4.6,12.4,30.3,12.4,36.3
					c0,4.2-5.2,4.2-8.2,4.2c-7.3,0,2-7.9-10.8-7.9c-10.5,0-1.7,7.9-10.3,7.9C157.8,176.1,154.8,176.4,154.8,171.4z M173.6,159.5
					c1.2,0,2.1-0.7,2.1-2c0-1.4-1.6-10.6-3.1-10.6c-1.2,0-3.1,9.3-3.1,10.6c0,1.7,1.3,2,2.7,2H173.6z"/>
				<path class="st0" d="M223.9,166.4c1.4,0,2.2,0.4,2.2,1.9c0,1.7-0.1,5-1.3,6.2c-2,2-9.4,2.6-12.2,2.6c-12.5,0-21-10-21-22.1
					c0-11.7,8.3-22.1,20.5-22.1c1,0,2.1,0,3.1,0.1c2.3,0.1,7.6,1,9.1,2.7c1.3,1.5,1.3,4.5,1.3,6.4c0,1-0.2,1.8-1.4,1.8
					c-3.3,0-6.4-1.4-9.7-1.4c-7,0-10.1,6-10.1,12.3c0,6.7,3.2,13.1,10.7,13.1C218,167.8,220.8,166.4,223.9,166.4z"/>
				<path class="st0" d="M245.2,167c3.4,0,6.8-0.2,10.1-0.2c3,0,3.5,0.9,3.5,3.7c0,5.1-5.7,6-9.7,6c-4.3,0-9.4,0.4-13.5-1.3
					c-4.5-1.8-5.7-5.5-6.1-10.1c-0.2-3-0.2-6-0.2-9c0-2.4-0.1-4.8-0.1-7.3c0-15.4,7-15.5,20.1-15.5c2.8,0,6.1,0.6,8.1,2.7
					c1.2,1.2,1.4,3.1,1.4,4.6c0,2.6-4,2.6-5.8,2.6c-2,0-4-0.3-6.1-0.3c-3.5,0-5.1-0.1-5.1,4c0,3,3.7,3.2,5.9,3.2
					c1.8,0,3.7-0.2,5.5-0.2c1.5,0,3.4,0.2,4.3,1.5c0.6,0.8,0.6,2.6,0.6,3.5c0,0.8-0.1,1.8-0.6,2.4c-1.2,1.7-7.3,1.3-9.2,1.3
					c-1.5,0-4.5-0.2-5.7,0.8c-0.4,0.4-0.6,0.9-0.7,1.5c-0.2,0.9-0.2,1.8-0.2,2.6C241.8,166,243,167,245.2,167z"/>
				<path class="st0" d="M282.7,176.1c-1.4,0-2.8,0.1-4.1-0.7c-3.9-2.3-3.9-16.8-3.9-21c0-4.2,0.3-13.6,2-17.2
					c0.6-1.3,1.5-2.4,2.9-2.8c1.3-0.4,2.7-0.6,4-0.6c1,0,1.9,0.1,2.8,0.6c3.9,1.8,6.9,20,10.2,20c4,0,7.1-16,9.7-19
					c1.5-1.7,4-1.5,6.1-1.5c2.1,0,3.8,0.7,4.8,2.7c2.4,4.6,2.5,11.9,2.5,17.1c0,1.3,0.1,2.6,0.1,4c0,4.8-0.2,13.5-3.5,17.2
					c-1.4,1.6-3,1.3-5,1.3c-2.9,0-3.6-1.3-3.6-4.1c0-4.5,0.2-9,0.2-13.6c0-0.9-0.3-1.7-0.4-2.5c-3,0-1.3,11.9-10.6,11.9
					c-8.3,0-7.8-11.8-10.1-11.8c-0.7,0.4-0.6,5-0.6,5.9c0,3.3,0.2,6.7,0.2,10C286.5,174.7,285.8,176.1,282.7,176.1z"/>
				<path class="st0" d="M322.4,171.4c0-6,9.1-34,13.8-37.1c1.4-1,2.6-1,4.3-1c2.6,0,4,0.3,5.7,2.4c3.7,4.6,12.4,30.3,12.4,36.3
					c0,4.2-5.2,4.2-8.2,4.2c-7.3,0,2-7.9-10.8-7.9c-10.5,0-1.7,7.9-10.3,7.9C325.4,176.1,322.4,176.4,322.4,171.4z M341.2,159.5
					c1.2,0,2.1-0.7,2.1-2c0-1.4-1.6-10.6-3.1-10.6c-1.2,0-3.1,9.3-3.1,10.6c0,1.7,1.3,2,2.7,2H341.2z"/>
				<path class="st0" d="M364.3,135c1.5-1.1,3.3-1.2,5.1-1.2c0.7,0,1.5,0.1,2.3,0.2c2.3,0.4,2.1,3.9,2.1,5.7c0,2.2-0.2,4.3-0.2,6.5
					c0,0.6,0,1.8,0.8,1.8c2.3,0,4.7-5.3,5.6-7.2c0.6-1.2,1.2-2.4,2-3.4c0.8-1,1.7-1.9,2.7-2.6c1.8-1.2,3.4-1,5.5-1
					c1.7,0,5.4,0.3,5.4,2.6c0,3.8-8.3,12.8-8.3,17.1c0,6.8,8.9,15.1,8.9,20.4c0,2.3-6.2,2.4-7.8,2.4c-7.6,0-9.7-15.7-13.7-15.7
					c-1.2,0-1.1,4.1-1.1,4.9c0,2,0.2,4,0.2,5.9c0,2.8-1,5-4,5c-1.5,0-4.6-0.3-5.7-1.4c-3.1-3-3-16.9-3-21.3
					C361,149.6,361.1,137.5,364.3,135z"/>
				<path class="st0" d="M414.3,167c3.4,0,6.8-0.2,10.2-0.2c3,0,3.5,0.9,3.5,3.7c0,5.1-5.7,6-9.7,6c-4.3,0-9.4,0.4-13.5-1.3
					c-4.5-1.8-5.7-5.5-6.1-10.1c-0.2-3-0.2-6-0.2-9c0-2.4-0.1-4.8-0.1-7.3c0-15.4,7-15.5,20.1-15.5c2.8,0,6.1,0.6,8.1,2.7
					c1.2,1.2,1.4,3.1,1.4,4.6c0,2.6-4,2.6-5.8,2.6c-2,0-4-0.3-6.1-0.3c-3.5,0-5.1-0.1-5.1,4c0,3,3.7,3.2,5.9,3.2
					c1.8,0,3.7-0.2,5.5-0.2c1.5,0,3.4,0.2,4.3,1.5c0.6,0.8,0.6,2.6,0.6,3.5c0,0.8-0.1,1.8-0.6,2.4c-1.2,1.7-7.3,1.3-9.2,1.3
					c-1.5,0-4.5-0.2-5.7,0.8c-0.4,0.4-0.6,0.9-0.7,1.5c-0.2,0.9-0.2,1.8-0.2,2.6C410.9,166,412.1,167,414.3,167z"/>
			</g>
			<g>
				<path class="st0" d="M19.3,145.8c1.8-2.7,4.9-4.1,8.2-3.7c2.4,0.3,4.5,1.8,5.9,3.8l9.4,14.2c0.3,0.4,0.6,0.5,0.8,0.5
					c0.2,0,0.6-0.1,0.8-0.5l4.8-7.2c0.7-1,1.8-1.6,3.1-1.6h17.6v-21.2c0-5.6-4.5-10-10-10H10c-5.6,0-10,4.5-10,10v21.2h14.6
					c0.7,0,1.3-0.3,1.6-0.9L19.3,145.8z"/>
				<path class="st0" d="M50.5,164.3c-1.8,2.7-4.9,4.1-8.2,3.7c-2.4-0.3-4.5-1.8-5.9-3.8l-9.4-14.2c-0.3-0.4-0.6-0.5-0.8-0.5
					c-0.2,0-0.6,0.1-0.8,0.5l-4.8,7.2c-0.7,1-1.8,1.6-3.1,1.6H0v21.2c0,5.6,4.5,10,10,10h49.8c5.6,0,10-4.5,10-10v-21.2H55.3
					c-0.7,0-1.3,0.3-1.6,0.9L50.5,164.3z"/>
			</g>
		</g>
		<g>
			<g>
				<path class="st0" d="M307.4,32.2c-0.3-0.6-1.5-2.3-1.7-2.6c-1.1-1.8-2.9-3.1-5.1-3.5l-29.3-5.6c-4.3-0.8-8.8,1.7-10.1,5.7
					l-21,61.8c-0.7,2-0.5,4,0.5,5.8c0.3,0.6,1.5,2.3,1.7,2.6c1.1,1.8,2.9,3.1,5.1,3.5l29.3,5.6c0.2,0,0.3,0.1,0.5,0.1
					c4.2,0.6,8.3-1.9,9.7-5.7l21-61.8C308.6,36,308.4,34,307.4,32.2z M302,34l-21,61.8c-0.6,1.9-3,3.2-5.1,2.8l-29.3-5.6
					c-1-0.2-1.7-0.7-2.1-1.4c-0.4-0.6-0.4-1.4-0.2-2.2l21-61.8c0.6-1.8,2.8-3.1,4.9-2.8c0.1,0,0.1,0,0.2,0l4.1,0.8
					c0.4,1.5,0.6,3.2,2.1,3.4l12,2.5c1.4,0.3,2.7-1.4,4.4-2.4l6.7,1.3c1,0.2,1.7,0.7,2.1,1.4C302.2,32.4,302.3,33.2,302,34z"/>
			</g>
			<g>
				<path class="st0" d="M136.4,38l21,61.8c1.3,3.9,5.5,6.3,9.7,5.7c0.2,0,0.3,0,0.5-0.1l29.3-5.6c2.2-0.4,4.1-1.7,5.1-3.5
					c0.2-0.3,1.4-2,1.7-2.6c1-1.8,1.2-3.8,0.5-5.8l-21-61.8c-1.4-4-5.8-6.5-10.1-5.7l-29.3,5.6c-2.2,0.4-4.1,1.7-5.1,3.5
					c-0.2,0.3-1.4,2-1.7,2.6C135.9,34,135.8,36,136.4,38z M142.5,31.8c0.4-0.7,1.2-1.2,2.1-1.4l6.7-1.3c1.7,0.9,3,2.7,4.4,2.4
					l12-2.5c1.5-0.2,1.6-2,2.1-3.4l4.1-0.8c0.1,0,0.1,0,0.2,0c2.1-0.3,4.3,1,4.9,2.8l21,61.8c0.3,0.8,0.2,1.5-0.2,2.2
					c-0.4,0.7-1.2,1.2-2.1,1.4l-29.3,5.6c-2.1,0.4-4.5-0.9-5.1-2.8l-21-61.8C142.1,33.2,142.1,32.4,142.5,31.8z"/>
			</g>
		</g>
		<g>
			<g>
				<path class="st0" d="M222,16.5c-1.5,0-2.7-1.2-2.7-2.7V3c0-1.5,1.2-2.7,2.7-2.7s2.7,1.2,2.7,2.7v10.8
					C224.7,15.3,223.5,16.5,222,16.5z"/>
			</g>
			<g>
				<path class="st0" d="M211.8,19.1c-0.9,0-1.8-0.5-2.3-1.3l-5.4-9.4c-0.7-1.3-0.3-2.9,1-3.7c1.3-0.7,2.9-0.3,3.7,1l5.4,9.4
					c0.7,1.3,0.3,2.9-1,3.7C212.7,19,212.3,19.1,211.8,19.1z"/>
			</g>
			<g>
				<path class="st0" d="M204.2,26.2c-0.5,0-0.9-0.1-1.3-0.4l-9.4-5.4c-1.3-0.7-1.7-2.4-1-3.7c0.7-1.3,2.4-1.7,3.7-1l9.4,5.4
					c1.3,0.7,1.7,2.4,1,3.7C206,25.7,205.1,26.2,204.2,26.2z"/>
			</g>
			<g>
				<path class="st0" d="M240,25.8c-0.9,0-1.8-0.5-2.3-1.3c-0.7-1.3-0.3-2.9,1-3.7l9.5-5.5c1.3-0.7,2.9-0.3,3.7,1
					c0.7,1.3,0.3,2.9-1,3.7l-9.5,5.5C240.9,25.7,240.4,25.8,240,25.8z"/>
			</g>
			<g>
				<path class="st0" d="M232.2,19c-0.5,0-0.9-0.1-1.3-0.4c-1.3-0.7-1.7-2.4-1-3.7l5.5-9.5c0.7-1.3,2.4-1.7,3.7-1
					c1.3,0.7,1.7,2.4,1,3.7l-5.5,9.5C234.1,18.5,233.1,19,232.2,19z"/>
			</g>
		</g>
		<g>
			<path class="st0" d="M163.4,55.8c-0.7,0-1.3-0.4-1.5-1.1l-1.5-4.7c-0.3-0.8,0.2-1.7,1-2c0.8-0.3,1.7,0.2,2,1l1.5,4.7
				c0.3,0.8-0.2,1.7-1,2C163.7,55.8,163.6,55.8,163.4,55.8z"/>
			<path class="st0" d="M178,52c-0.7,0-1.3-0.4-1.5-1.1l-1.5-4.7c-0.3-0.8,0.2-1.7,1-2c0.8-0.3,1.7,0.2,2,1l1.5,4.7
				c0.3,0.8-0.2,1.7-1,2C178.3,52,178.1,52,178,52z"/>
			<path class="st0" d="M171.5,67.2c-3.6,0-7.2-1.2-10-3.5c-0.5-0.4-0.6-1.1-0.2-1.6c0.4-0.5,1.1-0.6,1.6-0.2
				c3.6,2.9,8.5,3.7,12.9,2.2c3.6-1.2,6.2-3.8,7.1-7c0.2-0.6,0.8-1,1.4-0.8c0.6,0.2,1,0.8,0.8,1.4c-1,3.9-4.2,7.2-8.6,8.6
				C175,66.9,173.3,67.2,171.5,67.2z"/>
		</g>
		<g>
			<path class="st0" d="M281.6,55.5c-0.2,0-0.3,0-0.5-0.1c-0.8-0.3-1.3-1.1-1-2l1.5-4.7c0.3-0.8,1.1-1.3,2-1c0.8,0.3,1.3,1.1,1,2
				l-1.5,4.7C282.9,55.1,282.3,55.5,281.6,55.5z"/>
			<path class="st0" d="M267.2,52.1c-0.2,0-0.3,0-0.5-0.1c-0.8-0.3-1.3-1.1-1-2l1.5-4.7c0.3-0.8,1.1-1.3,2-1c0.8,0.3,1.3,1.1,1,2
				l-1.5,4.7C268.4,51.7,267.8,52.1,267.2,52.1z"/>
			<path class="st0" d="M274.4,67.3c-1.7,0-3.5-0.3-5.1-0.8c-4.4-1.5-7.6-4.7-8.6-8.6c-0.2-0.6,0.2-1.3,0.8-1.4
				c0.6-0.2,1.3,0.2,1.4,0.8c0.8,3.2,3.5,5.8,7.1,7c4.4,1.5,9.4,0.6,12.9-2.2c0.5-0.4,1.2-0.3,1.6,0.2c0.4,0.5,0.3,1.2-0.2,1.6
				C281.6,66.1,278,67.3,274.4,67.3z"/>
		</g>
		<path class="st0" d="M231.1,58.7c-1,0-1.9-0.5-2.4-1.3l-10.5-15.9c0,0-0.1-0.1-0.1-0.1l-5.2-7.9l-6.3,9.6
			c-1.2,1.8-3.2,2.9-5.4,2.9h-7c-0.9,0-1.5-0.7-1.5-1.5s0.7-1.5,1.5-1.5h7c1.2,0,2.2-0.6,2.9-1.5l6.5-9.8c0.5-0.8,1.4-1.3,2.4-1.3
			s1.9,0.5,2.4,1.3l5.3,8c0,0,0.1,0.1,0.1,0.1l10.5,15.9l6.3-9.6c1.2-1.8,3.2-2.9,5.4-2.9h7.4c0.9,0,1.5,0.7,1.5,1.5
			s-0.7,1.5-1.5,1.5h-7.4c-1.2,0-2.2,0.6-2.9,1.5l-6.5,9.8C233,58.2,232.1,58.7,231.1,58.7z"/>
	</g>
</g>
</svg>
