<?xml version="1.0" encoding="utf-8"?>
<!-- Generator: Adobe Illustrator 25.4.1, SVG Export Plug-In . SVG Version: 6.00 Build 0)  -->
<svg version="1.1" id="レイヤー_1" xmlns="http://www.w3.org/2000/svg" xmlns:xlink="http://www.w3.org/1999/xlink" x="0px"
	 y="0px" viewBox="0 0 275 129" style="enable-background:new 0 0 275 129;" xml:space="preserve">
<style type="text/css">
	.st0{fill:#FFFFFF;}
	.st1{fill:#FF5D8C;}
</style>
<g>
	<path class="st0" d="M274.2,22.8h-98.7c-0.4,0-0.8-0.3-0.8-0.8s0.3-0.8,0.8-0.8h98.7c0.4,0,0.8,0.3,0.8,0.8S274.6,22.8,274.2,22.8z
		"/>
	<path class="st0" d="M99.5,22.8H0.8C0.4,22.8,0,22.5,0,22s0.3-0.8,0.8-0.8h98.7c0.4,0,0.8,0.3,0.8,0.8S99.9,22.8,99.5,22.8z"/>
</g>
<g>
	<circle class="st1" cx="137.5" cy="22" r="21.9"/>
	<g>
		<path class="st0" d="M135,31.3c0-1.6,1.1-2.8,2.7-2.8c1.6,0,2.7,1.1,2.7,2.8c0,1.6-1,2.7-2.7,2.7C136.1,34.1,135,32.9,135,31.3z
			 M139.4,26.4h-3.5l-0.6-15.9h4.7L139.4,26.4z"/>
	</g>
</g>
<g>
	<g>
		<path class="st0" d="M44.1,66.2c0.3,0,0.3,0.2,0.4,0.4c0.5,2.3,2.3,2.6,4.3,2.6c2.1,0,4.4-0.2,6.5-0.8c0.1,0,0.2-0.1,0.3-0.1
			c0.4,0,0.4,0.4,0.4,0.7c0,0.2,0.1,0.9,0.1,1.1c0,0.4-0.1,0.6-0.5,0.8c-1.1,0.4-5.2,0.6-6.5,0.6c-2.2,0-4.7-0.3-6-2.3
			c-0.3-0.5-0.8-1.5-0.8-2.1C42.1,66.7,44.1,66.2,44.1,66.2z M45.5,58.1c1.3,0.4,2.7,0.5,4.1,0.5c1.2,0,2.3-0.1,3.5-0.3
			c0.1,0,0.2,0,0.3,0c0.5,0,0.5,0.8,0.5,1.7c0,0.5-0.1,0.7-0.5,0.7c-0.9,0.1-2.3,0.2-3.3,0.2c-1.4,0-4.4-0.1-5.7-0.6
			c-0.2-0.1-0.3-0.2-0.3-0.5c0-0.2,0.2-0.9,0.2-1.1c0.1-0.4,0.1-0.8,0.5-0.8C45,57.9,45.3,58,45.5,58.1z M57.4,59c0,0.3-0.8,1-1,1
			c-0.1,0-0.3-0.2-0.5-0.5C55.5,59,55,58.5,54.5,58c-0.1-0.1-0.2-0.2-0.2-0.3c0-0.3,0.8-0.9,1-0.9C55.6,56.8,57.4,58.7,57.4,59z
			 M59.4,57.3c0,0.3-0.8,1-1,1c-0.1,0-0.3-0.3-0.6-0.5c-0.4-0.5-0.8-0.9-1.3-1.4c-0.1-0.1-0.2-0.2-0.2-0.3c0-0.3,0.8-0.9,1.1-0.9
			C57.6,55.2,59.4,57,59.4,57.3z"/>
		<path class="st0" d="M67,65.6c-0.1,0-0.2,0.1-0.2,0.2v4.6c0,1,0.1,2,0.1,3c0,0.7-0.2,0.7-1.1,0.7c-0.9,0-1.1,0-1.1-0.7
			c0-1,0.1-2,0.1-3v-3.2c0-0.1,0-0.2-0.1-0.2c-0.1,0-0.1,0-0.1,0.1c-0.3,0.6-1.9,3.6-2.5,3.6c-0.4,0-1.5-0.8-1.5-1.3
			c0-0.2,0.1-0.3,0.2-0.5c1.7-2,2.5-3.5,3.5-5.9c0-0.1,0-0.1,0-0.2c0-0.3-0.3-0.3-0.4-0.3h-0.3c-0.7,0-1.5,0-2.1,0
			c-0.5,0-0.5-0.3-0.5-1.1c0-0.8,0-1.1,0.5-1.1c0.7,0,1.4,0.1,2.1,0.1h0.6c0.4,0,0.6-0.2,0.6-0.6v-1.3c0-0.3-0.1-0.5-0.5-0.5h-0.1
			c-0.4,0.1-1.4,0.2-1.8,0.2c-0.6,0-1-1.3-1-1.5c0-0.3,0.2-0.3,0.8-0.4c1.9-0.2,4.5-0.8,6.2-1.7c0.1,0,0.2-0.1,0.3-0.1
			c0.2,0,0.8,0.7,1,0.9c0.2,0.2,0.7,0.7,0.7,0.9c0,0.1-0.1,0.2-0.2,0.2c-0.1,0-0.1,0-0.2,0c-0.1,0-0.2-0.1-0.3-0.1
			c0,0-2,0.6-2.2,0.7c-0.4,0.2-0.5,0.3-0.5,0.8V60c0,0.4,0.2,0.6,0.6,0.6h0.7c0.7,0,1.4-0.1,2.1-0.1c0.5,0,0.5,0.3,0.5,1.1
			c0,0.8,0,1.1-0.5,1.1c-0.6,0-1.4,0-2.1,0h-0.4c-0.2,0-0.3,0.1-0.3,0.3c0,0.1,0,0.1,0.1,0.2c0.8,1.2,1.8,2.4,2.8,3.4
			c0.2,0.1,0.3,0.3,0.3,0.5c0,0.4-0.9,1.3-1.3,1.3c-0.5,0-1.9-2-2.3-2.5C67.2,65.7,67.1,65.6,67,65.6z M72.1,59c0-0.5,0-1-0.1-1.4
			c0-0.1,0-0.2,0-0.2c0-0.3,0.2-0.3,0.4-0.3c0.2,0,1.6,0.1,1.9,0.1c0.2,0,0.5,0,0.5,0.3c0,0.2-0.1,0.2-0.3,0.3
			c-0.2,0.2-0.3,0.4-0.3,1.3v6.7c0,1,0.1,1.9,0.1,2.9c0,0.7-0.2,0.7-1.1,0.7c-0.9,0-1.1,0-1.1-0.7c0-1,0-1.9,0-2.9V59z M76.6,57.3
			c0-0.6,0-1.4-0.1-1.9c0-0.1,0-0.1,0-0.2c0-0.3,0.2-0.3,0.4-0.3c0.4,0,1.4,0.1,1.8,0.1c0.2,0,0.5,0,0.5,0.3c0,0.2-0.2,0.2-0.3,0.3
			c-0.2,0.2-0.2,0.3-0.2,0.5c0,0.6,0,1.3,0,1.9v11.9c0,0.5,0.1,1.1,0.1,1.6c0,0.7,0,1.4-0.6,1.9c-0.7,0.6-2.1,0.7-3,0.7
			c-0.5,0-1.3,0.1-1.3-1.7c0-0.3,0-0.7,0.4-0.7c0.2,0,0.7,0.1,1.1,0.1c1.1,0,1.1-0.4,1.1-1.7V57.3z"/>
		<path class="st0" d="M86.3,67.4c-0.4,0-0.6,0.1-0.7,0.6c-0.3,2-0.8,3.9-1.9,5.6c-0.2,0.2-0.4,0.5-0.7,0.5c-0.4,0-1.5-0.8-1.5-1.2
			c0-0.1,0.1-0.2,0.2-0.3c1.9-3,2.1-5.8,2.1-9.3v-4.6c0-0.7,0-1.4,0-2c0-0.9,0.3-1.1,1.2-1.1c0.6,0,1.2,0,1.9,0h9.9
			c0.6,0,1.3,0,1.9,0c0.9,0,1.2,0.2,1.2,1.1c0,0.7,0,1.4,0,2v11.2c0,0.5,0,1.1,0,1.6c0,0.8-0.1,1.6-0.7,2c-0.8,0.6-1.9,0.6-2.8,0.6
			c-0.4,0-1.3,0.1-1.3-1.7c0-0.3,0.1-0.6,0.5-0.6c0.3,0,0.7,0,1,0c1,0,1.1-0.2,1.1-1.3V68c0-0.4-0.2-0.6-0.6-0.6H93
			c-0.4,0-0.6,0.2-0.6,0.6v1.9c0,1.1,0.1,2.1,0.1,3.2c0,0.7-0.2,0.7-1.2,0.7s-1.2,0-1.2-0.7c0-1.1,0-2.1,0-3.2V68
			c0-0.4-0.2-0.6-0.6-0.6H86.3z M86.5,62.5c-0.4,0-0.6,0.2-0.6,0.6v0.3c0,0.5,0,1,0,1.4c0,0.4,0.2,0.6,0.6,0.6h3.1
			c0.4,0,0.6-0.2,0.6-0.6v-1.7c0-0.4-0.2-0.6-0.6-0.6H86.5z M90.2,58.3c0-0.4-0.2-0.6-0.6-0.6h-3.1c-0.4,0-0.6,0.2-0.6,0.6v1.6
			c0,0.4,0.2,0.6,0.6,0.6h3.1c0.4,0,0.6-0.2,0.6-0.6V58.3z M96.8,60.5c0.4,0,0.6-0.2,0.6-0.6v-1.6c0-0.4-0.2-0.6-0.6-0.6H93
			c-0.4,0-0.6,0.2-0.6,0.6v1.6c0,0.4,0.2,0.6,0.6,0.6H96.8z M92.4,64.8c0,0.4,0.2,0.6,0.6,0.6h3.8c0.4,0,0.6-0.2,0.6-0.6v-1.7
			c0-0.4-0.2-0.6-0.6-0.6H93c-0.4,0-0.6,0.2-0.6,0.6V64.8z"/>
		<path class="st0" d="M107.5,59.2c0.2,0,0.5,0.1,0.5,0.3c0,0.1-0.1,0.2-0.2,0.3c-0.3,0.2-0.3,0.7-0.4,1c-0.1,0.8-0.2,1.5-0.2,2.3
			c0,1.4,0.1,3.2,0.7,4.5c0.3,0.6,1,1.9,1.7,1.9c0.6,0,1.2-0.9,1.5-1.4c0.1-0.2,0.3-0.5,0.6-0.5c0.5,0,1.6,0.9,1.6,1.3
			c0,0.4-1,1.5-1.3,1.9c-0.6,0.7-1.3,1.4-2.3,1.4c-1.6,0-2.8-1.4-3.6-2.8c-1.1-2-1.3-4.7-1.3-7c0-0.3,0.1-3.1,0.1-3.3
			c0-0.2,0.2-0.2,0.3-0.2C105.5,58.8,107.1,59.2,107.5,59.2z M116.3,58.8c0.5,0,2.3,1.4,3.3,3.3c0.6,1.1,1.3,3.2,1.3,4.5
			c0,0.4-0.2,0.5-0.6,0.6c-0.3,0.1-0.8,0.2-1.2,0.2c-0.7,0-0.7-0.3-0.7-0.8c-0.3-2.5-1.1-4.6-3.2-6.1c-0.1-0.1-0.2-0.2-0.2-0.3
			C115,59.8,115.8,58.8,116.3,58.8z"/>
		<path class="st0" d="M133.5,55.5c0.2,0.1,0.8,0.2,0.8,0.5c0,0.1-0.1,0.2-0.2,0.2c-0.3,0.2-0.3,0.3-0.5,0.8
			c-0.1,0.2-0.5,1.8-0.5,1.9c0,0.2,0.2,0.3,0.3,0.3c0.4,0,2.1-0.6,2.5-0.8c0.2-0.1,0.3-0.1,0.5-0.1c0.4,0,0.4,1.3,0.4,1.6
			c0,0.4,0,0.7-0.4,0.8c-1.1,0.3-2.4,0.6-3.5,0.8c-0.6,0.1-0.7,0.2-0.9,0.8c-1,2.9-2.6,6.8-4,9.5c-0.3,0.5-0.5,0.8-0.8,0.8
			c-0.3,0-1.8-0.7-1.8-1.2c0-0.2,0.2-0.5,0.4-0.7c1.4-1.9,3-5.7,3.8-8c0-0.1,0.2-0.5,0.2-0.6c0-0.2-0.2-0.3-0.4-0.3
			c-0.3,0-1.3,0.1-1.9,0.1c-0.4,0-0.8,0-0.9-0.4c-0.1-0.3-0.2-1.3-0.2-1.6c0-0.2,0.1-0.4,0.3-0.4c0.2,0,1.1,0.1,2,0.1
			c1.4,0,1.7,0,1.9-0.3c0.3-0.4,0.8-3.3,0.8-3.9c0-0.3,0-0.5,0.2-0.5C131.8,55,133.2,55.4,133.5,55.5z M133.2,69.4
			c0.9,1.1,2.6,1.3,3.9,1.3c1.1,0,2-0.1,3.1-0.4c0.1,0,0.2,0,0.2,0c0.4,0,0.4,0.5,0.4,1.4c0,0.4,0,0.9-0.2,1.1
			c-0.4,0.2-2.8,0.3-3.4,0.3c-1.4,0-3.4-0.2-4.6-1c-0.3-0.2-1.1-0.8-1.1-1.2c0-0.3,1-1.6,1.3-1.6C133,69.1,133.1,69.3,133.2,69.4z
			 M135.8,62.5c1.1,0,3.3,0.2,4.3,0.6c0.2,0.1,0.3,0.2,0.3,0.4c0,0.3-0.3,1.2-0.4,1.5c-0.1,0.2-0.2,0.3-0.4,0.3
			c-0.2,0-0.3,0-0.5-0.1c-1.1-0.4-2.3-0.5-3.4-0.5c-0.3,0-0.5,0-0.8,0c-0.4,0-0.5-0.1-0.5-0.5C134.4,62.3,134.8,62.5,135.8,62.5z"/>
		<path class="st0" d="M154.6,55.5c0.2,0.1,0.8,0.2,0.8,0.5c0,0.1-0.1,0.2-0.2,0.2c-0.3,0.2-0.3,0.3-0.5,0.8
			c-0.1,0.2-0.5,1.8-0.5,1.9c0,0.2,0.2,0.3,0.3,0.3c0.4,0,2.1-0.6,2.5-0.8c0.2-0.1,0.3-0.1,0.5-0.1c0.4,0,0.4,1.3,0.4,1.6
			c0,0.4,0,0.7-0.4,0.8c-1.1,0.3-2.4,0.6-3.5,0.8c-0.6,0.1-0.7,0.2-0.9,0.8c-1,2.9-2.6,6.8-4,9.5c-0.3,0.5-0.5,0.8-0.8,0.8
			c-0.3,0-1.8-0.7-1.8-1.2c0-0.2,0.2-0.5,0.4-0.7c1.4-1.9,3-5.7,3.8-8c0-0.1,0.2-0.5,0.2-0.6c0-0.2-0.2-0.3-0.4-0.3
			c-0.3,0-1.3,0.1-1.9,0.1c-0.4,0-0.8,0-0.9-0.4c-0.1-0.3-0.2-1.3-0.2-1.6c0-0.2,0.1-0.4,0.3-0.4c0.2,0,1.1,0.1,2,0.1
			c1.4,0,1.7,0,1.9-0.3c0.3-0.4,0.8-3.3,0.8-3.9c0-0.3,0-0.5,0.2-0.5C152.9,55,154.3,55.4,154.6,55.5z M154.3,69.4
			c0.9,1.1,2.6,1.3,3.9,1.3c1.1,0,2-0.1,3.1-0.4c0.1,0,0.2,0,0.2,0c0.4,0,0.4,0.5,0.4,1.4c0,0.4,0,0.9-0.2,1.1
			c-0.4,0.2-2.8,0.3-3.4,0.3c-1.4,0-3.4-0.2-4.6-1c-0.3-0.2-1.1-0.8-1.1-1.2c0-0.3,1-1.6,1.3-1.6C154,69.1,154.2,69.3,154.3,69.4z
			 M156.9,62.5c1.1,0,3.3,0.2,4.3,0.6c0.2,0.1,0.3,0.2,0.3,0.4c0,0.3-0.3,1.2-0.4,1.5c-0.1,0.2-0.2,0.3-0.4,0.3
			c-0.2,0-0.3-0.1-0.5-0.1c-1.1-0.4-2.3-0.5-3.4-0.5c-0.3,0-0.5,0-0.8,0c-0.4,0-0.5-0.1-0.5-0.5C155.5,62.3,155.9,62.5,156.9,62.5z
			 M161.3,58.9c0,0.3-0.8,0.9-1.1,0.9c-0.1,0-0.2-0.1-0.3-0.2c-0.5-0.6-0.9-1.2-1.5-1.7c-0.1-0.1-0.2-0.2-0.2-0.3
			c0-0.3,0.9-0.9,1.1-0.9C159.6,56.7,161.3,58.6,161.3,58.9z M163.6,57.5c0,0.3-0.8,1-1.1,1c-0.1,0-0.2-0.2-0.3-0.3
			c-0.5-0.6-0.9-1.2-1.5-1.7c-0.1-0.1-0.2-0.2-0.2-0.3c0-0.3,0.8-0.9,1.1-0.9C161.8,55.3,163.6,57.2,163.6,57.5z"/>
		<path class="st0" d="M179.6,58.1c0,0.2-0.3,0.2-0.5,0.2c-0.2,0-0.4,0.1-0.6,0.3c-0.5,0.4-1.1,0.8-1.6,1.2c-1.2,1-2.4,2-3.6,3.1
			c-0.4,0.4-0.9,0.8-0.9,1.2c0,0.5,0.7,1.3,1.1,1.7c1.2,1.3,2.6,2.5,3.9,3.7c0.4,0.3,1.9,1.5,1.9,2c0,0.5-1.3,1.7-1.8,1.7
			c-0.2,0-0.5-0.4-0.7-0.6c-0.8-1-1.7-1.9-2.6-2.8c-1.2-1.2-2.4-2.3-3.4-3.6c-0.6-0.7-1-1.3-1-2.3c0-0.5,0.2-1.1,0.5-1.5
			c0.5-0.7,2-1.9,2.8-2.5c1.3-1.1,3-2.5,4-3.8c0.1-0.1,0.2-0.3,0.3-0.3c0.3,0,0.9,0.7,1.1,1C178.8,57.1,179.6,57.9,179.6,58.1z"/>
		<path class="st0" d="M194.2,58.3c0,0,0,0.1,0.2,0.1h3c0.5,0,0.6,0,0.9-0.4c0.6-0.8,1.3-2,1.7-3c0.1-0.1,0.1-0.3,0.3-0.3
			c0.1,0,0.9,0.3,1.1,0.4c0.5,0.2,1.3,0.5,1.3,0.8c0,0.3-0.3,0.3-0.3,0.3c-0.2,0-0.3,0-0.5,0.2c-0.2,0.2-0.7,1.1-1.1,1.7
			c0,0.1-0.1,0.1-0.1,0.2c0,0.2,0.2,0.2,0.3,0.3h1.9c0.9,0,1.7,0,2.6,0c0.5,0,0.5,0.2,0.5,1c0,0.7,0,1-0.5,1c-0.9,0-1.7,0-2.6,0
			h-12.8c-0.9,0-1.7,0-2.6,0c-0.5,0-0.5-0.3-0.5-1c0-0.7,0-1,0.5-1c0.9,0,1.7,0,2.6,0h1.9c0.2,0,0.3-0.1,0.3-0.3c0-0.1,0-0.1,0-0.2
			c-0.4-0.6-0.8-1.3-1.3-1.9c-0.1-0.1-0.2-0.3-0.2-0.4c0-0.4,1.3-0.9,1.7-0.9c0.3,0,0.5,0.2,1.1,1.1c0.2,0.3,1.1,1.7,1.1,1.9
			c0,0.2-0.2,0.3-0.3,0.4C194.2,58.3,194.2,58.3,194.2,58.3z M191.1,69.7c-0.4,0-0.6,0.2-0.6,0.6v1.2c0,0.7,0.1,1.4,0.1,2.1
			c0,0.5-0.2,0.6-1.1,0.6c-0.9,0-1.1,0-1.1-0.5c0-0.7,0.1-1.4,0.1-2.2v-7.3c0-0.5,0-1,0-1.6c0-0.7,0.3-0.9,1-0.9c0.5,0,1,0,1.4,0
			h2.5c0.5,0,0.9,0,1.4,0c0.7,0,1,0.1,1,0.9c0,0.5,0,1,0,1.6v6.8c0,0.4,0,0.8,0,1.1c0,0.6,0,1.3-0.7,1.6c-0.6,0.3-1.5,0.5-2.2,0.5
			c-0.8,0-1.3,0-1.3-1.5c0-0.4,0-0.6,0.4-0.6c0.3,0,0.7,0,1,0c0.8,0,0.7-0.4,0.7-0.9v-0.9c0-0.4-0.2-0.6-0.6-0.6H191.1z M193.2,65
			c0.4,0,0.6-0.2,0.6-0.6v-0.2c0-0.4-0.2-0.6-0.6-0.6h-2.2c-0.4,0-0.6,0.2-0.6,0.6v0.2c0,0.4,0.2,0.6,0.6,0.6H193.2z M191.1,66.6
			c-0.4,0-0.6,0.2-0.6,0.6v0.3c0,0.4,0.2,0.6,0.6,0.6h2.2c0.4,0,0.6-0.2,0.6-0.6v-0.3c0-0.4-0.2-0.6-0.6-0.6H191.1z M198.1,63.8
			c0-0.5,0-1-0.1-1.5c0-0.1,0-0.1,0-0.2c0-0.2,0.2-0.2,0.4-0.2c0.3,0,1.5,0.1,1.8,0.1c0.2,0,0.5,0,0.5,0.2c0,0.2-0.2,0.2-0.3,0.3
			c-0.2,0.1-0.2,0.3-0.2,1v4.1c0,0.8,0,1.6,0,2.3c0,0.5-0.2,0.6-1,0.6c-0.9,0-1.1,0-1.1-0.6c0-0.8,0.1-1.6,0.1-2.3V63.8z M202.4,63
			c0-0.5,0-0.9-0.1-1.3c0-0.1,0-0.1,0-0.2c0-0.3,0.2-0.3,0.4-0.3c0.3,0,1.4,0.1,1.7,0.1c0.2,0,0.6,0,0.6,0.3c0,0.2-0.2,0.2-0.3,0.3
			c-0.2,0.2-0.2,0.3-0.2,1.1v7.4c0,0.4,0,0.8,0,1.3c0,0.6-0.1,1.3-0.7,1.7c-0.7,0.5-2,0.6-2.9,0.6c-0.3,0-0.6,0-0.8-0.2
			c-0.2-0.3-0.3-0.9-0.3-1.3c0-0.3,0-0.7,0.5-0.7c0.1,0,0.7,0.1,1.2,0.1c1,0,1-0.2,1-1.4V63z"/>
		<path class="st0" d="M214.1,57.6c0.2,0.1,0.4,0.2,0.4,0.4c0,0.1-0.1,0.2-0.3,0.3c-0.4,0.2-0.5,0.4-0.7,0.9
			c-0.8,1.9-1.2,4.1-1.2,6.1c0,0.4,0.1,3,0.6,3c0.2,0,0.5-0.6,0.6-0.8c0.1-0.3,0.3-0.5,0.5-0.5c0.2,0,0.8,0.5,0.8,0.7
			c0,0.2-0.9,2.2-0.9,3.1c0,0.2,0.1,0.7,0.1,0.9c0,0.1,0,0.2,0,0.3c0,0.5-1.2,1.1-1.7,1.1c-0.4,0-0.6-0.5-0.9-1.1
			c-1-2-1.3-4.4-1.3-6.6c0-2.5,0.4-4.7,1.1-7.1c0.1-0.4,0.2-0.7,0.3-1.1c0-0.2,0.1-0.5,0.3-0.5C211.9,56.6,213.8,57.4,214.1,57.6z
			 M216.7,67.9c0.9,1.1,1.8,1.5,3.3,1.5c1.6,0,3.2-0.3,4.7-0.7c0.1,0,0.3-0.1,0.5-0.1c0.3,0,0.4,0.5,0.4,1.6c0,0.3,0,0.6-0.3,0.8
			c-0.6,0.3-4.3,0.6-5.1,0.6c-3.5,0-4.9-1.8-4.9-2.2c0-0.3,0.8-1.8,1.2-1.8C216.6,67.7,216.7,67.8,216.7,67.9z M217.5,58.4
			c0.9,0.2,1.9,0.3,2.8,0.3c1.1,0,2.2-0.2,3.3-0.4c0.1,0,0.3-0.1,0.4-0.1c0.3,0,0.4,0.3,0.4,0.5c0,0.4,0.1,0.8,0.1,1.2
			c0,0.5,0,0.6-0.4,0.7c-0.9,0.2-2.7,0.3-3.6,0.3c-0.7,0-3.3-0.1-3.8-0.4c-0.2-0.2-0.2-0.6-0.2-0.8c0-1,0.1-1.4,0.5-1.4
			C217.1,58.3,217.3,58.4,217.5,58.4z"/>
		<path class="st0" d="M231.1,68.1c0.5,0,4.2,3,4.2,3.5c0,0.5-1.1,1.7-1.6,1.7c-0.2,0-0.3-0.2-0.4-0.3c-0.9-1.1-2-2.2-3.3-2.9
			c-0.2-0.1-0.4-0.2-0.4-0.4C229.6,69.3,230.7,68.1,231.1,68.1z"/>
		<path class="st0" d="M23.8,97c-0.9,1.8-1.8,3.5-2.9,5.2c-0.1,0.2-0.3,0.4-0.3,0.6c0,0.1,0.1,0.3,0.1,0.5c0,0.2-0.2,0.3-0.3,0.3
			c-0.2,0-0.8-0.5-1.1-0.7c-0.2-0.2-0.9-0.6-0.9-0.9c0-0.1,0.2-0.4,0.3-0.5c1.1-1.4,2.7-4.5,3.5-6.2c0.1-0.2,0.1-0.3,0.3-0.3
			c0.5,0,1.6,0.8,1.6,1.2C24.2,96.2,23.9,96.8,23.8,97z M22,93.4c-0.2,0-0.7-0.5-1.1-0.7c-0.5-0.5-1.4-1.1-2-1.5
			c-0.1-0.1-0.2-0.2-0.2-0.3c0-0.3,0.8-1.4,1.2-1.4c0.3,0,1.6,0.9,1.9,1.2c0.3,0.2,1.5,1.1,1.5,1.4C23.2,92.4,22.4,93.4,22,93.4z
			 M23.1,88.6c-0.2,0-0.4-0.2-0.6-0.4c-0.8-0.6-1.5-1.1-2.3-1.7c-0.2-0.2-0.4-0.2-0.4-0.5c0-0.2,0.8-1.4,1.2-1.4
			c0.3,0,1.4,0.8,1.7,1c0.4,0.3,1.1,0.8,1.5,1.2c0.1,0.1,0.2,0.2,0.2,0.3C24.3,87.5,23.5,88.6,23.1,88.6z M32.4,90.8
			c-0.4,0-0.6,0.2-0.6,0.6v2.7c0,0.4,0.2,0.6,0.6,0.6h1.2c0.8,0,1.6-0.1,2.4-0.1c0.6,0,0.6,0.3,0.6,1.1s0,1-0.6,1
			c-0.8,0-1.6,0-2.4,0h-1.2c-0.4,0-0.6,0.2-0.6,0.6v3.2c0,0.4,0.2,0.6,0.6,0.6h2.4c0.8,0,1.6-0.1,2.4-0.1c0.6,0,0.5,0.3,0.5,1.1
			c0,0.8,0,1.1-0.5,1.1c-0.8,0-1.6-0.1-2.4-0.1h-8.2c-0.8,0-1.6,0.1-2.4,0.1c-0.6,0-0.5-0.3-0.5-1.1c0-0.8,0-1.1,0.5-1.1
			c0.8,0,1.6,0.1,2.4,0.1H29c0.4,0,0.6-0.2,0.6-0.6v-3.2c0-0.4-0.2-0.6-0.6-0.6H28c-0.8,0-1.6,0-2.3,0c-0.6,0-0.6-0.3-0.6-1
			s0-1.1,0.6-1.1c0.8,0,1.6,0.1,2.3,0.1H29c0.4,0,0.6-0.2,0.6-0.6v-2.7c0-0.4-0.2-0.6-0.6-0.6h-1.7c-0.8,0-1.5,0-2.2,0
			c-0.5,0-0.5-0.3-0.5-1c0-0.8,0-1.1,0.5-1.1c0.8,0,1.5,0,2.2,0h3c0.1,0,0.3,0,0.3-0.2c0-0.1,0-0.1-0.1-0.2
			c-0.8-0.8-1.7-1.4-2.6-2.1c-0.2-0.1-0.4-0.3-0.4-0.5s0.7-1.3,1.2-1.3c0.3,0,1.4,0.9,1.7,1.2c0.3,0.3,1.9,1.6,1.9,1.9
			c0,0.2-0.3,0.6-0.5,0.8c0,0.1-0.1,0.1-0.1,0.2c0,0.2,0.1,0.2,0.3,0.2h2.4c0.7,0,1.5,0,2.2,0c0.5,0,0.5,0.3,0.5,1.1
			c0,0.7,0,1-0.5,1c-0.8,0-1.5,0-2.2,0H32.4z"/>
		<path class="st0" d="M47.4,86.3c0.4,0,0.6-0.2,0.6-0.6c0-0.2-0.1-0.8-0.1-0.8c0-0.3,0.2-0.3,0.4-0.3c0.4,0,1.4,0.1,1.8,0.1
			c0.3,0,0.7,0,0.7,0.3c0,0.2-0.1,0.2-0.3,0.3c-0.1,0.1-0.2,0.2-0.2,0.3v0.2c0,0.3,0.3,0.4,0.6,0.4h3c0.9,0,1.7-0.1,2.6-0.1
			c0.5,0,0.5,0.2,0.5,0.9s0,0.8-0.5,0.8c-0.7,0-1.4,0-2.1,0c0,0-0.1,0-0.1,0c0,0,0,0,0,0c0.2,0.1,0.5,0.2,0.5,0.4
			c0,0.2-0.2,0.2-0.4,0.3c-0.2,0-0.3,0.1-0.4,0.2l-0.3,0.5c0,0.1-0.1,0.1-0.1,0.2c0,0.2,0.2,0.3,0.3,0.3h1.4c0.9,0,1.7,0,2.6,0
			c0.5,0,0.5,0.2,0.5,0.8c0,0.7,0,0.8-0.5,0.8c-0.9,0-1.7,0-2.6,0H42.8c-0.9,0-1.7,0-2.6,0c-0.5,0-0.5-0.2-0.5-0.8
			c0-0.7,0-0.8,0.5-0.8c0.9,0,1.7,0,2.6,0h1.7c0.1,0,0.4,0,0.4-0.3c0-0.1,0-0.1,0-0.2c0-0.1-0.1-0.2-0.1-0.3
			c-0.2-0.3-0.3-0.6-0.3-0.8c0-0.1,0-0.2,0.1-0.2c0,0,0,0,0-0.1c0,0,0-0.1-0.1-0.1c-0.9,0-1.7,0-2.5,0c-0.5,0-0.5-0.2-0.5-0.8
			s0-0.9,0.5-0.9c0.9,0,1.7,0.1,2.6,0.1H47.4z M43.7,99.6c-0.2,0-0.3,0.2-0.3,0.4c-0.4,0.9-1.2,2.2-1.7,3c-0.1,0.2-0.3,0.4-0.6,0.4
			c-0.4,0-1.4-0.5-1.4-0.9c0-0.2,0.3-0.5,0.4-0.6c0.8-1,1.3-1.8,1.7-3c0.1-0.2,0.1-0.3,0.3-0.3c0.2,0,1,0.3,1.3,0.4
			c0.4,0.2,0.7,0.2,0.7,0.5C44.1,99.6,43.9,99.6,43.7,99.6z M48,98c0-0.1-0.1-0.1-0.1-0.1h-2.4c-0.5,0-1.1,0-1.7,0
			c-0.6,0-1.1-0.1-1.1-0.8c0-0.4,0-0.8,0-1.2v-1.8c0-0.5,0-0.8,0-1.2c0-0.7,0.5-0.8,1.1-0.8c0.6,0,1.1,0,1.7,0h7.4
			c0.5,0,1.1,0,1.7,0c0.6,0,1.1,0.1,1.1,0.8c0,0.4,0,0.8,0,1.2V96c0,0.4,0,0.8,0,1.2c0,0.7-0.4,0.8-1,0.8c-0.6,0-1.1,0-1.7,0h-2.8
			c-0.2,0-0.3,0.1-0.3,0.2c0,0.1,0,0.1,0.1,0.2c0.3,0.3,1.2,1.3,1.2,1.7c0,0.4-1.1,0.9-1.4,0.9c-0.2,0-0.4-0.2-0.5-0.4
			c-0.4-0.6-0.8-1.2-1.3-1.7c-0.1-0.1-0.2-0.2-0.2-0.3C47.6,98.4,47.8,98.2,48,98C48,98.1,48,98.1,48,98z M51.2,101.6
			c0.7,0,0.9,0,1.2-1.4c0.1-0.3,0.1-0.5,0.5-0.5c0.4,0,1.6,0.2,1.6,0.8c0,0.6-0.4,1.7-0.8,2.2c-0.5,0.7-1.2,0.7-1.9,0.7h-5.4
			c-0.9,0-2-0.1-2-1.3c0-0.3,0-0.5,0-0.8v-1.3c0-0.5-0.1-1.2-0.1-1.4c0-0.2,0.2-0.2,0.3-0.2c0.2,0,1.5,0.1,1.8,0.1
			c0.3,0,0.7,0,0.7,0.3c0,0.2-0.2,0.2-0.3,0.3c-0.2,0.1-0.3,0.2-0.3,0.8v1.1c0,0.5,0.3,0.5,0.9,0.5H51.2z M53,94.4
			c0.2,0,0.3-0.1,0.3-0.3v-0.2c0-0.2-0.1-0.3-0.3-0.3h-7.7c-0.2,0-0.3,0.1-0.3,0.3v0.2c0,0.2,0.1,0.3,0.3,0.3H53z M45.4,95.6
			c-0.3,0-0.4,0.2-0.4,0.4v0.2c0,0.3,0.2,0.4,0.4,0.4H53c0.3,0,0.4-0.2,0.4-0.4V96c0-0.3-0.2-0.4-0.4-0.4H45.4z M47.1,89.7
			C47.1,89.8,47.1,89.8,47.1,89.7l3.6,0.1c0.4,0,0.6-0.1,0.8-0.5c0.2-0.3,0.3-0.6,0.4-0.9c0-0.1,0-0.1,0-0.2c0-0.3-0.2-0.3-0.4-0.3
			H47c-0.2,0-0.4,0.1-0.4,0.3c0,0.1,0,0.1,0,0.2c0.1,0.2,0.5,0.9,0.5,1.1C47.2,89.5,47.2,89.6,47.1,89.7
			C47.1,89.7,47.1,89.7,47.1,89.7z M57.1,103.2c-0.3,0-0.4-0.2-0.5-0.5c-0.5-1.2-1.1-2.2-1.9-3.2c-0.1-0.1-0.2-0.3-0.2-0.4
			c0-0.4,1.1-0.8,1.3-0.8c0.2,0,0.3,0.1,0.4,0.2c0.4,0.4,0.9,1.3,1.2,1.7c0.2,0.4,1,1.7,1,2.1C58.5,102.9,57.2,103.2,57.1,103.2z"/>
		<path class="st0" d="M65,99.8c-0.2,0-0.3,0.2-0.6,0.8c-0.5,1-1.1,2.1-1.7,3c-0.1,0.2-0.3,0.3-0.5,0.3c-0.4,0-1.5-0.5-1.5-1
			c0-0.2,0.2-0.4,0.3-0.5c0.7-0.9,1.4-2.1,1.8-3.2c0.1-0.3,0.2-0.5,0.4-0.5c0.3,0,1.4,0.4,1.8,0.5c0.2,0,0.4,0.1,0.4,0.3
			C65.3,99.7,65.1,99.7,65,99.8z M71.6,86.7H76c0.8,0,1.5,0,2.3,0c0.5,0,0.5,0.3,0.5,1c0,0.8,0,1-0.5,1c-0.8,0-1.5,0-2.3,0h-4.3
			c-0.4,0-0.6,0.2-0.6,0.6v0.5c0,0.4,0.2,0.6,0.6,0.6h2.7c0.6,0,1.2,0,1.8,0c0.6,0,1.3,0.1,1.3,0.9c0,0.4,0,0.8,0,1.3V96
			c0,0.2,0,1.4,0,1.4c0,0.5-0.3,0.5-1.1,0.5c-0.8,0-1.1,0-1.1-0.3c0-0.2-0.1-0.2-0.2-0.2h-9.4c-0.2,0-0.2,0.1-0.3,0.2
			c-0.1,0.3-0.3,0.3-1.1,0.3c-0.8,0-1.1,0-1.1-0.5c0,0,0-1.2,0-1.4v-3.6c0-0.4,0-0.8,0-1.2c0-0.8,0.7-0.9,1.3-0.9c0.6,0,1.2,0,1.8,0
			h1.9c0.4,0,0.6-0.2,0.6-0.6v-3.5c0-0.4,0-0.9-0.1-1.3c0-0.1,0-0.1,0-0.2c0-0.3,0.2-0.3,0.4-0.3c0.3,0,1.7,0.1,2.1,0.2
			c0.2,0,0.5,0.1,0.5,0.3c0,0.1-0.2,0.2-0.3,0.3C71,85.5,71,85.7,71,86.1C71,86.5,71.2,86.7,71.6,86.7z M74.6,95.5
			c0.4,0,0.6-0.2,0.6-0.6v-2.1c0-0.4-0.2-0.6-0.6-0.6h-8.8c-0.4,0-0.6,0.2-0.6,0.6v2.1c0,0.4,0.2,0.6,0.6,0.6H74.6z M67.7,103.7
			c-0.7,0-0.6-0.5-0.6-1.6c0-0.8-0.2-1.7-0.3-2.5c0-0.1,0-0.2,0-0.3c0-0.5,1.1-0.7,1.4-0.7c0.6,0,0.7,0.2,1,2.1
			c0.1,0.5,0.2,1.6,0.2,2.1C69.2,103.6,68.2,103.7,67.7,103.7z M72.7,103.8c-0.6,0-0.6-0.4-0.8-1.6c-0.1-0.7-0.5-1.9-0.7-2.5
			c0-0.1-0.1-0.2-0.1-0.3c0-0.5,1-0.7,1.4-0.7c0.5,0,0.6,0.3,0.9,1.2c0.3,1,0.5,2,0.7,3c0,0.1,0.1,0.2,0.1,0.3
			C74.2,103.6,73.1,103.8,72.7,103.8z M78.2,103.9c-0.3,0-0.5-0.4-0.6-0.6c-0.5-1.1-1.1-2.2-1.8-3.3c-0.1-0.1-0.2-0.3-0.2-0.5
			c0-0.4,1.2-0.9,1.5-0.9c0.2,0,0.3,0.1,0.4,0.3c0.3,0.3,0.8,1.3,1.1,1.7c0.2,0.4,1.2,2,1.2,2.4C79.7,103.5,78.6,103.9,78.2,103.9z"
			/>
		<path class="st0" d="M92.8,85.9c0,0.1-0.2,0.2-0.3,0.3c-0.3,0.1-0.4,0.2-0.7,0.7c-0.1,0.1-0.2,0.4-0.2,0.5c0,0.2,0.1,0.2,0.2,0.2
			c0.4,0,2-0.5,2.5-0.6c0.2-0.1,0.4-0.1,0.5-0.1c0.4,0,0.5,0.3,0.5,0.6c0.1,0.3,0.2,0.9,0.2,1.2c0,0.4-0.7,0.5-1.1,0.5
			c-1.4,0.3-2.7,0.5-4.1,0.7c-0.3,0-0.4,0.1-0.6,0.3c-0.1,0.2-0.7,1.1-0.7,1.3c0,0.1,0.1,0.2,0.2,0.2c0.1,0,0.3-0.1,0.4-0.1
			c0.7-0.3,1.6-0.6,2.4-0.6c1.4,0,2.2,0.6,2.5,1.9c0,0.2,0.1,0.4,0.3,0.4c0.3,0,2.2-1,2.5-1.2c0.2-0.1,0.4-0.2,0.6-0.2
			c0.4,0,0.9,1.7,0.9,2c0,0.3-0.2,0.3-0.6,0.5c-0.1,0-0.2,0.1-0.3,0.1c-0.9,0.3-1.7,0.7-2.5,1.1c-0.4,0.2-0.6,0.3-0.6,0.7v0.3
			c0,0.7,0,1.3,0,2c0,0.8-0.1,0.9-0.9,0.9c-0.9,0-1.3,0-1.3-0.6c0-0.5,0-0.9,0-1.4c0-0.2-0.1-0.4-0.3-0.4c-0.1,0-2.3,0.9-2.3,2.3
			c0,1.4,2.1,1.6,3.1,1.6c1.4,0,2.6-0.2,4-0.5c0.1,0,0.3,0,0.4,0c0.3,0,0.4,0.2,0.4,1.5c0,0.6,0,0.8-0.5,0.9
			c-0.8,0.2-3.2,0.3-4.1,0.3c-1.2,0-2.3-0.1-3.4-0.6c-1.3-0.6-2.2-1.6-2.2-3.1c0-1.9,1.6-3,3.1-3.9c0.4-0.3,0.9-0.5,1.3-0.7
			c0.2-0.1,0.4-0.2,0.4-0.5c0-0.2-0.1-0.5-0.1-0.6c-0.1-0.5-0.5-0.7-0.9-0.7c-1.2,0-3.2,1-4,1.9c-0.6,0.6-1.4,1.7-1.8,2.5
			c-0.1,0.1-0.2,0.2-0.3,0.2c-0.4,0-1.8-0.9-1.8-1.3c0-0.2,0.2-0.3,0.3-0.5c0.5-0.5,3.6-4.9,3.6-5.3c0-0.2-0.2-0.3-0.5-0.3
			c-0.3,0-0.8,0.1-1.5,0.1c-0.5,0-0.6-0.1-0.6-1.2c0-0.9,0.1-1,0.6-1c0.4,0,0.9,0,1.6,0h0.6c0.6,0,1.1,0,1.3-0.3
			c0.4-0.5,1-2.2,1.2-2.8c0-0.2,0.1-0.5,0.3-0.5C90.5,84.6,92.8,85.6,92.8,85.9z"/>
		<path class="st0" d="M107.2,95.9c0.3,0,0.3,0.2,0.4,0.4c0.5,2.3,2.3,2.6,4.3,2.6c2.1,0,4.4-0.2,6.5-0.8c0.1,0,0.2-0.1,0.3-0.1
			c0.4,0,0.4,0.4,0.4,0.7c0,0.2,0.1,0.9,0.1,1.1c0,0.4-0.1,0.6-0.5,0.8c-1.1,0.4-5.2,0.6-6.5,0.6c-2.2,0-4.7-0.3-6-2.3
			c-0.3-0.5-0.8-1.5-0.8-2.1C105.2,96.4,107.2,95.9,107.2,95.9z M108.6,87.8c1.3,0.4,2.7,0.5,4.1,0.5c1.2,0,2.3-0.1,3.5-0.3
			c0.1,0,0.2,0,0.3,0c0.5,0,0.5,0.8,0.5,1.7c0,0.5-0.1,0.7-0.5,0.7c-0.9,0.1-2.3,0.2-3.3,0.2c-1.4,0-4.4-0.1-5.7-0.6
			c-0.2-0.1-0.3-0.2-0.3-0.5c0-0.2,0.2-0.9,0.2-1.1c0.1-0.4,0.1-0.8,0.5-0.8C108.1,87.6,108.4,87.7,108.6,87.8z M120.5,88.7
			c0,0.3-0.8,1-1,1c-0.1,0-0.3-0.2-0.5-0.5c-0.4-0.5-0.9-0.9-1.3-1.4c-0.1-0.1-0.2-0.2-0.2-0.3c0-0.3,0.8-0.9,1-0.9
			C118.7,86.5,120.5,88.4,120.5,88.7z M122.5,87c0,0.3-0.8,1-1,1c-0.1,0-0.3-0.3-0.6-0.5c-0.4-0.5-0.8-0.9-1.3-1.4
			c-0.1-0.1-0.2-0.2-0.2-0.3c0-0.3,0.8-0.9,1.1-0.9C120.7,84.9,122.5,86.7,122.5,87z"/>
		<path class="st0" d="M137.8,89.1c0.2,0,0.8,0.2,1.1,0.3c0,0,0.1,0,0.1,0c0.3,0.1,0.7,0.2,0.7,0.4c0,0.2-0.2,0.2-0.3,0.2
			c-0.1,0-0.2,0.1-0.3,0.2c-0.1,0.3-0.2,0.5-0.3,0.8c0,0.1,0,0.1,0,0.2c0,0.3,0.3,0.3,0.4,0.3h0.6c0.8,0,1.6,0,2.4,0
			c0.5,0,0.5,0.2,0.5,0.9c0,0.7,0,0.9-0.5,0.9c-0.8,0-1.6,0-2.4,0h-0.5c-0.3,0-0.5,0.2-0.5,0.5v0.3c0,0.4,0.2,0.5,0.5,0.5h0.2
			c0.7,0,1.4,0,2.2,0c0.5,0,0.5,0.2,0.5,0.9c0,0.7,0,0.9-0.5,0.9c-0.7,0-1.4,0-2.2,0h-0.1c-0.4,0-0.6,0.2-0.6,0.6v0.2
			c0,0.4,0.2,0.6,0.6,0.6c0.8,0,1.5-0.1,2.3-0.1c0.5,0,0.5,0.2,0.5,0.9c0,0.7,0,0.9-0.5,0.9c-0.8,0-1.5-0.1-2.3,0
			c-0.4,0-0.6,0.2-0.6,0.6v0.4c0,0.4,0.2,0.6,0.6,0.6h0.8c0.7,0,1.5,0,2.2,0c0.5,0,0.5,0.2,0.5,0.9c0,0.6,0,0.9-0.4,0.9
			c-0.8,0-1.5,0-2.2,0h-5.2c-0.3,0-0.5,0.2-0.5,0.5c0,0.7-0.2,0.7-1.1,0.7s-1.1,0-1.1-0.7c0-0.8,0-1.7,0-2.6v-5.1
			c0-0.1,0-0.3-0.2-0.3c-0.1,0-0.1,0-0.2,0.1l-0.1,0.1c-0.2,0.2-0.4,0.5-0.6,0.5c-0.3,0-0.6-0.4-0.9-0.6c0,0-0.1-0.1-0.2-0.1
			c-0.1,0-0.2,0.1-0.2,0.2v3.6c0,0.6,0,1.2,0,1.8c0,0.5-0.2,0.5-0.9,0.5c-0.6,0-0.9,0-0.9-0.5c0-0.1,0-0.2,0-0.2
			c0-0.3-0.2-0.5-0.5-0.5h-0.5c-0.4,0-0.6,0.2-0.6,0.6c0,0.3,0,0.6,0,0.9c0,0.5-0.2,0.6-0.9,0.6c-0.7,0-0.9,0-0.9-0.5
			c0-0.6,0-1.2,0-1.8v-2.8c0-0.1,0-0.1-0.1-0.1c0,0-0.1,0-0.1,0c-0.1,0.2-0.2,0.4-0.4,0.4c-0.3,0-1.3-1-1.3-1.4
			c0-0.1,0.1-0.3,0.2-0.4c0.8-1.2,1.5-2.8,1.9-4.1c0.4-1.3,0.5-2,0.7-3.3v-0.1c0-0.3-0.2-0.4-0.5-0.5c-0.2,0-1.1,0-1.2,0
			c-0.5,0-0.5-0.3-0.5-1.1c0-0.8,0-1.1,0.5-1.1c0.5,0,1.1,0,1.8,0h2.4c0.6,0,1.3,0,1.8,0c0.5,0,0.5,0.3,0.5,1.1c0,0.8,0,1.1-0.5,1.1
			c-0.5,0-1.1-0.1-1.6,0c-0.4,0-0.6,0.1-0.7,0.5c-0.2,0.9-0.3,1.8-0.5,2.7c0,0,0,0.1,0,0.2c0,0.3,0.2,0.4,0.5,0.4h0.4
			c0.4,0,0.7,0,0.9,0c0.6,0,0.9,0.2,0.9,0.9c0,0.5,0,1.1,0,1.6c0,0.1,0.1,0.2,0.2,0.2c0.1,0,0.1,0,0.2-0.1c1.8-1.7,2.7-3.1,3.8-5.3
			c0-0.1,0.1-0.1,0.1-0.2c0-0.2-0.2-0.3-0.4-0.3h-0.4c-0.4,0-0.6,0.2-0.6,0.6c0,0.3,0,0.6,0,0.9c0,0.6-0.4,0.5-0.9,0.5
			c-0.7,0-1,0-1-0.5c0-0.3,0-0.7,0-1v-0.3c0-0.4,0-0.7,0-1c0-0.8,0.5-0.9,1.3-0.9c0.4,0,0.9,0,1.4,0h0.9c0.5,0,0.6-0.1,0.8-0.5
			c0.2-0.4,0.3-0.8,0.4-1.2c0-0.2,0.1-0.3,0.3-0.3c0.2,0,1.1,0.2,1.3,0.3c0.5,0.1,0.9,0.2,0.9,0.4c0,0.2-0.2,0.2-0.3,0.3
			c-0.3,0.1-0.3,0.3-0.4,0.5c0,0.1,0,0.1,0,0.2c0,0.3,0.3,0.3,0.4,0.4h1.4c0.6,0,1,0,1.4,0c0.8,0,1.3,0.1,1.3,0.9c0,0.3,0,0.7,0,1
			v0.4c0,0.3,0,0.7,0,1c0,0.6-0.3,0.5-1,0.5c-0.6,0-0.9,0-0.9-0.5c0-0.2,0-0.7,0-0.9c0-0.4-0.2-0.6-0.6-0.6h-2.5
			c-0.5,0-0.6,0.1-0.8,0.5c-0.4,0.8-0.8,1.5-1.2,2.2c0,0.1-0.1,0.1-0.1,0.2c0,0.2,0.2,0.3,0.3,0.3h0.4c0.4,0,0.6-0.1,0.8-0.5
			c0.2-0.6,0.4-1.1,0.6-1.7C137.6,89.2,137.6,89.1,137.8,89.1z M127.9,98.4c0.4,0,0.6-0.2,0.6-0.6v-3.6c0-0.4-0.2-0.6-0.6-0.6h-0.5
			c-0.4,0-0.6,0.2-0.6,0.6v3.6c0,0.4,0.2,0.6,0.6,0.6H127.9z M135.1,93.3c-0.3,0-0.5,0.2-0.5,0.5v0.3c0,0.3,0.2,0.5,0.5,0.5h1.3
			c0.3,0,0.5-0.2,0.5-0.5v-0.3c0-0.3-0.2-0.5-0.5-0.5H135.1z M136.3,97.8c0.4,0,0.6-0.2,0.6-0.6V97c0-0.4-0.2-0.6-0.6-0.6h-1.1
			c-0.4,0-0.6,0.2-0.6,0.6v0.2c0,0.4,0.2,0.6,0.6,0.6H136.3z M135.2,99.5c-0.4,0-0.6,0.2-0.6,0.6v0.4c0,0.4,0.2,0.6,0.6,0.6h1.1
			c0.4,0,0.6-0.2,0.6-0.6v-0.4c0-0.4-0.2-0.6-0.6-0.6H135.2z"/>
		<path class="st0" d="M147,89.9c-0.6,0-1.2,0-1.7,0c-0.5,0-0.5-0.3-0.5-0.9c0-0.6,0-0.9,0.5-0.9c0.6,0,1.1,0,1.7,0h2.8
			c0.6,0,1.1,0,1.7,0c0.5,0,0.5,0.3,0.5,0.9c0,0.6,0,0.9-0.5,0.9c-0.6,0-1.1,0-1.7,0H147z M149.2,102.8H148c-0.3,0-0.4,0.1-0.4,0.4
			v0.2c0,0.5-0.2,0.5-1,0.5c-0.8,0-1,0-1-0.5c0-0.5,0-1.1,0-1.6v-2.5c0-0.5,0-0.9,0-1.3c0-0.8,0.3-1,1.1-1c0.4,0,0.8,0,1.1,0h1.4
			c0.4,0,0.8,0,1.1,0c0.8,0,1.1,0.3,1.1,1.1c0,0.4,0,0.9,0,1.3v2.5c0,0.5,0,1.1,0,1.6c0,0.5-0.2,0.5-1,0.5c-0.9,0-1,0-0.9-0.7
			C149.6,102.9,149.4,102.8,149.2,102.8z M148,92.8c-0.5,0-1.1,0-1.6,0c-0.5,0-0.5-0.4-0.5-0.9c0-0.5,0-0.9,0.5-0.9
			c0.6,0,1.1,0,1.6,0h1.3c0.7,0,1.2,0,1.5,0c0.6,0,0.6,0.1,0.6,0.9c0,0.6,0,0.9-0.5,0.9c-0.5,0-1.1,0-1.6,0H148z M148,95.7
			c-0.5,0-1.1,0-1.6,0c-0.5,0-0.5-0.3-0.5-0.9c0-0.5,0-0.9,0.5-0.9c0.6,0,1.1,0,1.6,0h1.3c0.5,0,1.1,0,1.6,0c0.5,0,0.5,0.3,0.5,0.9
			c0,0.6,0,0.9-0.5,0.9c-0.5,0-1.1,0-1.6,0H148z M147.7,86.9c-0.5,0-1.1,0-1.4,0c-0.5,0-0.4-0.3-0.4-0.9c0-0.5,0-0.9,0.4-0.9
			c0.5,0,0.9,0,1.4,0h1.8c0.5,0,0.9,0,1.4,0c0.4,0,0.4,0.3,0.4,0.9c0,0.6,0,0.9-0.5,0.9c-0.4,0-0.9,0-1.4,0H147.7z M149,101.1
			c0.4,0,0.6-0.2,0.6-0.6v-1.3c0-0.4-0.2-0.6-0.6-0.6h-0.8c-0.4,0-0.6,0.2-0.6,0.6v1.3c0,0.4,0.2,0.6,0.6,0.6H149z M154.5,98.3
			c-0.2,0.1-0.2,0.2-0.3,0.4c-0.1,0.9-0.4,2.6-0.6,3.5c-0.1,0.3-0.2,0.5-0.5,0.5c-0.3,0-0.8-0.2-1.1-0.3c-0.2-0.1-0.3-0.2-0.3-0.4
			c0-0.1,0-0.2,0.1-0.3c0.4-1.3,0.6-2.7,0.7-3.7c0-0.4,0-0.5,0.3-0.5c0.2,0,1,0.1,1.2,0.2c0.2,0,0.7,0.1,0.7,0.4
			C154.7,98.2,154.6,98.2,154.5,98.3z M154.7,91.2c0-0.2-0.2-0.3-0.3-0.4c-0.2-0.1-0.3-0.2-0.5-0.3c-0.7-0.3-0.9-0.5-0.9-0.7
			c0-0.2,0.6-1.4,1-1.4c0.2,0,1,0.5,1.3,0.6c0.1,0,0.2,0.1,0.3,0.1c0.2,0,0.3-0.2,0.4-0.4c0.1-0.3,0.1-0.5,0.2-0.8v-0.1
			c0-0.3-0.3-0.4-0.5-0.4h-0.3c-0.7,0-1.4,0-2,0c-0.5,0-0.5-0.2-0.5-1c0-0.8,0-1,0.5-1c0.7,0,1.3,0,2,0h5c0.6,0,1.3,0,2,0
			c1,0,1.3,0.4,1.3,1.4c0,1.6-0.3,5.2-0.8,6.6c-0.5,1.4-1.7,1.6-3,1.6c-0.7,0-1.3,0-1.3-1.4v-0.2c0-0.2-0.1-0.2-0.3-0.3
			c-0.2,0-0.6-0.3-0.8-0.5c-0.2-0.1-0.3-0.2-0.5-0.2c-0.2,0-0.3,0.1-0.4,0.3c-0.7,1-1.5,1.7-2.5,2.5c-0.2,0.1-0.5,0.3-0.7,0.3
			c-0.5,0-1.3-1.1-1.3-1.3c0-0.2,0.4-0.4,0.6-0.5c0.8-0.5,1.6-1.3,2.1-2C154.6,91.4,154.7,91.3,154.7,91.2z M157.1,98.5v2.1
			c0,0.8,0.2,0.8,0.7,0.8h0.8c0.5,0,0.6-0.1,0.8-1.4c0-0.3,0-0.5,0.4-0.5c0.3,0,0.9,0.1,1.1,0.2c0.3,0.1,0.5,0.2,0.5,0.6
			c0,0.6-0.3,1.9-0.6,2.4c-0.5,0.7-1.2,0.8-1.9,0.8h-1.7c-1.5,0-2.2-0.3-2.2-1.8c0-0.4,0-0.8,0-1.1v-2c0-0.5,0-1-0.1-1.4
			c0-0.1,0-0.2,0-0.2c0-0.2,0.2-0.2,0.4-0.2c0.3,0,1.2,0.1,1.5,0.1c0.1,0,0.2,0,0.2-0.2s-0.1-0.2-0.2-0.3c-0.3-0.2-0.5-0.4-0.5-0.6
			c0-0.3,0.9-1.1,1.2-1.1c0.3,0,1.1,0.8,1.3,1.1s1.2,1.2,1.2,1.4c0,0.4-0.9,1.1-1.2,1.1c-0.2,0-0.3-0.2-0.4-0.3
			c-0.2-0.3-0.5-0.6-0.7-0.8c0,0,0,0-0.1,0c-0.1,0-0.1,0-0.2,0.1C157.1,97.4,157.1,97.5,157.1,98.5z M158.8,92.4
			c0,0.2,0.1,0.3,0.3,0.3c0.2,0,0.3,0,0.5,0c0.7,0,1-0.1,1.2-0.9c0.2-0.8,0.4-3.2,0.4-4c0-0.5-0.2-0.6-0.8-0.6h-1.7
			c-0.4,0-0.6,0.1-0.7,0.6c-0.1,0.6-0.2,1.3-0.4,1.9c0,0.1,0,0.2,0,0.3c0,0.3,0.2,0.4,0.4,0.6c0.3,0.2,1.1,0.6,1.1,0.9
			c0,0.2-0.1,0.4-0.2,0.6C158.9,92.2,158.8,92.3,158.8,92.4z M162.7,102.1c-0.3,0-0.4-0.3-0.5-0.5c-0.4-1-1-2.5-1.5-3.5
			c-0.1-0.1-0.2-0.3-0.2-0.5c0-0.4,1.2-0.8,1.4-0.8c0.2,0,0.3,0.2,0.4,0.4c0.4,0.7,0.7,1.4,1.1,2.2c0.3,0.6,0.7,1.6,0.7,1.8
			C164.2,101.6,163,102.1,162.7,102.1z"/>
		<path class="st0" d="M179.6,87.8c0,0.2-0.3,0.2-0.5,0.2c-0.2,0-0.4,0.1-0.6,0.3c-0.5,0.4-1.1,0.8-1.6,1.2c-1.2,1-2.4,2-3.6,3.1
			c-0.4,0.4-0.9,0.8-0.9,1.2c0,0.5,0.7,1.3,1.1,1.7c1.2,1.3,2.6,2.5,3.9,3.7c0.4,0.3,1.9,1.5,1.9,2c0,0.5-1.3,1.7-1.8,1.7
			c-0.2,0-0.5-0.4-0.7-0.6c-0.8-1-1.7-1.9-2.6-2.8c-1.2-1.2-2.4-2.3-3.4-3.6c-0.6-0.7-1-1.3-1-2.3c0-0.5,0.2-1.1,0.5-1.5
			c0.5-0.7,2-1.9,2.8-2.5c1.3-1.1,3-2.5,4-3.8c0.1-0.1,0.2-0.3,0.3-0.3c0.3,0,0.9,0.7,1.1,1C178.8,86.8,179.6,87.6,179.6,87.8z"/>
		<path class="st0" d="M196.6,85.2c0.2,0.1,0.8,0.2,0.8,0.5c0,0.1-0.1,0.2-0.2,0.2c-0.3,0.2-0.3,0.3-0.5,0.8
			c-0.1,0.2-0.5,1.8-0.5,1.9c0,0.2,0.2,0.3,0.3,0.3c0.4,0,2.1-0.6,2.5-0.8c0.2-0.1,0.3-0.1,0.5-0.1c0.4,0,0.4,1.3,0.4,1.6
			c0,0.4,0,0.7-0.4,0.8c-1.1,0.3-2.4,0.6-3.5,0.8c-0.6,0.1-0.7,0.2-0.9,0.8c-1,2.9-2.6,6.8-4,9.5c-0.3,0.5-0.5,0.8-0.8,0.8
			c-0.3,0-1.8-0.7-1.8-1.2c0-0.2,0.2-0.5,0.4-0.7c1.4-1.9,3-5.7,3.8-8c0-0.1,0.2-0.5,0.2-0.6c0-0.2-0.2-0.3-0.4-0.3
			c-0.3,0-1.3,0.1-1.9,0.1c-0.4,0-0.8,0-0.9-0.4c-0.1-0.3-0.2-1.3-0.2-1.6c0-0.2,0.1-0.4,0.3-0.4c0.2,0,1.1,0.1,2,0.1
			c1.4,0,1.7,0,1.9-0.3c0.3-0.4,0.8-3.3,0.8-3.9c0-0.3,0-0.5,0.2-0.5C194.9,84.7,196.4,85.1,196.6,85.2z M196.3,99.1
			c0.9,1.1,2.6,1.3,3.9,1.3c1.1,0,2-0.1,3.1-0.4c0.1,0,0.2,0,0.2,0c0.4,0,0.4,0.5,0.4,1.4c0,0.4,0,0.9-0.2,1.1
			c-0.4,0.2-2.8,0.3-3.4,0.3c-1.4,0-3.4-0.2-4.6-1c-0.3-0.2-1.1-0.8-1.1-1.2c0-0.3,1-1.6,1.3-1.6C196.1,98.8,196.3,99,196.3,99.1z
			 M199,92.2c1.1,0,3.3,0.2,4.3,0.6c0.2,0.1,0.3,0.2,0.3,0.4c0,0.3-0.3,1.2-0.4,1.5c-0.1,0.2-0.2,0.3-0.4,0.3
			c-0.2,0-0.3-0.1-0.5-0.1c-1.1-0.4-2.3-0.5-3.4-0.5c-0.3,0-0.5,0-0.8,0c-0.4,0-0.5-0.1-0.5-0.5C197.6,92,198,92.2,199,92.2z
			 M203.4,88.6c0,0.3-0.8,0.9-1.1,0.9c-0.1,0-0.2-0.1-0.3-0.2c-0.5-0.6-0.9-1.2-1.5-1.7c-0.1-0.1-0.2-0.2-0.2-0.3
			c0-0.3,0.9-0.9,1.1-0.9C201.6,86.4,203.4,88.3,203.4,88.6z M205.6,87.2c0,0.3-0.8,1-1.1,1c-0.1,0-0.2-0.2-0.3-0.3
			c-0.5-0.6-0.9-1.2-1.5-1.7c-0.1-0.1-0.2-0.2-0.2-0.3c0-0.3,0.8-0.9,1.1-0.9C203.9,85,205.6,86.9,205.6,87.2z"/>
		<path class="st0" d="M217.2,85.6c0.5,0.8,0.9,1.7,1.3,2.5c0.1,0.2,0.3,0.4,0.6,0.4c0.4,0,1.9-0.9,2.4-1.2c0.2-0.1,0.4-0.3,0.6-0.3
			c0.4,0,1.4,1.3,1.4,1.7c0,0.2-0.4,0.4-0.6,0.6c-0.8,0.4-1.2,0.6-2,0.9c-0.3,0.1-0.7,0.2-0.7,0.6c0,0.3,0.2,0.6,0.4,0.8
			c0.9,1.7,1.9,3.4,3.1,4.7c0.2,0.2,0.3,0.4,0.3,0.6c0,0.5-1.1,1.4-1.5,1.4c-0.2,0-0.6-0.3-0.8-0.5c-1.1-0.7-3.3-1.8-5.1-1.8
			c-1.1,0-2.3,0.7-2.3,1.9c0,2.2,3.3,2.7,5,2.7c0.5,0,0.9,0,1.2,0c0.4,0,0.5,0.3,0.5,0.7c0,0.4-0.1,0.9-0.2,1.3
			c-0.1,0.3-0.3,0.4-0.7,0.4c-1.1,0-2.6-0.2-3.7-0.5c-2.2-0.6-4.3-1.9-4.3-4.4c0-2.6,2.1-4.1,4.6-4.1c1,0,1.8,0.3,2.7,0.6
			c0.1,0,0.2,0.1,0.2,0.1c0.1,0,0.2-0.1,0.2-0.2c0-0.1-0.1-0.2-0.1-0.3c-0.5-0.7-0.8-1.3-1.3-2.1c-0.2-0.3-0.3-0.8-0.8-0.8
			c-0.1,0-0.2,0-0.3,0.1c-1.1,0.3-4.1,0.8-5.1,0.8c-0.5,0-0.6-0.2-0.8-0.8c-0.1-0.3-0.3-0.8-0.3-1.1c0-0.3,0.2-0.4,0.5-0.4
			c1.4,0,3-0.2,4.3-0.5c0.2-0.1,0.5-0.1,0.5-0.4c0-0.3-1.3-2.3-1.6-2.6c-0.1-0.1-0.2-0.2-0.2-0.3c0-0.4,1.8-0.9,2.1-0.9
			C217,85.2,217.1,85.4,217.2,85.6z"/>
		<path class="st0" d="M233.7,88.9c0.2,0,0.5,0.1,0.5,0.3c0,0.1-0.1,0.2-0.2,0.3c-0.3,0.2-0.3,0.7-0.4,1c-0.1,0.8-0.2,1.5-0.2,2.3
			c0,1.4,0.1,3.2,0.7,4.5c0.3,0.6,1,1.9,1.7,1.9c0.6,0,1.2-0.9,1.5-1.4c0.1-0.2,0.3-0.5,0.6-0.5c0.5,0,1.6,0.9,1.6,1.3
			c0,0.4-1,1.5-1.3,1.9c-0.6,0.7-1.3,1.4-2.3,1.4c-1.6,0-2.8-1.4-3.6-2.8c-1.1-2-1.3-4.7-1.3-7c0-0.3,0.1-3.1,0.1-3.3
			c0-0.2,0.2-0.2,0.3-0.2C231.8,88.5,233.4,88.9,233.7,88.9z M242.5,88.5c0.5,0,2.3,1.4,3.3,3.3c0.6,1.1,1.3,3.2,1.3,4.5
			c0,0.4-0.2,0.5-0.6,0.6c-0.3,0.1-0.8,0.2-1.2,0.2c-0.7,0-0.7-0.3-0.7-0.8c-0.3-2.5-1.1-4.6-3.2-6.1c-0.1-0.1-0.2-0.2-0.2-0.3
			C241.2,89.4,242.1,88.5,242.5,88.5z"/>
		<path class="st0" d="M256.4,100.2c0,1.6-1.3,3-3,3c-1.6,0-3-1.4-3-3c0-1.7,1.3-3,3-3S256.4,98.5,256.4,100.2z M251.5,100.2
			c0,1.1,0.9,1.9,1.9,1.9c1.1,0,1.9-0.9,1.9-1.9c0-1.1-0.8-1.9-1.9-1.9C252.4,98.2,251.5,99.1,251.5,100.2z"/>
	</g>
</g>
<path class="st0" d="M274.2,128.9H0.8c-0.4,0-0.8-0.3-0.8-0.8s0.3-0.8,0.8-0.8h273.4c0.4,0,0.8,0.3,0.8,0.8S274.6,128.9,274.2,128.9
	z"/>
</svg>
