<?xml version="1.0" encoding="utf-8"?>
<!-- Generator: Adobe Illustrator 25.4.1, SVG Export Plug-In . SVG Version: 6.00 Build 0)  -->
<svg version="1.1" id="レイヤー_1" xmlns="http://www.w3.org/2000/svg" xmlns:xlink="http://www.w3.org/1999/xlink" x="0px"
	 y="0px" viewBox="0 0 93 39" style="enable-background:new 0 0 93 39;" xml:space="preserve">
<style type="text/css">
	.st0{fill:#FFFFFF;}
</style>
<path class="st0" d="M90.7,37.4H2.3c-0.7,0-1.4-0.4-1.7-1.1c-0.3-0.7-0.1-1.4,0.4-2l12-12c0.7-0.7,1.8-0.7,2.5,0
	c0.7,0.7,0.7,1.8,0,2.5l-8.9,8.9h84.2c1,0,1.8,0.8,1.8,1.8S91.7,37.4,90.7,37.4z"/>
<g>
	<g>
		<path class="st0" d="M31.7,17.3c0,1.8,0.1,5.1,0.1,5.3c0,0.6-0.2,0.8-0.9,0.8h-1.9c-0.7,0-0.9-0.1-0.9-0.8c0-0.2,0.1-3.6,0.1-5.3
			V6c0-0.8-0.2-0.9-0.9-0.9h-0.9c-1.3,0-3.9,0.1-4.1,0.1c-0.6,0-0.8-0.2-0.8-0.9V2.6c0-0.7,0.1-0.9,0.8-0.9c0.2,0,3,0.1,4.4,0.1h6.7
			c1.4,0,4.2-0.1,4.4-0.1c0.6,0,0.8,0.2,0.8,0.9v1.7c0,0.7-0.1,0.9-0.8,0.9c-0.2,0-2.8-0.1-4.1-0.1h-1c-0.8,0-0.9,0.2-0.9,0.9V17.3z
			"/>
		<path class="st0" d="M61.6,12.3c0,7.2-5.1,11.3-11,11.3c-6.6,0-10.4-5.1-10.4-10.8c0-6.7,4.5-11.1,10.9-11.1
			C57.8,1.6,61.6,6.6,61.6,12.3z M43.9,12.8c0,4.1,2.5,7.4,6.9,7.4c4,0,7.2-2.9,7.2-7.7c0-4.1-2.5-7.4-6.9-7.4
			C46.7,5.1,43.9,8.4,43.9,12.8z"/>
		<path class="st0" d="M65.5,23.4c-0.7,0-0.9-0.1-0.9-0.8c0-0.2,0.1-3.6,0.1-5.3V7.8c0-1.5,0-3.4-0.1-5.1c0-0.7,0.2-1,0.9-1
			c0.2,0,2.6,0.1,4.1,0.1h3.1c4.3,0,7,2,7,6.3c0,4.4-2.5,7.6-8.1,7.6h-2.4c-0.8,0-0.9,0.2-0.9,0.9v0.7c0,1.8,0.1,5.1,0.1,5.3
			c0,0.6-0.2,0.8-0.9,0.8H65.5z M68.2,11.7c0,0.8,0.2,0.9,0.9,0.9h2.4c2.5,0,4.5-1.2,4.5-4.2c0-2.7-1.7-3.5-4-3.5h-2.9
			c-0.8,0-0.9,0.2-0.9,0.9V11.7z"/>
	</g>
</g>
</svg>
