<?xml version="1.0" encoding="utf-8"?>
<!-- Generator: Adobe Illustrator 25.4.1, SVG Export Plug-In . SVG Version: 6.00 Build 0)  -->
<svg version="1.1" id="レイヤー_1" xmlns="http://www.w3.org/2000/svg" xmlns:xlink="http://www.w3.org/1999/xlink" x="0px"
	 y="0px" viewBox="0 0 52 52" style="enable-background:new 0 0 52 52;" xml:space="preserve">
<style type="text/css">
	.st0{fill:#FFFFFF;}
	.st1{fill:#5F8AFF;}
</style>
<circle class="st0" cx="26.1" cy="26" r="25.7"/>
<g>
	<path class="st1" d="M21.4,32.5c-0.5,0-0.8,0.2-1,0.7c-0.2,0.6-0.5,1.3-1,2.8c-0.3,0.8-0.5,1-1.4,1h-4.3c-0.5,0-0.8-0.1-0.8-0.3
		c0-0.1,0.1-0.3,0.2-0.6c1.3-2.8,1.9-4.3,2.5-5.7l5-11.7c0.6-1.6,1.5-3.4,2.3-5.7c0.3-0.8,0.5-1,1.4-1h2.7c0.9,0,1.1,0.1,1.4,1
		c0.9,2.3,1.7,4.2,2.3,5.6l5,11.7c0.6,1.5,1.3,3,2.6,5.8c0.1,0.3,0.2,0.4,0.2,0.6c0,0.3-0.2,0.3-0.8,0.3h-4.6c-0.9,0-1.1-0.1-1.4-1
		c-0.5-1.5-0.8-2.2-1-2.8c-0.2-0.6-0.4-0.7-1-0.7H21.4z M22.9,26.9c-0.1,0.2-0.1,0.4-0.1,0.6c0,0.3,0.2,0.4,0.8,0.4h4.1
		c0.5,0,0.8-0.1,0.8-0.4c0-0.1,0-0.3-0.1-0.6L26,21.1c-0.1-0.3-0.2-0.4-0.4-0.4s-0.3,0.1-0.4,0.4L22.9,26.9z"/>
</g>
</svg>
