<?xml version="1.0" encoding="utf-8"?>
<!-- Generator: Adobe Illustrator 25.4.1, SVG Export Plug-In . SVG Version: 6.00 Build 0)  -->
<svg version="1.1" id="レイヤー_1" xmlns="http://www.w3.org/2000/svg" xmlns:xlink="http://www.w3.org/1999/xlink" x="0px"
	 y="0px" viewBox="0 0 48 39" style="enable-background:new 0 0 48 39;" xml:space="preserve">
<style type="text/css">
	.st0{fill:#FFFFFF;}
</style>
<g>
	<path class="st0" d="M47.8,4.8c-1.7,0.8-3.6,1.3-5.6,1.5c2-1.2,3.6-3.1,4.3-5.4c-1.9,1.1-4,1.9-6.2,2.4c-1.8-1.9-4.3-3.1-7.1-3.1
		c-5.4,0-9.8,4.4-9.8,9.7c0,0.8,0.1,1.5,0.3,2.2C15.5,11.8,8.4,7.9,3.5,2C2.7,3.4,2.2,5.1,2.2,6.9c0,3.4,1.7,6.4,4.3,8.1
		c-1.6-0.1-3.1-0.5-4.4-1.2c0,0,0,0.1,0,0.1c0,4.7,3.4,8.7,7.8,9.6c-0.8,0.2-1.7,0.3-2.6,0.3c-0.6,0-1.2-0.1-1.8-0.2
		c1.2,3.9,4.8,6.7,9.1,6.8c-3.3,2.6-7.5,4.2-12.1,4.2c-0.8,0-1.6,0-2.3-0.1c4.3,2.8,9.4,4.4,14.9,4.4c17.9,0,27.7-14.9,27.7-27.7
		c0-0.4,0-0.8,0-1.3C44.8,8.4,46.5,6.7,47.8,4.8z"/>
</g>
</svg>
