<?xml version="1.0" encoding="utf-8"?>
<!-- Generator: Adobe Illustrator 25.4.1, SVG Export Plug-In . SVG Version: 6.00 Build 0)  -->
<svg version="1.1" id="レイヤー_1" xmlns="http://www.w3.org/2000/svg" xmlns:xlink="http://www.w3.org/1999/xlink" x="0px"
	 y="0px" viewBox="0 0 52 52" style="enable-background:new 0 0 52 52;" xml:space="preserve">
<style type="text/css">
	.st0{fill:#5F8AFF;}
	.st1{fill:#FFFFFF;}
</style>
<circle class="st0" cx="26.1" cy="25.9" r="25.7"/>
<g>
	<g>
		<path class="st1" d="M40.6,42c0,0.9-0.2,1.1-1,1.1c-0.4,0-0.9,0-1.3,0c-6.8,0-11.1-2.4-13.7-5.4c-0.6-0.6-0.8-0.8-1.7-0.9
			c-6.5-1.2-9.6-7-9.6-12.3c0-8.1,5.6-12.8,12.8-12.8c8.4,0,12.2,6.6,12.2,12.5c0,5.6-2.9,9.6-6.9,11.5c-0.4,0.2-0.5,0.3-0.5,0.4
			c0,0.2,0.2,0.3,0.5,0.5c1.6,1,3.9,1.6,6.6,1.6c0.7,0,1.6-0.1,1.9-0.1c0.6,0,0.7,0.2,0.7,0.9V42z M19.2,24.6c0,3.4,1.8,7.2,6.5,7.2
			c3.7,0,6.7-2.8,6.7-7.2c0-3.4-1.9-7.2-6.5-7.2C21.9,17.4,19.2,20.3,19.2,24.6z"/>
	</g>
</g>
</svg>
