<?xml version="1.0" encoding="utf-8"?>
<!-- Generator: Adobe Illustrator 25.4.1, SVG Export Plug-In . SVG Version: 6.00 Build 0)  -->
<svg version="1.1" id="レイヤー_1" xmlns="http://www.w3.org/2000/svg" xmlns:xlink="http://www.w3.org/1999/xlink" x="0px"
	 y="0px" viewBox="0 0 9 49" style="enable-background:new 0 0 9 49;" xml:space="preserve">
<style type="text/css">
	.st0{fill:#FFFFFF;}
</style>
<g>
	<g>
		<path class="st0" d="M6.3,4.8c1-0.1,1.3-0.8,1.3-1.6c0-0.7-0.4-1.4-1.1-1.4c-0.6,0-0.9,0.4-1.1,1.2C5.4,3.4,5.2,3.7,5.2,4
			C4.9,5.2,4.3,6.3,2.7,6.3c-1.6,0-2.4-1.4-2.4-2.8C0.4,2,1,0.4,3.1,0.3v1.4C1.8,1.7,1.5,2.6,1.5,3.5c0,0.6,0.4,1.5,1.3,1.5
			c1,0,1.3-1,1.6-2.4c0.3-1,0.8-2,2-2c1.4,0,2.3,1.2,2.3,2.7c0,1.6-1,2.8-2.4,2.8V4.8z"/>
		<path class="st0" d="M5.9,14.2c1.1-0.2,1.6-1.1,1.6-2c0-1.6-1.5-2.5-3-2.5c-1.6,0-2.9,0.8-2.9,2.5c0,0.7,0.2,1.8,1.7,2.1v1.4
			c-0.8-0.2-2.8-0.7-2.8-3.5c0-2.5,1.8-3.8,4-3.8c2.1,0,4.2,1.3,4.2,3.8c0,1.6-0.9,3.2-2.8,3.4V14.2z"/>
		<path class="st0" d="M8.5,20.6c0,1.5-0.4,3-2.2,3c-0.9,0-1.7-0.5-2.1-1.5C3.9,22.4,3.5,22.7,3,23c-0.8,0.5-1.8,1-2.5,1.5V23
			c0.4-0.3,1.1-0.7,1.8-1c0.7-0.4,1.4-0.8,1.6-1.1v-1.7H0.5v-1.3h8V20.6z M7.4,19.1H5v1.5c0,0.8,0.4,1.6,1.3,1.6
			c0.8,0,1.2-0.5,1.2-1.8V19.1z"/>
		<path class="st0" d="M4.5,33.6c-2.2,0-4.2-1.2-4.2-3.8s2-3.8,4.2-3.8c2.4,0,4.1,1.5,4.1,3.8C8.6,32.1,6.9,33.6,4.5,33.6z
			 M4.6,27.3c-1.7,0-3.1,0.8-3.1,2.5c0,1.6,1.4,2.5,3.1,2.5c1.4,0,3-0.7,3-2.5C7.5,28.1,6,27.3,4.6,27.3z"/>
		<path class="st0" d="M1.6,37.3v4H0.5V36h8v1.3H1.6z"/>
		<path class="st0" d="M1.6,44.7v4H0.5v-5.3h8v1.3H1.6z"/>
	</g>
</g>
</svg>
