<?xml version="1.0" encoding="utf-8"?>
<!-- Generator: Adobe Illustrator 25.4.1, SVG Export Plug-In . SVG Version: 6.00 Build 0)  -->
<svg version="1.1" id="レイヤー_1" xmlns="http://www.w3.org/2000/svg" xmlns:xlink="http://www.w3.org/1999/xlink" x="0px"
	 y="0px" viewBox="0 0 162 42" style="enable-background:new 0 0 162 42;" xml:space="preserve">
<style type="text/css">
	.st0{fill:#FFFFFF;}
</style>
<g>
	<path class="st0" d="M5,35.4c-0.3,0.3-0.4,0.3-0.3,0.7c0.2,0.5,0.3,1,0.6,1.8c0.1,0.4,0.1,0.5-0.2,0.7l-0.8,0.7
		c-0.2,0.2-0.3,0.2-0.4,0.1c0,0-0.1-0.1-0.1-0.3c-0.3-1.1-0.6-1.9-0.8-2.7l-1.7-5.3c-0.2-0.7-0.4-1.4-0.7-2.3
		c-0.1-0.4-0.1-0.5,0.2-0.7l0.5-0.4c0.3-0.3,0.4-0.3,0.7-0.1c0.8,0.4,1.5,0.8,2.1,1.1l5,2.5c0.8,0.4,1.5,0.8,2.6,1.2
		c0.1,0.1,0.2,0.1,0.2,0.1c0.1,0.1,0,0.2-0.2,0.3l-0.9,0.8c-0.3,0.3-0.4,0.3-0.7,0.1c-0.7-0.4-1.2-0.7-1.6-0.9
		c-0.3-0.2-0.4-0.1-0.7,0.1L5,35.4z M4,33.8C4,33.9,4.1,34,4.1,34c0.1,0.1,0.2,0.1,0.4-0.1l2-1.7c0.2-0.2,0.2-0.3,0.2-0.4
		c0,0-0.1-0.1-0.2-0.2L3.1,30c-0.1-0.1-0.2-0.1-0.3-0.1c0,0,0,0.1,0,0.3L4,33.8z"/>
	<path class="st0" d="M13.6,22.1c1.6-1.1,3.4-0.6,4.6,1.2c1.7,2.5,0.6,4.9-1.2,6.1c-0.7,0.5-1.4,0.8-2.1,1c-0.4,0.1-0.5,0.1-0.7-0.2
		c-0.1-0.2-0.8-1.2-1.1-1.7l-3.3-4.9c-0.4-0.6-1.1-1.6-1.2-1.7c-0.2-0.3-0.1-0.4,0.2-0.6l0.7-0.5c0.3-0.2,0.4-0.2,0.6,0.1
		c0.1,0.1,0.7,1.2,1.1,1.7l0.7,1.1c0.1,0.2,0.2,0.2,0.3,0.2c0,0,0.1-0.1,0.1-0.2C12.6,23,13,22.5,13.6,22.1z M16.9,24.5
		c-0.8-1.1-1.9-1.3-2.8-0.7c-0.4,0.3-0.7,0.7-0.9,1.2c-0.1,0.3-0.1,0.5,0.1,0.8l1.8,2.6c0.2,0.3,0.3,0.3,0.7,0.2
		c0.2-0.1,0.4-0.2,0.6-0.3C17.4,27.4,17.9,25.9,16.9,24.5z"/>
	<path class="st0" d="M28.3,18c1.2,2.3,0.5,4.4-1.6,5.6c-1.9,1-4,0.5-5.1-1.6c-1.1-2.2-0.6-4.4,1.6-5.6C25.1,15.4,27.2,16,28.3,18z
		 M23.1,21.2c0.7,1.2,1.8,1.6,2.9,1.1c1.2-0.6,1.5-1.9,0.8-3.3c-0.7-1.3-1.9-1.6-2.9-1.1C22.6,18.6,22.5,19.9,23.1,21.2z"/>
	<path class="st0" d="M38.5,18.1c-0.3,0.1-0.4,0.1-0.6-0.2c-0.1-0.2-0.1-0.2-0.2-0.2c0,0-0.1,0.1-0.2,0.2c-0.4,0.6-0.9,1.1-1.7,1.4
		c-1.5,0.6-2.8,0-3.5-1.5l-1-2.6c-0.3-0.6-0.8-1.8-0.8-1.9c-0.1-0.3-0.1-0.4,0.3-0.5l0.8-0.3c0.3-0.1,0.4-0.1,0.6,0.2
		c0,0.1,0.5,1.3,0.7,1.9l0.9,2.2c0.3,0.9,1,1.3,2,0.9c0.4-0.2,0.8-0.5,1.1-1c0.2-0.3,0.2-0.5,0.1-0.8l-1-2.6
		c-0.3-0.6-0.8-1.8-0.8-1.9c-0.1-0.3-0.1-0.4,0.3-0.5l0.8-0.3c0.3-0.1,0.4-0.1,0.6,0.2c0,0.1,0.5,1.3,0.7,1.9l1.1,2.7
		c0.3,0.6,0.8,1.8,0.8,1.9c0.1,0.3,0.1,0.4-0.3,0.5L38.5,18.1z"/>
	<path class="st0" d="M47.3,14.6c0.1,0.4,0.1,0.5-0.3,0.6c-0.2,0.1-0.5,0.2-0.8,0.3c-1.8,0.5-2.7-0.1-3.1-1.6l-1-3.3
		c-0.1-0.3-0.2-0.4-0.4-0.3c-0.2,0.1-0.4,0.1-0.5,0.2c-0.4,0.1-0.5,0.1-0.6-0.3l-0.2-0.6c-0.1-0.4-0.1-0.5,0.3-0.6
		c0.1,0,0.4-0.1,0.5-0.1c0.2-0.1,0.3-0.1,0.2-0.4C41.3,8,41,7.2,41,7.1c-0.1-0.3,0-0.4,0.3-0.5l0.8-0.2c0.3-0.1,0.4-0.1,0.5,0.2
		c0,0.1,0.2,0.9,0.4,1.4c0.1,0.3,0.2,0.3,0.4,0.2l0.4-0.1c0.3-0.1,0.7-0.2,0.9-0.3c0.4-0.1,0.5-0.1,0.6,0.3l0.2,0.6
		c0.1,0.4,0.1,0.4-0.3,0.6c-0.1,0-0.6,0.2-0.9,0.3L44,9.6c-0.4,0.1-0.4,0.2-0.3,0.6l0.9,3c0.3,0.8,0.7,1,1.4,0.8
		c0.3-0.1,0.6-0.3,0.7-0.3c0.2-0.1,0.2,0,0.3,0.3L47.3,14.6z"/>
	<path class="st0" d="M62.2,8.9c0.3,1.9-0.9,3.3-3.2,3.7c-1.2,0.2-2.4,0.1-3.3-0.2c-0.2-0.1-0.3-0.1-0.3-0.3c0-0.1,0-0.2,0-0.3
		l0.2-0.8c0.1-0.2,0.1-0.3,0.2-0.3c0.1,0,0.2,0,0.3,0.1c0.8,0.4,1.8,0.5,2.7,0.3c1.1-0.2,1.8-0.8,1.6-1.7c-0.1-0.9-1.2-1.2-2.5-1.5
		c-1.6-0.4-3.2-0.8-3.5-2.6c-0.3-1.9,1-3.2,3.3-3.6c1-0.2,2-0.1,2.7,0.1c0.2,0.1,0.3,0.1,0.4,0.3c0,0.1,0,0.2,0,0.3l-0.2,0.9
		c-0.1,0.2-0.1,0.3-0.2,0.4c-0.1,0-0.2,0-0.3-0.1c-0.6-0.2-1.5-0.4-2.2-0.2c-1.2,0.2-1.7,0.8-1.6,1.5c0.1,0.8,1,1,2.3,1.4
		C60.2,6.6,61.9,7.1,62.2,8.9z"/>
	<path class="st0" d="M66.7,11.4c-0.3,0-0.4,0-0.5-0.3c0-0.1-0.1-1.8-0.1-2.7l-0.3-4.7C65.7,3,65.6,2,65.6,1.1
		c0-0.4,0.1-0.5,0.4-0.5c0.1,0,1.3-0.1,2-0.1l1.5-0.1c2.2-0.2,3.5,0.7,3.7,2.9c0.2,2.2-1,3.9-3.8,4.1l-1.2,0.1
		c-0.4,0-0.5,0.1-0.4,0.5l0,0.3c0.1,0.9,0.2,2.5,0.2,2.7c0,0.3-0.1,0.4-0.4,0.4L66.7,11.4z M67.7,5.5c0,0.4,0.1,0.5,0.5,0.4l1.2-0.1
		c1.3-0.1,2.2-0.8,2.1-2.3c-0.1-1.3-1-1.7-2.1-1.6l-1.5,0.1c-0.4,0-0.5,0.1-0.4,0.5L67.7,5.5z"/>
	<path class="st0" d="M79.9,8.4c-0.4,0-0.5,0-0.7,0.3c-0.2,0.5-0.4,1-0.7,1.7c-0.1,0.4-0.2,0.4-0.6,0.4l-1.1,0c-0.2,0-0.3,0-0.3-0.2
		c0-0.1,0-0.1,0.1-0.3c0.5-1.1,0.9-1.8,1.2-2.5l2.3-5.1c0.3-0.6,0.6-1.4,1-2.2c0.1-0.4,0.2-0.4,0.6-0.4l0.7,0c0.4,0,0.5,0.1,0.6,0.4
		c0.3,0.8,0.6,1.6,0.8,2.2l2,5.2c0.3,0.8,0.6,1.6,1.1,2.6C87,10.8,87,10.9,87,11c0,0.1-0.1,0.1-0.4,0.1l-1.2,0
		c-0.4,0-0.5-0.1-0.6-0.4c-0.2-0.7-0.4-1.3-0.6-1.8c-0.1-0.3-0.2-0.4-0.6-0.4L79.9,8.4z M80.3,6.5c0,0.1-0.1,0.2-0.1,0.3
		c0,0.1,0.1,0.2,0.3,0.2L83.2,7c0.2,0,0.4,0,0.4-0.2c0-0.1,0-0.2-0.1-0.3L82.2,3c-0.1-0.2-0.1-0.2-0.2-0.2c0,0-0.1,0.1-0.2,0.2
		L80.3,6.5z"/>
	<path class="st0" d="M97.9,11.9c0,0.1-0.1,0.2-0.4,0.3c-0.8,0.2-1.7,0.2-2.6,0.1c-3.1-0.4-4.8-2.8-4.4-5.9C91,3.2,93.3,0.9,97,1.5
		c0.8,0.1,1.5,0.3,2.1,0.7c0.2,0.1,0.3,0.2,0.3,0.3c0,0.1-0.1,0.2-0.1,0.3l-0.5,0.9c-0.1,0.2-0.2,0.3-0.3,0.3
		c-0.1,0-0.2-0.1-0.3-0.1c-0.4-0.3-1-0.5-1.6-0.6c-2.5-0.4-4,1.2-4.3,3.4c-0.3,2.1,0.8,3.8,3,4.1c0.6,0.1,1.3,0,1.8-0.1
		c0.1-0.1,0.3-0.1,0.3-0.1c0.1,0,0.2,0.1,0.2,0.4l0.2,0.8C97.9,11.7,97.9,11.8,97.9,11.9z"/>
	<path class="st0" d="M105.3,12.6c0.7,0.2,2.1,0.5,2.2,0.5c0.3,0.1,0.3,0.2,0.3,0.5l-0.2,0.8c-0.1,0.3-0.2,0.4-0.5,0.3
		c-0.1,0-1.4-0.4-2.1-0.6l-1.1-0.3c-0.7-0.2-1.9-0.4-2-0.4c-0.3-0.1-0.4-0.2-0.3-0.6c0.2-0.8,0.5-1.8,0.6-2.5l1.1-4.7
		c0.2-0.7,0.4-1.7,0.6-2.5c0.1-0.4,0.2-0.5,0.5-0.4c0.1,0,1.3,0.3,2,0.5l0.8,0.2c0.7,0.2,2.1,0.5,2.2,0.5c0.3,0.1,0.3,0.2,0.3,0.5
		l-0.2,0.8c-0.1,0.3-0.2,0.4-0.5,0.3c-0.1,0-1.4-0.4-2.1-0.6l-1.1-0.3c-0.4-0.1-0.5,0-0.6,0.3L104.8,7c-0.1,0.4,0,0.5,0.3,0.6
		l0.7,0.2c0.7,0.2,2.1,0.5,2.2,0.5c0.3,0.1,0.3,0.2,0.3,0.5l-0.2,0.7c-0.1,0.3-0.2,0.4-0.5,0.3c-0.1,0-1.4-0.4-2.1-0.6L104.8,9
		c-0.4-0.1-0.5,0-0.6,0.3l-0.6,2.4c-0.1,0.4,0,0.5,0.3,0.6L105.3,12.6z"/>
	<path class="st0" d="M118.9,15.2c-0.2,0.5-0.9,2.2-1.1,2.5c-0.1,0.4-0.2,0.4-0.6,0.2l-0.8-0.4c-0.3-0.1-0.4-0.2-0.3-0.5
		c0.1-0.2,0.8-1.7,1.3-2.7l1.8-4.2c0.3-0.7,0.9-2,1-2.3c0.1-0.4,0.2-0.4,0.6-0.2l0.5,0.2c0.4,0.1,0.4,0.2,0.5,0.6
		c0.2,0.7,0.4,1.4,0.5,2.1l0.9,3.2c0.1,0.2,0.1,0.3,0.2,0.3c0.1,0,0.2,0,0.4-0.1l2.9-1.6c0.6-0.3,1.3-0.7,1.9-1.1
		c0.3-0.2,0.5-0.2,0.8-0.1l0.5,0.2c0.4,0.1,0.4,0.2,0.2,0.6c-0.1,0.2-0.6,1.3-1,2.3l-1.7,4.2c-0.3,0.8-0.9,2.4-1,2.6
		c-0.2,0.4-0.2,0.4-0.6,0.3l-0.9-0.4c-0.4-0.1-0.4-0.2-0.2-0.6c0.2-0.4,0.8-1.7,1.1-2.5l1.5-3.6c0.1-0.1,0.1-0.2,0-0.3
		c-0.1,0-0.1,0-0.2,0l-4.3,2.3c-0.1,0.1-0.2,0.1-0.4,0c-0.1-0.1-0.2-0.2-0.2-0.3l-1.3-4.6c0-0.1-0.1-0.2-0.1-0.2
		c-0.1,0-0.1,0-0.2,0.2L118.9,15.2z"/>
	<path class="st0" d="M133.1,22.6c-0.3-0.2-0.4-0.2-0.7,0c-0.4,0.3-0.9,0.7-1.5,1.2c-0.3,0.2-0.4,0.3-0.7,0.1l-0.9-0.5
		c-0.2-0.1-0.3-0.2-0.2-0.3c0-0.1,0.1-0.1,0.2-0.2c0.9-0.7,1.6-1.2,2.3-1.6l4.5-3.3c0.6-0.4,1.2-0.9,1.9-1.4
		c0.3-0.2,0.4-0.3,0.7-0.1l0.6,0.3c0.3,0.2,0.4,0.3,0.3,0.7c-0.1,0.9-0.3,1.7-0.3,2.3l-0.7,5.6c-0.1,0.9-0.2,1.7-0.3,2.8
		c0,0.1,0,0.2-0.1,0.3c-0.1,0.1-0.2,0.1-0.4,0l-1-0.6c-0.3-0.2-0.4-0.3-0.3-0.7c0.1-0.8,0.2-1.3,0.3-1.9c0.1-0.4,0-0.4-0.4-0.6
		L133.1,22.6z M134.3,21.1c-0.1,0.1-0.2,0.1-0.2,0.2c-0.1,0.1,0,0.2,0.2,0.3l2.2,1.3c0.2,0.1,0.3,0.2,0.4,0c0-0.1,0.1-0.1,0.1-0.3
		l0.5-3.7c0-0.2,0-0.3,0-0.3c0,0-0.1,0-0.3,0.1L134.3,21.1z"/>
	<path class="st0" d="M143.9,29c-0.5,0.7-1.5,2.1-1.6,2.2c-0.2,0.3-0.3,0.2-0.6,0l-0.8-0.6c-0.3-0.2-0.3-0.3-0.1-0.6
		c0.1-0.1,1.1-1.4,1.7-2.1l2.8-3.7c0.5-0.7,1.5-2.1,1.6-2.2c0.2-0.3,0.3-0.2,0.6,0l0.8,0.6c0.3,0.2,0.3,0.3,0.1,0.6
		c-0.1,0.1-1.1,1.4-1.7,2.1l-0.8,1c-0.1,0.1-0.1,0.2-0.1,0.3c0,0,0.1,0,0.2,0l2.4-0.4c0.9-0.2,1.8-0.3,3-0.6c0.4-0.1,0.5,0,0.8,0.2
		l1.1,0.8c0.2,0.1,0.2,0.2,0.1,0.3c0,0-0.1,0.1-0.2,0.1c-1.7,0.3-2.7,0.4-3.8,0.6l-1,0.2c-0.2,0-0.3,0.1-0.4,0.2
		c-0.1,0.1-0.1,0.2-0.1,0.4l-0.3,3.1c-0.1,1-0.1,2.1-0.3,3.8c0,0.1,0,0.2-0.1,0.3c-0.1,0.1-0.2,0-0.3-0.1l-1-0.8
		c-0.3-0.2-0.4-0.3-0.3-0.7c0.2-1.3,0.3-2.2,0.3-3.2l0.2-2.1c0-0.2,0-0.3-0.1-0.4c-0.1-0.1-0.2-0.1-0.4,0l-1.4,0.2
		c-0.2,0-0.3,0.1-0.5,0.3L143.9,29z"/>
	<path class="st0" d="M153.5,39c0.5,0.5,1.6,1.4,1.6,1.5c0.2,0.2,0.2,0.3,0,0.6l-0.5,0.6c-0.2,0.3-0.3,0.3-0.6,0.1
		c-0.1-0.1-1.1-1-1.6-1.5l-0.9-0.8c-0.5-0.5-1.4-1.3-1.5-1.4c-0.2-0.2-0.2-0.4,0-0.6c0.6-0.6,1.3-1.3,1.8-1.8l3.3-3.5
		c0.5-0.5,1.2-1.3,1.7-1.9c0.3-0.3,0.4-0.3,0.6-0.1c0.1,0.1,0.9,0.9,1.5,1.4l0.6,0.6c0.5,0.5,1.5,1.4,1.6,1.5c0.2,0.2,0.2,0.3,0,0.6
		l-0.6,0.6c-0.2,0.3-0.3,0.3-0.6,0.1c-0.1-0.1-1-1-1.6-1.6l-0.8-0.7c-0.3-0.3-0.4-0.3-0.6,0l-1.2,1.3c-0.3,0.3-0.3,0.4,0,0.6
		l0.6,0.5c0.5,0.5,1.5,1.4,1.6,1.5c0.2,0.2,0.2,0.3,0,0.6l-0.5,0.5c-0.2,0.3-0.3,0.3-0.6,0.1c-0.1-0.1-1.1-1-1.6-1.5l-0.6-0.5
		c-0.3-0.3-0.4-0.3-0.6,0l-1.7,1.8c-0.3,0.3-0.3,0.4,0,0.6L153.5,39z"/>
</g>
</svg>
