<?xml version="1.0" encoding="utf-8"?>
<!-- Generator: Adobe Illustrator 25.4.1, SVG Export Plug-In . SVG Version: 6.00 Build 0)  -->
<svg version="1.1" id="レイヤー_1" xmlns="http://www.w3.org/2000/svg" xmlns:xlink="http://www.w3.org/1999/xlink" x="0px"
	 y="0px" viewBox="0 0 162 42" style="enable-background:new 0 0 162 42;" xml:space="preserve">
<style type="text/css">
	.st0{fill:#FFFFFF;}
</style>
<g>
	<path class="st0" d="M11.6,32.3c0.1,0.1,0.1,0.2,0,0.5c-0.3,0.7-1,1.5-1.6,2.1c-2.4,2.1-5.3,1.8-7.3-0.6c-2.1-2.4-2.3-5.6,0.6-8.1
		c0.6-0.5,1.2-0.9,1.9-1.1c0.2-0.1,0.4-0.1,0.5,0c0,0.1,0.1,0.1,0.1,0.3l0.3,0.9c0.1,0.2,0.1,0.3,0,0.4c-0.1,0-0.1,0.1-0.3,0.1
		c-0.5,0.1-1,0.4-1.5,0.8C2.4,29.2,2.6,31.4,4,33c1.4,1.6,3.4,1.8,5,0.4c0.5-0.4,0.9-0.9,1.1-1.4c0.1-0.1,0.1-0.2,0.2-0.3
		c0.1-0.1,0.2-0.1,0.4,0.1l0.7,0.4C11.5,32.2,11.6,32.2,11.6,32.3z"/>
	<path class="st0" d="M26.1,18.8c1.3,2.2,0.7,4.4-1.4,5.6c-1.9,1.1-4,0.6-5.2-1.4c-1.2-2.1-0.8-4.4,1.4-5.7
		C22.8,16.3,25,16.8,26.1,18.8z M21.1,22.1c0.7,1.2,1.9,1.6,2.9,1c1.1-0.7,1.4-2,0.7-3.3c-0.7-1.2-1.9-1.6-3-1
		C20.5,19.5,20.4,20.9,21.1,22.1z"/>
	<path class="st0" d="M39.7,14.5c0.2,0.6,0.7,1.8,0.7,1.9c0.1,0.3,0,0.4-0.3,0.5l-0.8,0.3c-0.3,0.1-0.4,0.1-0.5-0.2
		c0-0.1-0.4-1.3-0.7-1.9l-1-2.8c-0.2-0.6-0.7-1.8-0.7-1.9c-0.1-0.3,0-0.4,0.3-0.5l0.7-0.2c0.3-0.1,0.4-0.1,0.6,0.3
		c0.1,0.2,0.1,0.3,0.2,0.2c0,0,0.1-0.1,0.2-0.2c0.4-0.6,1-1.1,1.8-1.4c1.5-0.5,2.8,0.1,3.4,1.7l0.9,2.6c0.2,0.6,0.7,1.8,0.7,1.9
		c0.1,0.3,0,0.4-0.3,0.5L44,15.6c-0.3,0.1-0.4,0.1-0.5-0.2c0-0.1-0.4-1.3-0.7-1.9L42,11.3c-0.3-0.9-1-1.3-1.9-1
		c-0.4,0.2-0.9,0.5-1.2,1c-0.2,0.3-0.2,0.4-0.1,0.8L39.7,14.5z"/>
	<path class="st0" d="M61.1,10.7c0.1,0.4,0,0.5-0.3,0.6c-0.2,0.1-0.5,0.2-0.8,0.2c-1.8,0.3-2.6-0.4-2.9-2l-0.6-3.4
		c-0.1-0.3-0.1-0.4-0.4-0.3c-0.2,0-0.4,0.1-0.5,0.1C55.1,6,55.1,6,55,5.6L54.9,5c-0.1-0.4,0-0.5,0.4-0.5c0.1,0,0.4-0.1,0.5-0.1
		C56,4.3,56,4.2,56,3.9c-0.1-0.5-0.3-1.3-0.3-1.4c-0.1-0.3,0-0.4,0.4-0.5l0.8-0.2c0.3-0.1,0.4,0,0.5,0.3c0,0.1,0.1,0.9,0.2,1.4
		C57.7,3.9,57.7,4,58,3.9l0.4-0.1c0.3-0.1,0.7-0.2,0.9-0.2c0.4-0.1,0.5,0,0.5,0.4L60,4.7C60,5,60,5.1,59.6,5.2
		c-0.1,0-0.6,0.1-0.9,0.2l-0.3,0.1C58,5.5,58,5.5,58,5.9l0.6,3.1c0.2,0.9,0.6,1.1,1.4,0.9c0.3-0.1,0.6-0.2,0.7-0.2
		c0.2,0,0.2,0.1,0.3,0.4L61.1,10.7z"/>
	<path class="st0" d="M77.8,9.8c-0.4,0-0.4,0-0.5-0.4c0-0.2,0-0.3-0.1-0.3c0,0-0.1,0-0.2,0.1c-0.6,0.4-1.4,0.7-2.2,0.8
		c-1.3,0-2.3-0.6-2.4-2c-0.1-1.9,2.2-2.9,4.2-3.1c0.3,0,0.4-0.1,0.4-0.3c0-0.2-0.1-0.5-0.3-0.7c-0.2-0.3-0.6-0.5-1.2-0.4
		c-0.7,0-1.5,0.3-2,0.7c-0.1,0.1-0.2,0.1-0.3,0.1c-0.1,0-0.2-0.1-0.3-0.3l-0.3-0.7c-0.1-0.1-0.1-0.2-0.1-0.3c0-0.1,0.1-0.2,0.3-0.3
		c0.8-0.4,1.9-0.7,2.8-0.8c1.9-0.1,2.9,0.8,3,3l0,2.3c0,0.9,0.1,2,0.1,2.2c0,0.3-0.1,0.3-0.4,0.3L77.8,9.8z M76.9,6.2
		c-0.1,0-0.1,0-0.2,0c-1.4,0.2-2.6,0.8-2.6,1.5c0,0.5,0.4,0.8,1.1,0.7c0.5,0,1.1-0.2,1.6-0.6c0.3-0.2,0.4-0.3,0.4-0.7l0-0.7
		C77.1,6.3,77.1,6.2,76.9,6.2z"/>
	<path class="st0" d="M96.6,10.4c0,0.1-0.1,0.2-0.4,0.3c-0.5,0.2-1.2,0.2-1.9,0.1c-2.6-0.3-3.4-2.3-3.2-4.1c0.3-2.4,2-4.1,4.7-3.7
		c0.5,0.1,1.1,0.2,1.5,0.4c0.2,0.1,0.3,0.2,0.3,0.3c0,0.1,0,0.1-0.1,0.3l-0.4,0.7C97,5,96.9,5,96.8,5c-0.1,0-0.2-0.1-0.3-0.1
		c-0.3-0.1-0.6-0.3-0.9-0.3c-1.5-0.2-2.6,0.8-2.8,2.3c-0.1,1.1,0.4,2.3,1.9,2.5c0.4,0,0.8,0,1.1-0.1c0.1,0,0.2-0.1,0.3-0.1
		c0.1,0,0.2,0.1,0.2,0.4l0.1,0.6C96.6,10.2,96.6,10.3,96.6,10.4z"/>
	<path class="st0" d="M112.4,14.1c-0.1,0.4-0.2,0.4-0.6,0.4c-0.3,0-0.6-0.1-0.8-0.2c-1.8-0.5-2.2-1.6-1.7-3l1-3.4
		c0.1-0.3,0.1-0.4-0.2-0.5c-0.2-0.1-0.4-0.1-0.5-0.1c-0.4-0.1-0.4-0.2-0.3-0.6l0.2-0.6c0.1-0.4,0.2-0.4,0.6-0.3
		c0.1,0,0.3,0.1,0.5,0.2c0.2,0.1,0.3,0,0.4-0.3c0.1-0.5,0.3-1.3,0.4-1.4c0.1-0.3,0.2-0.3,0.5-0.2l0.8,0.2c0.3,0.1,0.4,0.2,0.3,0.5
		c0,0.1-0.3,0.9-0.4,1.4c-0.1,0.3-0.1,0.4,0.2,0.4l0.4,0.1c0.3,0.1,0.7,0.2,0.9,0.2c0.4,0.1,0.4,0.2,0.3,0.6l-0.2,0.6
		c-0.1,0.4-0.2,0.4-0.6,0.3c-0.1,0-0.6-0.2-0.9-0.3l-0.3-0.1c-0.4-0.1-0.5-0.1-0.6,0.3l-0.9,3.1c-0.2,0.8,0,1.2,0.8,1.4
		c0.3,0.1,0.6,0.1,0.7,0.1c0.2,0.1,0.2,0.2,0.1,0.4L112.4,14.1z"/>
	<path class="st0" d="M144.8,26.6c-1.3,2-3.6,2.1-5.9,0.7c-2.2-1.5-2.8-3.5-1.5-5.5l2.3-3.5c0.5-0.7,1.4-2.2,1.4-2.3
		c0.2-0.3,0.3-0.3,0.6-0.1l0.8,0.5c0.3,0.2,0.3,0.3,0.2,0.6c-0.1,0.1-1,1.5-1.5,2.2l-2.1,3.3c-0.8,1.2-0.5,2.5,0.8,3.4
		c1.3,0.9,2.8,0.8,3.6-0.5l2.1-3.2c0.5-0.7,1.4-2.2,1.4-2.3c0.2-0.3,0.3-0.3,0.6-0.1l0.8,0.5c0.3,0.2,0.3,0.3,0.2,0.6
		c-0.1,0.1-1,1.5-1.5,2.2L144.8,26.6z"/>
	<path class="st0" d="M157.6,39.5c-1.1,1.2-2.6,0.7-3.8-0.4c-0.7-0.6-1.2-1.4-1.4-2.1c-0.1-0.2-0.1-0.3,0-0.4
		c0.1-0.1,0.1-0.1,0.3-0.1l0.6-0.2c0.2-0.1,0.3-0.1,0.4,0c0.1,0.1,0.1,0.1,0.1,0.3c0.1,0.6,0.5,1.3,1,1.7c0.6,0.5,1.1,0.7,1.5,0.3
		c0.3-0.4,0.1-1-0.3-1.7c-0.5-1.1-1.2-2.4-0.1-3.5c0.9-1,2.4-0.9,3.8,0.4c0.6,0.5,1,1.2,1.2,1.7c0.1,0.2,0.1,0.4,0,0.5
		c0,0-0.1,0.1-0.2,0.1l-0.7,0.3c-0.2,0.1-0.3,0.1-0.4,0.1c-0.1-0.1-0.1-0.1-0.1-0.3c-0.2-0.5-0.4-1-0.8-1.4
		c-0.5-0.5-1.1-0.6-1.4-0.3c-0.3,0.3,0,1,0.4,1.8C158,37.1,158.6,38.4,157.6,39.5z"/>
</g>
</svg>
