<?xml version="1.0" encoding="utf-8"?>
<!-- Generator: Adobe Illustrator 25.4.1, SVG Export Plug-In . SVG Version: 6.00 Build 0)  -->
<svg version="1.1" id="レイヤー_1" xmlns="http://www.w3.org/2000/svg" xmlns:xlink="http://www.w3.org/1999/xlink" x="0px"
	 y="0px" viewBox="0 0 162 42" style="enable-background:new 0 0 162 42;" xml:space="preserve">
<style type="text/css">
	.st0{fill:#FFFFFF;}
</style>
<g>
	<path class="st0" d="M16,33.7c0.2,0.3,0.2,0.4,0,0.6c-0.1,0.1-0.2,0.2-0.3,0.3c-2,1.6-3.9,2.2-5.5,2c-0.4,0-0.5,0-0.8,0.2
		c-2.4,1.7-5.3,0.9-7-1.1C0,33.2,0.4,30.1,2.8,28c2.5-2.1,5.6-1.5,7.4,0.7c1.6,1.9,1.8,4.1,0.9,5.9C11,34.9,11,35,11.1,35
		c0,0,0.1,0.1,0.3,0c1-0.1,2.1-0.6,3.1-1.4c0.2-0.1,0.3-0.3,0.5-0.4c0.3-0.3,0.4-0.3,0.6,0L16,33.7z M3.6,34.6
		c1.3,1.6,3.4,2.1,5,0.6c1.5-1.3,1.8-3.4,0.2-5.3c-1.3-1.6-3.4-2-5-0.6C2.2,30.8,2.2,33,3.6,34.6z"/>
	<path class="st0" d="M21.4,27.9c-0.3,0.2-0.4,0.2-0.6-0.1c-0.1-0.2-0.2-0.2-0.2-0.2c0,0-0.1,0.1-0.1,0.2c-0.3,0.7-0.7,1.3-1.4,1.7
		c-1.3,0.9-2.8,0.6-3.7-0.8l-1.5-2.3c-0.4-0.6-1.1-1.6-1.1-1.7c-0.2-0.3-0.1-0.4,0.2-0.6l0.7-0.5c0.3-0.2,0.4-0.2,0.6,0.1
		c0.1,0.1,0.7,1.2,1.1,1.7l1.3,2c0.5,0.8,1.3,1,2.1,0.5c0.4-0.3,0.7-0.7,0.9-1.2c0.1-0.3,0.1-0.5-0.1-0.8l-1.5-2.3
		c-0.4-0.6-1.1-1.6-1.1-1.7c-0.2-0.3-0.1-0.4,0.2-0.6l0.7-0.5c0.3-0.2,0.4-0.2,0.6,0.1c0.1,0.1,0.7,1.2,1.1,1.7l1.6,2.5
		c0.4,0.6,1.1,1.6,1.2,1.7c0.2,0.3,0.1,0.4-0.2,0.6L21.4,27.9z"/>
	<path class="st0" d="M30.8,21.4c0.1,0.1,0.2,0.1,0.2,0.2c0.1,0.1,0,0.2-0.1,0.4c-0.4,0.6-1.2,1.2-2,1.7c-2.4,1.3-4.2,0.2-5.2-1.6
		c-1.1-2.1-0.6-4.4,1.5-5.5c1.7-0.9,3.4-0.2,4.4,1.8c0.4,0.7,0.3,0.9,0,1l-3.8,2c-0.2,0.1-0.3,0.2-0.2,0.4c0.1,0.2,0.4,0.5,0.7,0.6
		c0.6,0.3,1.3,0.3,2.1-0.1c0.6-0.3,1-0.7,1.3-1.2c0.1-0.1,0.2-0.2,0.2-0.2c0.1-0.1,0.2,0,0.4,0.1L30.8,21.4z M27.9,18.6
		c-0.1-0.2-0.3-0.4-0.5-0.5c-0.4-0.3-0.9-0.3-1.5-0.1c-0.7,0.3-1,0.9-1.1,1.5c0,0.2,0,0.6,0,0.7c0.1,0.1,0.2,0.1,0.4,0l2.4-1.2
		C27.9,18.8,28,18.7,27.9,18.6z"/>
	<path class="st0" d="M39.1,16.7c0.6,1.5-0.5,2.7-1.9,3.3c-0.9,0.4-1.8,0.5-2.5,0.4c-0.2,0-0.3-0.1-0.4-0.2c0-0.1,0-0.2,0-0.3l0-0.7
		c0-0.2,0-0.3,0.1-0.4c0.1,0,0.2,0,0.3,0c0.6,0.1,1.4,0.1,1.9-0.2c0.7-0.3,1.1-0.8,0.9-1.3c-0.2-0.5-0.9-0.5-1.7-0.4
		c-1.2,0-2.7,0.1-3.3-1.3c-0.5-1.2,0.1-2.5,1.9-3.3c0.7-0.3,1.5-0.4,2.1-0.4c0.2,0,0.4,0,0.4,0.2c0,0.1,0,0.2,0,0.3l0,0.8
		c0,0.2,0,0.4-0.1,0.4c-0.1,0-0.2,0-0.3,0c-0.5-0.1-1.1,0-1.6,0.2c-0.7,0.3-1,0.7-0.8,1.2c0.2,0.4,0.9,0.4,1.8,0.4
		C37.1,15.3,38.5,15.3,39.1,16.7z"/>
	<path class="st0" d="M47.2,15.7c0.1,0.4,0.1,0.5-0.3,0.6c-0.2,0.1-0.5,0.2-0.8,0.3c-1.8,0.6-2.7-0.1-3.1-1.6l-1.1-3.3
		c-0.1-0.3-0.2-0.3-0.4-0.3c-0.2,0.1-0.4,0.2-0.5,0.2c-0.4,0.1-0.5,0.1-0.6-0.3l-0.2-0.6c-0.1-0.4-0.1-0.5,0.3-0.6
		c0.1,0,0.4-0.1,0.5-0.2c0.2-0.1,0.3-0.1,0.2-0.4c-0.1-0.4-0.4-1.3-0.5-1.4c-0.1-0.3,0-0.4,0.3-0.5l0.8-0.3c0.3-0.1,0.4-0.1,0.5,0.2
		c0,0.1,0.3,0.9,0.4,1.4c0.1,0.3,0.2,0.3,0.4,0.2l0.4-0.1c0.3-0.1,0.7-0.2,0.9-0.3c0.4-0.1,0.5-0.1,0.6,0.3l0.2,0.6
		c0.1,0.4,0.1,0.4-0.3,0.6c-0.1,0-0.6,0.2-0.9,0.3l-0.3,0.1c-0.4,0.1-0.4,0.2-0.3,0.6l1,3c0.3,0.8,0.7,1,1.5,0.7
		c0.3-0.1,0.6-0.3,0.7-0.3c0.2-0.1,0.2,0,0.3,0.3L47.2,15.7z"/>
	<path class="st0" d="M50.5,5c0.2,0.6-0.1,1.3-0.8,1.4c-0.6,0.1-1.1-0.1-1.3-0.7c-0.2-0.6,0.1-1.2,0.8-1.4C49.8,4.2,50.4,4.5,50.5,5
		z M51.5,15c-0.3,0.1-0.4,0-0.5-0.3c0-0.1-0.3-1.3-0.5-2l-0.7-2.9c-0.2-0.7-0.5-1.9-0.5-2c-0.1-0.3,0-0.4,0.3-0.5l0.9-0.2
		c0.3-0.1,0.4,0,0.5,0.3c0,0.1,0.3,1.3,0.5,2l0.7,2.9c0.2,0.7,0.5,1.9,0.5,2c0.1,0.3,0,0.4-0.3,0.5L51.5,15z"/>
	<path class="st0" d="M63.4,8.5c0.4,2.5-0.9,4.4-3.3,4.8c-2.1,0.4-4-0.8-4.4-3.1c-0.4-2.4,0.8-4.4,3.3-4.8C61.2,5,63,6.2,63.4,8.5z
		 M57.5,9.9c0.2,1.4,1.2,2.1,2.4,1.9c1.3-0.2,2-1.4,1.8-2.9c-0.2-1.4-1.3-2.1-2.4-1.9C57.8,7.2,57.3,8.4,57.5,9.9z"/>
	<path class="st0" d="M69.3,9.5c0,0.7,0.2,1.9,0.2,2c0,0.3-0.1,0.4-0.4,0.4L68.2,12c-0.3,0-0.4,0-0.5-0.3c0-0.1-0.1-1.4-0.1-2.1
		l-0.2-2.9c-0.1-0.7-0.2-1.9-0.2-2c0-0.3,0.1-0.4,0.4-0.4l0.7-0.1c0.4,0,0.4,0,0.5,0.4c0,0.2,0.1,0.3,0.1,0.3c0,0,0.1,0,0.2-0.1
		c0.5-0.5,1.2-0.8,2.1-0.9c1.6-0.1,2.7,0.8,2.8,2.5l0.2,2.7c0.1,0.7,0.2,1.9,0.2,2c0,0.3-0.1,0.4-0.4,0.4l-0.9,0.1
		c-0.3,0-0.4,0-0.5-0.3c0-0.1-0.1-1.4-0.1-2.1L72.4,7c-0.1-0.9-0.6-1.5-1.6-1.4c-0.5,0-0.9,0.2-1.4,0.6c-0.2,0.2-0.3,0.4-0.3,0.7
		L69.3,9.5z"/>
	<path class="st0" d="M92,12.2c-0.4,0-0.5-0.1-0.7-0.4l-0.4-0.5c-0.1-0.2-0.2-0.2-0.3-0.3c-0.1,0-0.2,0-0.4,0.1
		c-1.1,0.7-2.4,0.8-3.5,0.7c-2.3-0.2-3.2-1.5-3.1-3C83.8,7.4,84.8,6.6,86,6c0.2-0.1,0.3-0.2,0.3-0.3c0-0.1,0-0.2-0.1-0.3
		c-0.4-0.7-0.6-1.4-0.6-2.2c0.1-1.4,1.3-2.3,3-2.2c1.8,0.1,2.5,1.3,2.4,2.5c-0.1,1.2-0.9,1.9-1.8,2.5c-0.2,0.1-0.2,0.2-0.3,0.3
		c0,0.1,0,0.2,0.2,0.3l1.4,1.6c0.1,0.1,0.2,0.2,0.3,0.2c0.1,0,0.2-0.1,0.3-0.3c0.4-0.7,0.8-1.6,1-2.6c0.1-0.4,0.2-0.4,0.6-0.4
		l0.8,0.1c0.3,0,0.4,0.1,0.4,0.3c0,0.1,0,0.2-0.1,0.3c-0.4,1.6-1,2.8-1.6,3.7c-0.1,0.1-0.1,0.2-0.2,0.3c0,0.1,0.1,0.2,0.2,0.4
		c0.5,0.6,1,1.2,1.5,1.7c0.1,0.1,0.1,0.2,0.1,0.2c0,0.1-0.1,0.1-0.3,0.1L92,12.2z M87.2,7c-0.1,0-0.2,0-0.4,0.1
		c-0.8,0.5-1.4,1-1.5,1.8c-0.1,0.7,0.5,1.4,1.6,1.5c0.7,0.1,1.5,0,2.2-0.4c0.2-0.1,0.3-0.2,0.3-0.3s0-0.2-0.2-0.3l-1.8-2.1
		C87.4,7.1,87.4,7,87.2,7z M88.4,2.4c-0.6-0.1-1.2,0.3-1.2,0.9c0,0.4,0.1,0.9,0.4,1.4C87.7,5,87.8,5,87.9,5.1c0.1,0,0.2,0,0.3-0.1
		c0.6-0.4,1.1-0.8,1.1-1.5C89.4,2.9,89,2.5,88.4,2.4z"/>
	<path class="st0" d="M105.5,12c-0.4-0.1-0.5-0.1-0.7,0.2c-0.3,0.4-0.7,0.9-1.1,1.5c-0.2,0.3-0.3,0.4-0.7,0.3l-1-0.3
		c-0.2-0.1-0.3-0.1-0.3-0.2c0-0.1,0.1-0.1,0.2-0.2c0.7-0.9,1.2-1.6,1.7-2.2l3.4-4.5c0.4-0.6,0.9-1.2,1.4-1.9
		c0.2-0.3,0.3-0.4,0.7-0.3l0.6,0.2c0.4,0.1,0.4,0.2,0.5,0.6c0.1,0.9,0.2,1.7,0.3,2.3l0.9,5.5c0.1,0.9,0.3,1.7,0.5,2.8
		c0,0.1,0,0.2,0,0.3c0,0.1-0.1,0.1-0.4,0.1l-1.1-0.3c-0.4-0.1-0.4-0.2-0.5-0.6c-0.1-0.8-0.1-1.3-0.2-1.9c0-0.4-0.1-0.4-0.5-0.5
		L105.5,12z M106.2,10.2c-0.1,0.1-0.1,0.2-0.1,0.2c0,0.1,0.1,0.2,0.3,0.2l2.5,0.6c0.2,0.1,0.3,0.1,0.4-0.1c0-0.1,0-0.2,0-0.3
		l-0.5-3.7c0-0.2,0-0.3-0.1-0.3c0,0-0.1,0-0.2,0.2L106.2,10.2z"/>
	<path class="st0" d="M117.4,15.7c-0.2,0.6-0.7,1.8-0.7,1.9c-0.1,0.3-0.2,0.3-0.5,0.2l-0.8-0.3c-0.3-0.1-0.4-0.2-0.3-0.5
		c0-0.1,0.5-1.3,0.8-1.9l1-2.8c0.2-0.6,0.7-1.8,0.7-1.9c0.1-0.3,0.2-0.3,0.5-0.2l0.7,0.3c0.3,0.1,0.4,0.2,0.3,0.6
		c-0.1,0.2-0.1,0.3,0,0.3c0,0,0.1,0,0.3,0c0.7-0.2,1.5-0.2,2.2,0.1c1.5,0.6,2.1,1.9,1.5,3.5l-1,2.6c-0.2,0.6-0.7,1.8-0.7,1.9
		c-0.1,0.3-0.2,0.3-0.5,0.2l-0.8-0.3c-0.3-0.1-0.4-0.2-0.3-0.5c0-0.1,0.5-1.3,0.8-1.9l0.8-2.1c0.3-0.9,0.1-1.6-0.9-2
		c-0.4-0.2-1-0.2-1.5,0c-0.3,0.1-0.4,0.2-0.6,0.5L117.4,15.7z"/>
	<path class="st0" d="M130.7,21.7c-0.7,1.5-2.3,1.4-3.7,0.7c-0.8-0.4-1.5-1-2-1.6c-0.1-0.2-0.2-0.3-0.1-0.4c0-0.1,0.1-0.1,0.2-0.2
		l0.5-0.4c0.2-0.1,0.3-0.2,0.4-0.2c0.1,0,0.1,0.1,0.2,0.3c0.3,0.5,0.9,1,1.4,1.3c0.7,0.3,1.3,0.3,1.5-0.2c0.2-0.4-0.3-1-0.8-1.6
		c-0.8-0.9-1.9-1.9-1.2-3.3c0.6-1.2,2-1.6,3.7-0.7c0.7,0.3,1.3,0.8,1.7,1.3c0.1,0.2,0.2,0.3,0.1,0.4c0,0.1-0.1,0.1-0.2,0.2l-0.6,0.5
		c-0.2,0.2-0.3,0.2-0.4,0.2c-0.1,0-0.1-0.1-0.2-0.2c-0.3-0.4-0.7-0.8-1.2-1.1c-0.6-0.3-1.2-0.2-1.4,0.2c-0.2,0.4,0.3,1,0.9,1.6
		C130.4,19.3,131.3,20.3,130.7,21.7z"/>
	<path class="st0" d="M137.3,25.6c-0.5,0.3-0.9,0.7-1.5,1.1c-0.3,0.2-0.4,0.2-0.7,0l-0.2-0.1c-0.3-0.2-0.3-0.3-0.3-0.7
		c0.2-0.6,0.3-1.2,0.4-1.8l0.7-3.4c0.1-0.7,0.3-1.3,0.4-2.1c0-0.1,0-0.2,0.1-0.3c0.1-0.1,0.2-0.1,0.4,0l0.8,0.5
		c0.3,0.2,0.4,0.3,0.3,0.7c-0.2,0.8-0.3,1.4-0.5,2.1l-0.5,2.3c0,0.1,0,0.2,0,0.3c0,0,0.1,0,0.2-0.1l2.2-1.5c0.5-0.3,1-0.7,1.5-1.1
		c0.3-0.2,0.4-0.2,0.8,0l0.1,0.1c0.3,0.2,0.4,0.3,0.3,0.7c-0.1,0.7-0.2,1.3-0.3,1.9l-0.4,2.7c0,0.1,0,0.2,0,0.3s0.1,0,0.2-0.1
		l1.9-1.5c0.6-0.4,1-0.8,1.6-1.3c0.3-0.3,0.4-0.3,0.7-0.1l0.8,0.5c0.2,0.1,0.3,0.2,0.2,0.3c0,0.1-0.1,0.1-0.2,0.2
		c-0.7,0.5-1.2,0.9-1.8,1.3l-2.8,2.1c-0.5,0.4-0.9,0.7-1.4,1.1c-0.3,0.2-0.4,0.2-0.7,0.1l-0.2-0.1c-0.3-0.2-0.3-0.3-0.3-0.7
		c0.1-0.6,0.2-1.2,0.3-1.8l0.5-2.9c0-0.1,0-0.2,0-0.3s-0.1,0-0.3,0.1L137.3,25.6z"/>
	<path class="st0" d="M150.5,36.4c0,0.1-0.1,0.2-0.1,0.3c-0.1,0.1-0.2,0.1-0.4,0.1c-0.8-0.2-1.6-0.6-2.3-1.1
		c-2.1-1.7-1.9-3.8-0.6-5.4c1.5-1.8,3.8-2.3,5.6-0.8c1.5,1.2,1.5,3,0.1,4.8c-0.5,0.6-0.7,0.6-1,0.4l-3.4-2.7
		c-0.2-0.2-0.3-0.2-0.4-0.1c-0.1,0.2-0.3,0.6-0.3,0.9c-0.1,0.6,0.2,1.3,1,1.9c0.5,0.4,1,0.6,1.6,0.8c0.2,0,0.3,0.1,0.3,0.1
		c0.1,0.1,0.1,0.2,0,0.4L150.5,36.4z M151.9,32.6c0.1-0.2,0.2-0.4,0.3-0.7c0.1-0.5-0.1-1-0.5-1.4c-0.6-0.5-1.2-0.6-1.8-0.4
		c-0.2,0.1-0.5,0.2-0.6,0.3c-0.1,0.1,0,0.2,0.2,0.4l2.1,1.7C151.7,32.6,151.8,32.7,151.9,32.6z"/>
	<path class="st0" d="M155.7,39.4c-0.5,0.5-1.3,1.4-1.4,1.5c-0.2,0.2-0.3,0.2-0.6,0l-0.6-0.6c-0.3-0.2-0.3-0.4-0.1-0.6
		c0.1-0.1,1-1,1.5-1.5l2-2.1c0.5-0.5,1.3-1.4,1.4-1.5c0.2-0.2,0.3-0.2,0.6,0L159,35c0.3,0.3,0.3,0.4,0,0.7c-0.2,0.2-0.3,0.4-0.2,0.4
		c0,0,0.1,0.1,0.3,0.1c0.5,0,0.9,0.1,1.4,0.3c0.3,0.1,0.6,0.3,0.7,0.5c0.2,0.2,0.1,0.3-0.1,0.5l-0.8,0.8c-0.2,0.2-0.3,0.2-0.4,0
		c-0.1-0.1-0.1-0.2-0.2-0.3c-0.4-0.4-0.9-0.6-1.6-0.7c-0.3,0-0.5,0-0.7,0.3L155.7,39.4z"/>
</g>
</svg>
