<?xml version="1.0" encoding="utf-8"?>
<!-- Generator: Adobe Illustrator 25.4.1, SVG Export Plug-In . SVG Version: 6.00 Build 0)  -->
<svg version="1.1" id="レイヤー_1" xmlns="http://www.w3.org/2000/svg" xmlns:xlink="http://www.w3.org/1999/xlink" x="0px"
	 y="0px" viewBox="0 0 162 42" style="enable-background:new 0 0 162 42;" xml:space="preserve">
<style type="text/css">
	.st0{fill:#FFFFFF;}
</style>
<g>
	<path class="st0" d="M6.9,35.2c0.6,0.7,1.7,1.9,1.7,2c0.2,0.2,0.2,0.3-0.1,0.6l-0.7,0.6c-0.3,0.2-0.4,0.2-0.6,0
		c-0.1-0.1-1.1-1.4-1.7-2l-3-3.6c-0.6-0.7-1.7-1.9-1.7-2c-0.2-0.2-0.2-0.3,0.1-0.6l0.7-0.6c0.3-0.2,0.4-0.2,0.6,0
		c0.1,0.1,1.1,1.4,1.7,2l0.5,0.6c0.2,0.3,0.4,0.3,0.6,0.1l3.4-2.8c0.3-0.2,0.3-0.4,0.1-0.6l-0.5-0.6c-0.6-0.7-1.7-1.9-1.7-2
		C6,26,6,25.9,6.3,25.6L7,25c0.3-0.2,0.4-0.2,0.6,0c0.1,0.1,1.1,1.4,1.7,2l3,3.6c0.6,0.7,1.7,1.9,1.7,2c0.2,0.2,0.2,0.3-0.1,0.6
		l-0.7,0.6c-0.3,0.2-0.4,0.2-0.6,0c-0.1-0.1-1.1-1.4-1.7-2L10,30.7c-0.2-0.3-0.4-0.3-0.6-0.1L6,33.5c-0.3,0.2-0.3,0.4-0.1,0.6
		L6.9,35.2z"/>
	<path class="st0" d="M21.3,23.1c1.4,2.1,0.9,4.3-1,5.7c-1.8,1.2-3.9,0.8-5.2-1.1c-1.3-2-1.1-4.3,1-5.7
		C17.9,20.8,20.1,21.2,21.3,23.1z M16.6,26.7c0.8,1.2,2,1.4,3,0.8c1.1-0.7,1.3-2.1,0.4-3.3c-0.8-1.2-2-1.4-3-0.8
		C15.8,24.2,15.8,25.5,16.6,26.7z"/>
	<path class="st0" d="M29.2,21c0,0.6,0.1,1.1,0.1,1.8c0,0.4,0,0.5-0.3,0.6l-0.2,0.1c-0.3,0.2-0.4,0.1-0.7-0.1
		c-0.5-0.5-0.9-0.9-1.3-1.2l-2.6-2.3c-0.5-0.4-1-0.9-1.6-1.4c-0.1-0.1-0.2-0.1-0.2-0.2c-0.1-0.1,0-0.2,0.2-0.3l0.9-0.4
		c0.4-0.2,0.4-0.2,0.7,0.1c0.6,0.6,1,1,1.5,1.5l1.7,1.6c0.1,0.1,0.2,0.1,0.2,0.1c0,0,0.1-0.1,0.1-0.3l-0.2-2.7
		c0-0.6-0.1-1.2-0.2-1.9c0-0.4,0-0.5,0.4-0.7l0.1-0.1c0.4-0.2,0.4-0.2,0.7,0.1c0.5,0.5,1,0.9,1.4,1.2l2,1.7c0.1,0.1,0.2,0.1,0.3,0.1
		c0.1,0,0.1-0.1,0-0.2l-0.3-2.3c-0.1-0.7-0.2-1.3-0.3-2.1c-0.1-0.4,0-0.5,0.3-0.7l0.8-0.4c0.2-0.1,0.3-0.1,0.4,0c0,0.1,0,0.1,0,0.3
		c0.1,0.8,0.1,1.5,0.2,2.2l0.3,3.4c0.1,0.6,0.1,1.1,0.2,1.8c0,0.4,0,0.5-0.3,0.6l-0.2,0.1c-0.3,0.2-0.4,0.1-0.7-0.1
		c-0.5-0.4-0.9-0.8-1.3-1.2L29.3,18c-0.1-0.1-0.2-0.1-0.3-0.1C29,17.9,29,18,29,18.1L29.2,21z"/>
	<path class="st0" d="M48.4,14.9c0.1,0.4,0.1,0.5-0.3,0.6c-0.2,0.1-0.5,0.2-0.8,0.3c-1.8,0.6-2.6-0.1-3.1-1.6L43.2,11
		c-0.1-0.3-0.2-0.3-0.4-0.3c-0.2,0.1-0.4,0.1-0.5,0.2c-0.4,0.1-0.5,0.1-0.6-0.3L41.5,10c-0.1-0.4-0.1-0.5,0.3-0.6
		c0.1,0,0.4-0.1,0.5-0.1c0.2-0.1,0.3-0.1,0.2-0.4c-0.1-0.4-0.4-1.3-0.5-1.4c-0.1-0.3,0-0.4,0.3-0.5l0.8-0.3c0.3-0.1,0.4-0.1,0.5,0.2
		c0,0.1,0.3,0.9,0.4,1.4c0.1,0.3,0.2,0.3,0.4,0.2l0.4-0.1c0.3-0.1,0.7-0.2,0.8-0.3c0.4-0.1,0.5-0.1,0.6,0.3l0.2,0.6
		c0.1,0.4,0.1,0.4-0.3,0.6c-0.1,0-0.6,0.2-0.9,0.3L45.1,10c-0.4,0.1-0.4,0.2-0.3,0.6l1,3c0.3,0.8,0.7,1,1.4,0.7
		c0.3-0.1,0.6-0.3,0.7-0.3c0.2-0.1,0.2,0,0.3,0.3L48.4,14.9z"/>
	<path class="st0" d="M58.3,8.8c0.6,2.5-0.7,4.4-3,4.9c-2.1,0.5-4-0.6-4.5-2.8c-0.5-2.4,0.5-4.4,3-4.9C55.9,5.5,57.8,6.6,58.3,8.8z
		 M52.5,10.5c0.3,1.4,1.3,2,2.5,1.8c1.3-0.3,1.9-1.5,1.6-3c-0.3-1.4-1.4-2.1-2.5-1.8C52.7,7.9,52.2,9.1,52.5,10.5z"/>
	<path class="st0" d="M77.6,5.2c0.2,3.5-2.1,5.7-5,5.9c-3.3,0.2-5.3-2.2-5.5-5c-0.2-3.3,1.9-5.7,5-5.9C75.4,0.1,77.4,2.4,77.6,5.2z
		 M68.9,6.1c0.1,2,1.5,3.6,3.6,3.5c2-0.1,3.5-1.7,3.3-4.1c-0.1-2-1.5-3.6-3.7-3.4C70,2.2,68.7,3.9,68.9,6.1z"/>
	<path class="st0" d="M83.3,8.4c0,0.7,0,1.9-0.1,2c0,0.3-0.1,0.4-0.5,0.4l-0.9,0c-0.3,0-0.4-0.1-0.4-0.4c0-0.1,0.1-1.4,0.1-2
		l0.1-2.9c0-0.7,0-1.9,0.1-2c0-0.3,0.1-0.4,0.5-0.4l0.7,0c0.4,0,0.4,0.1,0.4,0.4c0,0.2,0,0.3,0.1,0.3c0,0,0.1,0,0.2-0.1
		c0.6-0.4,1.3-0.6,2.1-0.6c1.6,0.1,2.6,1.1,2.5,2.8l-0.1,2.7c0,0.7,0,1.9-0.1,2c0,0.3-0.1,0.4-0.5,0.4l-0.9,0
		c-0.3,0-0.4-0.1-0.4-0.4c0-0.1,0.1-1.4,0.1-2l0.1-2.3c0-0.9-0.4-1.6-1.4-1.6c-0.5,0-1,0.1-1.4,0.4c-0.3,0.2-0.3,0.3-0.4,0.7
		L83.3,8.4z"/>
	<path class="st0" d="M94.8,11.8c-0.2,0-0.3,0-0.5,0c-1.7-0.2-2.2-1-2-2.8l0.7-6.2c0.1-0.6,0.2-1.9,0.2-2c0-0.3,0.1-0.4,0.5-0.3
		l0.9,0.1c0.3,0,0.4,0.1,0.4,0.4c0,0.1-0.2,1.3-0.3,2L94,9.1c-0.1,0.8,0,1.1,0.8,1.3c0.1,0,0.3,0,0.4,0c0.1,0,0.2,0.1,0.2,0.3
		l-0.1,0.8C95.3,11.7,95.2,11.8,94.8,11.8z"/>
	<path class="st0" d="M99.1,12.4c-0.3-0.1-0.4-0.1-0.4-0.4c0-0.1,0.3-1.3,0.4-2l0.5-2.9c0.1-0.7,0.3-1.9,0.3-2
		c0.1-0.3,0.2-0.4,0.5-0.3l0.9,0.2c0.3,0.1,0.4,0.1,0.4,0.4c0,0.1-0.3,1.3-0.4,2l-0.5,2.9c-0.1,0.7-0.3,1.9-0.3,2
		c-0.1,0.3-0.2,0.4-0.5,0.3L99.1,12.4z M102.3,3c-0.1,0.7-0.6,1.1-1.3,1c-0.6-0.1-1-0.6-0.9-1.2c0.1-0.6,0.6-1.1,1.3-0.9
		C102.1,2,102.4,2.4,102.3,3z"/>
	<path class="st0" d="M106.7,11.5c-0.2,0.7-0.5,1.9-0.5,2c-0.1,0.3-0.2,0.3-0.5,0.3l-0.8-0.2c-0.3-0.1-0.4-0.2-0.3-0.5
		c0-0.1,0.4-1.3,0.5-2l0.7-2.8c0.2-0.7,0.5-1.9,0.5-2c0.1-0.3,0.2-0.3,0.5-0.3l0.7,0.2c0.4,0.1,0.4,0.2,0.3,0.5c0,0.2,0,0.3,0,0.3
		c0,0,0.1,0,0.2,0c0.7-0.3,1.4-0.4,2.2-0.2c1.5,0.4,2.3,1.6,1.8,3.3l-0.7,2.6c-0.2,0.7-0.5,1.9-0.5,2c-0.1,0.3-0.2,0.3-0.5,0.3
		l-0.9-0.2c-0.3-0.1-0.4-0.2-0.3-0.5c0-0.1,0.4-1.3,0.5-2l0.6-2.2c0.2-0.9-0.1-1.6-1.1-1.9c-0.5-0.1-1-0.1-1.5,0.1
		c-0.3,0.1-0.4,0.3-0.5,0.6L106.7,11.5z"/>
	<path class="st0" d="M120.7,17.3c0,0.1,0,0.2,0,0.3c0,0.1-0.2,0.2-0.4,0.2c-0.8,0.1-1.7,0-2.5-0.3c-2.5-0.9-3-3-2.3-4.9
		c0.8-2.2,2.8-3.4,5-2.6c1.8,0.7,2.4,2.3,1.6,4.5c-0.3,0.7-0.4,0.8-0.8,0.7l-4-1.5c-0.3-0.1-0.4-0.1-0.4,0.1c-0.1,0.2-0.1,0.6,0,0.9
		c0.1,0.6,0.6,1.1,1.5,1.5c0.6,0.2,1.2,0.3,1.7,0.2c0.2,0,0.3,0,0.3,0c0.1,0,0.1,0.2,0.2,0.4L120.7,17.3z M120.8,13.3
		c0.1-0.2,0.1-0.5,0-0.7c-0.1-0.5-0.4-0.9-0.9-1.1c-0.7-0.3-1.3-0.1-1.9,0.2c-0.2,0.1-0.4,0.4-0.5,0.5c0,0.1,0,0.2,0.3,0.3l2.5,0.9
		C120.6,13.4,120.7,13.4,120.8,13.3z"/>
	<path class="st0" d="M134,21.5c-0.4,0.8-1.2,2.3-1.2,2.4c-0.2,0.3-0.3,0.3-0.6,0.1l-0.8-0.5c-0.3-0.2-0.4-0.3-0.2-0.5
		c0.1-0.1,0.9-1.5,1.3-2.3l2.7-4.9c0.2-0.3,0.1-0.4-0.2-0.6l-0.4-0.2c-0.6-0.3-1.7-0.9-1.8-0.9c-0.3-0.2-0.3-0.3-0.1-0.6l0.4-0.7
		c0.2-0.3,0.3-0.4,0.5-0.2c0.1,0.1,1.3,0.7,1.9,1.1l2.9,1.6c0.6,0.3,1.9,1,1.9,1c0.3,0.2,0.3,0.3,0.1,0.6l-0.4,0.7
		c-0.2,0.3-0.3,0.4-0.5,0.2c-0.1-0.1-1.2-0.7-1.8-1l-0.4-0.2c-0.3-0.2-0.4-0.1-0.6,0.2L134,21.5z"/>
	<path class="st0" d="M142.4,30.2c-0.3-0.2-0.3-0.3-0.1-0.6c0.1-0.1,0.1-0.2,0-0.3c0,0-0.1,0-0.2,0c-0.8,0-1.6-0.3-2.2-0.7
		c-1.1-0.7-1.5-1.8-0.7-3c1.1-1.6,3.5-1,5.2,0c0.2,0.1,0.3,0.1,0.4,0c0.1-0.1,0.2-0.4,0.2-0.7c0-0.4-0.2-0.7-0.7-1.1
		c-0.6-0.4-1.4-0.6-2-0.6c-0.2,0-0.3,0-0.3-0.1c-0.1-0.1-0.1-0.2,0-0.4l0.1-0.7c0-0.1,0.1-0.2,0.1-0.3c0.1-0.1,0.2-0.1,0.4-0.1
		c0.9,0.1,1.9,0.5,2.7,1c1.6,1.1,1.9,2.4,0.7,4.1l-1.3,1.9c-0.5,0.7-1.1,1.6-1.2,1.8c-0.1,0.2-0.3,0.2-0.5,0L142.4,30.2z
		 M143.7,26.8c-0.1,0-0.1-0.1-0.2-0.1c-1.3-0.6-2.5-0.9-3-0.3c-0.3,0.4-0.1,0.9,0.4,1.2c0.4,0.3,1,0.5,1.6,0.5c0.4,0,0.5,0,0.7-0.3
		l0.4-0.6C143.8,27.1,143.9,26.9,143.7,26.8z"/>
	<path class="st0" d="M148.5,34.9c-0.1-0.1-0.2-0.2-0.4-0.3c-1.4-1.1-1.4-2-0.3-3.4l3.9-4.9c0.4-0.5,1.2-1.5,1.3-1.6
		c0.2-0.2,0.3-0.2,0.6,0l0.7,0.5c0.3,0.2,0.3,0.3,0.1,0.6c-0.1,0.1-0.9,1-1.3,1.6l-3.8,4.8c-0.5,0.6-0.6,1,0,1.5
		c0.1,0.1,0.3,0.2,0.3,0.2c0.1,0.1,0.1,0.2,0,0.4l-0.5,0.6C148.9,35.1,148.8,35.1,148.5,34.9z"/>
	<path class="st0" d="M154.6,36.7c-0.2,0-0.2,0-0.4,0.2c-0.4,0.4-1.2,1.3-1.3,1.4c-0.2,0.2-0.3,0.2-0.6,0l-0.6-0.6
		c-0.3-0.2-0.3-0.3-0.1-0.6c0.1-0.1,1-1,1.4-1.5l4.3-4.6c0.5-0.5,1.3-1.4,1.4-1.5c0.2-0.2,0.3-0.2,0.6,0l0.6,0.6
		c0.3,0.2,0.3,0.3,0.1,0.6c-0.1,0.1-1,1-1.4,1.5l-2.5,2.7c-0.1,0.1-0.2,0.2-0.1,0.3c0,0,0.1,0,0.3,0l1.5-0.1c0.6,0,1.2-0.1,1.8-0.1
		c0.4,0,0.5,0,0.8,0.3l0.8,0.8c0.1,0.1,0.2,0.2,0.1,0.3c0,0-0.1,0.1-0.2,0.1c-0.9,0-1.7,0-2.5,0.1l-0.6,0c-0.2,0-0.3,0-0.4,0.1
		c-0.1,0.1-0.1,0.2-0.1,0.3l-0.5,2.3c-0.2,0.7-0.3,1.5-0.5,2.4c0,0.1,0,0.2-0.1,0.3c-0.1,0.1-0.2,0-0.3-0.1l-0.8-0.7
		c-0.3-0.3-0.3-0.4-0.2-0.7c0.2-0.7,0.4-1.4,0.5-2l0.3-1.2c0-0.2,0.1-0.3,0-0.4c-0.1-0.1-0.2-0.1-0.3-0.1L154.6,36.7z"/>
</g>
</svg>
